<?xml version="1.0" encoding="UTF-8"?>
<svg id="Layer_2" data-name="Layer 2" xmlns="http://www.w3.org/2000/svg" viewBox="0 0 594.1 279.6">
  <defs>
    <style>
      .cls-1 {
        fill: #30546f;
      }

      .cls-1, .cls-2, .cls-3, .cls-4, .cls-5, .cls-6, .cls-7, .cls-8, .cls-9, .cls-10, .cls-11, .cls-12, .cls-13, .cls-14, .cls-15 {
        stroke-width: 0px;
      }

      .cls-2 {
        fill: #ab623a;
      }

      .cls-3 {
        fill: #e88156;
      }

      .cls-4 {
        fill: #be75a5;
      }

      .cls-5 {
        fill: #aa498c;
      }

      .cls-6 {
        fill: #5d86a4;
      }

      .cls-7 {
        fill: #f2aa58;
      }

      .cls-8 {
        fill: #a6c3c9;
      }

      .cls-9 {
        fill: #6f393b;
      }

      .cls-10 {
        fill: #e3f0ef;
      }

      .cls-11 {
        fill: #1c2e3b;
      }

      .cls-12 {
        fill: #fae081;
      }

      .cls-13 {
        fill: #a96d4d;
      }

      .cls-14 {
        fill: #d3aac3;
      }

      .cls-15 {
        fill: #aa4a8c;
      }
    </style>
  </defs>
  <g id="Layer_3" data-name="Layer 3">
    <g>
      <path class="cls-10" d="M135.79,67.75h17.18v-8.66h33.96v-7.98h50.58v-8.75c11.32,0,22.35,0,33.71.31.33,5.57.33,10.83.33,16.48h8.81v8.59c5.68,0,11.07,0,16.47.3.01,2.81.01,5.32.01,8.26h42.62v16.61h8.65v17.3h8.65v16.44c2.81.13,5.18.24,7.65.36v42.21c-2.7.17-5.07.31-7.87.48v16.82c-3.04.16-5.63.3-8.24.44-.17,2.79-.32,5.16-.46,7.55-3,.16-5.59.29-8.43.44,0,5.95,0,11.48-.31,17.02-16.86,0-33.42,0-50.3,0,0,5.95,0,11.25-.3,16.58-2.89.04-5.48.04-8.39.04,0,3.2,0,5.91-.3,8.64-30.98.01-61.66.01-92.79.01v-8.66c-6.07,0-11.69,0-17.31-.31,0-5.58,0-10.84,0-16.46h8.77v-25.16h8.24v-51.34h-8.47v-25.16h-8.66v-17.3c-2.92,0-5.36,0-7.81-.3-.02-2.66-.02-5.03-.02-7.42-3.29-.17-5.88-.3-8.49-.44-.16-3.01-.29-5.6-.45-8.59h-17.02v-8.35ZM245.7,92.95h-7.89c-.16,3.15-.28,5.73-.42,8.42-2.72.15-5.09.28-7.58.42-.14,2.92-.27,5.51-.4,8.23-2.92.14-5.51.27-8.35.41,0,5.71,0,11.09-.06,17.08v8.16h-8.43v8.54h8.54v25.4h8.66v8.54h7.88v8.65c3.1,0,5.84,0,8.61.6v7.3h8.68v8.31h41.74c.15-2.91.29-5.5.45-8.51h17.15c0-5.75,0-11.04.6-16.4h7.97v-8.5c2.81-.13,5.18-.24,7.64-.36v-58.83c-2.69-.16-5.06-.31-7.85-.47v-17.12c-5.97,0-11.49,0-17.09-.6v-6.97h-25.37c0,2.74,0,5.16-.62,7.64-11.08.04-22.15.07-33.86.06Z"/>
      <path class="cls-4" d="M161.8,92.85h7.79v17.3h8.66v25.16h8.47v51.34h-8.24v25.16h-8.77c0,5.62,0,10.88-.31,16.47-2.76.33-5.21.33-7.97.34-5.8,0-11.28,0-16.84,0-.14-2.96-.25-5.25-.37-8h-50.18c-.15-3.06-.28-5.65-.43-8.71h-33.5c-.17-3.07-.31-5.66-.47-8.37-2.93-.16-5.52-.31-8.2-.46-.17-2.96-.32-5.55-.49-8.6h-16.86c-.13-2.77-.25-5.06-.38-7.81h-16.22c-.16-3.06-.29-5.66-.43-8.4-2.91-.16-5.5-.3-8.22-.46-.16-2.93-.31-5.52-.47-8.43H.08c-.03-5.34-.06-10.67.26-16.31,2.85-.3,5.36-.3,8.09-.3.15-3.08.28-5.67.42-8.71h16.87c.17-3.06.31-5.65.47-8.69h16.18c.17-3.06.31-5.65.47-8.7h17.23v-16.56h16.26c.13-2.93.25-5.53.38-8.57h33.56c.15-3.05.27-5.64.42-8.69h51.11Z"/>
      <path class="cls-9" d="M398.62,84.84v-8.24h93.72c.13,2.52.27,5.11.42,8.15h16.18c.16,2.79.3,5.17.47,7.94,2.63.14,5.23.27,8.22.43.14,2.64.27,5.24.43,8.27h24.85c.16,3.01.29,5.61.45,8.65h16.86c.16,3.02.29,5.61.45,8.65h16.18c.17,2.79.31,5.17.47,7.93,2.64.14,5.24.27,8.22.42.14,2.65.27,5.25.42,8.23,2.66.14,5.26.27,8.15.42v24.86c-2.54.13-5.14.26-8.11.42-.14,2.66-.27,5.26-.42,8.3h-16.87c-.15,3.02-.28,5.61-.44,8.65h-16.2c-.15,3.02-.28,5.61-.44,8.65h-16.86c-.16,2.8-.29,5.17-.45,7.98h-24.85c-.15,3.02-.28,5.61-.43,8.65h-24.86c-.15,3.02-.28,5.61-.42,8.5h-76.14c-.13-2.55-.26-5.15-.42-8.19h-16.2c-.15-3.02-.28-5.61-.45-8.83-2.69,0-5.29,0-8.19-.33-.27-8.53-.25-16.73-.26-24.94-.02,0-.02.04.29.03,3,.01,5.69.04,8.37.37,0,5.69,0,11.07,0,16.71,2.82.14,5.18.25,7.8.38.13,2.64.25,5.01.37,7.47h59.79c0-2.74,0-5.16.31-7.61,8.45-.03,16.6-.03,25.12-.03v-8.81h16.55v-8.55h25.69c.13-3.05.25-5.74.38-8.78h7.91v-7.88h16.97v-17.31h-8.62v-8.66h-16.54v-7.88h-17.33v-8.78h-16.66v-8.55h-17.02c-.14-3.05-.27-5.74-.4-8.67-5.73,0-11.04,0-16.38-.3-.02-2.59-.02-4.88-.02-7.51-20.27,0-40.05,0-59.88-.05-.05-.05-.14-.15-.14-.15Z"/>
      <path class="cls-4" d="M271.67,33.69c-.03-2.68-.06-5.36.26-8.33,5.74-.3,11.12-.3,16.73-.3.15-2.84.27-5.21.42-8.03h24.88c.15-3.04.28-5.63.43-8.62h50.41c2.67.02,5.34.03,8.32.39.3,2.85.3,5.36.3,8.26h33.8v7.85h8.77c0,2.98,0,5.59-.35,8.5-2.9.31-5.46.31-8.28.31v8.7s0-.05-.29-.05c-2.97,0-5.66.02-8.65.02-31.04,0-61.77,0-92.7,0-.16,3.09-.29,5.68-.43,8.34h-8.22c-.16-2.86-.3-5.45-.45-8.14-2.71-.17-5.08-.32-7.55-.48-.16-2.94-.31-5.52-.47-8.41h-16.93Z"/>
      <path class="cls-8" d="M339.42,211.96v-17.01c2.84-.15,5.43-.29,8.43-.44.15-2.39.29-4.76.46-7.55,2.61-.14,5.2-.27,8.24-.44v-16.82c2.8-.17,5.17-.32,7.87-.48v-42.21c-2.47-.11-4.84-.23-7.65-.36v-16.44h-8.65v-17.3h-8.65v-16.61h-42.62c0-2.94,0-5.45.3-8.29,11.32-.34,22.35-.34,33.74-.34v-8.61h17.23v8.5h8.66c0,2.91,0,5.51,0,8.72,0,5.85,0,11.09,0,16.63h8s-.05,0-.05.29c0,2.88,0,5.47,0,8.37,3.23,0,5.96,0,8.66,0-.02,0-.02-.04-.02.27,0,5.77,0,11.22,0,17.05,3.18,0,5.9,0,8.63.31.01,16.95.01,33.6,0,50.24,0,0,0-.04-.29-.04-2.89,0-5.49,0-8.35,0v25.33s0-.05-.29-.05c-2.88,0-5.47,0-8.36,0v17.18h-7.98c0,2.89,0,5.49-.29,8.42-5.74.32-11.18.32-17.07.32v-8.65Z"/>
      <path class="cls-15" d="M.04,169.7c2.68-.31,5.33-.31,8.32-.31.16,2.92.31,5.51.47,8.43,2.72.15,5.31.29,8.22.46.14,2.75.27,5.34.43,8.4h16.22c.13,2.76.24,5.04.38,7.81h16.86c.17,3.05.32,5.64.49,8.6,2.68.15,5.27.29,8.2.46.15,2.71.29,5.3.47,8.37h33.5c.15,3.06.28,5.65.43,8.71h50.18c.13,2.75.24,5.04.37,8,5.56,0,11.04,0,16.83.31.3,2.89.3,5.47.3,8.4h-8.64v8.47h-25.21v-8.47h-42.66v-8.59h-25.13c-.13-2.78-.25-5.25-.39-8.05h-16.98v-8.6h-25.36v-8.59h-8.6v-8.71H0c0-8.48,0-16.63.04-25.09Z"/>
      <path class="cls-14" d="M161.78,92.55c-16.91.3-33.84.3-51.09.3-.15,3.05-.27,5.64-.42,8.69h-33.56c-.14,3.05-.25,5.64-.38,8.57h-16.26v16.56h-17.23c-.17,3.05-.31,5.64-.47,8.7h-16.18c-.16,3.04-.31,5.64-.47,8.69H8.85c-.15,3.05-.27,5.64-.42,8.71-2.72,0-5.23,0-8.04,0-.3-5.63-.3-11.26-.3-17.22h8.44v-8.54h8.66v-8.1h8.66v-8.53h16.64v-8.76h17.3v-8.53h16.64v-8.09h25.29v-8.52h25.95v-8.81c2.72,0,5.12,0,7.83.05.31,2.68.31,5.32.31,8.4h17.02c.16,2.99.29,5.58.45,8.59,2.61.13,5.2.27,8.49.44,0,2.39,0,4.75.02,7.42Z"/>
      <path class="cls-15" d="M280.12,237.23c0-2.72,0-5.44,0-8.63,2.92,0,5.5,0,8.7,0,3.07.03,5.53.06,8.01.4.02,5.69.02,11.08.02,16.72,3.08.15,5.67.27,8.47.41.15,2.67.28,5.04.44,7.87h16.85c.17,3.07.32,5.65.46,8.25h67.45c.16-2.88.31-5.47.48-8.52h16.14c.19-2.85.35-5.22.53-7.92h8.38c0-3.1,0-5.83.31-8.56,2.88.01,5.46.01,8.39.01v8.64h7.81v7.9h-7.81v8.71h-8.6v8.6h-25.36v8.5h-67.84v-8.33h-17.25v-8.6h-16.71v-8.81c-2.93,0-5.55,0-8.46-.34-.33-5.66-.37-10.98-.4-16.29Z"/>
      <path class="cls-5" d="M348.43,59.04c-5.93.03-11.54.03-17.54.03v8.61c-11.4,0-22.42,0-33.75.04-5.7.04-11.1.04-16.77.04v-8.59h-8.81c0-5.65,0-10.91-.03-16.47,0-3,.04-5.68.11-8.68,5.56-.31,11.08-.31,16.97-.31.16,2.89.31,5.48.47,8.41,2.46.16,4.83.31,7.55.48.15,2.69.29,5.28.45,8.14h8.22c.14-2.67.27-5.25.43-8.34,30.94,0,61.66,0,92.69.31.3,3,.3,5.68.3,8.37,0,0,0-.05-.29-.05-14.01,0-27.73,0-41.63,0v7.88c-2.68.04-5.37.08-8.36.15Z"/>
      <path class="cls-8" d="M279.81,237.24c.34,5.31.37,10.62.39,16.25-25.36.3-50.72.3-76.42.3v-7.89c-16.92,0-33.5,0-50.38-.04-.31-2.75-.31-5.46-.31-8.52h8.64c0-2.93,0-5.51,0-8.4,2.46-.31,4.91-.32,7.66-.34,5.93-.01,11.54-.01,17.62-.01v8.66c31.13,0,61.81,0,92.79-.01Z"/>
      <path class="cls-14" d="M296.81,228.69c-2.46-.03-4.92-.07-7.69-.13-.31-5.33-.31-10.63-.31-16.58,16.88,0,33.44,0,50.3,0,.31,2.7.31,5.42.31,8.64,5.89,0,11.33,0,17.09-.02,5.64,0,10.96.03,16.59.4.33,2.76.35,5.17.35,7.9-.02,2.9-.02,5.49-.02,8.1h-59.08c-.14-2.83-.27-5.42-.41-8.31h-17.14Z"/>
      <path class="cls-14" d="M364.79,8.11c-16.68.31-33.38.31-50.39.31-.15,2.98-.28,5.57-.43,8.62h-24.88c-.15,2.82-.27,5.18-.42,8.03-5.61,0-11,0-16.69,0-.3-2.53-.3-5.05-.3-7.91h8.43v-8.52h16.63V0h68.03c0,2.58,0,5.19.02,8.11Z"/>
      <path class="cls-7" d="M373.47,228.58c-.02-2.41-.04-4.83-.06-7.54,16.91-.3,33.82-.3,51.07-.3v7.75h8.15c0,5.82,0,11.3-.04,17.09-2.53.31-5.02.31-7.86.31v-8.64c-2.92,0-5.5,0-8.4-.32-.32-2.91-.32-5.51-.32-8.35h-42.55Z"/>
      <path class="cls-9" d="M373.34,92.99h8.5c.14-2.74.27-5.1.42-8.08,5.31,0,10.53,0,16.05-.03.3-.03.4.07.41.41.01,2.63.01,4.91.01,7.38-2.92.2-5.36.37-8.09.55,0,5.9,0,11.4-.3,16.93-2.93.02-5.56.01-8.23-.3-.03-2.88-.03-5.46-.03-8.31h-8.69s0,.04.01-.26c-.02-2.97-.04-5.63-.07-8.28Z"/>
      <path class="cls-7" d="M357.1,58.94c-.31-2.46-.31-4.88-.31-7.92,13.9,0,27.62,0,41.66,0,.32,2.53.32,5.05.32,7.96-13.97,0-27.66,0-41.66-.04Z"/>
      <path class="cls-7" d="M373.72,194.72c-.31-8.24-.31-16.5-.31-25.31,2.86,0,5.46,0,8.37,0,.3,8.2.28,16.4.24,24.91-2.68.33-5.34.36-8.3.4Z"/>
      <path class="cls-7" d="M365.06,211.92c-.31-5.61-.31-11.18-.31-17.23,2.9,0,5.49,0,8.39,0,.31,5.62.31,11.25.31,17.28-2.86,0-5.47,0-8.39-.05Z"/>
      <path class="cls-14" d="M390.75,16.76c-5.6.31-11.22.31-17.32.31,0-2.9,0-5.41,0-8.21,5.63-.3,11.25-.3,17.3-.3,0,2.68,0,5.29.02,8.21Z"/>
      <path class="cls-7" d="M364.78,92.61c-2.49.31-5,.31-7.98.31,0-5.54,0-10.78.04-16.33,2.55-.31,5.06-.31,7.93-.31,0,5.51,0,10.76.02,16.32Z"/>
      <path class="cls-7" d="M399.02,51.04c-.31-2.66-.31-5.35-.29-8.34,2.7-.31,5.38-.32,8.38-.33.31,2.75.31,5.49.31,8.65-2.87,0-5.48,0-8.4.02Z"/>
      <path class="cls-7" d="M407.68,42.4c-.31-2.68-.31-5.39-.31-8.68,2.82,0,5.37,0,8.23,0,.3,2.74.3,5.48.3,8.65-2.69,0-5.31,0-8.23.02Z"/>
      <path class="cls-7" d="M373.04,92.96c.33,2.69.36,5.35.39,8.31-2.72.31-5.44.31-8.67.31,0-2.9,0-5.49,0-8.39,2.66-.29,5.32-.27,8.28-.23Z"/>
      <path class="cls-4" d="M246.22,186.8h-8.58v-8.65h-7.88v-8.54h-8.66v-25.4h-8.54v-8.54h8.43c0-2.96,0-5.56.33-8.48,2.95-.34,5.57-.35,8.23-.06.04,11.34.04,22.36.04,33.79h8.16v8.63h8.64v8.62c8.57,0,16.85,0,25.14.3,0,2.8,0,5.3,0,8.25-2.99,0-5.49,0-8.31,0-5.88.03-11.45.05-17.02.08Z"/>
      <path class="cls-8" d="M305.62,92.82h17.02v17.12c2.79.17,5.16.31,7.85.47v58.83c-2.46.12-4.83.23-7.64.36v8.5c-2.95,0-5.46,0-8.32-.01-.35-.01-.44-.11-.41-.41.03-5.78.03-11.26.03-17.1h8.42v-41.8h-8.43v-17.03c-3.06-.14-5.75-.26-8.69-.39,0-3.05,0-5.7.05-8.4.05-.05.14-.14.14-.14Z"/>
      <path class="cls-8" d="M246.24,187.1c5.56-.33,11.12-.36,17.01-.08.32,2.69.32,5.07.32,7.4h16.75v-7.76h25.01c.14-3.05.26-5.74.39-8.68h8.36s.09.09.14.14c.05,5.34.05,10.64.05,16.39h-17.15c-.16,3.01-.3,5.6-.45,8.51h-41.74v-8.31h-8.68c0-2.73,0-5.02-.01-7.61Z"/>
      <path class="cls-4" d="M246.33,93c11.08-.04,22.15-.07,33.85-.11,5.99.04,11.35.08,16.71.42-.03,2.97-.04,5.64-.36,8.29-16.94,0-33.57.02-50.21-.27,0-2.98,0-5.65.02-8.32Z"/>
      <path class="cls-14" d="M246.01,92.98c.3,2.7.29,5.37.27,8.65,0,3.22,0,5.82,0,8.76h-8.78v8.53h-7.98v7.9c-2.62.01-5.24.03-8.16.06-.3-5.36-.3-10.75-.3-16.45,2.85-.14,5.43-.26,8.35-.41.13-2.72.26-5.31.4-8.23,2.49-.14,4.86-.27,7.58-.42.13-2.69.26-5.27.42-8.42,2.7,0,5.3,0,8.21.03Z"/>
      <path class="cls-8" d="M296.9,93.01c-5.37-.04-10.73-.08-16.41-.15-.31-2.45-.31-4.87-.31-7.6h25.37c0,2.4,0,4.68.04,7.27.04.3-.06.39-.41.4-2.99.04-5.63.06-8.28.08Z"/>
      <path class="cls-3" d="M458.68,92.84h16.36c.14,2.93.26,5.61.4,8.67h17.02v8.55h16.66v8.78h17.33v7.88h16.54v8.66h8.62v17.31h-16.97v7.88h-7.91c-.13,3.04-.25,5.73-.38,8.78h-25.69v8.55h-16.55v8.81c-8.52,0-16.66,0-25.43,0-11.62,0-22.62,0-33.81,0-.15-3.14-.27-5.72-.42-8.71h-25.76c0-3.15,0-5.87.31-8.6,19.99,0,39.67,0,59.43,0,.14-3.19.26-5.7.39-8.68h24.86c.17-2.85.31-5.22.48-8.06h16.17c.18-3.08.33-5.67.48-8.32,2.98-.18,5.57-.33,8.14-.48v-8.42h-16.16c-.17-3.07-.31-5.66-.48-8.73h-16.81c-.19-2.86-.35-5.23-.55-8.06h-16.16c-.14-3-.25-5.51-.39-8.5-17.22,0-34.16,0-51.08-.31.02-2.82.02-5.33.02-8.31h8.49c.14-3.05.25-5.64.39-8.71h42.46Z"/>
      <path class="cls-2" d="M398.69,169.42v8.6h25.76c.14,2.99.27,5.58.42,8.71,11.19,0,22.18,0,33.5.02.32,2.45.32,4.87.32,7.61h-59.79c-.12-2.46-.24-4.83-.37-7.47-2.61-.13-4.98-.24-7.8-.38,0-5.64,0-11.02-.03-16.76-.03-.36-.04-.49.27-.44,2.79.07,5.26.09,7.74.11,0,0-.01,0-.01,0Z"/>
      <path class="cls-2" d="M458.66,92.54c-14.03.3-28.09.3-42.44.3-.14,3.07-.25,5.66-.39,8.71h-8.49c0,2.97,0,5.49-.32,8.32-2.97.35-5.63.38-8.59.39-2.75,0-5.19.02-7.67,0-.04-.05-.11-.15-.11-.15v-16.9c2.73-.19,5.18-.35,8.09-.55,0-2.47,0-4.75.03-7.33,19.81-.3,39.59-.3,59.87-.3,0,2.63,0,4.92.02,7.51Z"/>
      <path class="cls-7" d="M382.36,169.44c-.31-16.63-.31-33.27-.3-50.24,0-.33.04-.36.34-.35,2.97-.03,5.63-.07,8.31-.05.02.06.04.18.03.48-.01,14.02-.01,27.75-.02,41.78-.02,2.94-.05,5.58-.07,8.21,0,0,0,.13.04.18-2.65.03-5.34,0-8.33-.01Z"/>
      <path class="cls-7" d="M373.4,101.85c2.72-.31,5.44-.31,8.68-.31,0,2.85,0,5.43,0,8.62,0,3.3,0,5.99,0,8.67,0,0-.03.03-.05.05-2.74.02-5.46.02-8.64.02,0-5.83,0-11.28,0-17.05Z"/>
      <path class="cls-4" d="M373.45,228.9c13.98-.31,27.95-.31,42.57-.31,0,2.84,0,5.44.01,8.34.01,3.04.01,5.78.01,8.88h-8.38c-.18,2.71-.34,5.07-.53,7.92h-16.14c-.17,3.05-.32,5.64-.48,8.52h-67.45c-.15-2.6-.29-5.19-.46-8.25h-16.85c-.16-2.83-.29-5.2-.44-7.87-2.79-.13-5.38-.26-8.47-.41,0-5.63,0-11.02-.02-16.72,5.59-.31,11.2-.31,17.12-.31.14,2.89.27,5.48.41,8.31h59.08c0-2.61,0-5.2.02-8.1Z"/>
      <path class="cls-13" d="M382.4,118.84c-.31-2.7-.31-5.38-.28-8.38,2.66-.3,5.29-.29,8.22-.31.3-.03.37.07.39.41,0,2.96-.02,5.56-.04,8.17-2.66.04-5.33.08-8.29.11Z"/>
      <path class="cls-11" d="M229.56,127.13c-.04-2.83-.04-5.35-.04-8.21h7.98v-8.53h8.78c0-2.94,0-5.54.02-8.45,16.65-.32,33.28-.34,50.23-.04.32,2.92.32,5.52.32,8.45h8.71v16.57h8.39v25.92c-2.95,0-5.69,0-8.43-.31-.03-3.03-.06-5.74-.06-8.76.03-2.9.03-5.5.03-8.44h-8.72v-16.27c-2.81-.15-5.28-.29-8.08-.44v-8.17h-16.82v8.6h8.46v7.84h8.46c0,3.08,0,5.82-.31,8.57-8.51.02-16.71.03-24.91-.28,0-5.56,0-10.81,0-16.11h-17.39c0,2.71,0,5.21-.3,7.74-2.81.02-5.32.02-8.03.02v25.97h8.22c.14,2.82.26,5.19.39,7.8,2.87.13,5.46.24,8.28.37.13,2.88.25,5.47.38,8.22h33.77v-8.21c2.82-.14,5.19-.26,7.79-.39.13-2.66.25-5.02.39-7.78,3.03,0,5.77,0,8.49.31-.02,5.56-.02,10.81-.02,16.37h-8.75v8.69h-50.37v-8.62h-8.64v-8.63h-8.16c0-11.43,0-22.45-.04-33.79Z"/>
      <path class="cls-15" d="M271.55,178.47c8.26-.3,16.52-.3,25.23-.3v-8.69h8.75c0-5.57,0-10.81,0-16.38,0-.31,0-.26,0-.26h8.43v-25.92h-8.39v-16.57h-8.71c0-2.93,0-5.53,0-8.43,0-2.97.02-5.64.04-8.61,2.66-.32,5.3-.34,8.24-.34.3,2.68.3,5.33.3,8.38,2.95.13,5.64.25,8.69.39v17.03h8.43v41.8h-8.42c0,5.85,0,11.32-.03,17.1-2.68.3-5.33.3-8.39.3-.13,2.94-.25,5.63-.39,8.68h-25.01v7.76h-16.75c0-2.33,0-4.71,0-7.4,2.5-.31,5.01-.31,7.99-.31,0-2.95,0-5.45,0-8.25Z"/>
      <path class="cls-7" d="M398.74,110.29c2.65-.03,5.31-.06,8.26-.11,17.24-.02,34.17-.02,51.4-.02.14,2.99.25,5.49.39,8.5h16.16c.19,2.84.35,5.21.55,8.06h16.81c.17,3.06.31,5.65.48,8.73h16.16v8.42c-2.58.15-5.16.31-8.14.48-.15,2.65-.3,5.24-.48,8.32h-16.17c-.17,2.84-.31,5.21-.48,8.06h-24.86c-.13,2.99-.25,5.49-.39,8.68-19.77,0-39.44,0-59.43,0-.31,0-.3,0-.3-.31,0-2.99,0-5.68,0-8.67,0-2.67,0-5.04,0-7.86h17.1c.17-3.04.31-5.63.46-8.25,3-.17,5.59-.31,8.05-.44v-8.51h-8.3v-8.54h-17.32c0-2.95,0-5.46,0-8.28.01-2.97.03-5.62.04-8.28Z"/>
      <path class="cls-3" d="M398.7,160.75c0,2.69,0,5.38,0,8.37-2.48.29-4.95.26-7.74.19-.29-2.68-.26-5.32.07-8.25,2.76-.31,5.22-.31,7.67-.31Z"/>
      <path class="cls-3" d="M398.43,110.27c.3,2.68.28,5.34-.03,8.3-2.75.34-5.2.37-7.64.41,0,0-.03-.12-.04-.18,0-2.67.02-5.28.06-8.18,2.47-.32,4.91-.35,7.66-.34Z"/>
      <path class="cls-12" d="M390.74,119.28c2.46-.34,4.9-.37,7.65-.4.31,2.51.31,5.02.31,7.97h17.32v8.54h8.3v8.51c-2.47.14-5.05.28-8.05.44-.14,2.62-.29,5.2-.46,8.25h-17.1c0,2.82,0,5.18,0,7.86-2.46.31-4.91.31-7.67.31-.3-13.73-.3-27.45-.29-41.48Z"/>
      <path class="cls-1" d="M305.44,144.07c.03,2.72.05,5.43.08,8.46,0,.31,0,.26.02.27-2.71,0-5.45,0-8.48,0-.14,2.75-.26,5.12-.39,7.78-2.59.13-4.96.25-7.79.39v8.21h-33.77c-.13-2.76-.24-5.34-.38-8.22-2.82-.12-5.41-.24-8.28-.37-.13-2.61-.25-4.98-.39-7.8h-8.22v-25.97c2.71,0,5.22,0,8.06.3.33,2.88.33,5.46.33,8.37h17.32c8.2,0,16.41-.01,24.95.28.33,2.87.33,5.45.33,8.3h16.6Z"/>
      <path class="cls-6" d="M305.47,143.77c-5.37.3-10.71.3-16.62.3,0-2.85,0-5.43-.03-8.32-.03-3.05-.03-5.78-.03-8.86h-8.46v-7.84h-8.46v-8.6h16.82v8.17c2.8.15,5.27.29,8.08.44v16.27h8.72c0,2.94,0,5.54-.03,8.44Z"/>
      <path class="cls-6" d="M263.57,135.18c-5.58.31-11.16.31-17.33.31,0-2.91,0-5.49-.03-8.39-.03-2.82-.03-5.33-.03-8.03h17.39c0,5.3,0,10.55,0,16.11Z"/>
    </g>
  </g>
</svg>