<?xml version="1.0" encoding="UTF-8"?>
<svg id="Layer_2" data-name="Layer 2" xmlns="http://www.w3.org/2000/svg" viewBox="0 0 143.51 169.39">
  <defs>
    <style>
      .cls-1 {
        fill: #9b2f7d;
      }

      .cls-1, .cls-2, .cls-3, .cls-4, .cls-5, .cls-6, .cls-7, .cls-8, .cls-9 {
        stroke-width: 0px;
      }

      .cls-2 {
        fill: #be75a5;
      }

      .cls-3 {
        fill: #5ebed7;
      }

      .cls-4 {
        fill: #fff;
      }

      .cls-5 {
        fill: #a6c3c9;
      }

      .cls-6 {
        fill: #e3f0ef;
      }

      .cls-7 {
        fill: #d2a9c2;
      }

      .cls-8 {
        fill: #8bcadc;
      }

      .cls-9 {
        fill: #aa4a8c;
      }
    </style>
  </defs>
  <g id="Layer_8" data-name="Layer 8">
    <g>
      <path class="cls-6" d="M75.66.09h17.19v8.48h16.69v16.67h8.58v17.1h8.53v41.94h-8.27v8.7h-8.8c0,2.9,0,5.51-.3,8.44-14.07.31-27.84.3-41.63-.02,0-2.89,0-5.47,0-8.28h-33.99s.03-.02.03-.32c0-2.87,0-5.44,0-8.33h-8.68s.03-.02.03-.32c0-11.31,0-22.33,0-33.31h8.83v17.08c2.87,0,5.3,0,7.75.3.04,2.87.04,5.45.04,8.36,3.33,0,5.96,0,8.62.3.03,2.58.03,4.86.03,7.28h34.01c0-2.71,0-5.12.3-7.59,2.89-.05,5.47-.05,8.34-.05,0-3.25,0-5.96.31-8.68,2.67,0,5.04,0,7.58,0,0-6.1,0-11.67.03-17.56.03-5.54.03-10.76.03-16.36-2.97,0-5.47,0-7.96-.31,0-2.88,0-5.45,0-8.26-3.28,0-5.99,0-9.01-.03-8.51-.09-16.71-.14-24.92-.5,0-2.8,0-5.29,0-8.22h8.41c.18-2.87.34-5.31.5-7.77,2.77-.16,5.13-.3,7.76-.46V.09Z"/>
      <path class="cls-5" d="M75.35.04c.31,2.68.31,5.31.31,8.32-2.63.16-4.99.29-7.76.46-.16,2.46-.31,4.91-.5,7.77h-8.41c0,2.92,0,5.42,0,8.29,0,.37-.03.52-.33.47-2.88-.05-5.46-.05-8.31-.05,0,3.19,0,5.9-.31,8.61-2.9,0-5.5,0-8.27,0,0,11.64,0,22.74-.05,33.88-.05.05-.14.14-.14.14h-7.72v-17.08h-8.83c0,10.98,0,22,0,33.33-2.76.31-5.51.31-8.45.31v-41.83h8.31v-17.31h8.67V8.82h16.66V0c8.51,0,16.67,0,25.14.04Z"/>
      <path class="cls-9" d="M84.31,135.73v25.17h-8.54v8.42h-8.05v-8.2h-8.74c0-8.46,0-16.61,0-25.37,0-6.19,0-11.76.3-17.34,2.91-.01,5.51-.01,8.18-.01.14-2.96.26-5.33.37-7.74h7.85v7.72c3.13,0,5.87,0,8.6.31,0,5.89.02,11.46.02,17.04Z"/>
      <path class="cls-9" d="M7.69,118.31v-7.87h17.23v-8.7c2.93,0,5.54,0,8.76,0,3.06.04,5.51.07,7.97.41.01,2.8.01,5.3.01,8.07,3.06.14,5.64.25,8.67.38,0,2.78,0,5.28,0,8.09,0,5.84-.01,11.36-.02,16.89h-16.49v-8.53c-2.91,0-5.5,0-8.72,0-6.08,0-11.53,0-17.42,0v-8.74Z"/>
      <path class="cls-1" d="M7.38,118.34c.3,2.69.3,5.42.3,8.72,5.89,0,11.34,0,17.11.01.32,14.05.32,28.08.32,42.33h-8.61v-8.25H7.87v-16.73H0v-26.05c2.32,0,4.7,0,7.38-.03Z"/>
      <path class="cls-9" d="M143.42,135.66v8.54h-8.42v25.18h-8.01v-8.34h-8.76c0-11.33,0-22.33,0-33.96.02-3.29.04-5.96.36-8.65,2.95-.05,5.59-.08,8.55-.09,2.81.02,5.31.02,7.81.02,0,0-.05,0-.06.3,0,5.77,0,11.25,0,17h8.53Z"/>
      <path class="cls-7" d="M126.83,118.32c-2.64.03-5.29.06-8.55.09h-8.46c-.2-3.03-.36-5.4-.5-7.66h-25.03v7.63h-8.6v-7.72h-7.85c-.12,2.41-.23,4.78-.37,7.74-2.68,0-5.28,0-8.16,0-.29,0-.27-.05-.28-.36-.03-5.61-.04-10.92.25-16.23,3.01-.04,5.71-.06,8.41-.08,13.77.01,27.55.02,41.64.02,3.05,0,5.78,0,8.83,0v8.69c2.91,0,5.51,0,8.42.34.3,2.75.28,5.15.26,7.56Z"/>
      <path class="cls-2" d="M84.28,118.69c0-2.74,0-5.17,0-7.94h25.03c.15,2.26.3,4.62.5,7.66,2.64,0,5.24,0,8.16.02.29,2.69.27,5.36.24,8.34-2.74.31-5.48.31-8.58.31v8.61c-8.48,0-16.6,0-25.02.02-.32-5.56-.32-11.13-.33-17.02Z"/>
      <path class="cls-5" d="M67.66,101.41c-2.69.33-5.39.35-8.7.37-6.19.02-11.75.04-17.32.07-2.45-.04-4.89-.07-7.65-.14-.3-2.67-.3-5.32-.32-8.27,11.1-.31,22.21-.31,33.98-.31,0,2.81,0,5.39,0,8.28Z"/>
      <path class="cls-2" d="M143.46,135.35c-2.68.31-5.32.31-8.58.31,0-5.76,0-11.23,0-17.03,2.74-.32,5.48-.32,8.61-.32,0,5.79,0,11.26-.04,17.04Z"/>
      <path class="cls-1" d="M50.62,135.61c-.3-5.56-.29-11.09.02-16.92,3-.32,5.69-.34,8.38-.35,0,0-.02.05-.04.06-.02,5.58-.02,11.15-.03,17.04-2.68.28-5.36.24-8.33.17Z"/>
      <path class="cls-5" d="M25.02,84.79c2.7-.31,5.41-.31,8.66-.31,0,2.89,0,5.46,0,8.35-2.75.31-5.49.31-8.64.31,0-2.83,0-5.44-.01-8.35Z"/>
      <path class="cls-2" d="M127.14,118.34c-.3-2.42-.28-4.83-.27-7.53,2.51-.3,5.03-.3,8.02-.3,0,2.48,0,4.86.03,7.54-2.47.31-4.97.31-7.78.29Z"/>
      <path class="cls-5" d="M84.3,76.62v7.54h-34.01c0-2.41,0-4.69.01-7.32.01-.35.11-.44.41-.41,11.38-.01,22.46-.05,33.54-.02,0,.07.04.21.04.21Z"/>
      <path class="cls-2" d="M58.99,25.19c8.22-.01,16.42.04,24.94.43.32,2.95.31,5.57,0,8.23-2.96.08-5.62.12-8.59.12-5.66-.08-11.01-.13-16.36-.48,0-2.9-.01-5.5-.02-8.09,0,0,.02-.14.03-.22Z"/>
      <path class="cls-2" d="M100.84,50.59v17.24c-2.55,0-4.91,0-7.59,0-.31,0-.32-.01-.32-.32-.03-2.98-.06-5.65-.06-8.62.03-2.99.02-5.67.03-8.36.01-.01.04-.02.35,0,2.73.03,5.16.05,7.59.07Z"/>
      <path class="cls-7" d="M100.87,50.28c-2.45.29-4.88.27-7.62-.07-.3-5.65-.3-10.99-.3-16.32,0,0-.02.02-.02.02h7.97c0,5.6,0,10.82-.03,16.36Z"/>
      <path class="cls-7" d="M84.24,33.81c0-2.62.02-5.24,0-8.17,2.7-.3,5.41-.3,8.69-.3,0,2.81,0,5.38,0,8.26,0,.31.01.29-.29.29-3-.03-5.7-.06-8.4-.09Z"/>
      <path class="cls-5" d="M50.28,76.54c-2.67.05-5.3.05-8.63.05,0-2.91,0-5.48-.04-8.36-.04-.3.06-.39.41-.41,3.01-.01,5.67,0,8.32.3.02,2.96.05,5.61.08,8.27,0,0-.09.09-.14.14Z"/>
      <path class="cls-2" d="M92.94,67.84c0,2.72,0,5.43,0,8.68-2.88,0-5.46,0-8.34.05-.3.05-.33-.09-.33-.46,0-2.97,0-5.57.3-8.21,2.99-.05,5.67-.06,8.35-.08,0,0,.01.01.02.02Z"/>
      <path class="cls-9" d="M50.35,67.82c-2.66,0-5.32,0-8.28-.04-.3-11.13-.3-22.23-.3-33.87,2.78,0,5.37,0,8.26,0,.3,0,.29-.02.29.29,0,11.43,0,22.54,0,33.64,0,0,.02-.02.02-.02Z"/>
      <path class="cls-9" d="M58.66,25.35c.31,2.65.32,5.25.31,8.19-.01.35.01.44-.29.41-2.99-.04-5.68-.06-8.36-.07,0,0,.02.02.02.02,0-2.71,0-5.42,0-8.61,2.85,0,5.43,0,8.31.05Z"/>
      <path class="cls-2" d="M59.01,118.03c-2.68.32-5.37.34-8.37.35-.31-2.5-.31-5-.31-7.78-3.03-.13-5.61-.25-8.67-.38,0-2.77,0-5.27-.01-8.07,5.55-.33,11.12-.35,16.99-.36.32,5.32.34,10.63.37,16.24Z"/>
      <path class="cls-9" d="M84.26,67.94c0,2.6,0,5.2,0,8.1-11.09.34-22.16.38-33.54.39-.33-2.68-.36-5.34-.38-8.3,0-.31-.01-.29.29-.29,11.41.03,22.52.07,33.63.1Z"/>
      <path class="cls-4" d="M83.93,33.85c3,0,5.7.02,8.72.05.3,5.33.3,10.67.29,16.31,0,.31-.03.31-.35.32-5.87.02-11.43.02-16.98-.28.02-5.62.03-10.93.04-16.24,2.66-.04,5.32-.08,8.28-.16Z"/>
      <path class="cls-8" d="M75.34,33.97c.3,5.34.29,10.65.29,16.26,0,.3.03.28-.29.29-5.64.04-10.97.07-16.31-.22-.02-5.65-.03-10.98-.04-16.31,0,0-.03-.1-.02-.14,5.36,0,10.71.05,16.37.13Z"/>
      <path class="cls-3" d="M58.68,33.96c.32,5.36.33,10.69.33,16.64,0,3.2,0,5.77,0,8.53,5.85,0,11.2,0,16.86.02,5.87.03,11.42.04,16.97.05.03,2.67.06,5.34.09,8.32-2.69.32-5.37.34-8.36.39-11.42,0-22.52-.03-33.94-.06-.31-11.11-.3-22.22-.31-33.64,2.68-.3,5.36-.29,8.35-.24Z"/>
      <path class="cls-8" d="M92.87,58.89c-5.59.29-11.14.28-16.98-.05-.27-2.99-.26-5.66-.24-8.33,0,0-.02.02-.03.03,5.54,0,11.1,0,16.96,0,.31,2.68.32,5.36.29,8.35Z"/>
      <path class="cls-4" d="M75.34,50.52c.3,2.66.28,5.33.24,8.3-5.38.3-10.73.3-16.58.3,0-2.75,0-5.33.02-8.21,5.35-.33,10.68-.36,16.32-.4Z"/>
    </g>
  </g>
</svg>