<?xml version="1.0" encoding="UTF-8"?>
<svg id="Layer_2" data-name="Layer 2" xmlns="http://www.w3.org/2000/svg" viewBox="0 0 271.15 423.26">
  <defs>
    <style>
      .cls-1 {
        fill: #cb3030;
      }

      .cls-1, .cls-2, .cls-3, .cls-4, .cls-5, .cls-6, .cls-7, .cls-8, .cls-9, .cls-10, .cls-11, .cls-12 {
        stroke-width: 0px;
      }

      .cls-2 {
        fill: #e88156;
      }

      .cls-3 {
        fill: #fcefbd;
      }

      .cls-4 {
        fill: #de4e3d;
      }

      .cls-5 {
        fill: #5ebed7;
      }

      .cls-6 {
        fill: #f2aa58;
      }

      .cls-7 {
        fill: #fff;
      }

      .cls-8 {
        fill: #a6c3c9;
      }

      .cls-9 {
        fill: #e3f0ef;
      }

      .cls-10 {
        fill: #fae081;
      }

      .cls-11 {
        fill: #e6766e;
      }

      .cls-12 {
        fill: #8bcadc;
      }
    </style>
  </defs>
  <g id="Layer_4" data-name="Layer 4">
    <g>
      <path class="cls-9" d="M59.69,228.52v-101.54h7.86v-33.95h8.77c0-5.78,0-11.28.35-17.08,5.86-.28,11.38-.26,16.91.07.02,2.91.02,5.51.02,8.09h42v-8.59c6,0,11.64,0,17.57.05,2.74.04,5.18.04,7.64.35.01,8.45.01,16.58.01,24.79,3.22.17,5.82.3,8.37.43v16.95c-2.94,0-5.59,0-8.27-.3-.04-2.81-.04-5.32-.04-8.17-3.04,0-5.56,0-8.38-.03-2.96,0-5.63.03-8.6.02-8.53-.02-16.75.01-25.28,0-8.46-.04-16.6-.04-25.18-.04v8.79h-8.56v16.53h-8.39v17.3c2.93,0,5.66,0,8.42.31.02,5.56.02,10.82.02,16.42h8.79v8.49c2.76,0,5.28,0,7.82.31.03,2.91.03,5.52.03,8.42,3.16,0,5.9,0,8.65.3,0,2.81,0,5.32,0,8h50.62v-8.44h8.67v-8.37h8.38v58.97c-2.97,0-5.71,0-8.43,0,.02,0,.01.03.01-.28,0-2.67,0-5.04,0-7.64-5.95,0-11.32,0-16.99-.03-5.84,0-11.37.03-17.21.02-2.92-.04-5.53-.04-8.44-.04v8.01h-16.7c0,8.91,0,17.39-.3,25.88-5.62.04-10.95.07-16.57.06-2.97-.07-5.64-.12-8.31-.46,0-8.57,0-16.84,0-25.52-3.22,0-5.96,0-8.68,0,.02,0,0,.04.01-.28,0-2.67,0-5.02,0-7.64-3.27,0-5.98,0-9-.03-2.73-.04-5.17-.06-7.59-.1,0-.02-.03-.06-.03-.06Z"/>
      <path class="cls-8" d="M169.47,236.63h8.45v-58.97h-8.38v8.37h-8.67v8.44h-50.62c0-2.68,0-5.19.3-8.04,14.21-.35,28.12-.35,42.42-.35v-8.77h7.95v-8.61h8.38v-41.88c-2.93,0-5.68,0-8.44-.3-.04-2.95-.07-5.59-.05-8.28.05-.05.14-.13.14-.13h8.23v-16.95c-2.55-.13-5.14-.27-8.37-.43,0-8.21,0-16.34,0-25.1.04-3.29.08-5.96.12-8.62h8.45v25.79h8.66v34.05h8.66v33.81h8.08c0,14.04,0,27.73,0,42.04,0,14.62,0,28.63.01,42.63,0,0-.07-.03-.37-.05-2.66-.02-5.02-.02-7.66-.02v8.71s0-.05-.29-.05c-2.88,0-5.48,0-8.36,0v8.69s0-.05-.29-.05c-2.95,0-5.6-.01-8.3-.33-.06-8.74-.08-17.17-.1-25.6Z"/>
      <path class="cls-1" d="M195.14,245.3c-.31-13.98-.32-27.99-.28-42.3,5.65-.31,11.26-.31,17.18-.31v8.58h16.64v8.74c2.91,0,5.52,0,8.43.34.3,2.85.3,5.35.3,8.25h17.37s-.05,0-.05.3c0,16.81,0,33.33,0,50.06-3.11.17-5.7.3-8.64.46v17.12s0-.05-.3-.05c-2.89,0-5.49,0-8.14,0-.21,3-.37,5.36-.56,8.07h-8.14c-.14,2.94-.27,5.53-.41,8.51-2.81,0-5.33,0-7.82-.31.03-5.65.03-10.99.03-16.33,0,0,0,.05.29.05,2.67,0,5.04,0,7.7,0v-17.34s0,.05.29.05c2.89,0,5.5,0,8.13,0v-25.27h-8.46s.05,0,.05-.29c0-2.88,0-5.48,0-8.28h-16.65c-5.55-.02-11.1-.04-16.96-.04Z"/>
      <path class="cls-4" d="M33.7,236.72c2.67-.04,5.34-.08,8.63-.12,3.21,0,5.81,0,8.68,0v-7.86c2.69-.04,5.38-.09,8.38-.18.31-.04.35-.01.33.33-.02,8.43-.02,16.52-.02,24.8-3.13.16-5.71.3-8.63.45,0,3.03,0,5.75-.01,8.45-.01-.02.03-.02-.29-.03-5.8,0-11.27,0-16.73,0v33.88c2.96,0,5.6,0,8.27.31.04,2.76.06,5.22.07,7.98,0,2.9,0,5.49,0,8.34,3.29,0,5.92,0,8.59.31.04,2.98.06,5.66.07,8.65,0,2.9,0,5.49,0,8.34,3.29,0,5.92,0,8.59.31.03,2.69.03,5.07.03,7.69h7.92v8.45h-16.41v-8.32h-8.66v-7.99h-8.78c0-2.89,0-5.5,0-8.72,0-3.21,0-5.8,0-8.67h-7.86c-.04-2.67-.08-5.34-.12-8.62,0-2.97,0-5.32,0-8h-8.7s.05,0,.05-.3c0-17.2,0-34.1,0-51.01,0,0,0,.05.3.05,5.55,0,10.81,0,16.36,0v-8.53Z"/>
      <path class="cls-2" d="M169.56,372.37v17.12h-8.58v8.71h-8.05v7.93h-8.6v17.12h-8.71v-8.28h-8.6v-8.6h-7.93v-8.04h-8.72v-17.23h-8.71v-16.69h-7.93v-17.24h-8.49v-42.73c2.5,0,5.11,0,8.04.29.32,11.26.32,22.23.32,33.64,3.02,0,5.52,0,8.01,0,0,0,0,0,0,.3,0,5.74,0,11.16,0,16.99,3.25,0,5.96,0,8.66,0,0,0,0,0,0,.3,0,5.56,0,10.82,0,16.1,3.25.19,5.84.35,8.77.52v17c5.76,0,11.15,0,16.53,0,0,0,0,0,0,.3,0,2.9,0,5.49,0,8.11h8.64c0-2.96,0-5.69,0-8.41,0,0,0,0,.3,0,2.87,0,5.43,0,8.35,0,0-3.27,0-5.96,0-8.65,0,0,0,0,.3,0,2.67,0,5.03,0,7.47,0,.18-3.22.33-5.8.49-8.76,3.01,0,5.63,0,8.31.05.05.05.14.14.14.14Z"/>
      <path class="cls-10" d="M101.54,296.42v-8.6c2.87,0,5.48,0,8.4.03.31.03.36.17.35.46-.01,14.07-.01,27.85-.01,41.91,3.02.13,5.61.25,8.65.38v16.44c2.97,0,5.48,0,7.98.31,0,2.87,0,5.43,0,8.34,3.27,0,5.96,0,8.66.31,0,2.9,0,5.5,0,8.11h8.65c0-2.95,0-5.68.31-8.42,2.87,0,5.43,0,8.34,0,0-3.26,0-5.96.31-8.65,2.74-.02,5.18-.05,7.65-.03.04.04.11.11.08.41-.02,5.69-.02,11.07-.02,16.72-2.83.14-5.2.26-8.02.4v16.42s.01,0-.3,0c-2.91,0-5.51,0-8.35,0v8.64s.01,0-.3,0c-2.99,0-5.66,0-8.33,0,0,0,0,.01,0-.3,0-2.9,0-5.49,0-8.12-3.26-.18-5.85-.32-8.87-.49v-16.14c-2.83-.18-5.19-.34-7.88-.51v-8.36h-8.54s0,.01,0-.3c0-5.79,0-11.27,0-16.99h-8.65s0,.01,0-.3c-.02-14.09-.04-27.87-.06-41.65Z"/>
      <path class="cls-1" d="M160.92,66.68c0,2.98-.04,5.64-.1,8.62-2.46.31-4.9.32-7.65-.03-.31-5.51-.31-10.66-.31-16.05-3.09-.16-5.67-.29-8.73-.45v-16.83c-3.06-.17-5.65-.32-8.7-.49v-16.15c-3.07-.17-5.65-.32-8.34-.47-.17-2.95-.32-5.53-.47-8.16-2.76-.19-5.12-.36-7.83-.54V7.93c-3.1,0-5.83,0-8.58-.04-.03-.04-.02-.15-.02-.15V0h16.53v7.66h8.7v8.7h8.7v16.56h8.58v17.34h8.14c0,5.58,0,10.85.04,16.43Z"/>
      <path class="cls-11" d="M93.56,75.72c-5.51-.03-11.02-.05-16.84-.08-.3-2.74-.3-5.48-.3-8.6h8.43v-33.8h8.67v-16.78h8.03V7.78c2.85,0,5.46,0,8.37-.02.3-.02.3.08.32.42.03,5.72.03,11.11.03,16.7-3.09.15-5.68.27-8.7.42v41.49c-2.81.15-5.18.27-8,.42v8.51Z"/>
      <path class="cls-4" d="M246.39,296.52c-.31-5.58-.31-11.18-.31-17.1,2.94-.16,5.52-.29,8.64-.46,0-16.73,0-33.25,0-50.09,5.42-.32,10.82-.32,16.42-.32v41.87h-8.35v17.3h-7.99v8.77c-2.89,0-5.5,0-8.42.03Z"/>
      <path class="cls-2" d="M186.86,304.39h7.75v42.55h-7.67v8.7h-8.7v16.68c-2.85,0-5.45,0-8.36.03-.3.03-.39-.07-.4-.41,0-8.54.02-16.73.03-24.91,0,0,0,0,.3,0,2.91,0,5.5,0,8.18,0,.14-3.19.25-5.69.38-8.44,2.87-.14,5.46-.27,8.5-.43v-33.77Z"/>
      <path class="cls-11" d="M16.74,245.22c.31,16.88.32,33.78.31,51.01-2.75.32-5.5.32-8.6.32v-25.93H0v-16.56h8.23v-8.81c2.98,0,5.59,0,8.5-.03Z"/>
      <path class="cls-10" d="M169.52,287.72h8.65c0,2.88,0,5.49,0,8.71,0,8.73,0,16.84,0,25.12-3.15.16-5.73.29-8.69.44v25.04s.01,0-.3,0c-2.96.02-5.62.05-8.27.07,0,0-.07-.07-.08-.41-.01-11.32-.01-22.3-.01-33.37,3.23-.18,5.81-.32,8.64-.47,0-8.54,0-16.69.03-24.91.03-.07.03-.22.03-.22Z"/>
      <path class="cls-6" d="M169.8,347.03c-.31-8.24-.31-16.49-.31-25.04,2.96-.15,5.54-.28,8.69-.44,0-8.28,0-16.39.02-24.81,2.74-.31,5.47-.31,8.62-.31,0,2.62,0,4.99.02,7.66.02,11.46.02,22.61.02,34.08-3.05.15-5.63.28-8.5.43-.12,2.75-.23,5.25-.38,8.44-2.68,0-5.27,0-8.18,0Z"/>
      <path class="cls-1" d="M51.05,262.62v-8.47c2.92-.15,5.5-.29,8.63-.45,0-8.28,0-16.37.01-24.78,2.44-.3,4.88-.29,7.63.06.32,2.7.32,5.07.32,7.68h8.65s.01-.04,0,.28c.04,8.77.08,17.23.06,25.67-.06-.01-.17-.08-.17-.08-2.64.02-5.28.04-8.54.06-5.95.01-11.27.03-16.6.04Z"/>
      <path class="cls-4" d="M220.7,313.07h7.84c.15-2.97.27-5.56.41-8.51h8.14c.19-2.71.35-5.07.56-8.07,2.65,0,5.25,0,8.16,0,.32,5.4.32,10.79.32,16.46h-8.55v17.45c-5.64,0-10.9,0-16.48,0-.32,0-.35-.03-.35-.34,0-5.88,0-11.45,0-17,0,.02-.04,0-.04,0Z"/>
      <path class="cls-6" d="M101.24,296.45c.32,13.75.35,27.53.37,41.62-2.5.31-5,.31-8.02.31,0-11.42,0-22.39-.01-33.67-.01-2.82-.01-5.32-.01-8.24,2.62,0,4.99,0,7.67-.02Z"/>
      <path class="cls-6" d="M42.37,304.42c-.02-2.45-.03-4.91-.04-7.98,0-8.93,0-17.25,0-25.9,3.23,0,5.96,0,8.68,0,0,0,0,0,0,0,0,11.1,0,22.2,0,33.62,0,.31,0,.31-.3.31-2.99-.01-5.66-.02-8.34-.04Z"/>
      <path class="cls-6" d="M228.72,254.22c2.72-.31,5.47-.31,8.44-.31v25.27c-2.63,0-5.23,0-8.15,0-.3-8.22-.28-16.43-.29-24.96Z"/>
      <path class="cls-6" d="M203.56,330.39v-17.28c2.7,0,5.32,0,8.24,0,.31,0,.3,0,.31.31-.02,5.86-.04,11.42-.03,16.97.02,0,0-.04-.31-.02-2.94.02-5.57.02-8.2.02Z"/>
      <path class="cls-6" d="M51.02,321.72c-.01-2.68-.03-5.35-.04-8.64.01-3.28.02-5.95.04-8.62,0,0,0,0,0,0,2.75,0,5.5,0,8.66,0v16.98c0,.31,0,.31-.3.31-2.99-.01-5.66-.02-8.34-.04Z"/>
      <path class="cls-4" d="M254.75,228.29c-5.59.31-11.21.31-17.34.31,0-2.9,0-5.4,0-8.21,5.61-.3,11.21-.3,17.31-.3,0,2.7,0,5.3.03,8.2Z"/>
      <path class="cls-6" d="M169.5,270.53c0,5.53,0,11.05.01,16.88,0,.3,0,.45-.32.46-3,0-5.68-.02-8.35-.35,0-5.76,0-11.21,0-16.98,3.21,0,5.93,0,8.66,0,0,0,0,0,0,0Z"/>
      <path class="cls-6" d="M110.22,279.22h-16.61c0-2.82,0-5.43,0-8.35,0-.32.03-.36.34-.35,5.62,0,10.94-.01,16.27.29.03,2.99.04,5.68.04,8.37-.01.01-.04.04-.04.04Z"/>
      <path class="cls-6" d="M212.1,245.64c5.37-.3,10.75-.3,16.64-.3,0,2.81,0,5.4,0,8.31-5.4.31-10.79.31-16.64.31,0-2.82,0-5.42,0-8.32Z"/>
      <path class="cls-11" d="M33.39,236.68c.31,2.68.31,5.32.31,8.57-5.54,0-10.8,0-16.38,0-.32-2.74-.32-5.48-.32-8.61,5.56,0,10.82,0,16.39.04Z"/>
      <path class="cls-6" d="M220.45,296.45c.31,5.32.3,10.66.27,16.31-.02.31.01.33-.29.33-2.98,0-5.65,0-8.33.01,0,0,0,0,0,0,0-5.4,0-10.8,0-16.64,2.8,0,5.42,0,8.34-.02Z"/>
      <path class="cls-6" d="M84.98,262.45c2.67.04,5.33.09,8.31.46.33,2.75.34,5.18.36,7.6,0,0-.03.03-.05.05-5.64.02-11.27.02-17.31.02,0-2.65,0-5.05-.05-7.75-.05-.31.06-.24.42-.25,3.01-.05,5.66-.09,8.31-.13Z"/>
      <path class="cls-6" d="M228.44,279.15c.31,5.58.31,11.19.31,17.32-2.65,0-5.03,0-7.72,0-.31-5.62-.31-11.25-.31-17.3,2.63,0,5.03,0,7.73-.02Z"/>
      <path class="cls-6" d="M51.04,262.6c5.34,0,10.67,0,16.31,0,.31,2.54.31,5.05.31,7.93-5.51,0-10.77,0-16.34,0-.31,0-.31,0-.31-.3.02-2.76.04-5.21.06-7.66,0,0-.04,0-.03.02Z"/>
      <path class="cls-6" d="M67.59,338.06c-2.47.31-4.89.31-7.96.31,0-2.63,0-5.01,0-8,.01-3.28.02-5.95.04-8.62,0,0,0,0,0,0,2.53,0,5.05,0,7.97,0,0,5.46,0,10.73-.05,16.3Z"/>
      <path class="cls-6" d="M178.47,262.58c-.31-2.71-.31-5.44-.31-8.67,2.89,0,5.48,0,8.39,0,.31,2.74.31,5.49.31,8.65-2.85,0-5.47,0-8.39.02Z"/>
      <path class="cls-6" d="M110.25,287.79c0-2.7,0-5.34,0-8.27-.02-.3.01-.33.34-.34,2.88,0,5.44,0,8.32,0,0,3.3,0,5.99-.31,8.68-2.97.04-5.63.1-8.29.16,0,0-.05-.14-.05-.21Z"/>
      <path class="cls-11" d="M50.7,228.7c.31,2.46.31,4.87.31,7.9-2.87,0-5.47,0-8.38-.02-.31-2.52-.31-5.03-.31-7.93,2.87,0,5.47,0,8.38.04Z"/>
      <path class="cls-11" d="M17.03,296.8c2.69-.31,5.4-.31,8.68-.31,0,2.68,0,5.03-.02,7.69-2.74.31-5.47.31-8.63.31,0-2.64,0-5.02-.03-7.7Z"/>
      <path class="cls-1" d="M203.52,330.69c2.67-.31,5.31-.31,8.26-.02.33,2.73.34,5.16.35,7.6h-8.64c0-2.52,0-4.9.04-7.58Z"/>
      <path class="cls-4" d="M212.43,338.32c-.32-2.48-.33-4.92-.35-7.66-.01-.31.01-.28.3-.27,2.98,0,5.67,0,8.36,0,0,0,.03.03.04.04.01,2.52.01,5.02.01,7.94-2.88,0-5.47,0-8.37-.04Z"/>
      <path class="cls-11" d="M25.78,313.43c2.46-.31,4.88-.31,7.91-.31,0,2.87,0,5.46-.02,8.37-2.52.31-5.03.31-7.93.31,0-2.87,0-5.47.04-8.37Z"/>
      <path class="cls-6" d="M169.61,262.54c2.66,0,5.32.01,8.29.02.31,2.52.31,5.05.31,7.98-2.85,0-5.47,0-8.39,0-.31,0-.31,0-.31-.3.03-2.77.07-5.23.1-7.7Z"/>
      <path class="cls-6" d="M187.12,253.93c-.31-2.7-.31-5.42-.31-8.69,2.63,0,5,0,7.67-.01.31,2.74.31,5.49.31,8.68-2.56,0-4.96,0-7.67.02Z"/>
      <path class="cls-4" d="M93.58,76.02c-.02-3.04-.02-5.78-.02-8.82,2.82-.15,5.18-.27,8-.42V25.3c3.02-.15,5.62-.27,8.7-.42,0-5.6,0-10.98,0-16.66,2.73-.3,5.45-.3,8.55-.3v8.2c2.71.19,5.07.35,7.83.54.15,2.63.3,5.21.47,8.16,2.68.15,5.27.3,8.34.47v16.15c3.05.17,5.64.32,8.7.49v16.83c3.05.16,5.64.29,8.73.45,0,5.38,0,10.54,0,16-5.63.3-11.26.3-17.27.3v8.59h-42c0-2.58,0-5.19-.02-8.09Z"/>
      <path class="cls-1" d="M160.89,126.82h8.42v41.88h-8.38v8.61h-7.95v8.77c-14.3,0-28.21,0-42.43.04-3.05.04-5.79.04-8.95.04,0-2.9,0-5.51.29-8.43,3.01-.33,5.72-.35,8.75-.35,11.35.02,22.38.02,33.66.02v-8.69h8.71v-8.04h7.8c0-5.87,0-11.5.01-17.44.01-5.66.01-11.01.02-16.37.01-.02.04-.04.04-.04Z"/>
      <path class="cls-11" d="M118.9,287.86v-8.69c-2.88,0-5.44,0-8.31,0-.32-2.69-.34-5.37-.35-8.67-.03-3.06-.06-5.52-.09-7.97v-25.87h16.7v-8.01c2.92,0,5.52,0,8.43.34.31,2.75.33,5.17.32,7.9-.02,2.9-.02,5.49-.02,8.16-3.23.17-5.81.31-8.74.47,0,14.36,0,28.35-.3,42.33-2.75-.01-5.2-.01-7.64-.01.01,0,0,.03,0,.03Z"/>
      <path class="cls-1" d="M135.62,236.58c-.02-2.42-.03-4.83-.03-7.55,5.55-.33,11.08-.36,16.94-.05.33,2.7.33,5.08.33,7.68h16.64s0-.03-.01-.03c0,8.43.02,16.86.08,25.6,0,2.77-.03,5.24-.06,8.01-2.72.31-5.45.31-8.66.31,0,5.77,0,11.22,0,16.98,0,.31,0,.3-.3.3-2.75.03-5.2.05-7.66-.25-.01-14.2-.01-28.08-.01-42.09-3.2-.18-5.78-.33-8.46-.48-.17-2.95-.32-5.54-.49-8.43h-8.31Z"/>
      <path class="cls-11" d="M84.91,152.22h-8.4v-17.3h8.39v-16.53h8.56v-8.79c8.58,0,16.72,0,25.17.34.31,2.95.31,5.56,0,8.22-5.8.04-11.29.04-17.17.04v8.81h-7.73c0,2.8,0,5.32-.04,8.15-.08,3-.13,5.69-.48,8.37-2.81,0-5.32,0-8.3,0v8.72Z"/>
      <path class="cls-4" d="M84.93,152.52c-.02-3.05-.02-5.79-.02-9.02,2.98,0,5.49,0,8.34.31.39,2.98.43,5.66.43,8.64-.04,2.91-.04,5.51-.04,8.47h8.05v7.88h8.63v8.56c-2.72.02-5.44.04-8.47.06-2.83,0-5.35,0-8.11,0v-8.49h-8.79c0-5.6,0-10.86-.02-16.42Z"/>
      <path class="cls-8" d="M84.97,262.14c-2.65.34-5.29.38-8.24.45-.34-8.43-.39-16.89-.44-25.66,2.72-.31,5.46-.31,8.68-.31,0,8.68,0,16.95,0,25.52Z"/>
      <path class="cls-4" d="M118.94,118.11c0-2.61-.01-5.23,0-8.14,8.23-.33,16.45-.36,24.97-.04.29,3.01.28,5.67-.05,8.31-5.86.01-11.42.05-17.27.03-2.75-.09-5.2-.13-7.65-.17Z"/>
      <path class="cls-8" d="M169.5,236.34c-5.38.31-10.77.31-16.64.31,0-2.6,0-4.98-.02-7.65,5.35-.3,10.72-.3,16.67-.3,0,2.6,0,4.97,0,7.64Z"/>
      <path class="cls-8" d="M109.85,262.54c.33,2.44.37,4.9.38,7.65-5.33.31-10.65.33-16.27.33-.32-2.44-.34-4.86-.36-7.58,5.31-.33,10.63-.36,16.25-.39Z"/>
      <path class="cls-1" d="M144.17,118.26c.01-2.66.03-5.32.05-8.28,2.66-.33,5.33-.37,8.31-.07.34,2.98.35,5.62.36,8.28-.01.02-.04.05-.35.04-3,0-5.69,0-8.36,0,.02,0,0,.03,0,.03Z"/>
      <path class="cls-8" d="M76.3,236.34c-2.73.31-5.46.31-8.66.31,0-2.61,0-4.98-.02-7.65,2.69-.3,5.41-.3,8.68-.3,0,2.62,0,4.97,0,7.64Z"/>
      <path class="cls-8" d="M152.9,118.17c-.02-2.64-.03-5.29-.07-8.24,2.5-.3,5.02-.3,8.06-.3,0,2.84,0,5.36.04,8.17.04.3-.06.39-.4.4-2.77,0-5.2-.02-7.63-.03Z"/>
      <path class="cls-1" d="M152.88,118.19c2.44,0,4.87.02,7.6.06.33,2.67.35,5.32.39,8.26.01.3-.02.33-.34.34-2.79.02-5.26.03-7.71.03.02,0,0,.02.01-.29,0-3,0-5.68,0-8.37,0,0,.03-.03.04-.05Z"/>
      <path class="cls-1" d="M50.75,262.57c.3,2.46.28,4.91.26,7.67-2.73.31-5.45.31-8.68.31,0,8.65,0,16.97-.03,25.6-2.67.31-5.31.31-8.27.31v-33.88c5.45,0,10.93,0,16.73,0Z"/>
      <path class="cls-1" d="M50.71,304.46c.3,2.67.29,5.34.24,8.31-2.67.3-5.3.3-8.59.3,0-2.85,0-5.44,0-8.34,2.68-.3,5.36-.29,8.34-.28Z"/>
      <path class="cls-1" d="M59.36,321.75c.3,2.67.29,5.34.24,8.31-2.67.3-5.3.3-8.59.3,0-2.85,0-5.44,0-8.34,2.68-.3,5.36-.29,8.34-.28Z"/>
      <path class="cls-6" d="M110.26,355.98c2.73-.31,5.47-.31,8.54-.31v8.36c2.69.17,5.05.33,7.88.51v16.14c3.02.17,5.61.31,8.87.49,0,2.63,0,5.22,0,8.12-5.39.31-10.78.31-16.53.31v-17c-2.93-.17-5.51-.33-8.77-.52,0-5.28,0-10.53,0-16.1Z"/>
      <path class="cls-6" d="M160.9,347.41c2.68-.33,5.33-.35,8.29-.38.3,8.19.29,16.38.24,24.87-2.67.3-5.29.3-8.3.3-.17,2.97-.31,5.54-.49,8.76-2.44,0-4.8,0-7.47,0-.31-5.39-.31-10.77-.31-16.43,2.82-.14,5.19-.26,8.02-.4,0-5.65,0-11.03.02-16.72Z"/>
      <path class="cls-6" d="M101.61,338.69c2.65-.31,5.31-.31,8.65-.31,0,5.72,0,11.2,0,16.99-2.7.31-5.41.31-8.66.31,0-5.82,0-11.25,0-16.99Z"/>
      <path class="cls-6" d="M144.51,389.6c-.31-2.65-.31-5.31-.31-8.65,2.85,0,5.44,0,8.35,0,.31,2.69.31,5.38.31,8.65-2.92,0-5.48,0-8.35,0Z"/>
      <path class="cls-6" d="M135.56,389.9c2.68-.31,5.35-.31,8.33-.31.31,2.73.31,5.46.31,8.41h-8.64c0-2.61,0-5.21,0-8.11Z"/>
      <path class="cls-3" d="M110.29,288.31c2.67-.35,5.34-.41,8.3-.45.31.01.32-.02.31.3,0,11.29,0,22.26,0,33.62,2.98,0,5.49,0,8,0,0,0-.02,0-.01.31,0,8.53,0,16.76,0,24.97,0,0,.01-.01.01-.01h-7.98v-16.44c-3.04-.13-5.62-.25-8.65-.38,0-14.06,0-27.83.01-41.91Z"/>
      <path class="cls-3" d="M160.85,287.84c2.67.02,5.34.04,8.32.11.3,8.21.3,16.37.3,24.9-2.82.15-5.41.3-8.64.47,0,11.07,0,22.05-.02,33.33-2.46.33-4.9.35-7.63.38-.3,0-.29.01-.3-.3.03-14.27.06-28.22.4-42.2,2.65-.03,5-.03,7.59-.03v-16.67s0,.01,0,.01Z"/>
      <path class="cls-3" d="M144.2,355.68v8.42h-8.65c0-2.61,0-5.2,0-8.1,0-.31-.01-.3.3-.3,3,0,5.68,0,8.36,0,0,0-.01-.01-.01-.01Z"/>
      <path class="cls-3" d="M152.86,347.03c0,2.69,0,5.38,0,8.64-2.91,0-5.47,0-8.34,0-.31,0-.3,0-.3-.3.03-2.95.07-5.6.4-8.28,2.95-.04,5.61-.05,8.26-.05,0,0,0,0-.01-.01Z"/>
      <path class="cls-3" d="M135.55,355.68c-2.69,0-5.39,0-8.65,0,0-2.91,0-5.47,0-8.34,0-.31,0-.3.3-.3,2.95.03,5.6.06,8.28.4.04,2.95.05,5.61.06,8.26,0,0,0,0,.01-.01Z"/>
      <path class="cls-1" d="M220.74,330.07c-2.69.31-5.38.32-8.38.32-.29-5.56-.28-11.11-.26-16.97,2.67-.32,5.35-.32,8.33-.34.31,5.55.31,11.12.31,17Z"/>
      <path class="cls-5" d="M110.63,177.39c-.31-2.75-.31-5.49-.31-8.58h-8.63v-7.88h-8.05c0-2.96,0-5.56.35-8.47,5.51-.31,10.67-.31,16.06-.31.15,3.06.28,5.65.42,8.39h33.72c0-2.97,0-5.7.01-8.41.01.01-.02,0,.29,0,2.88,0,5.45,0,8.41,0,0-3.28,0-5.99.3-8.67,2.73.05,5.17.07,7.6.1v17.12h-7.8v8.04h-8.71v8.69c-11.28,0-22.32,0-33.66-.02Z"/>
      <path class="cls-4" d="M160.82,143.24c-2.44.29-4.88.26-7.63-.09-.34-5.64-.36-10.95-.38-16.25,2.47,0,4.93-.02,7.71-.02.31,5.35.31,10.7.3,16.36Z"/>
      <path class="cls-4" d="M135.6,236.89c2.66-.31,5.31-.31,8.33-.31.17,2.89.32,5.48.49,8.43,2.68.15,5.27.3,8.46.48,0,14.01,0,27.89,0,42.07,0,.3.04.29-.28.29-2.89,0-5.47,0-8.39,0,0,5.96,0,11.31,0,16.97-.03,8.75-.07,17.19-.4,25.61-2.92,0-5.54,0-8.2-.3-.03-2.89-.03-5.46-.03-8.37h-8.7s.02,0,.01-.31c-.02-11.4-.05-22.49-.07-33.58v-42.34c2.93-.16,5.51-.3,8.74-.47,0-2.67,0-5.26.02-8.16Z"/>
      <path class="cls-6" d="M126.53,287.85c.32,11.1.34,22.2.37,33.6-2.51.31-5.02.31-8,.31,0-11.36,0-22.33-.01-33.62,2.44-.31,4.89-.31,7.64-.3Z"/>
      <path class="cls-6" d="M160.55,287.82c.31,5.34.31,10.69.31,16.67-2.59,0-4.94,0-7.64-.02-.35-.02-.45-.12-.42-.42.06-5.6.09-10.91.12-16.21,0,0-.04,0-.03.02,2.46,0,4.9-.03,7.66-.05Z"/>
      <path class="cls-12" d="M152.83,126.89c0,5.31.02,10.62.06,16.24.02,3.01.02,5.72.02,9-2.97,0-5.53,0-8.4-.31-.3-2.91-.3-5.5-.3-8.07h-8.42v8.36h8.41v8.43h-33.72c-.14-2.74-.27-5.33-.42-8.39-5.39,0-10.55,0-16.02,0-.35-2.67-.39-5.34-.48-8.32,0-2.99.05-5.68.43-8.68,2.63-.31,4.92-.31,7.44-.31.13,3.07.25,5.75.37,8.39h17.18v-8.18c2.83-.17,5.29-.31,7.92-.46v-16.27c5.55-.03,11.11-.07,16.97-.08.31.02.32-.01.33.3,0,2.91,0,5.5,0,8.37h8.64s.01-.03,0-.02Z"/>
      <path class="cls-7" d="M126.59,118.28c.3,5.34.3,10.64.3,16.31-2.62.15-5.08.3-7.92.46v8.18h-17.18c-.12-2.64-.23-5.33-.37-8.39-2.52,0-4.81,0-7.4,0-.3-2.52-.3-5.04-.3-7.84h7.73v-8.81c5.89,0,11.37,0,17.17-.04,2.76,0,5.21.04,7.96.13Z"/>
      <path class="cls-4" d="M152.84,126.6c-2.74.31-5.46.31-8.64.31,0-2.87,0-5.46-.02-8.36,2.67-.31,5.36-.32,8.36-.32.31,2.69.31,5.38.31,8.37Z"/>
      <path class="cls-6" d="M126.89,322.07c2.71-.31,5.42-.31,8.7-.31,0,2.91,0,5.49,0,8.68.02,5.91.04,11.21.02,16.55-.05.05-.15.15-.15.15-2.65-.03-5.29-.07-8.25-.09-.31-8.22-.3-16.44-.3-24.97Z"/>
      <path class="cls-6" d="M144.11,330.44c.03-8.44.06-16.88.41-25.64,2.95-.36,5.6-.4,8.24-.43,0,0,.1.1.15.15.02,14-.02,27.95-.05,42.22-2.65.32-5.3.33-8.31.32-.35-.02-.45-.12-.42-.42.01-5.6,0-10.9-.03-16.19Z"/>
      <path class="cls-6" d="M135.85,355.69c-.32-2.65-.32-5.3-.37-8.26-.04-.3.07-.4.42-.41,2.97-.04,5.59-.06,8.21-.09,0,0,.1.1.15.15.02,2.7-.02,5.34-.05,8.3-2.68.31-5.37.3-8.36.3Z"/>
      <path class="cls-1" d="M144.14,346.63c-2.65.33-5.27.35-8.19.34-.32-5.33-.35-10.62-.34-16.22,2.66-.31,5.28-.32,8.2-.32.32,5.31.34,10.6.33,16.2Z"/>
      <path class="cls-1" d="M152.8,304.06c-2.68.34-5.32.38-8.27.43-.31-5.34-.31-10.69-.31-16.65,2.91,0,5.49,0,8.39,0,.29,5.31.26,10.61.19,16.21Z"/>
      <path class="cls-7" d="M144.2,152.12c-2.74-.01-5.47-.01-8.42-.01v-8.36h8.42c0,2.57,0,5.16-.01,8.06-.01.31.02.33,0,.32Z"/>
    </g>
  </g>
</svg>