<?xml version="1.0" encoding="UTF-8"?>
<svg id="Layer_2" data-name="Layer 2" xmlns="http://www.w3.org/2000/svg" viewBox="0 0 177.91 203.49">
  <defs>
    <style>
      .cls-1 {
        fill: #4e7a33;
      }

      .cls-1, .cls-2, .cls-3, .cls-4, .cls-5, .cls-6, .cls-7, .cls-8, .cls-9 {
        stroke-width: 0px;
      }

      .cls-2 {
        fill: #5ebed7;
      }

      .cls-3 {
        fill: #70b042;
      }

      .cls-4 {
        fill: #a0cb7b;
      }

      .cls-5 {
        fill: #fff;
      }

      .cls-6 {
        fill: #5d9238;
      }

      .cls-7 {
        fill: #a6c3c9;
      }

      .cls-8 {
        fill: #e3f0ef;
      }

      .cls-9 {
        fill: #8bcadc;
      }
    </style>
  </defs>
  <g id="Layer_9" data-name="Layer 9">
    <g>
      <path class="cls-8" d="M25.18,42.56v8.53h-8.67v8.02h-7.9v51.18h7.72v25.39c2.88,0,5.49,0,8.72,0,3.32.03,6.03.05,9.05.04,19.84,0,39.37.02,59.21,0,2.97-.09,5.63-.13,8.31-.47,0-5.62,0-10.93-.31-16.24-8.45.01-16.58.01-24.95.01,0-3.17,0-5.91-.31-8.65-2.92,0-5.53,0-8.33,0,0-3.19,0-5.93-.31-8.66-2.92.01-5.53.01-8.14.01v-25.24c2.97,0,5.71,0,8.44-.31-.01-2.92-.01-5.53-.01-8.34,3.18,0,5.93,0,8.67-.31-.01-2.92-.01-5.53-.01-8.29,8.7,0,16.96,0,25.54-.02,2.91-.02,5.52-.02,8.19-.02.17-3,.31-5.37.45-7.82,2.73-.16,5.11-.29,7.74-.44,0-3,0-5.63-.31-8.32-31.13-.05-61.96-.05-92.78-.06Z"/>
      <path class="cls-7" d="M118.27,42.67v8.27c-2.64.15-5.01.29-7.74.44-.14,2.44-.28,4.81-.45,7.82-2.67,0-5.28,0-8.17.32-.29,2.99-.29,5.65.02,8.3,2.9,0,5.49,0,8.35,0,0,3.22,0,5.94.31,8.65,2.69,0,5.07,0,7.47,0v25.26c-2.74,0-5.26,0-7.77.31,0,2.9,0,5.48,0,8.34-3.22,0-5.94,0-8.66.31,0,2.98,0,5.66-.01,8.33,0,5.31,0,10.63.31,16.28,16.98.39,33.65.43,50.32.47h8.59v-25.29h8.45v-42.59h-8.29v-16.54h-8.79c0-2.95,0-5.56-.35-8.49-11.43-.37-22.51-.42-33.6-.41,0,.07.01.21.01.21Z"/>
      <path class="cls-3" d="M93,135.78c-19.53-.03-39.06-.06-58.92.25-.32,2.85-.32,5.36-.32,8.25h-8.71c-2.68.02-5.36.04-8.33.4-.3,2.89-.3,5.44-.3,8.26h-8.04s.05,0,.05.29c0,11.2-.01,22.11-.02,33.02v8.4h16.53v-33.7c5.87,0,11.34,0,17.13-.29.31-2.65.31-5.01.31-7.4h7.97v16.36s.02-.03.32-.03c8.73.01,17.15.02,25.61-.29.02-8.45.02-16.59.02-24.67h7.99v58.77h17.35c0-8.26,0-16.37,0-25.11,0-11.74-.02-22.87-.34-33.99-2.89,0-5.47,0-8.33,0v-8.54Z"/>
      <path class="cls-3" d="M25.15,42.25c30.86.31,61.69.31,92.82.36.31.05.29-.09.3-.46,0-5.74,0-11.11,0-16.69-2.87-.16-5.23-.3-7.77-.45-.16-2.67-.3-5.03-.45-7.54-2.91-.17-5.49-.31-8.2-.47-.17-2.92-.31-5.5-.47-8.19-2.94-.17-5.53-.31-8.43-.48V.07h-16.51v8.45h-25.98v8.55c-2.78.13-5.25.24-8.04.37v7.68h-8.58v8.69h-8.74c0,2.93,0,5.53.04,8.44Z"/>
      <path class="cls-6" d="M93.3,135.73c-.3,2.67-.3,5.3-.3,8.58h17.32v33.83h16.56v-8.44h8.55v-8.78c2.97,0,5.57,0,8.49-.33.32-2.61.32-4.89.32-7.4,2.87-.16,5.23-.3,8.04-.45v-8.49c-.01-2.62-.02-5.24-.03-8.17-16.67-.34-33.34-.39-50.33-.47-2.98,0-5.64.04-8.61.13Z"/>
      <path class="cls-6" d="M93.26.04c-.31,2.67-.31,5.31-.31,8.31,2.9.16,5.49.31,8.43.48.15,2.69.3,5.27.47,8.19,2.71.15,5.29.3,8.2.47.15,2.51.29,4.87.45,7.54,2.54.15,4.9.28,7.77.45,0,5.58,0,10.95,0,16.62,11.08.36,22.17.41,33.55.47.3-5.61.3-11.23.3-17.22h-7.69c-.12-2.74-.23-5.12-.35-7.88h-16.92c-.14-3.04-.27-5.72-.41-8.77h-8.36V0c-8.52,0-16.67,0-25.12.04Z"/>
      <path class="cls-6" d="M152.32,169.62v25.04h17.14v-8.32h8.45v-33.39c-2.54,0-5.15,0-8.06.29-.31,2.66-.31,5.02-.31,7.48-3.22.18-5.79.33-8.45.48-.17,2.97-.32,5.54-.48,8.42h-8.28Z"/>
      <path class="cls-4" d="M83.99,203.45c.3-19.52.3-39.01.3-58.81h-7.99c0,8.08,0,16.22,0,24.98-.02,3.3-.04,5.99-.06,8.68v25.2c2.67,0,5.05,0,7.74-.04Z"/>
      <path class="cls-1" d="M152.29,169.31c2.66.31,5.29.31,8.31.31.17-2.88.31-5.45.48-8.42,2.65-.15,5.23-.3,8.45-.48,0-2.46,0-4.82,0-7.5,0-2.96,0-5.61,0-8.93-5.7,0-11.18,0-16.97-.03-.31,2.71-.31,5.44-.31,8.47-2.81.16-5.18.29-8.04.45,0,2.5,0,4.78,0,7.36,2.49.3,4.98.3,8.04.3,0,3,0,5.57.03,8.46Z"/>
      <path class="cls-1" d="M110.01,178.17c.31-11.08.31-22.12.31-33.86-2.89,0-5.48,0-8.38,0-.3,11.12-.29,22.24-.26,33.68,2.69.28,5.35.24,8.33.18Z"/>
      <path class="cls-4" d="M8.1,186.24c.32-10.9.32-21.8.33-33.03-2.74-.32-5.48-.32-8.43-.32v33.33c2.59,0,5.19,0,8.1.01Z"/>
      <path class="cls-6" d="M75.95,178.27c.33-2.67.35-5.35.34-8.35-8.46-.31-16.88-.32-25.63-.32-.31,2.73-.31,5.45-.31,8.65,8.69,0,16.99,0,25.6.02Z"/>
      <path class="cls-6" d="M50.05,169.61c.31-5.34.31-10.69.31-16.35h-7.97c0,2.39,0,4.75,0,7.42,0,3.01,0,5.71,0,8.92,2.66,0,5.01,0,7.67.01Z"/>
      <path class="cls-4" d="M25.06,143.98c2.72.3,5.46.3,8.69.3,0-2.9,0-5.4.02-8.22-2.69-.33-5.4-.35-8.42-.34-.3,2.67-.29,5.31-.29,8.25Z"/>
      <path class="cls-4" d="M8.4,152.64c2.45.31,4.94.31,8.02.31,0-2.82,0-5.37,0-8.22-2.52-.3-5.03-.3-7.98-.3,0,2.71,0,5.31-.03,8.22Z"/>
      <path class="cls-3" d="M67.71,76.5h-8.45v25.24c2.61,0,5.22,0,8.13,0,.3,0,.28.02.28-.29.04-5.66.08-11.01.07-16.66-.06-2.99-.07-5.66-.07-8.33.01.01.04.04.04.04Z"/>
      <path class="cls-3" d="M101.3,119.02c.32-2.68.32-5.36.33-8.33,0-.3.02-.28-.29-.29-8.55,0-16.78,0-25,0,0,0,.01-.01.01-.01v8.65c8.37,0,16.51,0,24.95-.01Z"/>
      <path class="cls-3" d="M101.62,67.84c0-2.66,0-5.32-.02-8.29-8.29-.3-16.55-.3-25.25-.3,0,2.76,0,5.37,0,8.28,0,.3-.03.27.28.28,2.77.05,5.22.08,8,.08,5.89-.05,11.47-.07,17.03-.08-.01.01-.03.03-.03.03Z"/>
      <path class="cls-3" d="M67.7,101.73c.01,2.73.01,5.47.01,8.66,2.8,0,5.41,0,8.33,0,.31,0,.3,0,.3-.3-.02-2.97-.04-5.63-.36-8.31-2.97-.02-5.64-.01-8.31-.01,0,0,.02-.02.03-.03Z"/>
      <path class="cls-3" d="M76.35,67.83c-2.73.01-5.48.01-8.66.01,0,2.81,0,5.42.01,8.34.01.31-.02.28.28.28,2.92,0,5.53,0,8.33,0v-8.67s.03.03.04.04Z"/>
      <path class="cls-3" d="M110.27,101.73h7.78v-25.26c-2.4,0-4.78,0-7.46,0-.3,0-.28-.02-.29.29,0,8.54,0,16.77,0,24.99,0,0-.02-.02-.02-.02Z"/>
      <path class="cls-3" d="M101.63,110.38c2.72,0,5.44,0,8.66,0,0-2.85,0-5.44,0-8.34,0-.31.01-.29-.29-.29-2.89,0-5.48,0-8.33,0v8.66s-.02-.02-.02-.02Z"/>
      <path class="cls-3" d="M110.28,76.47c0-2.71,0-5.43,0-8.65-2.86,0-5.45,0-8.35,0-.31,0-.29-.01-.29.28.02,2.96.03,5.63.35,8.31,2.97.02,5.65.02,8.32.02,0,0-.02.02-.02.02Z"/>
      <path class="cls-9" d="M101.68,76.41c-.01-2.66-.03-5.33-.04-8.3-5.57-.29-11.15-.27-17.03.08-.3,5.81-.3,11.28-.3,16.9h-16.53c-.04,5.35-.07,10.7-.11,16.36,2.66.31,5.33.31,8.62.31,5.85,0,11.07,0,16.7,0,0-3.28,0-6,0-9.02,0-2.65,0-4.99,0-7.55,3.21,0,5.9,0,8.61-.31.04-3.03.06-5.75.09-8.47Z"/>
      <path class="cls-5" d="M67.75,84.78c5.35.31,10.65.31,16.57.31,0-5.62,0-11.09,0-16.86-2.47-.34-4.92-.38-7.69-.42-.31,2.74-.31,5.49-.31,8.66-2.79,0-5.41,0-8.34-.01-.3,2.67-.28,5.35-.22,8.33Z"/>
      <path class="cls-2" d="M92.99,93.05v8.71c-5.63,0-10.85,0-16.39.02-.3,2.68-.28,5.34-.26,8.32,8.23.31,16.46.31,25.01.31.31-2.72.31-5.44.31-8.65,2.85,0,5.44,0,8.34,0,.31-8.22.3-16.45.3-24.99-2.67-.31-5.34-.31-8.31-.33-.33,2.7-.35,5.42-.37,8.75,0,2.97,0,5.33,0,7.87h-8.63Z"/>
      <path class="cls-5" d="M92.99,92.74c2.72.3,5.44.3,8.63.3,0-2.54,0-4.9-.02-7.55-2.72-.3-5.41-.3-8.62-.3,0,2.56,0,4.9,0,7.55Z"/>
    </g>
  </g>
</svg>