<?xml version="1.0" encoding="UTF-8"?>
<svg id="Layer_2" data-name="Layer 2" xmlns="http://www.w3.org/2000/svg" viewBox="0 0 356.09 262.42">
  <defs>
    <style>
      .cls-1 {
        fill: #30546f;
      }

      .cls-1, .cls-2, .cls-3, .cls-4, .cls-5, .cls-6, .cls-7, .cls-8 {
        stroke-width: 0px;
      }

      .cls-2 {
        fill: #7fccdf;
      }

      .cls-3 {
        fill: #00b0ce;
      }

      .cls-4 {
        fill: #5d86a4;
      }

      .cls-5 {
        fill: #a6c3c9;
      }

      .cls-6 {
        fill: #e3f0ef;
      }

      .cls-7 {
        fill: #1c2e3b;
      }

      .cls-8 {
        fill: #0084b1;
      }
    </style>
  </defs>
  <g id="Layer_5" data-name="Layer 5">
    <g>
      <path class="cls-6" d="M279.54,177.99h-7.87v8.66h-33.95v7.99h-33.95v8.65h-33.95v8.75c-5.78,0-11.28,0-17.39,0-3.23,0-5.85,0-8.79,0v-8.6h-41.81s0-.06,0-.4c.01-2.85.01-5.36.01-8.31h-8.47c-.13-2.8-.24-5.17-.36-7.77-2.92-.17-5.6-.33-8.3-.48-.16-3.01-.29-5.59-.43-8.2-3.02-.16-5.61-.29-8.22-.43-.16-3.02-.29-5.6-.43-8.2-2.8-.17-5.17-.32-7.69-.47,0-5.7,0-11,.31-16.32,14.09-.05,27.87-.08,41.95-.08,5.77.03,11.23.03,16.97.03,0-3.12,0-5.85.31-8.6,5.58-.02,10.86-.02,16.13-.02v-25.31h-7.94v-8.8h-8.69v-8.57c-19.85,0-39.46,0-59.08-.3-.01-2.81-.01-5.32-.01-8.06,2.82-.13,5.2-.25,7.79-.37.13-2.66.24-5.03.37-7.84h8.5v-8.65h17.31v-8.64h41.92v-8.57c42.87,0,85.27,0,127.72.3.04,2.9.04,5.5.04,8.36,2.93,0,5.44,0,7.97.31.02,11.32.02,22.33.02,33.71h8.4v42.55h-8.31c0,5.64,0,11.03-.02,16.74-.04,5.86-.06,11.4-.07,16.94ZM203,84.96h-16.7c0,5.82,0,11.2-.61,16.63h-7.82v42.62h8.61v8.7h8.59v7.64h50.62v-7.8h8.71v-8.7h8.29v-42.6h-8.55v-16.54c-5.66,0-11.06,0-16.52-.61v-7.78h-34.02c0,2.92,0,5.65-.61,8.44Z"/>
      <path class="cls-5" d="M271.47,59.07h-127.68v8.57h-41.92v8.64h-17.31v8.65h-8.5c-.13,2.81-.25,5.18-.37,7.84-2.6.12-4.97.23-7.79.37,0,2.73,0,5.24-.3,8.09-5.84.35-11.38.35-16.91.36v-8.58h8.42v-16.5h8.65v-8.77h7.99v-8.53h17.43c0-2.71,0-5.09.31-7.81,11.42-.38,22.53-.43,33.65-.47h8.59v-8.37h135.87c0,2.63,0,5.24,0,8.47-.04,3.08-.08,5.56-.12,8.03Z"/>
      <path class="cls-3" d="M279.64,160.73v-16.43h8.31v-42.55h-8.4c0-11.38,0-22.39.29-33.73,2.88-.32,5.48-.32,8.16-.32.18,3.19.33,5.77.49,8.79h24.81c.17,3.04.31,5.62.48,8.65h16.81c.19,2.83.34,5.19.52,7.85h16.24c.04,2.64.08,5.29.12,8.54,0,3.28,0,5.95-.31,8.65-2.69.04-5.07.04-7.83.04v8.78h-8.56v16.35c-3.06.14-5.75.27-8.8.41v8.56h-16.54v8.55h-17c-.16,2.83-.3,5.3-.45,7.87h-8.34Z"/>
      <path class="cls-3" d="M84.51,42.45h-8.55v8.57c-2.73,0-5.1,0-7.78-.35-.3-2.92-.3-5.5-.3-8.02h-8.65v8.44s0-.05-.29-.05c-8.42,0-16.55,0-25.06,0v7.8c-3.05.14-5.73.26-8.77.4v8.54h-8.48v8.59s0-.05-.29-.05c-2.88,0-5.48,0-8.36,0v8.7s0-.05-.29-.05c-2.72,0-5.16,0-7.6,0v-17.16h7.73v-8.63h8.63v-8.08h8.76v-8.63h8.64v-8.63h7.97v-7.97h8.64v-8.63h8.64v-8.63h16.74V0h42.56v8.39h8.71c0,2.88,0,5.49-.35,8.41-5.72.31-11.1.31-16.74.31-.14,3.06-.26,5.64-.4,8.68h-16.23c-.15,2.82-.27,5.18-.4,7.77-2.87.14-5.46.26-8.47.4v8.49Z"/>
      <path class="cls-3" d="M59.22,237.39c-2.68-.04-5.36-.08-8.35-.46-.3-2.92-.3-5.49-.3-8.28h-16.69s.05,0,.05-.29c0-2.65,0-5.02,0-7.6h-17.18v-8.61h-8.57v-17.15h8.29v8.22h17.41v8.75h16.63v8.63h33.93v7.87h17.41c0-2.38,0-4.77.35-7.47,8.45-.31,16.56-.31,24.69-.31.2,3.03.36,5.38.53,8h24.89v8.53h-8.57c0,2.94,0,5.54-.35,8.43-22.76.31-45.17.31-67.58.31,0,0,.05,0,.05-.29,0-2.88,0-5.47,0-8.27h-16.65Z"/>
      <path class="cls-8" d="M50.64,101.9c5.58-.31,11.11-.32,16.97-.36,19.92-.04,39.53-.04,59.38-.04v8.57h8.69v8.8h7.94v25.31c-5.27,0-10.55,0-16.15-.29-.32-8.43-.32-16.56-.32-24.69H42.14c-.17,2.65-.32,5.02-.51,7.83H7.95c0,3.11,0,5.75-.3,8.43-2.72.05-5.14.07-7.57.09v-16.52h25.08v-8.69h25.44c0-2.92,0-5.53.04-8.44Z"/>
      <path class="cls-2" d="M279.62,161.05c2.68-.32,5.33-.32,8.36-.32.15-2.57.29-5.03.45-7.87h17v-8.55h16.54v-8.56c3.05-.14,5.74-.27,8.8-.41v-16.35h8.56v-8.78c2.76,0,5.15,0,8.14,0,3.25.02,5.9.03,8.54.05v8.57h-8.43v16.5h-7.99v8.77h-8.66v8.53h-8.66v8.1h-8.66v8.53h-16.63v8.8c-5.83,0-11.33,0-17.13-.05-.29-5.59-.28-11.13-.24-16.99Z"/>
      <path class="cls-8" d="M347.39,92.68c-5.33.31-10.62.31-16.28.31-.18-2.66-.33-5.02-.52-7.85h-16.81c-.17-3.03-.31-5.61-.48-8.65h-24.81c-.17-3.02-.32-5.6-.49-8.79-2.68,0-5.27,0-8.18.02-2.82.02-5.33.02-8.26.02,0-2.86,0-5.46-.04-8.36,0-2.78.04-5.25.13-8.03,8.24-.3,16.43-.3,25.01-.3.13,2.62.26,5.09.4,7.89h24.93v8.54c3.01.13,5.71.25,8.73.38v8.3h8.62v8.73h8.1c0,2.72,0,5.11-.04,7.8Z"/>
      <path class="cls-8" d="M84.52,42.76c0-3.03,0-5.76,0-8.79,3.01-.14,5.59-.27,8.47-.4.14-2.6.26-4.96.4-7.77h16.23c.14-3.03.26-5.62.4-8.68,5.64,0,11.02,0,16.7-.01.34,11.07.38,22.15.41,33.54-11.11.35-22.22.39-33.64.47-3.03.04-5.74.04-8.97.04,0-2.93,0-5.51,0-8.39Z"/>
      <path class="cls-2" d="M.04,135.85c2.46-.32,4.89-.34,7.92-.36,3.22,0,5.82,0,8.8,0v8.84h93.12v8.41c-13.78.03-27.56.06-41.97.1-9.1,0-17.58.02-26.06.03H8.09v-8.53H0c0-2.95,0-5.57.04-8.49Z"/>
      <path class="cls-8" d="M152.35,228.38c-8.2.31-16.36.31-24.93.31-.17-2.62-.33-4.97-.53-8-8.13,0-16.24,0-24.65,0-.34-5.54-.38-11.09-.42-16.94,13.82-.31,27.64-.31,41.81-.31v8.6c2.95,0,5.56,0,8.48.05.3,5.36.28,10.66.24,16.29Z"/>
      <path class="cls-5" d="M41.89,153.17c8.45-.31,16.93-.32,25.73-.32.32,5.32.32,10.62.32,16.32,2.53.15,4.89.3,7.69.47.14,2.6.27,5.19.43,8.2,2.61.14,5.2.27,8.22.43.14,2.61.27,5.2.43,8.2,2.7.16,5.38.31,8.3.48.12,2.59.23,4.96.36,7.77h8.47c0,2.95,0,5.46,0,8.28-5.63.31-11.25.31-17.23.31v-8.57h-8.66v-7.87h-7.99v-8.77h-8.65v-17.16h-17.4c0-2.71,0-5.1-.02-7.79Z"/>
      <path class="cls-2" d="M75.84,246.26c22.39-.31,44.8-.31,67.51-.31.3,2.75.3,5.49.3,8.57h-16.51v7.9h-17.18v-7.72h-34.11c0-2.92,0-5.53-.02-8.45Z"/>
      <path class="cls-2" d="M16.94,76.36c-.31-2.72-.31-5.45-.31-8.57h8.48v-8.54c3.04-.14,5.72-.26,8.77-.4v-7.8c8.51,0,16.64,0,25.08,0,.32,2.53.32,5.05.32,7.91h-17.22v8.52h-7.99v8.85c-5.83,0-11.32,0-17.12.02Z"/>
      <path class="cls-2" d="M33.9,228.97c5.34-.31,10.71-.31,16.67-.31,0,2.79,0,5.36,0,8.23-5.4.3-10.81.3-16.65.3,0-2.69,0-5.3-.02-8.23Z"/>
      <path class="cls-2" d="M59.22,237.7c5.37-.3,10.75-.3,16.64-.3,0,2.79,0,5.39,0,8.29-5.39.31-10.79.31-16.64.31,0-2.81,0-5.4,0-8.3Z"/>
      <path class="cls-2" d="M8.28,85c-.31-2.71-.31-5.43-.31-8.68,2.89,0,5.48,0,8.39,0,.31,2.75.31,5.49.31,8.65-2.86,0-5.47,0-8.39.02Z"/>
      <path class="cls-2" d="M59.54,51.08c-.31-2.7-.31-5.43-.31-8.41h8.65c0,2.52,0,5.1,0,7.97-2.68.34-5.35.38-8.34.44Z"/>
      <path class="cls-8" d="M356.05,109.96c-2.68.29-5.32.28-8.27.22-.3-2.7-.3-5.37-.28-8.35,2.73-.31,5.44-.31,8.59-.31,0,2.96,0,5.55-.04,8.44Z"/>
      <path class="cls-2" d="M25.27,221.07c2.72-.3,5.44-.3,8.66-.3,0,2.58,0,4.95,0,7.63-2.74.31-5.47.31-8.65.31,0-2.59,0-4.96,0-7.64Z"/>
      <path class="cls-2" d="M.05,85.29c2.48-.31,4.92-.31,7.67-.31.31,2.52.31,5.04.31,7.77H0C0,90.36,0,87.97.05,85.29Z"/>
      <path class="cls-3" d="M110.2,152.78c-.31-2.68-.31-5.33-.31-8.44H16.76v-8.84c-2.98,0-5.59,0-8.5-.04-.31-2.68-.31-5.32-.31-8.43h33.68c.18-2.81.33-5.18.51-7.83h85c0,8.13,0,16.27.01,24.71.01,3.04.01,5.77.01,8.9-5.74,0-11.2,0-16.97-.03Z"/>
      <path class="cls-3" d="M237.69,84.91h16.46v16.54h8.55v42.6h-8.29v8.7h-8.71v7.8h-50.62v-7.64h-8.59v-8.7h-8.61v-42.62c2.6,0,5.21,0,8.15,0,.34,0,.41.07.38.37,0,2.95.03,5.6.02,8.56,0,5.66.01,11.01,0,16.67-.04,2.9-.04,5.49-.04,8.32,3.17,0,5.9,0,8.63.31,0,2.92,0,5.53,0,8.43h8.76v8.35h33.85c0-2.94,0-5.69.31-8.44,2.68,0,5.06,0,7.68,0,0-3.18,0-5.91.31-8.64,2.92,0,5.53,0,8.15,0v-25.27c-2.91,0-5.65,0-8.42-.31-.07-3-.11-5.68-.11-8.68.04-2.91.04-5.51.04-8.4h-8.04c0-2.8,0-5.32.03-7.86.03-.03.1-.1.1-.1Z"/>
      <path class="cls-3" d="M203.62,84.91v-8.38h34.02c0,2.59,0,5.18.03,8.09.03.3-.04.37-.38.38-11.41.02-22.47.04-33.57.03-.03-.03-.1-.1-.1-.1Z"/>
      <path class="cls-3" d="M186.34,101.58c-.03-5.41-.03-10.79-.03-16.61,5.76,0,11.23,0,17.01-.03.31-.03.37.04.38.38,0,2.78,0,5.22-.3,7.66-2.91,0-5.52,0-8.34,0,0,3.19,0,5.93-.31,8.66-2.97.01-5.63.04-8.29.06,0,0-.07-.07-.1-.1Z"/>
      <path class="cls-7" d="M203.7,92.98c0-2.44,0-4.89.02-7.63,11.09-.32,22.16-.34,33.53-.33.31,2.54.31,5.05.31,7.86h8.04c0,2.89,0,5.49-.34,8.41-5.63.34-10.92.37-16.52.37-3.03-.04-5.75-.06-8.45-.38.02-2.89.02-5.48.02-8.33-5.89,0-11.27,0-16.63,0,0,0,.02.02.02.02Z"/>
      <path class="cls-7" d="M237.63,144.18v8.44h-33.85v-8.35h-8.76c0-2.9,0-5.51,0-8.43,0-.31,0-.32.32-.32,5.57,0,10.83,0,16.43,0v8.64c8.86,0,17.35,0,25.85,0,0,0,0,0,0,0Z"/>
      <path class="cls-4" d="M229.04,101.68c5.29-.03,10.58-.05,16.17-.09.34,2.68.39,5.37.42,8.67-.03,3.27-.06,5.92-.4,8.59-5.55.02-10.8.02-16.19.02v-17.2Z"/>
      <path class="cls-7" d="M245.54,118.83c.03-2.65.06-5.3.12-8.26,2.77-.31,5.51-.31,8.42-.31v25.27c-2.63,0-5.24,0-8.16,0-.31,0-.32,0-.32-.32-.02-5.67-.04-11.03-.07-16.38Z"/>
      <path class="cls-4" d="M186.46,126.91c-.02-5.35-.04-10.7.27-16.36,2.99-.31,5.65-.31,8.3,0,.02,2.97.04,5.64.05,8.61-.04,2.78-.05,5.25-.37,7.72-2.95.01-5.6.02-8.25.03Z"/>
      <path class="cls-7" d="M186.43,127.21c2.68-.32,5.33-.33,8.29-.03.31,2.98.31,5.66.31,8.34,0,0,0,0,0,0-2.73,0-5.46,0-8.63,0,0-2.83,0-5.43.04-8.32Z"/>
      <path class="cls-7" d="M195.05,110.23c-2.66,0-5.32,0-8.28,0-.33-2.66-.35-5.31-.35-8.26,2.69-.32,5.35-.34,8.31-.37.3,0,.28-.02.29.29,0,3,0,5.69,0,8.36.01-.01.03-.03.03-.03Z"/>
      <path class="cls-7" d="M245.62,135.53c0,2.73,0,5.46,0,8.64-2.62,0-5,0-7.68,0-.31,0-.31,0-.32-.32,0-2.87,0-5.42,0-8.34h7.98s0,0,0,0Z"/>
      <path class="cls-7" d="M195.03,101.61c0-2.73,0-5.47,0-8.65,2.82,0,5.43,0,8.34,0,.31,0,.29,0,.29.29,0,2.99-.02,5.68-.01,8.36.01-.01.03-.03-.28-.03-3,0-5.69,0-8.38,0,0,0,.02.02.02.02Z"/>
      <path class="cls-1" d="M245.61,135.21c-2.48.31-4.95.31-7.99.31,0,2.92,0,5.47,0,8.34-8.5.31-17,.31-25.85.31v-8.64c-5.6,0-10.86,0-16.43,0-.31-2.68-.32-5.36-.32-8.35.01-2.78.02-5.25.37-8.01,8.39-.29,16.44-.29,24.92-.29,0-6.09,0-11.71,0-17.31,0,.02-.05,0-.05,0,2.72.02,5.44.04,8.47.08.31,5.54.31,11.05.31,17.22,5.4,0,10.64,0,16.19-.02.33,5.33.35,10.69.37,16.36Z"/>
      <path class="cls-4" d="M203.65,101.63c0-2.69.01-5.38.01-8.37,5.37-.31,10.74-.31,16.63-.31,0,2.85,0,5.43-.02,8.33-.02.31.02.32-.29.32-5.65,0-10.99.02-16.34.03Z"/>
      <path class="cls-7" d="M203.67,101.62c5.33,0,10.68-.01,16.33-.05.31,5.6.31,11.22.31,17.31-8.48,0-16.53,0-24.9-.02-.33-2.68-.36-5.35-.38-8.32,0-.31-.01-.29.29-.28,2.89,0,5.48,0,8.38,0v-8.68s-.02.02-.03.03Z"/>
      <path class="cls-4" d="M203.39,101.59c.31,2.72.31,5.44.31,8.67-2.89,0-5.48,0-8.39,0-.3-2.68-.3-5.37-.3-8.37,2.69-.31,5.38-.3,8.38-.31Z"/>
    </g>
  </g>
</svg>