<?xml version="1.0" encoding="UTF-8"?>
<svg id="Layer_2" data-name="Layer 2" xmlns="http://www.w3.org/2000/svg" viewBox="0 0 253.62 262.18">
  <defs>
    <style>
      .cls-1 {
        fill: #e88156;
      }

      .cls-1, .cls-2, .cls-3, .cls-4, .cls-5, .cls-6, .cls-7, .cls-8, .cls-9, .cls-10, .cls-11, .cls-12, .cls-13, .cls-14, .cls-15, .cls-16, .cls-17, .cls-18, .cls-19, .cls-20 {
        stroke-width: 0px;
      }

      .cls-2 {
        fill: #181e36;
      }

      .cls-3 {
        fill: #01657d;
      }

      .cls-4 {
        fill: #5ebed7;
      }

      .cls-5 {
        fill: #0088a1;
      }

      .cls-6 {
        fill: #f2aa58;
      }

      .cls-7 {
        fill: #fff;
      }

      .cls-8 {
        fill: #005b6f;
      }

      .cls-9 {
        fill: #00414d;
      }

      .cls-10 {
        fill: #a6c3c9;
      }

      .cls-11 {
        fill: #a95f3a;
      }

      .cls-12 {
        fill: #e3f0ef;
      }

      .cls-13 {
        fill: #fae081;
      }

      .cls-14 {
        fill: #6d4d38;
      }

      .cls-15 {
        fill: #006e88;
      }

      .cls-16 {
        fill: #6b6356;
      }

      .cls-17 {
        fill: #a68049;
      }

      .cls-18 {
        fill: #8bcadc;
      }

      .cls-19 {
        fill: #005b6e;
      }

      .cls-20 {
        fill: #6c383b;
      }
    </style>
  </defs>
  <g id="Layer_7" data-name="Layer 7">
    <g>
      <path class="cls-12" d="M67.45,92.87v-17.17h8.01v-8.03h8.69v-17.33h8.69v-8.57h16.44v-7.9h8.7v-8.69h17.34v-8.68h25.32V7.74c2.9,0,5.52,0,8.45.35.31,2.95.31,5.55.31,8.38h8.02v8.63c3.09,0,5.83,0,8.6.31.02,2.9.02,5.49.02,8.3,3.13,0,5.86,0,8.62.31.03,2.69.03,5.08.03,7.72,3.15,0,5.89,0,8.63-.02,0-.02-.03,0,0,.3.03,2.9.03,5.5.03,8.38h8.09v8.58c3.03,0,5.76,0,8.52.31.05,2.97.07,5.64-.23,8.31-2.91,0-5.51,0-8.54,0v16.43c-2.81.16-5.18.29-7.65.43-.15,2.94-.28,5.53-.4,8.12h-8.53v-33.57c-3.16,0-5.9,0-8.94-.03-2.97-.02-5.63,0-8.29-.31.01-2.97.01-5.64.01-8.34-3.01,0-5.52,0-8-.31.01-2.93.01-5.54.01-8.17h-25.88c0,2.93,0,5.67-.31,8.43-2.82.02-5.32.04-8.13.04-2.91,0-5.52,0-8.25,0,0,3.18,0,5.93-.31,8.66-2.93-.01-5.55-.01-8.31-.01,0,11.53,0,22.69-.02,34.16-.02,5.58-.02,10.83-.02,16.2,3.15.16,5.75.29,8.44.42.15,2.95.28,5.54.43,8.53h50.08v8.36c-2.62.13-5,.25-7.54.38-.13,2.91-.25,5.5-.38,8.27-2.91.13-5.5.25-8.27.38-.14,2.68-.26,5.06-.4,7.84-5.93,0-11.55,0-17.48-.02-5.61-.05-10.92-.08-16.24-.41-.01-2.69-.01-5.07-.01-7.75h-17.48v-8.6h-7.83v-8.59h-17.36v-8.66c-3.06,0-5.81,0-8.57-.3-.02-2.68-.02-5.06-.02-7.67-2.93,0-5.44,0-7.97-.31-.06-2.97-.1-5.64-.13-8.31Z"/>
      <path class="cls-10" d="M185.97,59.01h8.64v33.57h8.53c.13-2.59.26-5.18.4-8.12,2.47-.14,4.84-.27,7.65-.43v-16.43c3.03,0,5.63,0,8.84,0,3.21,0,5.79,0,8.72,0v8.04h8.52v8.46h-8.45v17.31h-8.79v8h-8.56v8.67h-8.01v8.55h-8.67v8.79h-8.67v7.89h-8.67v8.67h-7.89v8.77c-2.95,0-5.57,0-8.8,0-3.22,0-5.83,0-8.82,0v-8.79h-8.59v-8.47h17.17c.14-2.78.26-5.15.4-7.84,2.77-.13,5.36-.25,8.27-.38.13-2.77.25-5.36.38-8.27,2.55-.13,4.92-.25,7.54-.38v-8.36h-50.08c-.15-2.99-.28-5.58-.43-8.53-2.7-.14-5.29-.27-8.44-.42,0-5.36,0-10.62.32-16.17,2.99-.29,5.67-.29,8.33.02-.01,2.92-.01,5.54-.01,8.43h8.72v7.73h33.95v-7.88h7.99v-8.65h8.5v-33.78Z"/>
      <path class="cls-8" d="M177.44,177.31h8.28v25.75c-2.48.13-5.07.27-8.06.43-.14,2.41-.27,4.78-.44,7.8h-16.42c-6.06,0-11.5,0-17.32,0v8.69s-.02-.04-.31-.04c-11.44-.01-22.58-.02-33.7-.34.04-5.65.06-10.98.07-16.32,0,0-.02.04.27.04,2.9,0,5.51,0,8.3,0v-8.6s.07-.08.41-.08c14.21,0,28.09,0,42.03,0,.19-3.21.34-5.79.51-8.72h8.17c.14-2.94.26-5.52.41-8.59h7.82Z"/>
      <path class="cls-19" d="M143.06,143.46c.31,2.76.31,5.5.31,8.5h8.59v8.79c2.98,0,5.59,0,8.51.04.3,2.68.3,5.32-.01,8.27-2.9.31-5.49.31-8.17.31-.14,2.96-.25,5.24-.38,8.08h-33.66s-.07-.07-.08-.42c0-2.73,0-5.11,0-7.64-5.85,0-11.26,0-16.65-.31-.01-2.99-.03-5.66.26-8.34,2.69,0,5.07,0,7.51,0,.2-3.26.36-5.84.54-8.78h17.04v-8.6c5.31.03,10.61.05,16.23.1Z"/>
      <path class="cls-19" d="M237.58,75.62c-3.03.02-5.75.02-8.83.02v-8.04c-2.93,0-5.52,0-8.41,0-.32-2.67-.34-5.34-.08-8.32,2.88-.31,5.48-.31,8.56-.31v-17.14c3-.14,5.5-.25,8.48-.38v-25.08h16.3v42.35c-2.5.13-5.09.27-8.14.43v16.45c-2.83,0-5.21,0-7.89.02Z"/>
      <path class="cls-3" d="M58.81,84.19c.04,2.69.07,5.38-.19,8.38-2.9.31-5.5.31-8.19.31-.15,3.19-.26,5.69-.39,8.43-2.65.16-5.01.29-7.87.46v16.16c-3.09.18-5.68.33-8.21.48v16.87c2.85.14,5.35.25,8.33.4,0,5.68,0,11.08-.01,16.79,0,5.85,0,11.4-.29,16.94-3-.05-5.69-.09-8.38-.43,0-2.81,0-5.31,0-8.02-3.09-.16-5.68-.29-8.67-.45v-51.04s0,.05.3.05c2.87,0,5.46,0,8.36,0v-16.68s0,.05.3.05c2.87,0,5.44,0,8.36,0v-8.7s0,.05.3.05c5.62,0,10.94-.02,16.27-.03Z"/>
      <path class="cls-3" d="M245.32,16.06c-2.5.31-5.01.31-8.01.31v25.08c-2.98.13-5.48.25-8.48.38v17.14c-3.09,0-5.68,0-8.6,0-3.04,0-5.77,0-8.8,0v-8.58h-8.09c0-2.89,0-5.48.29-8.4,2.66-.32,5.03-.32,7.89-.32v-16.42c3.07-.19,5.65-.34,8.49-.51,0-5.95,0-11.46.31-16.99,5.88-.01,11.45-.02,17.02-.03h7.97c0,2.9,0,5.46.02,8.33Z"/>
      <path class="cls-11" d="M58.85,245.11h-8.49v8.76c-2.69,0-5.05,0-8.04,0-11.63,0-22.64,0-34.08,0v-25.37c.03-2.64.07-5.28.43-8.24,2.67-.32,5-.32,7.56-.32v-8.74c.03-2.42.06-4.84.43-7.57,5.85-.34,11.36-.37,16.89-.08.01,2.76,0,5.21-.31,7.68-2.82.02-5.33.02-8.29.02v17.32h-8.42v16.29h25.54c.16-2.92.3-5.51.45-8.41h7.54c.13-2.7.24-5.07.38-7.88,2.99,0,5.73,0,8.46.31-.02,5.62-.03,10.93-.05,16.23Z"/>
      <path class="cls-9" d="M118.2,177.76c11.16-.3,22.29-.3,33.69-.3.13-2.85.24-5.13.38-8.08,2.68,0,5.27,0,8.17,0,5.7,0,11.09,0,16.96,0,0,2.76,0,5.05.01,7.64-2.5.3-5.01.3-7.81.3-.15,3.06-.27,5.65-.41,8.59h-8.17c-.17,2.93-.32,5.51-.51,8.72-13.94,0-27.81,0-41.99-.03-.32-5.53-.34-11.03-.33-16.83Z"/>
      <path class="cls-19" d="M42.29,152.15v-16.48c-2.98-.14-5.48-.26-8.33-.4v-16.87c2.53-.15,5.12-.3,8.21-.48v-16.16c2.86-.17,5.22-.31,7.87-.46.13-2.74.24-5.24.39-8.43,2.69,0,5.29,0,8.2,0,2.95,0,5.58,0,8.51,0,.34,2.66.38,5.33.12,8.32-2.88.32-5.47.32-8.15.32-.18,2.97-.32,5.33-.46,7.8-2.92.15-5.5.28-8.35.43,0,5.92,0,11.51-.03,17.41-.03,2.91-.03,5.52-.03,8.33,3.18,0,5.93,0,8.66-.02-.01-.02-.05-.05-.03.26.04,2.76.07,5.22.07,7.99-.02,2.88-.02,5.45-.02,8.44-3.29,0-6,0-9.01-.03-2.74-.01-5.19,0-7.63.03Z"/>
      <path class="cls-5" d="M237.33,7.42c-5.56.31-11.13.32-17.32.32-5.88,0-11.14,0-16.47,0-.14,3.18-.25,5.68-.39,8.66h-17.14v8.7h-8.58v-8.63h-8.02c0-2.82,0-5.42,0-8.33,5.4-.3,10.81-.3,16.57-.3V0h51.34c0,2.35,0,4.73.01,7.42Z"/>
      <path class="cls-5" d="M24.63,109.47c.31,16.89.31,33.8.31,51.02,2.99.15,5.58.29,8.67.45,0,2.71,0,5.22-.31,8.07-5.84.36-11.36.36-16.89.37v-59.88c2.71,0,5.31,0,8.22-.02Z"/>
      <path class="cls-20" d="M7.94,228.52c.3,8.24.3,16.5.3,25.35,11.44,0,22.45,0,33.78.02.32,2.67.32,5.31.32,8.28H0v-33.63c2.61,0,5.12,0,7.94-.02Z"/>
      <path class="cls-14" d="M59.16,245.14c-.29-5.34-.28-10.64-.26-16.26,0-.31,0-.31.31-.31,2.9,0,5.49,0,8.41,0,0-3.29,0-5.93.3-8.59,2.67-.03,5.03-.03,7.75-.03v-8.84c3.08,0,5.8,0,8.54.08.01.08.02.23.02.23v16.92c-2.9.14-5.49.27-8.45.41-.14,2.46-.27,4.84-.42,7.57-2.45.14-4.82.27-7.57.42-.13,2.66-.26,5.26-.41,8.42-2.68,0-5.29,0-8.21-.03Z"/>
      <path class="cls-14" d="M33.53,203.24c-5.51.02-11.02.05-16.83.09-.3-2.71-.3-5.43-.3-8.48,2.83-.13,5.41-.24,8.35-.37.13-2.7.25-5.28.39-8.25,2.66-.13,5.24-.26,8.46-.41,0-2.61,0-5.18.29-8.1,2.98-.37,5.66-.4,8.36-.11.04,3.02.07,5.74.07,8.75-.03,2.88-.03,5.46-.03,8.39h-8.76v8.49Z"/>
      <path class="cls-3" d="M109.42,219.89c11.14.01,22.29.03,33.75.05.32,2.73.32,5.46.32,8.6-14.1,0-27.74,0-41.68-.33-.29-2.99-.28-5.66-.27-8.32,0,0-.01.05.27.04,2.73-.02,5.17-.03,7.62-.04Z"/>
      <path class="cls-6" d="M42.23,177.29c-2.68.03-5.37.06-8.36.12-5.93.04-11.54.04-17.55.04,0-2.69,0-5.08.05-7.77,5.57-.31,11.1-.32,16.93-.37,3,0,5.69.03,8.67.07.3,0,.27-.03.28.28,0,2.76-.03,5.22-.02,7.68.02,0,0-.04,0-.04Z"/>
      <path class="cls-3" d="M143.78,219.95c-.31-2.7-.31-5.41-.31-8.67,5.82,0,11.26,0,17.02,0,.32,2.72.32,5.43.32,8.65-5.84,0-11.28,0-17.02.02Z"/>
      <path class="cls-16" d="M101.53,177.26v17.4c-2.8,0-5.37,0-8.31,0-.38,0-.53-.03-.47-.34.04-2.98.02-5.66.04-8.64.04-2.98.05-5.65.37-8.32,3.01,0,5.71-.01,8.39-.03-.03-.01-.01-.07-.01-.07Z"/>
      <path class="cls-5" d="M33.28,92.84c.31,5.34.31,10.7.31,16.66-2.9,0-5.48,0-8.38,0-.31-5.37-.31-10.73-.31-16.63,2.9,0,5.49,0,8.39-.02Z"/>
      <path class="cls-17" d="M92.91,194.67c.08,5.38.08,10.75.08,16.65-2.97,0-5.56,0-8.46.05-.3.05-.31-.1-.32-.48,0-5.65.02-10.92.33-16.21,2.92-.02,5.53-.04,8.14-.05,0,0,.15.03.23.04Z"/>
      <path class="cls-5" d="M58.85,83.88c-5.36.32-10.68.33-16.33.33-.32-2.74-.32-5.47-.32-8.41h16.68c0,2.59,0,5.18-.03,8.08Z"/>
      <path class="cls-6" d="M109.45,219.59c-2.47.32-4.92.33-7.67.36-.31-5.4-.31-10.82-.31-16.65,2.63,0,5.03,0,7.74-.01.3,5.32.28,10.66.24,16.31Z"/>
      <path class="cls-6" d="M101.48,169.4h16.66c0,2.52,0,4.91-.02,7.6-5.34.32-10.65.33-16.28.3-.31-.04-.33.02-.32-.27,0-2.76.02-5.22,0-7.67-.01.01-.04.04-.04.04Z"/>
      <path class="cls-5" d="M41.94,84.19c.31,2.69.31,5.4.31,8.68-2.92,0-5.49,0-8.38,0-.31-2.72-.31-5.43-.31-8.65,2.92,0,5.5,0,8.39-.02Z"/>
      <path class="cls-6" d="M101.23,219.91c.3,2.65.29,5.31.27,8.28-2.75.3-5.48.3-8.43.3v-8.56c2.63,0,5.24,0,8.16-.01Z"/>
      <path class="cls-6" d="M117.79,194.68c.31,2.76.31,5.49.31,8.62-2.78,0-5.39,0-8.32.01-.31-2.73-.31-5.48-.31-8.66,2.81,0,5.41,0,8.32.02Z"/>
      <path class="cls-14" d="M15.93,211.23c.3,2.67.3,5.37.3,8.72-2.57,0-4.9,0-7.53.02-.3-2.69-.3-5.39-.3-8.71,2.54,0,4.88,0,7.53-.02Z"/>
      <path class="cls-3" d="M126.82,143.05c.01,3.04.01,5.77.01,8.9h-17.04c-.18,2.95-.34,5.53-.54,8.78-2.44,0-4.82,0-7.81,0-6.16-.02-11.7-.04-17.24-.03,0,.02.05.03.03-.28-.02-2.92-.02-5.54-.02-8.37-3.19,0-5.94,0-8.67,0,.02,0,.04.05.03-.26-.03-2.98-.05-5.65-.05-8.63.03-11.45.05-22.58.07-33.72h8.55v8.66h17.36v8.59h7.83v8.6h17.48c0,2.68,0,5.06.01,7.75Z"/>
      <path class="cls-3" d="M185.66,58.99c.3,11.19.3,22.35.3,33.81h-8.5v8.65h-7.99v7.88h-33.95v-7.73h-8.72c0-2.9,0-5.51,0-8.42,0-.3-.03-.28.29-.28,5.58,0,10.85,0,16.46,0v8.44h17.27c0-2.92,0-5.66.3-8.42,2.89-.02,5.47-.02,8.29-.02,0-3.21,0-5.93,0-8.66,0,0,0,.01.31,0,2.69,0,5.08,0,7.7,0,0-8.77,0-17.04-.01-25.29-.01.01-.04.04-.04.04,2.67,0,5.33-.02,8.3,0Z"/>
      <path class="cls-5" d="M75.57,109.15c0,11.44-.02,22.57-.36,34-2.77.28-5.23.27-7.66.26.02,0,.04.05.03-.26-.01-2.71-.01-5.11-.01-7.73h-8.69s.03.03.03-.27c0-2.9,0-5.51,0-8.31h-8.59v-17.1c2.85-.15,5.43-.28,8.35-.43.15-2.47.29-4.83.46-7.8,2.68,0,5.27,0,8.16-.01,2.82-.01,5.33-.01,8.26-.01,0,2.61,0,4.99.02,7.67Z"/>
      <path class="cls-15" d="M186.02,25.4c-.02-3.04-.02-5.77-.02-9h17.14c.13-2.98.24-5.48.39-8.66,5.34,0,10.59,0,16.16,0,.31,5.53.31,11.04.31,16.99-2.83.17-5.41.33-8.49.51v16.42c-2.86,0-5.23,0-7.92.01-.31.01-.28,0-.27-.3,0-2.65,0-5,0-7.69h-17.3c0-2.81,0-5.4-.02-8.3Z"/>
      <path class="cls-7" d="M135.39,50.32c2.5-.01,5.01-.02,8.13-.03,6.14.04,11.66.07,17.2.41.02,5.7.02,11.09.02,16.82-8.67,0-16.95,0-25.24-.3-.06-2.97-.09-5.64-.09-8.61.02-2.96,0-5.62-.02-8.28Z"/>
      <path class="cls-3" d="M126.82,92.86c-2.66,0-5.33,0-8.31-.03-.3-11.18-.3-22.34-.3-33.87,2.77,0,5.38,0,8.3,0,.3,0,.27-.03.28.29,0,11.43,0,22.54,0,33.65,0,0,.02-.02.04-.04Z"/>
      <path class="cls-3" d="M160.7,50.4c-5.52-.03-11.04-.07-16.87-.12-.31-2.76-.31-5.5-.31-8.43h25.88c0,2.63,0,5.25,0,8.16,0,.3.03.27-.28.28-3.01.04-5.72.08-8.42.11Z"/>
      <path class="cls-3" d="M135.08,50.32c.32,2.67.34,5.33.02,8.3-3,.32-5.66.32-8.32.31,0,0,.03.03.04.04.01-2.74.01-5.48.01-8.66,2.73,0,5.34,0,8.25,0Z"/>
      <path class="cls-3" d="M169.39,50.32c2.49.01,4.99.01,8,.01,0,2.7,0,5.36-.01,8.34-.01.31.02.28-.28.28-2.68,0-5.07,0-7.66,0v-8.67s-.03.03-.04.04Z"/>
      <path class="cls-3" d="M194.66,34.01c2.68-.31,5.39-.31,8.68-.31,0,2.7,0,5.05-.01,7.71-2.75.31-5.49.31-8.64.31,0-2.64,0-5.03-.03-7.72Z"/>
      <path class="cls-6" d="M84.2,160.68c5.54.02,11.08.03,16.93.07.33,2.69.35,5.36.36,8.35-.01.31.02.28-.28.28-2.96.03-5.63.06-8.61.06-3.01-.04-5.71-.04-8.41-.36,0-3.01,0-5.7,0-8.4Z"/>
      <path class="cls-6" d="M42.28,152.46c2.45-.33,4.9-.35,7.65-.03.35,2.97.38,5.61.38,8.56-.03,2.91-.03,5.51-.03,8.37h-8.04s.03.03.04.04c0-5.53,0-11.08,0-16.94Z"/>
      <path class="cls-1" d="M84.24,194.69c-.01,5.27-.03,10.55-.05,16.12-2.73.3-5.45.3-8.53.3v8.84c-2.72,0-5.08,0-8.06,0-3.19,0-5.76,0-8.7,0v8.62s0,0,0,0c-2.74,0-5.47,0-8.46,0-.13,2.81-.25,5.18-.38,7.88h-7.54c-.16,2.9-.3,5.49-.45,8.41h-25.54v-16.29h8.42v-17.32c2.96,0,5.47,0,8.32.01.33.01.39.07.37.37-.02,5.69-.02,11.07-.02,16.68h8.44c.14-2.82.27-5.4.41-8.19,2.67-.15,5.04-.29,7.55-.44.16-2.9.31-5.49.48-8.53h16.81c.19-2.84.34-5.21.51-7.64,2.73-.18,5.09-.34,7.78-.52,0-3.01,0-5.65.3-8.31,2.95-.04,5.61-.05,8.28-.05.02.02.05.05.05.05Z"/>
      <path class="cls-1" d="M33.56,203.55c-.03-3.02-.03-5.74-.03-8.8h8.76c0-2.93,0-5.51.33-8.41,2.76-.33,5.2-.34,7.63-.04,0,5.78,0,11.24,0,16.75-3,.2-5.36.36-7.76.52-.19,2.74-.35,5.1-.53,7.76h-8.3s-.06-.06-.09-.08c-.02-2.48,0-4.93-.02-7.69Z"/>
      <path class="cls-2" d="M50.34,160.67c-.03-2.64-.06-5.28-.11-8.21,2.7-.3,5.41-.3,8.7-.3,0-2.99,0-5.56.32-8.43,2.99-.29,5.66-.28,8.33-.26,0,0-.01-.05-.02.26,0,2.92,0,5.54,0,8.39h8.02s-.01-.05-.02.26c0,2.98,0,5.67-.3,8.35-8.51-.01-16.71-.03-24.91-.05Z"/>
      <path class="cls-6" d="M50.29,127.15c2.76-.31,5.5-.31,8.62-.31,0,2.8,0,5.41.01,8.33-2.73.31-5.48.31-8.66.31,0-2.82,0-5.42.03-8.33Z"/>
      <path class="cls-6" d="M67.58,143.15c-2.66.3-5.32.29-8.29.26-.33-2.47-.36-4.92-.4-7.69,2.74-.31,5.5-.31,8.68-.31,0,2.63,0,5.03.01,7.73Z"/>
      <path class="cls-11" d="M59.21,228.57c-.31-2.7-.31-5.4-.31-8.62,2.94,0,5.52,0,8.4.03.31,2.66.31,5.3.31,8.59-2.91,0-5.5,0-8.41,0Z"/>
      <path class="cls-17" d="M50.25,185.99c-2.43.01-4.87.02-7.6.05-.33-2.69-.36-5.4-.4-8.43,0-.31,0-.27.3-.27,2.78.03,5.27.06,7.75.39-.03,2.96-.04,5.61-.05,8.27,0,0,0-.01,0-.01Z"/>
      <path class="cls-16" d="M50.31,177.43c-2.49-.03-4.98-.05-7.79-.09-.3-2.46-.28-4.92-.27-7.68,2.5-.31,5.01-.31,8.03-.31,0-2.87,0-5.46.03-8.37,8.23-.29,16.43-.28,25.25-.26,3.31,0,6,0,8.69,0,0,0-.05,0-.05-.03,0,2.67,0,5.37,0,8.37,0,.3.02.28-.29.29-5.65.04-10.99.08-16.63.08-2.89-.03-5.48-.03-8.39-.03,0,2.97,0,5.46.01,7.96.01,0,.02-.03-.29-.02-2.97.03-5.63.06-8.3.09Z"/>
      <path class="cls-6" d="M92.84,177.36c0,2.67-.01,5.34-.35,8.32-2.97.33-5.6.35-8.26.35-.03-.03-.09-.09-.07-.39.05-2.98.08-5.66.41-8.32,2.96.03,5.62.04,8.28.04,0,0,0,0,0,0Z"/>
      <path class="cls-1" d="M84.26,186.06c2.63-.02,5.26-.04,8.19-.07.32,2.67.33,5.35.29,8.33-2.67.31-5.29.33-8.2.35-.3.01-.34-.02-.34-.34.02-2.97.04-5.62.06-8.27Z"/>
      <path class="cls-2" d="M92.91,169.46c2.67-.03,5.34-.06,8.32-.11.3,2.45.3,4.91.32,7.68-2.68.31-5.38.32-8.39.32-.31,0-.3,0-.3-.3.02-2.73.04-5.16.06-7.59Z"/>
      <path class="cls-6" d="M84.23,160.42c-2.67.31-5.36.31-8.36.3-.31-2.69-.32-5.37-.34-8.36,2.74-.31,5.49-.31,8.68-.31,0,2.83,0,5.45.02,8.37Z"/>
      <path class="cls-6" d="M75.56,151.8c-2.52.31-5.06.31-8.01.31,0-2.85,0-5.47-.01-8.4,2.44-.3,4.9-.29,7.65-.25.32,2.69.34,5.36.37,8.34Z"/>
      <path class="cls-18" d="M169.12,50.29c.31,2.73.31,5.47.31,8.66,2.6,0,4.98,0,7.68-.01.31,8.26.31,16.53.31,25.3-2.62,0-5.01,0-7.7-.31-.31-2.9-.31-5.5-.31-8.09h-8.43v8.4h8.44v8.65c-2.82,0-5.4,0-8.6,0-3.21,0-5.8,0-8.84,0v-17.4h-16.47v-7.98h25.22c0-5.72,0-11.12-.02-16.82,2.69-.34,5.39-.37,8.4-.42Z"/>
      <path class="cls-4" d="M135.49,67.22c.02,2.81.02,5.31.02,8.28h16.47v17.4c3.04,0,5.63,0,8.54.02.31,2.75.31,5.49.31,8.41h-17.27v-8.44c-5.61,0-10.88,0-16.46,0-.31-11.11-.3-22.22-.31-33.64,2.65-.31,5.31-.31,8.27-.32.34,2.65.37,5.32.43,8.3Z"/>
      <path class="cls-16" d="M92.6,169.43c.29,2.46.27,4.89.25,7.63-2.66.3-5.32.29-8.3-.04-.33-2.77-.32-5.22-.32-7.67,0,0-.02.02-.03.03,2.69.01,5.39.02,8.4.06Z"/>
      <path class="cls-6" d="M33.65,211.64c2.66-.31,5.3-.31,8.32-.31.18-2.66.34-5.02.53-7.76,2.4-.16,4.76-.32,7.76-.52,0-5.51,0-10.98,0-16.75,0-.31,0-.3.3-.3,2.96-.01,5.62-.02,8.3.28.02,2.91.02,5.51.02,8.31,5.99,0,11.3,0,16.64.03.03.03.09.09.09.09v8.29c-2.69.18-5.05.34-7.78.52-.16,2.43-.32,4.8-.51,7.64h-16.81c-.17,3.05-.32,5.63-.48,8.53-2.52.15-4.88.28-7.55.44-.14,2.78-.27,5.37-.41,8.19h-8.44c0-5.61,0-10.99.02-16.68Z"/>
      <path class="cls-6" d="M84.23,186.03c0,2.68-.02,5.33-.05,8.28-2.66.32-5.32.34-8.27.38-.3.02-.36-.04-.37-.37,0-2.91,0-5.49,0-8.38h8.61s.06.06.09.09Z"/>
      <path class="cls-1" d="M58.83,185.96c-2.66.01-5.32.02-8.29.03-.3-2.66-.29-5.31-.26-8.27,2.68-.33,5.34-.35,8.31-.08.28,2.97.26,5.64.23,8.31Z"/>
      <path class="cls-13" d="M58.86,186.28c0-2.98.03-5.65.05-8.63,0-.31,0-.28.3-.29,2.9,0,5.5,0,8.38,0v-7.88c5.34-.04,10.67-.07,16.32-.12.31,2.44.31,4.89.33,7.64,0,2.98-.03,5.66-.08,8.65-2.66.3-5.3.3-8.63.3,0,2.88,0,5.46-.02,8.35-5.33.3-10.64.3-16.63.3,0-2.81,0-5.4-.02-8.31Z"/>
      <path class="cls-1" d="M67.28,169.44c.31,2.46.31,4.88.31,7.92-2.88,0-5.48,0-8.39,0-.31-2.49-.31-4.99-.31-7.96,2.92,0,5.5,0,8.39.03Z"/>
      <path class="cls-7" d="M169.41,84.23c-2.73,0-5.47,0-8.43,0v-8.4h8.43c0,2.58,0,5.18,0,8.09,0,.31,0,.3,0,.3Z"/>
    </g>
  </g>
</svg>