<?xml version="1.0" encoding="UTF-8"?>
<svg id="Layer_2" data-name="Layer 2" xmlns="http://www.w3.org/2000/svg" viewBox="0 0 254.52 228.53">
  <defs>
    <style>
      .cls-1 {
        fill: #30546f;
      }

      .cls-1, .cls-2, .cls-3, .cls-4, .cls-5, .cls-6, .cls-7, .cls-8 {
        stroke-width: 0px;
      }

      .cls-2 {
        fill: #01657d;
      }

      .cls-3 {
        fill: #0088a1;
      }

      .cls-4 {
        fill: #5d86a4;
      }

      .cls-5 {
        fill: #a6c3c9;
      }

      .cls-6 {
        fill: #e3f0ef;
      }

      .cls-7 {
        fill: #1c2e3b;
      }

      .cls-8 {
        fill: #005b6e;
      }
    </style>
  </defs>
  <g id="Layer_6" data-name="Layer 6">
    <g>
      <path class="cls-6" d="M93.06,160.71v-8.55h-8.03v-8.7h-8.71v-7.92h-8.47v-8.59h-8.71v-8.7h-8.05v-8.7h-8.71v-16.57h-8.47v-8.59h-8.85c0-2.89,0-5.5.31-8.46,2.92-.34,5.52-.34,8.41-.34,0-2.92,0-5.43.31-7.97,2.91-.02,5.52-.02,8.43-.02v-17.49h8.61v-8.5h7.91c0-2.84,0-5.36.3-7.91,2.95-.05,5.6-.08,8.56-.08,5.79.02,11.27.02,16.86.02.16,2.95.29,5.32.44,8.1h16.14v8.61h-16.36c0,3.16,0,5.89,0,8.61,0-.01.02,0-.3,0-2.89,0-5.47,0-8.32,0,0,3.28,0,6-.02,9.02-.02,2.74,0,5.19-.31,7.62-2.93-.01-5.55-.01-8.18-.01v25.97c2.94,0,5.69,0,8.45.31.01,2.67.01,5.02.01,7.62,3.09,0,5.89,0,8.67.31-.01,2.93-.01,5.55-.01,8.16h25.26c0-2.96,0-5.71.31-8.46,2.97,0,5.63-.02,8.6-.02,2.68.02,5.04.02,7.73.02,0-3.01,0-5.5,0-7.98,0,.01-.02,0,.29,0,2.91,0,5.51,0,8.54,0v-25.62h8.3c.15,2.9.28,5.49.42,8.15,2.97.15,5.57.29,8.58.45v16.83c2.82.17,5.19.3,7.62.45.16,2.74.3,5.11.44,7.55,2.97.15,5.56.29,8.22.43.16,2.97.29,5.56.43,8.22,2.98.16,5.57.29,8.38.44,0,5.9,0,11.42-.3,16.99-2.91.04-5.52.04-8.42.04v-8.43h-16.6c0,2.94,0,5.68-.31,8.43-2.9.01-5.5.01-8.33.01,0,2.91,0,5.41-.31,7.95-2.91.03-5.51.03-8.23.03,0,6.03,0,11.63-.02,17.54-.02,2.9-.02,5.49-.02,8.47-3.31,0-6.04,0-9.06-.02-2.68-.02-5.07-.02-7.75-.02v-8.55c-5.93,0-11.54,0-17.46-.05-2.95-.06-5.6-.06-8.25-.07Z"/>
      <path class="cls-5" d="M178.13,135.34v-16.95c-2.81-.15-5.4-.28-8.38-.44-.14-2.65-.27-5.24-.43-8.22-2.66-.14-5.25-.27-8.22-.43-.14-2.44-.28-4.81-.44-7.55-2.43-.14-4.81-.28-7.62-.45v-16.83c-3.02-.16-5.61-.29-8.58-.45-.14-2.66-.27-5.25-.42-8.15h-8.3v25.62c-3.03,0-5.63,0-8.53-.32-.3-8.67-.3-17.03-.3-25.74h-8.17v-8h-8.55v-8.48h-25.19v-8.63h16.36v-8.61h-16.14c-.15-2.78-.28-5.15-.44-8.1-5.59,0-11.07,0-16.83-.32-.27-5.84-.25-11.36-.23-16.87h17.23v8.48h7.89v8.66h17.31v7.87h8.67v8.78h16.65v8.54h8.67v8.78h8.67v7.88h8v8.66h8.55v8.78c2.95,0,5.55,0,8.46.03.3.03.32.06.34.36.02,2.88.02,5.45.02,8.31,3.18,0,5.89,0,8.63.31.02,5.54.02,10.77.02,16.36h8v25.18c-2.56,0-4.94,0-7.65-.32-.33-2.7-.33-5.08-.33-7.76h-8.7Z"/>
      <path class="cls-2" d="M101.62,160.83h17.15v8.55c2.68,0,5.06,0,7.78.33.33,2.7.33,5.07.33,7.75h8.69v8.3c-2.84.14-5.43.26-8.56.42v17.08h-7.92c-.12,2.78-.23,5.15-.35,7.93h-8.37v17.34c-5.88,0-11.36,0-17.14-.33-.3-14.19-.3-28.05-.3-41.98,3.25-.19,5.84-.33,8.68-.5v-24.9Z"/>
      <path class="cls-2" d="M59.04,33.74v7.88h-7.91v8.5h-8.61v17.49c-2.91,0-5.52,0-8.74,0-3.22,0-5.81,0-8.89,0v-17.08c-2.85-.19-5.21-.35-7.92-.54v-16.13c-2.94-.14-5.53-.26-8.55-.4V8.43c2.9,0,5.46,0,8.34.33.31,2.61.31,4.89.31,7.65h16.43c.16,3.05.3,5.64.46,8.68h25.08v8.67Z"/>
      <path class="cls-3" d="M135.62,160.65v-17.23c2.73,0,5.33,0,8.25.29.32,2.88.32,5.48.32,8.14,3.26.19,5.85.34,8.78.51v8.16c2.73.15,5.1.27,7.68.41.15,2.89.28,5.48.42,8.23,2.91.16,5.5.3,8.21.45.17,2.7.32,5.07.48,7.54,2.94.17,5.53.31,8.18.46.17,2.98.32,5.56.49,8.43,5.72,0,11.03,0,16.35.31,0,2.89,0,5.47,0,8.36h8.58v8.39h-33.76v-8.28h-8.64v-8.75h-7.98v-8.74c-2.96,0-5.57,0-8.48-.34-.3-5.55-.3-10.77-.3-16.33h-8.59Z"/>
      <path class="cls-3" d="M195.11,118.21c-2.82.03-5.33.03-8.31.03,0-5.58,0-10.82.29-16.37,14.09-.35,27.88-.37,41.99-.38,5.89,0,11.47-.02,17.05-.04h8.39v16.72c-19.78,0-39.44,0-59.41.03Z"/>
      <path class="cls-3" d="M101.32,160.79c.3,8.21.3,16.37.3,24.94-2.84.16-5.43.31-8.68.5,0,13.92,0,27.78-.01,41.95-2.53.3-5.05.3-7.92.3v-8.45h-8.43v-42.48c2.59-.12,5.29-.24,8.33-.37v-7.68h8.08c0-2.96,0-5.56.04-8.48,2.69-.3,5.34-.29,8.29-.23Z"/>
      <path class="cls-3" d="M8.1,16.36c.31,5.6.31,11.21.31,17.11,3.02.14,5.61.26,8.55.4v16.13c2.7.18,5.07.34,7.92.54v17.08c3.07,0,5.67,0,8.58.02.31,2.53.31,5.04.31,7.96-2.88,0-5.49,0-8.4.04-2.83.04-5.35.04-8.23.04v-7.93h-8.64v-8.75H0V16.37c2.59,0,5.19,0,8.1-.01Z"/>
      <path class="cls-8" d="M59.34,33.71c-.3-2.7-.3-5.43-.3-8.64h-25.08c-.16-3.04-.3-5.62-.46-8.68h-16.43c0-2.76,0-5.04,0-7.62,2.5-.3,5.01-.3,7.96-.3V0h25.78c.13,2.65.26,5.24.4,8.17,2.48.14,4.85.27,7.57.42.14,2.46.27,4.82.44,7.82,2.67,0,5.27,0,8.17.02.29,5.54.27,11.06.22,16.88-2.68.33-5.32.35-8.27.4Z"/>
      <path class="cls-8" d="M246.11,101.15c-5.56.32-11.14.34-17.03.04-.32-2.83-.32-5.34-.32-8.22h-50.65s-.03-.04-.02-.06c.01-2.76.01-5.49.01-8.45h59.28v8.4h8.7c0,2.96,0,5.47.02,8.29Z"/>
      <path class="cls-8" d="M177.82,135.39c3.05-.04,5.79-.04,9.01-.04,0,2.68,0,5.06.02,7.75.01,2.98,0,5.65-.02,8.65,0,.33-.06.38-.36.36-5.77-.01-11.23-.01-16.78-.01-.14-3.2-.25-5.69-.37-8.46-2.85-.14-5.43-.27-8.24-.41-.15-2.64-.28-5-.44-7.81h-7.83v-8.42h16.6v8.43c2.9,0,5.51,0,8.42-.04Z"/>
      <path class="cls-8" d="M203.4,194.39c-2.66.32-5.3.32-8.61.32,0-2.89,0-5.47,0-8.68-.01-5.95-.02-11.28,0-16.64.02-.02.07-.07.07-.07h8.57c0,8.58,0,16.67-.03,25.07Z"/>
      <path class="cls-5" d="M135.6,160.96c2.73-.31,5.45-.31,8.6-.31,0,5.57,0,10.78,0,16.3-2.68.34-5.35.38-8.33.47-3.04.05-5.77.05-8.99.05,0-2.69,0-5.06-.03-7.73,2.69-.3,5.42-.3,8.73-.3,0-2.98,0-5.57.02-8.47Z"/>
      <path class="cls-8" d="M186.84,152.05c2.45-.02,4.87-.02,7.98-.02,0,5.75,0,11.22.02,16.99.02.31-.03.35-.36.36-2.69,0-5.05,0-7.71,0v-17.27s.05-.05.07-.07Z"/>
      <path class="cls-2" d="M186.47,152.1c.31,5.52.31,11.03.31,17.28,2.66,0,5.02,0,7.68.01.31,5.35.33,10.68.33,16.32-5.32.32-10.63.32-16.35.32-.17-2.87-.32-5.45-.49-8.43-2.65-.15-5.24-.3-8.18-.46-.16-2.47-.31-4.84-.48-7.54-2.71-.15-5.3-.29-8.21-.45-.14-2.75-.27-5.34-.42-8.23-2.58-.14-4.95-.26-7.68-.41v-8.16c-2.93-.17-5.52-.32-8.78-.51,0-2.66,0-5.26-.01-8.17-.01-2.82-.01-5.33-.01-8.23,2.83,0,5.43,0,8.33-.01,2.82-.01,5.33-.01,8.13-.01.16,2.8.29,5.16.44,7.81,2.81.14,5.39.27,8.24.41.12,2.77.23,5.26.37,8.46,5.55,0,11.01,0,16.78.01Z"/>
      <path class="cls-7" d="M84.99,58.97c8.28.01,16.56.01,25.2.01v8.48h8.55v8h8.17c0,8.71,0,17.06-.01,25.73-.01.31.01.33-.3.33-2.78,0-5.24-.01-7.69-.01.01.01.04.04.03-.27-.03-2.97-.06-5.63-.07-8.6.02-2.91.02-5.51.02-8.46-9.02,0-17.43,0-25.88-.3-.03-2.89-.03-5.47-.03-8.31-5.94,0-11.31,0-16.67.01.01.01.03.03.03.03,0-2.44-.01-4.88.31-7.66,2.93-.33,5.53-.33,8.35-.33v-8.64s-.02-.02-.02,0Z"/>
      <path class="cls-7" d="M76.29,101.55h-8.44v-25.97c2.63,0,5.25,0,8.18.01.31.01.29,0,.28.29.02,5.84.05,11.38.05,17.23-.03,3-.03,5.69-.05,8.4-.01.01-.03.03-.03.03Z"/>
      <path class="cls-7" d="M110.24,109.48v8.47h-25.26c0-2.61,0-5.23,0-8.15,0-.3-.02-.28.29-.28,8.55,0,16.78,0,25,0-.01-.01-.03-.03-.03-.03Z"/>
      <path class="cls-5" d="M84.69,58.97c.31,2.74.31,5.47.31,8.65-2.82,0-5.42,0-8.33.03-.3-2.68-.3-5.4-.3-8.69,2.85,0,5.43,0,8.32,0Z"/>
      <path class="cls-7" d="M84.99,109.49c-2.79-.01-5.58-.01-8.67-.01,0-2.6,0-4.96-.01-7.62-.01-.31.01-.33.33-.34,3,0,5.67,0,8.35.31-.01,2.77-.02,5.23-.02,7.69,0,0,.02-.02.03-.03Z"/>
      <path class="cls-7" d="M118.84,109.45c-2.66.02-5.32.03-8.29.04-.31-.01-.29.01-.28-.29.02-2.76.03-5.22.02-7.68-.02,0-.02.05.29.03,2.99-.01,5.68-.01,8.36,0,0,0-.02-.02-.03.27-.03,2.74-.05,5.19-.08,7.64Z"/>
      <path class="cls-5" d="M119.15,109.46c-.29-2.46-.26-4.91-.25-7.66,2.45-.3,4.91-.29,7.68-.3.31,2.48.31,4.97.31,7.98-2.69,0-5.06,0-7.73-.02Z"/>
      <path class="cls-2" d="M178.13,93.26c16.69-.3,33.4-.3,50.63-.3,0,2.88,0,5.39,0,8.21-13.79.33-27.58.35-41.7.39-3.03.02-5.74.02-8.92.02,0-2.86,0-5.43-.02-8.31Z"/>
      <path class="cls-1" d="M84.98,101.52c-2.68,0-5.36,0-8.34-.02-.3-2.7-.3-5.39.03-8.37,5.54-.29,10.75-.29,16.37-.29v-8.68h25.85c0,2.94,0,5.54-.32,8.44-2.88.29-5.44.29-8.3.29v8.67s0-.05-.29-.05c-8.53,0-16.76,0-24.99,0Z"/>
      <path class="cls-4" d="M93.01,83.87c.03,3.02.03,5.73.03,8.98-5.62,0-10.83,0-16.35-.02-.33-5.56-.36-11.1-.39-16.95,5.36-.31,10.74-.31,16.68-.31,0,2.84,0,5.42.03,8.31Z"/>
      <path class="cls-4" d="M110.58,101.55c-.31-2.68-.31-5.38-.31-8.65,2.86,0,5.42,0,8.28.02.33,2.68.36,5.34.39,8.31-2.68.31-5.36.3-8.36.32Z"/>
      <path class="cls-4" d="M84.98,101.83c8.24-.31,16.47-.31,25.02-.31.3,2.46.29,4.92.28,7.69-8.23.3-16.46.3-25.01.3-.31-2.46-.3-4.92-.29-7.68Z"/>
    </g>
  </g>
</svg>