<?xml version="1.0" encoding="UTF-8"?>
<svg id="Layer_2" data-name="Layer 2" xmlns="http://www.w3.org/2000/svg" viewBox="0 0 245.11 245.75">
  <defs>
    <style>
      .cls-1 {
        fill: #30546f;
      }

      .cls-1, .cls-2, .cls-3, .cls-4, .cls-5, .cls-6, .cls-7, .cls-8 {
        stroke-width: 0px;
      }

      .cls-2 {
        fill: #cb3030;
      }

      .cls-3 {
        fill: #de4e3d;
      }

      .cls-4 {
        fill: #5d86a4;
      }

      .cls-5 {
        fill: #a6c3c9;
      }

      .cls-6 {
        fill: #e3f0ef;
      }

      .cls-7 {
        fill: #1c2e3b;
      }

      .cls-8 {
        fill: #e6766e;
      }
    </style>
  </defs>
  <g id="Layer_2-2" data-name="Layer 2">
    <g>
      <path class="cls-6" d="M50.26,93.61c0-5.63,0-11.25,0-17.17h8.67v-16.66h8.69v-8.69h8.03v-8.57h8.46v-8.57h8.69v-8.02h8.7v-8.69h16.67v-8.74c5.78,0,11.28,0,17.09.35.31,5.78.31,11.22.31,16.94,2.95,0,5.45,0,7.96.31.02,2.7.02,5.09.02,7.83h8.79v8.57h8.69v8.69h8.58v8.69h8.03v7.91h8.69v8.69h8.58v8.69h8.03v8.55c2.99,0,5.73,0,8.5.3.04,2.72.07,5.14.07,7.87-.02,2.91-.02,5.51-.02,8.18-3.25.17-5.84.31-8.49.45-.16,2.98-.3,5.58-.44,8.21-2.77.17-5.14.31-7.95.48v16.16c-3.05.16-5.65.3-8.27.44-.16,3.01-.3,5.6-.45,8.5h-8.39v8.36c-2.82.13-5.19.24-8,.37v8.48h-8.67v16.68c-3.19,0-5.93,0-8.98-.03-2.9-.03-5.5-.03-8.42-.03v-8.68c-5.72,0-11.09,0-16.48-.31-.03-2.69-.03-5.08-.03-7.69-6.04,0-11.66,0-17.29-.31-.02-2.91-.02-5.51-.02-8.38-2.94,0-5.45,0-7.96.02.02.03.07,0,.03-.31-.04-2.91-.04-5.51-.04-8.46h-17.46v-8.56h-8.69v-8.02h-7.91v-8.68h-8.68v-17.18c-2.98,0-5.72,0-8.49-.3-.07-2.75-.12-5.19-.16-7.63ZM83.69,67.68h-8.1c0,3.13,0,5.86-.61,8.64h-7.07v25.48h7.88v8.48c2.98,0,5.71,0,8.51.61.03,2.66.06,5.31.04,8.59v7.82h25.25c0-2.98,0-5.7,0-8.4,0,0-.03,0,.6,0h16.83c0-3.24,0-5.88.6-8.6h8.06c0-5.84,0-11.19.59-16.63h7.41c0-3.33,0-5.96.6-8.65h7.62v-25.43c-2.95,0-5.58,0-8.3-.6v-8.06c-3.11,0-5.52,0-7.99-.6v-7.85c-3.26,0-6,0-9.35-.06h-24.67c0,3.12,0,5.86-.61,8.63h-8.06c0,3.14,0,5.87-.61,8.64h-7.98c0,2.97,0,5.48-.62,7.99Z"/>
      <path class="cls-5" d="M152.17,178.17h8.67v-16.68h8.67v-8.48c2.81-.13,5.19-.24,8-.37v-8.36h8.39c.15-2.9.29-5.5.45-8.5,2.62-.14,5.22-.28,8.27-.44v-16.16c2.8-.17,5.17-.31,7.95-.48.14-2.63.28-5.22.44-8.21,2.65-.14,5.24-.28,8.49-.45,0-2.66,0-5.26.33-8.16,5.87-.25,11.41-.21,16.95-.17v17.07h-8.47v16.62h-8.76v17.29h-8.53v8.65h-8.11v16.74h-8.65v8.53h-8.75c0,2.94,0,5.55-.35,8.47-5.61.31-10.86.31-16.38.31v-8.69c-3,0-5.74,0-8.51-.3-.05-2.94-.07-5.58-.09-8.22Z"/>
      <path class="cls-2" d="M152.28,186.7h8.48v8.69h16.33c.3,5.37.3,10.74.3,16.64-2.47,0-4.84,0-7.83,0-3.19,0-5.77,0-8.67,0v8.71s0-.05-.3-.05c-2.87,0-5.44,0-8.35,0v8.04s0-.05-.3-.05c-5.52,0-10.75,0-16.34,0v8.71s0-.05-.3-.05c-3.01,0-5.73,0-8.46.01,0,0,.05,0,.05-.3,0-2.88,0-5.47,0-8.36h-8.53v-7.88h8.28v-8.69h-16.98v-8.54h-16.56v8.48c-2.91,0-5.52,0-8.46-.02-.34-.02-.42-.09-.39-.39.03-5.45.03-10.6.03-16.23h17.33v-17.09c2.82-.15,5.18-.28,7.97-.43,0-5.65,0-11.02.02-16.41.02-.02.05-.05.05-.05h17.28c0,2.61,0,5-.29,7.7-2.89.31-5.48.31-8.57.31v17.13c-3,.13-5.5.25-8.19.37v8.24c2.84.15,5.43.3,8.15.44.18,2.69.33,5.05.48,7.43h16.83c.18-2.68.35-5.04.52-7.5,2.67-.13,4.95-.24,7.49-.36.14-2.86.27-5.44.42-8.5h8.51Z"/>
      <path class="cls-3" d="M50.45,101.55h8.46v17.18h8.68v8.68h7.91v8.02h8.69v8.56h17.46c0,2.95,0,5.56-.28,8.48-8.62.32-16.97.32-25.5.32-.16,3.13-.28,5.72-.43,8.72h-25.03v-8.63h-8.7c0-2.85,0-5.44,0-8.65,0-3.2,0-5.79,0-8.47-2.94-.19-5.3-.35-7.98-.52,0-8.57,0-16.8,0-25.02,0,.02-.03,0,.28.01,2.68,0,5.06,0,7.68,0,0-3.3,0-5.94.31-8.59,3.03-.05,5.74-.08,8.46-.1Z"/>
      <path class="cls-2" d="M229.07,101.67c-5.85,0-11.39-.04-17.23-.1-.33-2.44-.36-4.86-.39-7.89,0-3.21,0-5.81,0-8.48,3.26-.19,5.85-.35,8.54-.51,0-19.93,0-39.43.04-58.95.04-.03.15-.02.15-.02h8.52v7.85c2.77.12,5.24.23,8.01.35v16.96h8.41v42.64h-8.27v8.11c-2.69,0-5.08,0-7.77.04Z"/>
      <path class="cls-8" d="M143.51,25.78h-7.94c0-5.72,0-11.15,0-16.89,2.52-.3,5.05-.3,7.94-.3V0h59.21v8.36h8.7v8.7h8.7c0,2.85,0,5.46.02,8.37.02.3-.08.3-.42.32-5.73.03-11.11.03-16.72.03-.15-3.08-.27-5.67-.4-8.4h-41.55c-.13,2.82-.25,5.4-.39,8.41h-17.15Z"/>
      <path class="cls-8" d="M58.99,161.82c5.37-.31,10.75-.31,16.44-.31.15-3,.28-5.59.43-8.72,8.53,0,16.88,0,25.54-.02.32-.02.27.02.24.3-.03,2.99-.04,5.68-.36,8.38-5.78,0-11.26,0-16.75,0-.2,3.04-.35,5.4-.54,8.21h-16.44v16.89c-2.92.13-5.52.24-8.56.37v16.25c-3.04.14-5.63.25-8.58.38,0,3.03,0,5.76-.02,8.8-.03,2.94-.05,5.57-.06,8.2h-8.44v-25.01h8.39v-17.37h8.71c0-5.52,0-10.79-.02-16.36Z"/>
      <path class="cls-8" d="M16.4,169.34H7.9v-16.35H0v-17.36h7.63v-25.34h8.72v-8.69c5.75,0,11.24,0,17.05,0,.32,0,.33.01.33.32-.02,2.98-.03,5.65-.05,8.32,0,0,.04,0-.27,0-2.91,0-5.51,0-8.39,0,0,3.31,0,5.96-.31,8.62-2.82.02-5.33.02-8.31.02v50.46Z"/>
      <path class="cls-3" d="M16.71,169.38c-.31-16.7-.31-33.36-.31-50.51,2.99,0,5.5,0,8.33.3.32,8.4.32,16.49.32,25.02h8.73v17.12h-8.55v8.11c-3,0-5.61,0-8.52-.04Z"/>
      <path class="cls-2" d="M34.08,144.19c-3.03.01-5.75.01-9.03.01,0-8.53,0-16.63-.02-25.04-.02-2.97-.02-5.62-.02-8.92,2.87,0,5.47,0,8.38-.01.31,8.22.31,16.45.31,25.02,2.68.18,5.04.33,7.98.52,0,2.68,0,5.27-.01,8.17-2.44.29-4.87.27-7.59.26Z"/>
      <path class="cls-2" d="M84.34,212.04c.04,2.75.04,5.47.04,8.64-5.58,0-10.8,0-16.37-.02-.35-.02-.42-.09-.39-.39.03-2.79.03-5.29.03-8.35h16.58s.08.08.12.12Z"/>
      <path class="cls-3" d="M135.91,237.34c-.31-2.69-.31-5.41-.31-8.68,5.59,0,10.82,0,16.36,0,.32,2.74.32,5.47.32,8.64-5.58,0-10.82,0-16.37.03Z"/>
      <path class="cls-8" d="M50.42,101.24c-2.69.33-5.4.36-8.73.38-3.06,0-5.51-.01-7.95-.02,0,0-.01-.01-.02-.02,0-2.52,0-5.03,0-7.98,5.47,0,10.7,0,16.25,0,.35,2.44.39,4.89.46,7.63Z"/>
      <path class="cls-3" d="M118.33,228.97c2.68-.31,5.31-.31,8.57-.31,0,2.89,0,5.48,0,8.39-2.74.32-5.46.32-8.61.32,0-2.91,0-5.5.04-8.4Z"/>
      <path class="cls-3" d="M126.87,237.63c2.69-.31,5.42-.32,8.45-.31.31,2.75.31,5.5.31,8.43h-8.74c0-2.59,0-5.2-.03-8.11Z"/>
      <path class="cls-2" d="M50.65,220.6c-.29-2.67-.28-5.3.06-8.25,2.9-.32,5.47-.32,8.4-.32,0,3.3,0,5.92-.04,8.58-.04.04-.12.12-.12.12-2.66-.03-5.33-.06-8.3-.13Z"/>
      <path class="cls-3" d="M161.2,220.71c-.31-2.68-.31-5.39-.31-8.68,2.91,0,5.48,0,8.37,0,.31,2.73.31,5.46.31,8.64-2.88,0-5.48,0-8.37.03Z"/>
      <path class="cls-3" d="M152.55,228.69c-.31-2.46-.31-4.95-.31-8.01,2.91,0,5.49,0,8.38,0,.32,2.51.32,5.01.32,7.98-2.9,0-5.49,0-8.39.03Z"/>
      <path class="cls-2" d="M67.7,220.69c.04,2.55.04,5.05.04,7.76h-8.73c0-2.37,0-4.74-.02-7.42-.02-.3.05-.38.39-.39,2.96-.03,5.58-.05,8.21-.07,0,0,.08.08.12.12Z"/>
      <path class="cls-3" d="M143.53,26.09c5.6-.31,11.21-.31,17.13-.31.14-3,.26-5.59.39-8.41h41.55c.13,2.73.25,5.32.4,8.4,5.61,0,10.99,0,16.68,0,.3,19.5.3,39,.3,58.93-2.69.16-5.28.32-8.54.51,0,2.66,0,5.26-.01,8.18-2.76.31-5.5.31-8.49.31v-8.55h-8.03v-8.69h-8.58v-8.69h-8.69v-7.91h-8.03v-8.69h-8.58v-8.69h-8.69v-8.57h-8.79c0-2.74,0-5.13-.02-7.83Z"/>
      <path class="cls-3" d="M152.26,186.4c-2.71.3-5.45.3-8.48.3-.15,3.06-.28,5.64-.42,8.5-2.55.12-4.83.23-7.49.36-.17,2.45-.33,4.82-.52,7.5h-16.83c-.15-2.37-.31-4.74-.48-7.43-2.72-.15-5.31-.29-8.15-.44v-8.24c2.69-.12,5.19-.23,8.19-.37v-17.13c3.09,0,5.69,0,8.6,0,5.68,0,11.06,0,16.77,0v8.68c2.92,0,5.52,0,8.42.03.33,2.67.35,5.31.4,8.25Z"/>
      <path class="cls-3" d="M84.25,110.27h-8.45v-8.48h-7.88v-25.48c2.31,0,4.69,0,7.41,0,.34,0,.4.07.38.38-.03,5.76-.03,11.21-.03,16.96,3.15,0,5.87,0,8.62.31.01,2.67.01,5.04.01,7.68,3.18,0,5.91,0,8.64.31.04,2.96.06,5.62-.23,8.28-3.03.02-5.75.03-8.46.04Z"/>
      <path class="cls-5" d="M143.68,59.59h8.22v25.43c-2.61,0-5.11,0-7.97-.01-.35-.01-.44-.1-.42-.41,0-8.48,0-16.66.02-24.88.05-.05.14-.13.14-.13Z"/>
      <path class="cls-3" d="M101.58,51.01v-8.6c8.41,0,16.54,0,25,.33.34,3,.35,5.66.05,8.31-8.53,0-16.75.01-24.99,0-.02-.02-.05-.05-.05-.05Z"/>
      <path class="cls-5" d="M109.59,118.86v8.43h-25.25c0-2.64,0-5.23.33-8.11,8.53-.3,16.72-.31,24.92-.32Z"/>
      <path class="cls-2" d="M109.6,118.88c-8.2,0-16.4,0-24.91,0-.33-2.67-.36-5.33-.42-8.29,2.69-.32,5.41-.33,8.74-.34,5.95,0,11.28,0,16.6.3-.02,2.99-.04,5.67-.05,8.35,0,0,.03,0,.03-.01Z"/>
      <path class="cls-5" d="M109.88,118.89c-.3-2.68-.29-5.36-.28-8.34-.01-.3,0-.27.31-.28,5.85-.04,11.4-.06,16.98-.04.05.05.14.14.14.14v8.52c-5.87,0-11.35,0-17.14,0Z"/>
      <path class="cls-5" d="M135.68,93.74v16.55c-3.06,0-5.56,0-8.35.04-.3.04-.39-.06-.41-.41,0-5.66.02-10.96.34-16.28,2.95-.04,5.6-.07,8.29-.05.05.05.13.14.13.14Z"/>
      <path class="cls-5" d="M126.94,51.07c-.01-2.66-.02-5.33-.05-8.29,2.72-.3,5.46-.3,8.72-.3,0,2.83,0,5.34-.01,8.2-.01.35-.1.44-.4.42-2.97-.04-5.64-.05-8.3-.04,0,.02.05.02.05.02Z"/>
      <path class="cls-3" d="M92.91,59.63v-8.59c2.87,0,5.47,0,8.37-.02.31-.02.34.02.35.34-.04,3.01-.08,5.69-.42,8.35-2.92,0-5.54.02-8.2,0-.03-.03-.1-.1-.1-.1Z"/>
      <path class="cls-3" d="M75.63,76.3c-.03-2.76-.03-5.49-.03-8.62,2.9,0,5.5,0,8.41,0,.31,0,.31,0,.31.31-.03,2.98-.07,5.66-.4,8.34-2.93.02-5.55.05-8.18.07,0,0-.07-.06-.1-.1Z"/>
      <path class="cls-5" d="M143.63,85.04c.05,2.67.05,5.29.05,8.62-2.7,0-5.05,0-7.7.04-.3.04-.39-.06-.4-.41,0-3,.02-5.64.34-8.3,2.73-.04,5.15-.07,7.58-.09,0,0,.1.09.14.14Z"/>
      <path class="cls-5" d="M135.63,50.97c2.45-.05,4.85-.05,7.96-.05,0,2.92,0,5.49.04,8.36.04.3-.06.39-.4.41-2.77,0-5.2-.02-7.64-.34-.04-2.95-.07-5.59-.09-8.24,0,0,.09-.1.14-.14Z"/>
      <path class="cls-3" d="M84.31,67.68c0-2.51,0-5.03,0-7.99,2.79,0,5.39,0,8.29-.03.3-.03.37.04.38.37,0,2.74,0,5.14-.32,7.58-2.99.05-5.67.05-8.35.06,0,0,0,0,0,0Z"/>
      <path class="cls-2" d="M101.6,161.46c0-2.7.02-5.39.03-8.4,2.53-.31,5.04-.31,7.98-.31,0,2.87,0,5.47.02,8.38.02.31-.01.34-.34.35-2.78,0-5.24,0-7.69,0Z"/>
      <path class="cls-3" d="M101.29,161.46c2.77,0,5.23,0,7.99.02.31,5.38.31,10.75.31,16.4-2.79.15-5.15.28-7.97.43v17.09h-17.33c0,5.63,0,10.78-.03,16.23-5.39.3-10.75.3-16.61.3,0,3.06,0,5.56-.03,8.35-2.65.32-5.28.34-8.2.33-.3-2.65-.3-5.27-.3-8.57-2.93,0-5.5,0-8.38.01-.3-2.72-.3-5.45-.3-8.48,2.95-.13,5.53-.25,8.58-.38v-16.25c3.04-.13,5.63-.25,8.56-.37v-16.89h16.44c.18-2.81.34-5.17.54-8.21,5.49,0,10.96,0,16.75,0Z"/>
      <path class="cls-2" d="M33.73,101.92c2.45-.3,4.9-.3,7.64-.27.3,2.66.3,5.3.3,8.6-2.63,0-5,0-7.68,0-.3-2.67-.28-5.34-.26-8.32Z"/>
      <path class="cls-7" d="M75.7,76.7c2.65-.33,5.28-.35,8.25-.07.37,2.96.4,5.62.41,8.59-.02,3-.02,5.69-.04,8.4-.02.02-.05.04-.05.04h-8.6c0-5.75,0-11.2.03-16.96Z"/>
      <path class="cls-7" d="M109.61,110.24c-5.31,0-10.64,0-16.27,0-.33-2.67-.35-5.32-.37-8.3,0-.32.03-.35.34-.34,5.66.03,11,.05,16.33.38-.02,2.97-.03,5.64-.04,8.31,0,0,0-.04.01-.04Z"/>
      <path class="cls-7" d="M92.95,101.62c-2.74.02-5.46.02-8.64.02,0-2.64,0-5.01-.01-7.68-.01-.31.02-.33.34-.34,2.91,0,5.5,0,8.36,0v7.97s-.03.03-.04.05Z"/>
      <path class="cls-2" d="M135.61,59.66c2.43.02,4.85.03,7.58.08.32,8.2.34,16.38.33,24.86-2.45.33-4.88.36-7.62.38-.32,0-.36-.04-.34-.35,0-8.51,0-16.7,0-24.92.02-.02.05-.05.05-.05Z"/>
      <path class="cls-1" d="M101.5,59.74c.04-2.68.09-5.37.14-8.35,8.23-.32,16.45-.33,24.99-.33.31,0,.27,0,.28.3.03,2.96.05,5.63.05,8.61-.02,2.66-.02,5.02-.02,7.64-3.32,0-6.03,0-8.72-.3.02-2.59.02-4.88.02-7.59-5.82,0-11.21,0-16.64.02-.03.02-.1,0-.1,0Z"/>
      <path class="cls-2" d="M109.91,110.27c-.3-2.66-.3-5.33.03-8.32,2.9-.33,5.48-.33,8.38-.33,0-2.97,0-5.47.3-7.97,2.95-.03,5.61-.04,8.27-.04.02.02.05.05.05.05-.02,5.3-.03,10.61-.08,16.22-5.57.33-11.11.36-16.97.39Z"/>
      <path class="cls-2" d="M135.59,84.99c0,2.66-.02,5.31-.06,8.26-2.67.33-5.32.35-8.27.39-.3.01-.34-.02-.34-.35,0-2.9,0-5.49,0-8.36h8.63s.03.03.05.05Z"/>
      <path class="cls-2" d="M126.98,59.66c-.02-2.67-.05-5.34-.08-8.32,2.66-.3,5.33-.29,8.3-.25.33,2.67.35,5.32.39,8.27.01.3-.02.34-.34.34-2.97-.01-5.62-.03-8.27-.04Z"/>
      <path class="cls-7" d="M92.96,67.58c0-2.4.01-4.81.04-7.51,2.65-.32,5.28-.34,8.2-.34.29.02.37.04.39.32.02,2.74,0,5.2.01,7.65.01-.01.03-.03-.28-.03-3-.02-5.68-.06-8.37-.09Z"/>
      <path class="cls-4" d="M92.66,67.61c2.99,0,5.68.02,8.67.36.3,5.87.29,11.43-.03,16.99-5.84-.02-11.38-.05-16.91-.07-.03-2.66-.07-5.31-.14-8.27,0-2.98.03-5.66.06-8.64,2.68-.32,5.36-.32,8.35-.37Z"/>
      <path class="cls-1" d="M84.36,85.21c5.56-.29,11.09-.27,17.25-.24h16.71v16.64c-2.91,0-5.48,0-8.37.02-5.65,0-11-.02-16.65-.05-.31-2.43-.31-4.86-.31-7.97-2.86,0-5.45,0-8.35,0-.31-2.7-.31-5.39-.28-8.39Z"/>
      <path class="cls-7" d="M118.63,93.64c-.3-2.7-.3-5.41-.3-8.67-5.65,0-10.87,0-16.4,0-.31-5.56-.3-11.13-.29-17,0-.31-.01-.29.29-.29,5.63-.02,10.95-.05,16.27-.08h8.74c0-2.62,0-4.98.02-7.64,2.67-.29,5.32-.28,8.27-.25.31,8.21.32,16.41.32,24.91-2.73.31-5.44.31-8.64.31,0,2.87,0,5.45-.01,8.34-2.66.32-5.32.34-8.27.37Z"/>
      <path class="cls-4" d="M118.22,67.3c-5.35.33-10.67.35-16.3.39-.3-2.45-.3-4.91-.28-7.67,5.4-.31,10.79-.31,16.61-.31,0,2.71,0,5-.02,7.59Z"/>
    </g>
  </g>
</svg>