<?xml version="1.0" encoding="UTF-8"?>
<svg id="Layer_2" data-name="Layer 2" xmlns="http://www.w3.org/2000/svg" viewBox="0 0 177.22 177.96">
  <defs>
    <style>
      .cls-1 {
        fill: #e5768c;
      }

      .cls-1, .cls-2, .cls-3, .cls-4, .cls-5, .cls-6, .cls-7, .cls-8 {
        stroke-width: 0px;
      }

      .cls-2 {
        fill: #dd506f;
      }

      .cls-3 {
        fill: #e88a9b;
      }

      .cls-4 {
        fill: #ea95a7;
      }

      .cls-5 {
        fill: #e46d73;
      }

      .cls-6 {
        fill: #df5d6f;
      }

      .cls-7 {
        fill: #e3687d;
      }

      .cls-8 {
        fill: #df5574;
      }
    </style>
  </defs>
  <g id="Layer_7" data-name="Layer 7">
    <g>
      <path class="cls-5" d="M118.29,169.53v8.42h-59.17v-8.4h-17.39v-8.6h-7.95v-7.94h-8.61v-8.6h-8.73v-8.72H7.83v-16.58H0v-59.91h7.65v-16.7c2.87,0,5.48,0,8.4.28.31,25.43.31,50.58.31,76.19,3.21,0,5.94,0,8.67.31,0,5.56,0,10.8,0,16.09,3.25.18,5.84.32,8.76.49v8.38c2.86,0,5.37,0,7.88.31,0,2.9,0,5.49,0,8.43h8.46c.13,2.7.25,5.07.39,7.88,5.88,0,11.5,0,17.11,0,0,0,0,0,0,.31,0,2.89,0,5.48,0,8.36h50.66Z"/>
      <path class="cls-8" d="M168.7,126.93v8.6h-7.79v8.71c-2.86,0-5.46,0-8.68,0-6.07,0-11.51,0-17.37,0v8.63s0,0-.31,0h-50.38v-8.45c-2.94-.13-5.53-.25-8.36-.37-.14-2.88-.26-5.47-.39-8.26-2.68-.14-5.05-.27-7.58-.41-.16-2.91-.3-5.5-.46-8.54h-16.83c-.18-2.84-.33-5.21-.48-7.66-2.95-.16-5.54-.31-8.59-.48v-16.85c-2.77-.12-5.05-.23-7.79-.35,0-16.96,0-33.65,0-50.65,0-5.78,0-11.25,0-16.97,3.1,0,5.53,0,7.97.31.03,14.29.04,28.28.05,42.57-.01,5.51-.01,10.72-.01,16.3,3.22,0,5.93,0,8.64.31v16.75c3.25.18,5.83.32,8.46.46.16,3,.3,5.59.47,8.6h16.16c.18,2.82.33,5.19.48,7.58,2.99.16,5.58.3,8.49.46v8.38c3.08,0,5.81,0,8.54.31,0,2.9,0,5.49,0,8.06h33.77c.13-2.85.25-5.44.39-8.42h25.08c0-3.14,0-5.86.31-8.59,5.61,0,10.91-.02,16.22-.03Z"/>
      <path class="cls-4" d="M75.63.09h42.54v8.43h16.55v8.66h8.68v7.88h8.68v8.78h8.68v8.55h8.01v16.64h8.46v59.96c-2.53,0-5.15,0-8.08-.29-.32-5.87-.33-11.45-.33-17.34,0-5.56,0-10.81,0-16.08-3.02-.19-5.39-.35-8.19-.52v-25.72h-8.45c0-2.85,0-5.36,0-8.18,0-2.9,0-5.49,0-8.12-3.25-.18-5.83-.32-8.45-.47-.17-3-.31-5.58-.45-8.19-3.01-.17-5.59-.31-8.51-.47v-8.18c-2.71-.13-5.07-.25-7.69-.38-.13-2.63-.25-5-.39-7.8-5.89,0-11.49,0-17.1-.31,0-2.88,0-5.44,0-8.31-5.97,0-11.31,0-16.97,0-5.86-.01-11.42-.02-16.97-.33,0-2.94,0-5.58,0-8.21Z"/>
      <path class="cls-6" d="M41.64,33.89h-7.96c0,5.72,0,11.19-.31,16.97-2.9.31-5.49.31-8.35.31v67.81h-8.66c0-25.61,0-50.76,0-76.22,0-3.05,0-5.79,0-8.78h8.54v-8.69h8.72v-8.04c2.64,0,5.02,0,7.72.28.34,2.75.36,5.22.36,8-.02,2.99-.04,5.67-.05,8.35Z"/>
      <path class="cls-6" d="M118.6,169.52c-16.97.01-33.64.01-50.97.01,0-2.88,0-5.46.31-8.36,22.5-.32,44.69-.34,66.9-.33.02.02.07.07.07.07v8.6c-5.53,0-10.77,0-16.31.01Z"/>
      <path class="cls-3" d="M41.7,25.22c-.02-2.47-.03-4.93-.07-7.71-.02-3.05-.02-5.8-.02-8.77h17.21V0c5.63,0,10.91,0,16.5.05.31,2.68.31,5.32,0,8.26-2.65.31-4.99.31-7.7.31,0,3.25,0,5.94-.31,8.64-2.98.01-5.65.02-8.63.02-2.87,0-5.43,0-8.36,0,0,3.03,0,5.5,0,7.97,0,0,0,0-.31,0-2.98,0-5.65-.01-8.32-.02Z"/>
      <path class="cls-3" d="M168.8,101.68c0,5.58.02,11.16.03,17.06,0,2.74-.02,5.17-.09,7.9-5.35.31-10.65.32-16.26.33-.31,0-.31,0-.31-.31,0-2.68,0-5.05,0-7.46,3.25-.18,5.84-.32,8.75-.48v-17.03h7.87Z"/>
      <path class="cls-2" d="M134.87,152.89v-8.63c5.86,0,11.3,0,17.06,0,.32,2.73.32,5.45.32,8.63-2.87,0-5.46,0-8.66,0-3.32,0-6.02,0-8.72,0Z"/>
      <path class="cls-6" d="M134.87,152.89c2.7,0,5.4,0,8.41.02.31,2.51.31,5.01.31,7.97-2.88,0-5.47,0-8.37.02-.31.02-.35-.03-.36-.35,0-2.77,0-5.21,0-7.65,0,0,0,0,0,0Z"/>
      <path class="cls-2" d="M134.56,152.89c.31,2.44.3,4.89.28,7.63-22.2.32-44.39.33-66.89.35-.31,0-.31,0-.31-.31,0-2.68,0-5.05,0-7.46-3.26-.18-5.84-.33-8.76-.49v-8.37h-25.08v-8.38c-2.92-.16-5.5-.31-8.76-.49,0-5.28,0-10.53,0-16.09,0-22.69,0-45.08,0-68.12,2.86,0,5.45,0,8.34,0,.31,16.69.31,33.37.31,50.33,2.74.12,5.03.22,7.79.35v16.85c3.05.17,5.64.31,8.59.48.15,2.45.3,4.82.48,7.66h16.83c.16,3.05.3,5.64.46,8.54,2.53.14,4.9.26,7.58.41.13,2.79.25,5.38.39,8.26,2.83.13,5.42.24,8.36.37v8.45h50.38Z"/>
      <path class="cls-6" d="M41.67,144.56c5.61-.31,11.23-.31,17.2-.31v8.37c2.92.16,5.51.31,8.76.49,0,2.41,0,4.78,0,7.46-5.61.31-11.23.31-17.11.31-.14-2.81-.26-5.18-.39-7.88h-8.46c0-2.94,0-5.53,0-8.43Z"/>
      <path class="cls-1" d="M92.92,135.6h-8.54v-8.38c-2.91-.16-5.49-.3-8.49-.46-.15-2.39-.3-4.76-.48-7.58h-16.16c-.16-3.02-.3-5.6-.47-8.6-2.62-.14-5.21-.28-8.46-.46,0-5.5,0-10.97,0-17.06,0-2.97,0-5.32,0-8,6.17,0,11.73,0,17.3,0,0,0,.02.02.01.33,0,8.43,0,16.56,0,25.14h16.43c.17,3.05.32,5.64.48,8.55h8.18c.14,2.71.25,5.08.39,7.88,8.56,0,16.84,0,25.11.31,0,2.88,0,5.46,0,8.32h-25.31Z"/>
      <path class="cls-1" d="M41.69,25.53c2.68-.3,5.35-.3,8.33.02.31,11.32.31,22.33.31,33.69h8.65c0,3.08,0,5.81,0,8.85,0,2.9,0,5.49,0,8.36h-17.27c-.02-13.98-.03-27.96-.06-42.26,0-2.99.01-5.67.04-8.66Z"/>
      <path class="cls-3" d="M92.92,135.91c8.22-.31,16.44-.31,25.31-.31,0-2.86,0-5.44.31-8.33,2.98-.32,5.65-.33,8.63-.33,8.54,0,16.77.01,25,.02h0v8.59h-25.08c-.14,2.98-.26,5.57-.39,8.42h-33.77c0-2.57,0-5.16,0-8.06Z"/>
      <path class="cls-3" d="M41.7,76.77c5.54-.31,11.07-.31,17.28-.31,0-2.86,0-5.45.31-8.36,5.65-.32,10.98-.32,16.62-.32,2.99.01,5.68.01,8.36.02,0,0,0,0,0,.3,0,2.9,0,5.49,0,8.55h-16.65v8.42h-17.3c0,2.68,0,5.03,0,7.69-2.71.31-5.42.31-8.64.31,0-5.58,0-10.78.01-16.3Z"/>
      <path class="cls-1" d="M67.63,85.07c0-2.65,0-5.3,0-8.42h16.65c0-3.06,0-5.65.31-8.55,5.79-.31,11.27-.31,16.78-.31.18-3.25.33-5.83.47-8.49,2.71-.12,5-.23,7.54-.34.13-2.64.25-5,.39-7.79h42.4v7.87h8.45v25.72c2.8.18,5.17.33,8.19.52,0,5.27,0,10.52,0,16.08-2.52.31-5.03.31-7.88.31v17.03c-2.91.16-5.5.3-8.75.48,0,2.41,0,4.78,0,7.46-8.23.3-16.46.3-24.99-.01-.31-2.68-.31-5.05-.31-7.88h16.41v-17.07h-8.43v-25.03h-41.92v8.42h-25.28s-.01-.01-.02-.02Z"/>
      <path class="cls-3" d="M152.17,50.86c-14.04.31-28.07.31-42.4.31-.14,2.79-.26,5.16-.39,7.79-2.54.11-4.83.22-7.54.34-.15,2.65-.29,5.24-.47,8.49-5.51,0-10.99,0-16.78,0-.31,0-.31,0-.31-.3,0-2.98,0-5.66.31-8.34,2.9,0,5.5,0,8.36,0,0-5.99,0-11.29.31-16.6,2.87,0,5.43,0,8.31,0,0-3.27,0-5.97,0-8.97,0-2.98.01-5.65.32-8.32,2.65,0,4.98,0,7.67,0,0-3.03,0-5.5,0-7.97,0,0,.01-.01.01-.01h17.1c.14,2.8.26,5.17.39,7.8,2.62.13,4.98.24,7.69.38v8.18c2.91.16,5.49.3,8.51.47.14,2.61.29,5.19.45,8.19,2.62.14,5.2.29,8.45.47,0,2.63,0,5.22,0,8.12Z"/>
      <path class="cls-1" d="M67.62,17.25v-8.63c2.71,0,5.06,0,7.71,0,5.86,0,11.42,0,17.29.33.32,2.98.32,5.65,0,8.33-8.54,0-16.77-.01-25-.02Z"/>
      <path class="cls-3" d="M92.93,17.27c0-2.67,0-5.34-.01-8.32,5.34-.31,10.69-.31,16.65-.31,0,2.87,0,5.44,0,8.31,0,.31,0,.32-.32.32-5.65,0-10.99,0-16.33,0Z"/>
      <path class="cls-7" d="M67.31,17.26c8.54,0,16.76,0,25.31.32.31,2.64.31,4.98.31,7.67h8.65c0,2.67,0,5.34-.32,8.33-2.87.31-5.43.31-8.32.31v25.25c-2.86,0-5.46,0-8.67,0-3.22,0-5.81,0-8.67,0v8.62c-5.33,0-10.67.01-16.31.02-.31-2.73-.31-5.46-.31-8.55h-8.65c0-11.36,0-22.37,0-33.69,0-.31,0-.31.31-.31h8.36v-7.96c2.67,0,5.34-.02,8.32-.03Z"/>
      <path class="cls-1" d="M58.68,17.28c.31,2.43.31,4.86.31,7.97-2.86,0-5.45,0-8.36,0-.31-2.47-.31-4.95-.31-7.97,2.92,0,5.49,0,8.36,0Z"/>
      <path class="cls-7" d="M67.64,85.4c8.27-.31,16.54-.31,25.29-.31v-8.42h41.92v25.03h8.43v17.07h-16.41c0,2.83,0,5.2,0,7.87-2.68.31-5.35.32-8.32.33-8.58,0-16.85,0-25.42,0-.14-2.8-.26-5.17-.39-7.88h-8.18c-.16-2.92-.31-5.5-.48-8.55h-16.43c0-8.58,0-16.71,0-25.14Z"/>
      <path class="cls-1" d="M75.92,67.78c-.31-2.65-.31-5.3-.31-8.63,2.86,0,5.45,0,8.36,0,.31,2.68.31,5.35.31,8.34-2.68.31-5.37.3-8.36.29Z"/>
      <path class="cls-1" d="M101.89,25.24c-3,0-5.69,0-8.96,0v-7.67c5.34-.31,10.67-.31,16.32-.3.31,2.47.31,4.94.31,7.97-2.69,0-5.03,0-7.67,0Z"/>
      <path class="cls-1" d="M93.25,42.54c-.31-2.69-.31-5.38-.31-8.66,2.89,0,5.45,0,8.31,0,.31,2.69.31,5.38.31,8.66-2.88,0-5.44,0-8.31,0Z"/>
    </g>
  </g>
</svg>