<?xml version="1.0" encoding="UTF-8"?>
<svg id="Layer_2" data-name="Layer 2" xmlns="http://www.w3.org/2000/svg" viewBox="0 0 178.17 177.94">
  <defs>
    <style>
      .cls-1 {
        fill: #ed9f3e;
      }

      .cls-1, .cls-2, .cls-3, .cls-4, .cls-5, .cls-6, .cls-7, .cls-8, .cls-9, .cls-10, .cls-11, .cls-12, .cls-13, .cls-14, .cls-15 {
        stroke-width: 0px;
      }

      .cls-2 {
        fill: #f1b04e;
      }

      .cls-3 {
        fill: #c6482a;
      }

      .cls-4 {
        fill: #be532a;
      }

      .cls-5 {
        fill: #e67e3b;
      }

      .cls-6 {
        fill: #d95c2b;
      }

      .cls-7 {
        fill: #f4d199;
      }

      .cls-8 {
        fill: #e26831;
      }

      .cls-9 {
        fill: #993025;
      }

      .cls-10 {
        fill: #ea8d3f;
      }

      .cls-11 {
        fill: #dd562e;
      }

      .cls-12 {
        fill: #e47b32;
      }

      .cls-13 {
        fill: #ec9543;
      }

      .cls-14 {
        fill: #f4c474;
      }

      .cls-15 {
        fill: #bc3b2b;
      }
    </style>
  </defs>
  <g id="Layer_3" data-name="Layer 3">
    <g>
      <path class="cls-4" d="M101.61,177.87c-8.2.03-16.4.05-24.92-.26-.32-2.85-.32-5.35-.32-8.26h-16.69s.03-.02.03-.31c0-2.88,0-5.45,0-8.33h-17.33s.03-.02.02-.32c.01-5.65.03-11,.35-16.34,5.84.02,11.36.02,16.92.34.02,2.67.02,5.03.02,7.63,8.84,0,17.07,0,25.61.02,8.53,0,16.75,0,24.98.3,0,2.9,0,5.5,0,8.15-3.21.17-5.81.3-8.69.45v16.92Z"/>
      <path class="cls-9" d="M8.38,118.88H0v-59.93c2.58,0,5.18,0,8.12.02.35.02.43.1.4.4-.03,2.87-.03,5.44-.03,8.27,3.25,0,5.87,0,8.53.3.06,2.97.09,5.63.11,8.6-.04,5.64-.06,10.97-.38,16.3-2.81,0-5.32,0-8.19,0,0,8.93,0,17.39-.04,25.89-.04.04-.12.12-.12.12Z"/>
      <path class="cls-9" d="M101.92,177.91c-.31-5.55-.31-11.06-.31-16.96,2.88-.15,5.47-.29,8.69-.45,0-2.66,0-5.25,0-8.15,0-.31.01-.3.32-.3,5.66-.01,11.01-.02,16.67-.02,2.97.01,5.63,0,8.6,0,3.02.03,5.73.05,8.44.07v8.54h-8.59v8.59h-16.71v8.71c-5.84,0-11.32,0-17.11-.04Z"/>
      <path class="cls-10" d="M59.65,8.41V0h59.13v8.49c2.74,0,5.14,0,7.84.34.31,2.99.3,5.64,0,8.28-5.61,0-10.91-.02-16.24-.33-.03-2.89-.03-5.47-.03-8.28-8.81,0-17.04,0-25.58-.02-3-.02-5.7-.02-8.7-.03-5.61.02-10.91.05-16.25.04-.04-.03-.14-.09-.14-.09Z"/>
      <path class="cls-8" d="M152.93,33.63h7.84v8.59h8.73v16.69h8.68c0,5.75,0,11.23-.35,17.03-5.86.33-11.37.34-16.9.05-.03-5.87-.05-11.42-.06-17.29,0-2.65,0-4.99,0-7.71-3.03,0-5.51,0-7.98-.31.01-5.89.02-11.47.03-17.05Z"/>
      <path class="cls-5" d="M42.37,17.02v-8.58c5.75,0,11.21,0,16.98-.02.31-.02.41.04.41.37,0,2.84,0,5.34,0,8.31h-8.46v16.62h8.18v17.27c-2.96,0-5.69,0-8.42-.31v-8.32c-3.26,0-5.96,0-8.65-.31-.01-8.55-.02-16.79-.03-25.03Z"/>
      <path class="cls-11" d="M152.92,33.32c0,5.88-.02,11.46-.34,17.36-2.91.32-5.5.32-8.13.32-.18-3.25-.32-5.83-.46-8.45-3.01-.16-5.6-.3-8.49-.46,0-8.6,0-16.77.04-24.97.04-.03.13-.08.13-.08h8.45v7.83h8.79c0,2.96,0,5.55,0,8.44Z"/>
      <path class="cls-3" d="M160.94,76.3c5.51-.02,11.02-.03,16.84-.05.33,5.33.36,10.66.05,16.31-2.84.32-5.35.32-8.32.32,0,3.21,0,5.94-.3,8.66-2.98,0-5.66,0-8.33-.32-.01-5.66-.03-11.01-.03-16.66.04-2.95.07-5.6.09-8.26Z"/>
      <path class="cls-9" d="M17.03,135.5h-8.6c0-5.5,0-10.76-.03-16.32-.03-.31.06-.39.4-.39,5.89,0,11.43,0,17.28,0,2.74.04,5.18.06,7.63.39.02,5.62.03,10.93.04,16.25,0,0,0,0-.3,0-2.77,0-5.23,0-7.69,0,0,0,.02.02.01-.29,0-2.9,0-5.49,0-8.03h-8.56c0,2.96,0,5.59-.04,8.27-.04.04-.13.13-.13.13Z"/>
      <path class="cls-8" d="M42.06,17.05c.32,8.21.33,16.45.34,25,0,.31,0,.31-.31.31-5.65,0-10.98,0-16.32-.3,0-2.99,0-5.67-.01-8.36,0,0,0,.01.31.01,2.66,0,5.03,0,7.61,0v-16.64c2.9,0,5.49,0,8.39-.03Z"/>
      <path class="cls-9" d="M42.45,144.04c-.02,5.35-.03,10.7-.05,16.36-2.74.31-5.47.31-8.56.31v-8.47c-2.72-.12-5.09-.23-8.09-.36,0-2.4,0-4.77.02-7.48.02-.35.1-.43.4-.4,2.58.03,4.87.03,7.6.03v-8.61s0,0,.3,0c2.97,0,5.64.01,8.32.33.03,2.97.05,5.63.07,8.29Z"/>
      <path class="cls-15" d="M144.63,152.08c-3.01,0-5.72-.02-8.74-.35-.3-2.68-.3-5.04-.3-7.45,3.25-.17,5.84-.31,8.46-.45.16-3,.3-5.58.46-8.5,5.69,0,10.98,0,16.32.04.04.04.13.13.13.13v8.52h-7.91v8.04c-2.92,0-5.51,0-8.42.02Z"/>
      <path class="cls-9" d="M169.51,101.54v-8.67c2.97,0,5.48,0,8.29-.01.3,8.45.3,16.91.3,25.97-2.69,0-5.28,0-8.23,0-.37,0-.5-.04-.43-.34.07-2.98.07-5.65.09-8.64,0-2.97,0-5.64-.01-8.3Z"/>
      <path class="cls-9" d="M42.39,161.02c5.57-.31,11.15-.31,17.32-.31,0,2.88,0,5.45,0,8.34-5.59.31-11.17.31-17.3.31,0-2.88,0-5.46-.01-8.35Z"/>
      <path class="cls-9" d="M8.42,58.95c-.04-5.35-.04-10.66-.04-16.61,2.85,0,5.45,0,8.39.01.35.01.43.09.39.4-.07,5.59-.1,10.87-.44,16.18-2.93.07-5.55.11-8.18.15,0,0-.09-.09-.13-.13Z"/>
      <path class="cls-9" d="M59.69,169.66c5.39-.31,10.78-.31,16.67-.31,0,2.91,0,5.41.01,8.22-5.37.3-10.74.3-16.68.3,0-2.73,0-5.32-.01-8.21Z"/>
      <path class="cls-15" d="M169.56,118.83c.07,5.36.07,10.72.07,16.61-2.9,0-5.48,0-8.37.03-.3.03-.39-.06-.4-.4,0-5.65.02-10.95.33-16.26,2.93-.01,5.55-.02,8.17-.03,0,0,.13.04.19.05Z"/>
      <path class="cls-9" d="M25.73,144.1c-2.7.04-5.35.04-8.65.04,0-2.85,0-5.44-.03-8.34-.03-.3.06-.39.4-.4,3,0,5.65.02,8.31.03,0,0-.01-.01-.01.29.03,2.95.07,5.59.1,8.24,0,0-.09.09-.13.13Z"/>
      <path class="cls-9" d="M25.45,33.71c.31,2.68.31,5.36.31,8.33,0,.29-.05.28-.35.29-2.94.05-5.58.08-8.21.11,0,0-.08-.08-.12-.12-.04-2.74-.04-5.43-.04-8.61,2.96,0,5.54,0,8.42,0Z"/>
      <path class="cls-8" d="M126.92,17.11c0-2.65,0-5.29,0-8.24,2.73-.3,5.47-.3,8.7-.3,0,2.68,0,5.27.03,8.17.03.31-.06.35-.4.36-3,0-5.65,0-8.31,0,0,0-.02.01-.02.01Z"/>
      <path class="cls-9" d="M33.37,25.03c.3,2.69.3,5.41.3,8.69-2.58,0-4.95,0-7.62,0-.31-2.7-.31-5.41-.31-8.66,2.63,0,4.97,0,7.62-.02Z"/>
      <path class="cls-1" d="M84.99,152.02h-25.3c0-2.61,0-4.97,0-7.95.01-8.83.03-17.04.35-25.26,2.76,0,5.22.01,7.67.33,0,2.64,0,4.97,0,7.62,3.28,0,5.97,0,8.66,0-.01,0,0-.01,0,.3,0,2.89,0,5.46,0,8.32,5.97,0,11.33,0,17,.01,2.95,0,5.6,0,8.27.29.02,3,.02,5.68-.28,8.37-5.57,0-10.82,0-16.34,0v7.96Z"/>
      <path class="cls-6" d="M59.74,118.83c-.02,8.21-.03,16.42-.07,24.95-5.55.3-11.08.3-16.91.28-.33-2.67-.35-5.33-.36-8.61,0-5.96,0-11.29.01-16.63,0,0,0,0,.31,0,2.87,0,5.43,0,8.35,0,0-3.26,0-5.95,0-8.64,0,0,0,0,.3,0,2.98,0,5.65-.01,8.33.29.02,3,.04,5.68.05,8.37Z"/>
      <path class="cls-5" d="M85.31,152.04c-.31-2.44-.31-4.86-.31-7.97,5.52,0,10.78,0,16.65,0,3.28.01,5.95.02,8.62.33.02,2.75.03,5.2.03,7.65,0,0-.01-.01-.02-.02-8.23,0-16.45.02-24.98,0Z"/>
      <path class="cls-3" d="M59.68,110.15c-2.67,0-5.34.01-8.32-.29-.31-2.9-.31-5.49-.31-8.54h-17.1c-.17-3.05-.31-5.63-.47-8.43-5.73,0-11.04,0-16.37-.01-.02-.01-.07-.03-.07-.03.02-5.33.05-10.66.39-16.29,2.97-.29,5.62-.27,8.3.06.02,2.81.02,5.32.02,8.29h25.11c.13,2.81.24,5.18.38,7.98,3.01,0,5.74,0,8.48.31,0,5.86-.02,11.41-.03,16.95Z"/>
      <path class="cls-15" d="M25.78,118.79c-5.54,0-11.09,0-16.93-.04-.3-8.49-.3-16.96-.3-25.89,2.88,0,5.38,0,8.19,0,.3,0,.35.02.36.33.01,2.91.01,5.5.01,8.13,3.25.18,5.84.32,8.67.47v17Z"/>
      <path class="cls-4" d="M8.52,59.37c2.66-.34,5.28-.38,8.25-.4.35.02.44.11.41.4,0,2.93.04,5.57,0,8.22-.07.02-.2.05-.2.05h-8.5c0-2.84,0-5.41.03-8.27Z"/>
      <path class="cls-8" d="M25.7,76.32c-2.65-.02-5.31-.04-8.27-.07-.33-2.67-.36-5.33-.42-8.3-.04-.3.1-.34.46-.34,2.86,0,5.36,0,8.32,0,0,3.19,0,5.91-.02,8.65-.02.02-.07.07-.07.07Z"/>
      <path class="cls-11" d="M160.89,118.81c-.01,5.3-.02,10.61-.07,16.21-5.33.3-10.62.3-16.31.3-.16,2.93-.3,5.51-.46,8.5-2.62.14-5.21.28-8.46.45,0,2.41,0,4.77,0,7.44-2.67.31-5.33.32-8.31,0-.33-2.76-.33-5.2-.34-7.96,0-5.79,0-11.26,0-17.08h8.65v-8.2c0-2.97.02-5.64.33-8.31,2.97-.01,5.64-.02,8.61-.02,3,0,5.69,0,8.68,0,2.76,0,5.22,0,7.68,0,0,0,0,0,0,.3,0,2.98,0,5.66,0,8.34Z"/>
      <path class="cls-15" d="M126.93,144.08c0,2.44.02,4.88.04,7.63-5.34.31-10.69.32-16.35.34-.32-2.45-.33-4.89-.33-7.95.02-3.29.05-5.97.37-8.66,2.89,0,5.47,0,8.4,0v8.65h7.87Z"/>
      <path class="cls-1" d="M51.05,50.99h8.42v-17.27h-8.18v-16.62h8.46c0-2.96,0-5.47.04-8.27,5.34-.32,10.64-.35,16.25-.06.32,5.65.32,10.99.32,16.64,0,2.87,0,5.43,0,8.24,3.27,0,5.98,0,8.99.02,2.74,0,5.17,0,7.92,0,2.99.02,5.67.02,8.66.03,2.88,0,5.46,0,8.34,0,0-3.28,0-5.99.01-9,.05-2.74.08-5.19.12-7.63,5.3,0,10.6.01,16.21.02.31,0,.32,0,.33.3,0,5.56,0,10.81,0,16.08-3.03.2-5.39.35-7.99.52,0,3.05,0,5.69-.31,8.34-11.28,0-22.25,0-33.65,0,0,3.25,0,5.97-.31,8.67-2.97,0-5.63.02-8.6.01-2.9-.02-5.48-.02-8.11-.02v7.89c2.98,0,5.7,0,8.73.02,2.96.02,5.62.02,8.59.03,2.67,0,5.02,0,7.71,0,0,6.17,0,11.74-.31,17.3-5.58,0-10.84,0-16.43,0v-8.63c-5.74,0-11.14,0-16.54-.31,0-2.91,0-5.5,0-8.45h-8.66c0-2.86,0-5.37,0-7.88,0,0,0,0,0,0Z"/>
      <path class="cls-7" d="M110.36,16.78c0,2.75-.04,5.19-.39,7.95-2.99.33-5.66.34-8.33.03v-7.71c-5.98,0-11.29,0-16.61-.31,0-2.95.01-5.6.03-8.25h25.27c0,2.81,0,5.39.03,8.28Z"/>
      <path class="cls-2" d="M84.75,8.48c.3,2.66.29,5.31.27,8.58-.02,3.07-.04,5.52-.36,7.98-2.97.03-5.63.04-8.29.05,0-5.34-.01-10.68-.02-16.33,2.7-.31,5.39-.31,8.39-.29Z"/>
      <path class="cls-5" d="M118.95,42.35v-8.34c2.6-.17,4.97-.32,7.99-.52,0-5.27,0-10.52,0-16.08,2.66-.31,5.31-.3,8.27-.27.3,8.19.3,16.36.3,24.96,2.89.16,5.48.3,8.49.46.14,2.62.28,5.2.46,8.45,2.63,0,5.23,0,8.13,0,2.79,0,5.27,0,8.29,0,0,2.72,0,5.06-.32,7.7-14.08.3-27.84.3-41.91.3-2.87,0-5.43,0-8.35,0,0,3.26,0,5.95,0,8.64,0,0,0,0-.31,0h-8v-16.73h16.95v-8.54Z"/>
      <path class="cls-13" d="M118.96,58.99c13.76,0,27.52,0,41.59,0,.32,5.56.34,11.12.37,16.99,0,2.97-.03,5.62-.37,8.59-2.73.35-5.15.38-7.61.37-.04-.04-.12-.11-.1-.41.03-5.78.03-11.25.03-16.88-6.16,0-11.69,0-17.54-.01-2.88-.01-5.45-.01-8.4-.01,0,3.23,0,5.93-.31,8.63-2.65,0-4.99,0-7.69,0,0,3.27,0,5.96-.31,8.65-2.91,0-5.5,0-8.34,0v-17.28s0,0,.31,0c2.91,0,5.5,0,8.35,0v-8.63Z"/>
      <path class="cls-8" d="M42.4,42.36c2.69,0,5.39,0,8.65,0v8.32c0,.31,0,.32-.31.31-2.99,0-5.67,0-8.35,0,0,0,0,0,0-.31,0-2.99,0-5.67,0-8.34,0,0,0,0,0,0Z"/>
      <path class="cls-8" d="M152.99,84.98c2.42-.03,4.83-.06,7.55-.11.31,5.33.33,10.68.35,16.34,0,.31,0,.3-.3.3-2.75.02-5.2.03-7.66.03-.02-.02-.07-.07-.05-.38.05-5.6.09-10.89.12-16.19Z"/>
      <path class="cls-11" d="M169.21,101.54c.31,2.67.32,5.34.01,8.31-2.99.31-5.66.31-8.34.31,0,0,0,0,0-.3,0-2.99,0-5.67,0-8.35,0,0,0,.01,0,.01,2.67,0,5.34,0,8.32.01Z"/>
      <path class="cls-11" d="M26.08,118.8c-.3-5.54-.3-11.06-.3-17.01-2.83-.15-5.41-.29-8.67-.47,0-2.63,0-5.22.01-8.12,5.32-.31,10.62-.31,16.36-.31.16,2.79.3,5.38.47,8.43h17.1c0,3.05,0,5.64,0,8.54,0,.31,0,.31-.31.31-2.87,0-5.43,0-8.35,0v8.65s0,0-.31,0c-3,.02-5.7.05-8.39.07-2.44-.02-4.87-.05-7.62-.08Z"/>
      <path class="cls-15" d="M33.71,119.19c2.68-.33,5.38-.35,8.38-.37.31,5.33.3,10.67.29,16.32-2.68.31-5.35.3-8.32.3-.32-5.31-.32-10.63-.34-16.25Z"/>
      <path class="cls-4" d="M25.77,135.13c-2.66.3-5.31.28-8.27.24-.3-2.67-.3-5.3-.3-8.26h8.56c0,2.54,0,5.13,0,8.03Z"/>
      <path class="cls-4" d="M26.16,144.01c-.33-2.68-.36-5.32-.4-8.28,2.46-.31,4.92-.31,7.69-.3.31,2.73.31,5.45.31,8.61-2.73,0-5.01,0-7.6-.03Z"/>
      <path class="cls-5" d="M42.09,42.35c.31,2.68.31,5.36,0,8.34-5.63.32-10.95.32-16.29.02-.04-3.01-.06-5.7-.09-8.4,0,0,.04.01.05.03,5.35.01,10.68.01,16.33,0Z"/>
      <path class="cls-3" d="M160.89,110.47c2.67-.31,5.34-.31,8.32-.32.3,2.67.29,5.35.22,8.33-2.68.31-5.31.32-8.24.33-.31-2.67-.31-5.35-.31-8.34Z"/>
      <path class="cls-4" d="M25.41,42.33c.33,2.69.35,5.38.37,8.7,0,2.98,0,5.35,0,8.05h-8.57s-.09-.09-.13-.13c-.01-5.33.02-10.61.09-16.2,2.67-.34,5.31-.37,8.25-.42Z"/>
      <path class="cls-5" d="M59.69,110.46c0-5.86.01-11.4.02-17.26,0-.31,0-.3.31-.31,8.4,0,16.49,0,24.97,0,0-3,0-5.49.31-7.98,2.77,0,5.23,0,8,0,2.9,0,5.5,0,8,0v16.82h-33.26v8.54h8.31c0,3.08,0,5.81.02,8.54.02,0,.02.04-.29.03-2.99,0-5.68,0-8.36,0-2.46,0-4.92-.02-7.68-.02-.32-2.68-.33-5.37-.35-8.36Z"/>
      <path class="cls-7" d="M101.61,135.39c-2.65,0-5.3.02-8.27-.29-.32-2.89-.32-5.46-.32-8.33h-16.64s-.01.02-.01-.29c.02-2.75.03-5.19.04-7.63,0,0,0-.04.29-.05,8.41,0,16.52,0,25.08,0,0,3,0,5.51-.04,8.32-.05,2.98-.06,5.65-.07,8.3,0-.02-.04-.03-.04-.03Z"/>
      <path class="cls-2" d="M76.36,127.08c5.35-.31,10.7-.31,16.65-.31,0,2.88,0,5.45.02,8.32-5.34.31-10.7.31-16.67.31,0-2.85,0-5.43,0-8.32Z"/>
      <path class="cls-6" d="M110.35,135.44c-.02,2.68-.04,5.36-.08,8.35-2.68.3-5.34.29-8.32.28-.31-2.69-.32-5.37-.34-8.37-.01-.31.02-.3.33-.28,2.97.01,5.64.01,8.33.01.02,0,.07.01.07.01Z"/>
      <path class="cls-2" d="M76.08,118.84c.3,2.45.29,4.89.28,7.63-2.69.3-5.38.3-8.66.3,0-2.65,0-4.99,0-7.62,2.69-.31,5.37-.31,8.37-.31Z"/>
      <path class="cls-3" d="M42.71,118.81c-.31-2.69-.31-5.38-.31-8.64,2.92,0,5.48,0,8.35,0,.31,2.69.31,5.39.31,8.64-2.92,0-5.48,0-8.35,0Z"/>
      <path class="cls-8" d="M59.71,92.88c-2.74,0-5.47,0-8.48,0-.13-2.8-.24-5.17-.38-7.98h-25.11c0-2.96,0-5.47-.02-8.29-.02-.3.03-.35.36-.36,8.54,0,16.75-.01,25.27,0,2.99,0,5.67,0,8.36,0,0,0,.01.02.01.33,0,5.64,0,10.97,0,16.3,0,0,0,0,0,0Z"/>
      <path class="cls-1" d="M51.04,76.25c-8.21,0-16.42,0-24.94-.01-.31-2.73-.31-5.45-.31-8.65-2.97,0-5.46,0-8.25,0-.33-2.64-.36-5.28-.36-8.22,2.67-.3,5.31-.3,8.59-.3,0-2.7,0-5.07.02-7.74,5.34-.31,10.66-.32,16.29-.33.31,0,.32,0,.31.3,0,2.76,0,5.22-.32,7.67-2.88,0-5.45,0-8.05,0v8.63c2.99,0,5.7,0,8.72,0,2.82,0,5.33,0,8.29,0v8.64Z"/>
      <path class="cls-10" d="M101.76,126.81v-8.01c-8.55,0-16.67,0-25.1,0-.31-2.72-.31-5.45-.31-8.53h-8.31v-8.54h33.26v-16.82c-2.51,0-5.1,0-8-.31-.31-2.98-.31-5.65-.31-8.33v-17.3c-2.69,0-5.04,0-7.69-.31-.3-2.74-.31-5.18-.31-7.61v-8.69c11.4,0,22.37,0,33.65,0,.31,2.73.31,5.46.31,8.54h-16.95v16.73h8c.31,5.53.31,11.06.31,17.28,2.84,0,5.43,0,8.34.31.31,5.54.31,10.76.31,16.32,8.85,0,17.08,0,25.31.31-.02,2.97-.03,5.64-.04,8.3-2.67,0-5.33.01-8.62.02h-25.27c0,3.26,0,5.98,0,9.01-.03,2.73-.05,5.16-.38,7.6-2.93.02-5.56.02-8.19.03Z"/>
      <path class="cls-3" d="M110.25,126.77c.02-2.43.05-4.86.38-7.62,8.53-.34,16.74-.35,24.96-.36v7.89h-8.65c0,5.82,0,11.3,0,17.08-2.51.31-5.02.31-7.87.31v-8.65c-2.93,0-5.52,0-8.4,0-.3,0-.35,0-.36-.32-.02-2.99-.03-5.67-.04-8.35Z"/>
      <path class="cls-5" d="M135.59,118.49c-8.21.32-16.43.33-24.95.36-.31-2.7-.31-5.42-.31-8.68,8.45,0,16.55,0,24.96,0,.31,2.67.3,5.34.29,8.31Z"/>
      <path class="cls-8" d="M144.53,110.16c-.3-2.67-.29-5.34.03-8.32,2.97-.33,5.62-.35,8.28-.37,0,0,.05.05.06.37,0,2.99,0,5.66,0,8.32-2.69,0-5.38,0-8.37,0Z"/>
      <path class="cls-3" d="M153.21,110.17c-.3-2.67-.3-5.33-.29-8.3,2.46-.32,4.9-.34,7.65-.35.31,2.68.31,5.36.31,8.35-2.46.31-4.91.31-7.68.3Z"/>
      <path class="cls-8" d="M92.68,76.27c.31,2.68.31,5.35.31,8.33-2.46.31-4.92.31-8,.31-6.1,0-11.57,0-17.08,0-.18-3.25-.33-5.83-.48-8.63h-7.7s-.01-.01-.01-.32c0-2.98,0-5.65,0-8.32h16.54v8.63c5.59,0,10.86,0,16.43,0Z"/>
      <path class="cls-5" d="M59.71,67.33c0,2.98,0,5.65,0,8.62-2.68.31-5.36.31-8.35.31-.31-2.74-.31-5.47-.31-8.65-2.96,0-5.47,0-8.3-.3-.33-2.98-.34-5.65-.36-8.32,0-2.46,0-4.91,0-7.67,2.68-.31,5.36-.31,8.34-.32.31,2.51.31,5.02.31,7.88h8.66c0,2.94,0,5.54,0,8.45Z"/>
      <path class="cls-14" d="M84.97,25.03c.02-2.45.03-4.9.07-7.67,5.32-.31,10.63-.31,16.61-.31v8.02c0,3.28-.02,5.95-.03,8.62-2.68,0-5.36,0-8.34-.33-.3-2.83-.3-5.33-.3-8.26-2.93,0-5.44,0-7.96-.02l-.06-.06Z"/>
      <path class="cls-14" d="M76.37,25.41c2.67-.32,5.33-.33,8.3-.36.3-.01.34.02.35.35.01,2.97.02,5.61.03,8.26h-8.69c0-2.81,0-5.37,0-8.24Z"/>
      <path class="cls-2" d="M101.93,33.7c-.3-2.68-.29-5.34-.28-8.32,2.67-.31,5.34-.32,8.32-.35.3,2.69.3,5.39.3,8.67-2.88,0-5.45,0-8.34,0Z"/>
      <path class="cls-7" d="M85.34,33.67c-.31-2.67-.32-5.31-.32-8.26,2.52-.3,5.02-.3,7.95-.3,0,2.93,0,5.43-.01,8.24-2.45.32-4.89.33-7.62.33Z"/>
      <path class="cls-7" d="M84.68,51.03c.31,2.45.32,4.89.31,7.63-2.67.3-5.33.3-8.31-.02-.31-2.74-.3-5.15-.29-7.57,2.66-.02,5.32-.04,8.29-.04Z"/>
      <path class="cls-14" d="M76.08,51.04c.3,2.44.3,4.86.3,7.57-2.71.3-5.43.3-8.41.3v-7.89c2.63,0,5.22,0,8.11.02Z"/>
      <path class="cls-10" d="M118.65,58.98c.31,2.65.31,5.3.31,8.64-2.85,0-5.44,0-8.35,0-.31-2.69-.31-5.38-.31-8.64,2.92,0,5.48,0,8.35,0Z"/>
      <path class="cls-1" d="M152.86,101.17c-2.67.33-5.33.34-8.29.37-8.54,0-16.78,0-25.62,0,0-5.56,0-10.78,0-16.32,0-3,0-5.69,0-8.96,2.7,0,5.04,0,7.99,0,3.3,0,5.99,0,8.66,0,0,0,0-.01,0,.3,0,2.88,0,5.44,0,8.32,3.29,0,6,0,9.01.01,2.94,0,5.57-.03,8.21-.05,0,0,.08.07.12.11,0,5.33-.03,10.62-.08,16.22Z"/>
      <path class="cls-7" d="M152.85,84.53c-2.66.32-5.3.34-8.26.05-.32-2.88-.32-5.43-.32-8.33h-8.66s-.01.02-.01-.29c.02-2.97.04-5.63.05-8.29h17.23c0,5.63,0,11.1-.03,16.88Z"/>
      <path class="cls-2" d="M135.34,67.64c.3,2.67.28,5.33.27,8.3-2.68.31-5.36.32-8.36.32-.31-2.7-.31-5.4-.31-8.63,2.94,0,5.51,0,8.4.01Z"/>
      <path class="cls-11" d="M59.72,76.59c2.43-.31,4.86-.31,7.71-.31.16,2.79.3,5.38.48,8.63,5.51,0,10.99,0,16.78,0,.31,2.49.31,4.99.31,7.98-8.49,0-16.58,0-24.97,0-.31-5.33-.31-10.66-.3-16.3Z"/>
      <path class="cls-12" d="M109.95,126.78c.31,2.67.32,5.35.32,8.34-2.68.31-5.34.31-8.31.32-.3-2.67-.29-5.34-.24-8.32,2.67-.31,5.3-.32,8.23-.34Z"/>
      <path class="cls-2" d="M42.08,58.98c.32,2.67.34,5.35.36,8.33-2.7.31-5.41.31-8.4.31v-8.63c2.6,0,5.17,0,8.05,0Z"/>
      <path class="cls-2" d="M135.6,76.55c2.7-.31,5.4-.31,8.66-.31,0,2.9,0,5.46.02,8.32-2.69.31-5.4.31-8.69.31,0-2.87,0-5.44,0-8.32Z"/>
    </g>
  </g>
</svg>