<?xml version="1.0" encoding="UTF-8"?>
<svg id="Layer_2" data-name="Layer 2" xmlns="http://www.w3.org/2000/svg" viewBox="0 0 304.91 295.96">
  <defs>
    <style>
      .cls-1 {
        fill: #b6cbd6;
      }

      .cls-1, .cls-2, .cls-3, .cls-4, .cls-5, .cls-6, .cls-7, .cls-8, .cls-9, .cls-10, .cls-11 {
        stroke-width: 0px;
      }

      .cls-2 {
        fill: #7c96aa;
      }

      .cls-3 {
        fill: #a5bac6;
      }

      .cls-4 {
        fill: #c8d7dd;
      }

      .cls-5 {
        fill: #96aabb;
      }

      .cls-6 {
        fill: #b0c5cf;
      }

      .cls-7 {
        fill: #6f7b91;
      }

      .cls-8 {
        fill: #b8cdd6;
      }

      .cls-9 {
        fill: #a6bcc9;
      }

      .cls-10 {
        fill: #434e6c;
      }

      .cls-11 {
        fill: #bed1d8;
      }
    </style>
  </defs>
  <g id="Layer_6" data-name="Layer 6">
    <g>
      <path class="cls-10" d="M297.32,110h7.59v92.93c-2.28.13-4.66.26-7.47.42v16.84c-3.09.17-5.77.31-8.87.48v16.4h-8.64v8.63h-8.64v8.48c-2.8.12-5.17.23-7.97.35v8.42h-8.51c-.12,2.79-.23,5.16-.36,7.96h-17.07v8.63h-16.63v8.63h-17.18c-.14,2.79-.26,5.16-.39,7.8h-84.15c-.13-2.39-.25-4.76-.4-7.56h-24.87c-.14-3-.27-5.6-.41-8.63h-16.89c-.15-3.01-.27-5.6-.42-8.57-2.67-.13-5.26-.26-8.24-.4-.14-2.43-.27-4.81-.43-7.61h-16.2c-.15-3-.28-5.6-.43-8.6-2.63-.13-5.23-.26-8.24-.41-.13-2.62-.26-5.22-.41-8.23-2.62-.13-5.22-.26-8.37-.41v-16.44h-8.09v-8.63h-8.69c0-8.48,0-16.53.02-24.93.02-.35.11-.44.41-.41,2.81.03,5.33.03,8.27.03v16.47c2.79.12,5.17.23,7.77.34.16,2.93.32,5.6.47,8.3,3.01.15,5.6.28,8.61.43v16.18c3.03.15,5.63.29,8.26.42.15,2.99.28,5.59.42,8.22,2.99.15,5.59.28,8.23.42.15,2.98.28,5.57.43,8.51,5.68,0,10.98,0,16.32.3.04,2.8.04,5.31.04,8.24h8.45c.18,2.87.33,5.32.51,8.08,8.57,0,16.74,0,24.95.3.03,2.81.03,5.32.03,7.93h93.33c0-2.94,0-5.59.3-8.26,5.76-.04,11.21-.04,17.02-.04,0-3.08,0-5.49.3-7.94,5.53-.03,10.76-.03,16.34-.03,0-3.31,0-5.94.3-8.61,5.69-.03,11.09-.03,16.92-.03v-8.71h8.65v-8.44c2.8-.13,5.18-.23,7.98-.36v-16.45h8.65v-8.64h8.64v-25.03c3.1-.18,5.78-.33,8.42-.48.11-.85.22-1.29.22-1.73-.02-24.79-.05-49.59-.03-74.43.05-.05.14-.14.14-.14Z"/>
      <path class="cls-10" d="M25.55,76.09v-16.28c2.7-.15,5.07-.28,7.85-.43.13-2.63.26-5.22.41-8.23,2.63-.13,5.23-.26,8.24-.41.13-2.62.26-5.21.4-8.23,2.7-.15,5.38-.29,8.48-.46v-8.41h8.63v-7.96h7.97v-8.62h17.28v-8.62h25.16c.13-3,.25-5.6.38-8.45h84.82c.12,2.58.25,5.18.4,8.2h24.87c.15,3,.28,5.59.43,8.62h16.21c.15,3,.28,5.59.42,8.6,2.7.15,5.39.29,8.48.46v7.75h8.68c0,2.93,0,5.44-.02,8.3-.02.35-.11.44-.41.41-5.8-.08-11.29-.13-16.83-.47-.04-2.87-.04-5.43-.04-8.36-3.1,0-5.51,0-7.95-.3-.04-2.57-.04-4.85-.04-7.68-6.07,0-11.65,0-17.27-.3-.04-2.87-.04-5.43-.04-8.15-8.95,0-17.18,0-25.72-.03-2.94-.06-5.58-.1-8.24-.44-.02-2.81-.02-5.32-.02-8.01h-50.6c0,2.96,0,5.69,0,8.42,0,0,0,0-.3,0-8.64,0-16.96,0-25.65,0,0,3.21,0,5.93,0,8.65,0,0,.01,0-.3,0-5.54,0-10.76,0-16.33,0,0,3,0,5.49,0,7.98,0,0,0,0-.3,0-5.8,0-11.28,0-16.81,0-.16,3.22-.3,5.81-.43,8.44-2.77.16-5.15.3-7.57.44-.15,2.98-.28,5.57-.42,8.21-2.99.15-5.59.28-8.23.42-.15,2.98-.28,5.58-.42,8.22-2.99.15-5.58.28-8.23.42-.16,2.76-.3,5.13-.44,7.56-2.97.15-5.57.28-8.22.42-.15,2.98-.28,5.57-.43,8.5-2.8,0-5.23,0-7.7-.05-.05-.05-.14-.14-.14-.14Z"/>
      <path class="cls-10" d="M16.94,195.23c-2.69.05-5.34.05-8.42.05v-33.75c-3-.15-5.6-.28-8.52-.42v-25.52c2.55-.14,5.23-.29,8.32-.45v-41.7c2.93,0,5.45,0,8.31.02.35.02.44.11.41.41-.04,8.38-.06,16.46-.06,24.54.02,25.56.06,51.13.09,76.69,0,0-.09.09-.14.14Z"/>
      <path class="cls-10" d="M254.67,42.23c2.69-.05,5.34-.05,8.37-.05.14,2.91.27,5.5.42,8.5,2.41.13,4.78.26,7.57.42.14,2.69.29,5.37.45,8.46h8.47c0,5.59,0,10.75-.02,16.27-.02.35-.11.44-.41.41-2.91-.08-5.52-.13-8.18-.48-.04-2.86-.04-5.43-.04-8.35-3.1,0-5.5,0-7.94-.3-.04-2.64-.04-4.99-.04-7.69-3.33,0-5.95,0-8.61-.3-.08-5.79-.13-11.28-.17-16.76,0,0,.09-.09.14-.14Z"/>
      <path class="cls-10" d="M16.94,93.42c-.05-5.55-.05-11.06-.05-17.27,2.89,0,5.47,0,8.36-.03.3-.03.39.06.4.41.01,5.8.01,11.26.01,17.03h-8.59s-.09-.09-.14-.14Z"/>
      <path class="cls-10" d="M279.96,76.13c2.69-.05,5.33-.05,8.64-.05,0,5.77,0,11.22-.02,17.03-.02.35-.11.44-.41.41-2.91-.08-5.52-.13-8.18-.48-.09-5.79-.13-11.28-.18-16.78,0,0,.09-.09.14-.14Z"/>
      <path class="cls-10" d="M288.62,93.42c2.69-.05,5.33-.05,8.64-.05,0,5.55,0,10.78.03,16.32.03.3-.06.39-.41.41-2.93.01-5.51.01-8.4.01v-16.56s.09-.09.14-.14Z"/>
      <path class="cls-7" d="M17.04,93.86c2.67-.3,5.31-.3,8.62-.3,0-5.77,0-11.23.03-16.98,2.46-.3,4.88-.3,7.68-.3.15-2.93.28-5.52.43-8.5,2.65-.14,5.25-.27,8.22-.42.14-2.43.28-4.8.44-7.56,2.64-.13,5.24-.27,8.23-.42.14-2.65.27-5.24.42-8.22,2.65-.13,5.24-.27,8.23-.42.13-2.64.27-5.23.42-8.21,2.42-.14,4.8-.28,7.57-.44.13-2.63.27-5.22.43-8.44,5.53,0,11.01,0,16.81.31.31,2.9.31,5.49.31,8.44h-8.7v8.6h-8.73v8.6h-7.92c0,2.86,0,5.36-.31,7.89-2.87.02-5.44.02-8.34.02,0,3.25,0,5.95,0,8.65,0,.01.02,0-.29.01-2.91.01-5.51.01-8.51.01v17.45h-8.59v33.84h-7.63v41.81h7.76v25.69c3.07.15,5.76.28,8.82.42v16.55h8.59v17.22h8.59v7.92h7.74c.15,3.07.27,5.75.4,8.45,3.03.13,5.63.25,8.53.38,0,3.04,0,5.68-.05,8.38-.05.05-.16.15-.16.15h-16.29c-.15-2.94-.28-5.53-.43-8.51-2.65-.13-5.24-.27-8.23-.42-.13-2.64-.27-5.23-.42-8.22-2.63-.13-5.23-.27-8.26-.42v-16.18c-3.01-.15-5.6-.28-8.61-.43-.15-2.7-.3-5.37-.47-8.3-2.6-.11-4.97-.22-7.77-.34v-16.47c-2.94,0-5.45,0-8.27-.03-.33-25.6-.37-51.16-.39-76.72,0-8.08.02-16.16.06-24.54Z"/>
      <path class="cls-7" d="M288.18,93.53c.3,5.31.3,10.6.3,16.59,2.89,0,5.47,0,8.35.03.33,24.83.35,49.62.37,74.42,0,.44-.11.87-.22,1.73-2.64.15-5.32.3-8.42.48v25.03h-8.64v8.64h-8.65v16.45c-2.8.12-5.18.23-7.98.36v8.44h-8.65v8.71c-5.83,0-11.22,0-16.97-.01-.35-.01-.45-.11-.42-.41.03-2.89.03-5.48.03-8.43h8.8v-8.52h8.56c0-2.88,0-5.39,0-7.91,0,0-.01,0,.29,0,2.89-.01,5.47-.01,8.23-.01,0-3.24,0-5.96.04-8.98.04-2.91.04-5.51.04-8.45h8.07v-16.57h8.72v-25.67c3.02-.13,5.71-.25,8.3-.37v-41.76h-8.5c0-11.49,0-22.62.05-33.81.05-.05.16-.15.16-.15,2.61.05,5.23.1,8.14.18Z"/>
      <path class="cls-7" d="M203.47,271.08v8.23h-93.33c0-2.61,0-5.12.02-7.98.02-.35.12-.46.43-.43,31.1.01,61.89-.01,92.73.02.05.05.16.16.16.16Z"/>
      <path class="cls-7" d="M110.12,271.03c-8.23.05-16.4.05-24.97.05-.17-2.76-.33-5.21-.51-8.08h-8.45c0-2.93,0-5.44-.04-8.24-.04-.3.07-.4.42-.42,5.81-.02,11.27-.02,17.1-.02v8.71h16.6v7.84s-.1.11-.16.16Z"/>
      <path class="cls-7" d="M237.39,254.41c.05,2.68.05,5.31.05,8.62-5.58,0-10.81,0-16.39-.01-.35-.01-.45-.11-.42-.41.03-2.89.03-5.48.03-8.34h16.57s.1.1.15.14Z"/>
      <path class="cls-7" d="M220.74,263.06c.05,2.46.05,4.87.05,7.95-5.81,0-11.26,0-17.02.04-.3.04-.4-.07-.43-.42-.02-2.64-.02-4.93-.02-7.71h17.27s.1.1.15.14Z"/>
      <path class="cls-8" d="M59.54,67.46v-7.86h7.92v-8.6h8.73v-8.6h8.7c0-2.95,0-5.54,0-8.44,0-.31,0-.32.31-.32,5.55,0,10.77,0,16.34,0v-7.97s-.02-.02.3-.01c8.64,0,16.97,0,25.66,0v-8.64s-.01-.01.3-.01c16.99-.03,33.66-.07,50.33-.1,2.64.04,5.28.07,8.25.44.37,2.97.4,5.62.12,8.27-5.8.01-11.29.01-16.85.01-.19,2.99-.34,5.36-.51,8.17h-16.15c-.17,3.06-.32,5.64-.46,8.27-3,.17-5.59.31-8.51.48v8.18c-2.94.13-5.53.24-8.57.38,0,3.02,0,5.76-.3,8.48-2.77,0-5.23.02-8,.02-11.31-.02-22.32-.02-33.43-.02-.14,2.91-.26,5.28-.39,8.03h-17.1c0,6,0,11.61-.31,17.21-2.9,0-5.5,0-8.1,0v50.53c5.84,0,11.46,0,17.07.31,0,5.88-.02,11.45-.33,16.99-11.29-.02-22.26-.02-33.72-.02,0,3.17,0,5.89-.3,8.62-2.81,0-5.32,0-8,0v-50.99c2.81-.13,5.4-.25,8.39-.38v-33.73s-.02.01.29,0c2.88,0,5.46,0,8.33,0v-8.71Z"/>
      <path class="cls-7" d="M178.11,16.61c-16.65.34-33.32.37-50.3.41-.31-2.73-.31-5.46-.31-8.42h50.6c0,2.69,0,5.2.02,8.01Z"/>
      <path class="cls-7" d="M254.23,42.34c.35,5.52.39,11.01.43,16.85-.01.35-.12.46-.42.43-2.89-.03-5.49-.03-8.41-.03v-8.72h-8.6c0-3.05,0-5.78.05-8.56.05-.05.16-.15.16-.15,5.49.05,10.99.1,16.79.18Z"/>
      <path class="cls-7" d="M127.18,17.02c.31,2.73.31,5.45.31,8.64-8.69,0-17.01,0-25.65,0-.31-2.72-.31-5.44-.31-8.65,8.69,0,17.01,0,25.65,0Z"/>
      <path class="cls-7" d="M186.81,25.61c-.04-2.64-.07-5.29-.13-8.23,8.2-.3,16.44-.3,25.39-.3,0,2.72,0,5.29-.01,8.21-.01.35-.12.46-.42.42-8.48-.05-16.65-.07-24.82-.09Z"/>
      <path class="cls-7" d="M212.09,25.58c5.63-.05,11.21-.05,17.28-.05,0,2.83,0,5.11-.01,7.73-.01.35-.12.46-.42.42-5.79-.03-11.27-.03-17-.03v-7.91s.1-.11.15-.16Z"/>
      <path class="cls-7" d="M101.23,25.67c.31,2.5.31,5,.31,7.97-5.57,0-10.79,0-16.33,0-.31-2.49-.31-4.99-.31-7.99,5.57,0,10.79,0,16.33,0Z"/>
      <path class="cls-7" d="M229.4,33.56c2.45-.05,4.86-.05,7.96-.05,0,2.92,0,5.49.04,8.36.04.3-.06.4-.42.42-2.73.02-5.11.02-7.74.02v-8.58s.1-.11.15-.16Z"/>
      <path class="cls-7" d="M279.53,76.24c.34,5.52.39,11.02.47,16.81.04.3-.06.4-.42.42-2.95.02-5.55.02-8.4.02,0-6.16,0-11.69.05-17.27.05-.05.16-.15.16-.15,2.61.05,5.23.1,8.14.18Z"/>
      <path class="cls-7" d="M263.41,67.42h7.9c0,2.91,0,5.48.04,8.35.04.3-.06.4-.42.42-2.73.02-5.11.02-7.74.02,0-3.28,0-5.93.05-8.63.05-.05.16-.15.16-.15Z"/>
      <path class="cls-7" d="M254.69,59.49c2.68-.05,5.3-.05,8.63-.05,0,2.7,0,5.05.04,7.69.04.3-.06.4-.42.41-2.95.02-5.55.02-8.4.02v-7.91s.1-.11.15-.16Z"/>
      <path class="cls-6" d="M50.61,76.18c.31,11.13.31,22.27.31,33.71-2.99.14-5.58.26-8.39.38v50.99c2.68,0,5.19,0,8.03.31.33,11.33.33,22.34.33,33.41,3.27.17,5.87.3,8.5.44.16,2.77.3,5.14.45,7.69,5.7,0,11.01,0,16.64.01,2.92.01,5.52.01,8.18.01.2-2.99.35-5.35.53-8.06h8.35c0-5.97,0-11.59,0-17.51-.02-2.99-.03-5.68-.02-8.36.03,0,.07.05.38.04,2.66,0,5.01,0,7.66,0,0,6.21,0,11.78,0,17.65,0,5.6,0,10.9,0,16.51,0,8.63,0,16.95,0,25.47,3.09.14,5.67.26,8.66.4,0,2.8,0,5.3,0,8.11,0,5.7,0,11.1,0,16.71h25.3c0-2.94,0-5.68,0-8.42,0,0,0,.02.3,0,2.87-.01,5.44-.01,8.37-.01,0-3.24,0-5.93-.01-8.64-.01,0,0,.02.3.01,2.91-.01,5.51-.01,8.28-.01,0-11.73,0-22.8.02-34.18.02-2.76.03-5.22.04-7.99,0-5.88,0-11.45,0-17.32,0-8.53,0-16.74.32-24.96,2.9,0,5.5,0,8.45,0v-8.66h16.33c.15-3.06.27-5.65.42-8.7h16.87c.17-2.84.31-5.21.45-7.59h7.55c.17,2.67.32,5.03.5,7.85h16.81c.17,3.07.32,5.65.48,8.58h8.12v42.25c-2.83.14-5.43.26-8.48.41v16.18c-3.06.17-5.66.3-8.37.45-.16,2.93-.3,5.52-.44,8.21-2.96.16-5.55.3-8.21.45-.17,2.98-.31,5.57-.48,8.49h-7.71c0,3.09,0,5.82,0,8.86,0,2.64,0,4.98,0,7.65,3.03,0,5.51,0,8.29,0,2.99,0,5.66,0,8.65.01,8.41,0,16.5,0,25,0,0-3,0-5.5.31-7.99,5.89.02,11.46.03,17.04.04v7.9h-8.56v8.52h-8.8c0,2.96,0,5.54-.03,8.43-5.34.3-10.64.3-16.61.3,0,2.86,0,5.45-.03,8.34-5.64.3-11.25.3-17.31.3,0,2.78,0,5.07-.03,7.65-30.82.32-61.62.34-92.71.33-.3-2.53-.3-5.02-.3-7.88h-16.6v-8.71c-5.83,0-11.28,0-17.04-.03-.3-2.68-.3-5.33-.3-8.36-2.9-.13-5.5-.24-8.53-.38-.13-2.7-.26-5.39-.4-8.45h-7.74v-7.92h-8.59v-17.22h-8.59v-16.55c-3.06-.15-5.75-.28-8.82-.42v-25.69h-7.76v-41.81h7.63v-33.84h8.59v-17.45c2.99,0,5.6,0,8.51-.01Z"/>
      <path class="cls-9" d="M59.24,67.49c.31,2.69.31,5.4.31,8.68-2.87,0-5.45,0-8.33,0-.31-2.71-.31-5.4-.31-8.65,2.9,0,5.47,0,8.34-.02Z"/>
      <path class="cls-4" d="M152.78,177.9c0,5.57,0,11.13-.31,16.99-2.9.3-5.49.3-8.15.3-.15-3.21-.28-5.79-.41-8.49-2.95-.13-5.53-.25-8.52-.38v-8.35c-2.93,0-5.44,0-8.25-.02-2.97-.06-5.64-.09-8.31-.44,0-8.34,0-16.37,0-24.87h-8.65c0-6.07,0-11.67,0-17.28,0,0-.01-.02.3-.01,5.79,0,11.27,0,17,0,0-3.11,0-5.54.31-7.96,2.68,0,5.06,0,7.5,0,.16-3.21.29-5.8.42-8.46,2.97-.14,5.56-.27,8.21-.39v-50.99h-8.46v-16.43c3.04-.13,5.63-.25,8.57-.38v-8.18c2.92-.16,5.51-.31,8.51-.48.15-2.62.29-5.21.46-8.27h16.15c.18-2.81.33-5.18.51-8.17,5.56,0,11.04,0,16.85-.01,8.49,0,16.66.03,25.14.08.3,2.46.3,4.89.3,7.95,5.73,0,11.22,0,17,.03.3,2.68.3,5.34.3,8.61,2.63,0,5.01,0,7.69.03.3,2.76.3,5.48.3,8.54h8.6v8.72c2.92,0,5.51,0,8.41.03.3,2.46.3,4.89.3,7.94,2.85,0,5.45,0,8.35.03.3,2.68.3,5.33.3,8.61,2.63,0,5.01,0,7.69.03.3,5.56.3,11.09.3,17.25,2.85,0,5.45,0,8.35.03.3,11.17.3,22.31.3,33.79h8.5v41.76c-2.59.11-5.28.23-8.3.37v25.67h-8.72v16.57h-8.07c0,2.94,0,5.54-.34,8.45-2.85.31-5.35.31-8.27.31v8.68s0-.01.01,0c-5.57,0-11.14-.01-17.03-.03-.32,0-.32,0-.32-.32,0-2.9,0-5.5,0-8.14,3.24-.16,5.84-.29,8.47-.43.15-2.99.28-5.59.42-8.23,2.99-.15,5.59-.28,8.24-.42.15-2.98.28-5.57.42-8.23,2.98-.15,5.58-.28,8.59-.43v-24.82c2.81-.15,5.18-.29,7.54-.42v-58.75c-2.65-.14-5.02-.27-7.52-.4-.13-2.94-.25-5.53-.38-8.26-2.93-.14-5.53-.26-8.26-.38-.14-2.93-.26-5.52-.4-8.53h-16.91c-.14-2.8-.26-5.17-.38-7.64h-41.58c-.12,2.61-.23,4.98-.36,7.77h-17.15v8.63h-16.62v17.27h-8.6c0,2.95,0,5.46-.02,7.96-.02-.01-.06-.02-.36,0-2.82,0-5.33,0-8.07,0v42.55h8.42ZM169.41,68.19v8h8.68v8.62c11.63,0,22.79,0,34.56.01,2.68-.01,5.36-.02,8.66,0h7.72v-33.72c-2.89-.14-5.49-.26-8.18-.39-.14-2.95-.26-5.54-.39-8.18h-58.8v25.01c2.74,0,5.25,0,7.74.02,0,0,0,.03.01.64Z"/>
      <path class="cls-1" d="M254.95,229.11c-.31-2.72-.31-5.45-.31-8.67,2.92,0,5.42,0,8.23,0,.3,2.71.3,5.42.3,8.66-2.76,0-5.34,0-8.23.01Z"/>
      <path class="cls-9" d="M84.88,135.36h-17.08v-50.53c2.6,0,5.2,0,8.11-.02.32-.02.36-.03.35.29-.02,2.88-.02,5.46-.02,8.1h8.63c0-2.97,0-5.67,0-8.37,0,0,0,0,.31,0,11.33,0,22.35,0,33.42,0,.18-3.24.33-5.82.46-8.29h16.16v33.55c-2.73,0-5.24,0-7.75-.31,0-5.56,0-10.81,0-16.07h-17.32v41.63s0,.01-.3.01c-8.53,0-16.76.01-24.98.01Z"/>
      <path class="cls-5" d="M127.48,110.08h7.76v-33.55h-16.16c-.14,2.46-.28,5.05-.46,8.29-11.07,0-22.09,0-33.42-.31-.31-2.9-.31-5.49-.31-8.53h16.44c.17-3.05.31-5.63.47-8.64h25.66v-7.72c2.46-.02,4.93-.03,7.7-.04.3,2.52.3,5.02.3,7.95h8.46v50.99c-2.65.13-5.24.25-8.21.39-.13,2.67-.26,5.25-.42,8.46-2.44,0-4.82,0-7.49-.01-.3-.01-.29-.04-.3-.35-.01-5.85-.01-11.39-.01-16.94h0Z"/>
      <path class="cls-11" d="M84.88,135.67c8.22-.31,16.45-.32,24.98-.32.31,5.6.31,11.21.31,17.28h8.65c0,8.5,0,16.53-.31,24.9-2.88.34-5.45.34-8.39.34,0,3.25,0,5.95.02,8.66.02,0,0-.03-.3-.02-2.98.04-5.65.07-8.32.09v-17.35c-2.65,0-5,0-7.67-.3-.32-2.67-.32-5.03-.32-7.76h-8.69v-8.51c0-5.57.02-11.14.03-17.01Z"/>
      <path class="cls-2" d="M84.55,152.67c.31,2.73.31,5.44.31,8.53h8.69c0,2.73,0,5.1.01,7.77.01.31-.03.27-.37.27-5.73,0-11.12,0-16.78,0-.13-2.8-.25-5.16-.37-7.73h-16.12v25.06c2.77,0,5.19,0,7.63.31,0,2.9,0,5.49,0,8.11,3.27.17,5.86.3,8.59.44v7.69h-16.32c-.15-2.55-.29-4.92-.45-7.69-2.63-.14-5.23-.27-8.5-.44,0-11.07,0-22.08-.03-33.41-.03-3.03-.03-5.75-.03-8.93,11.46,0,22.44,0,33.72.02Z"/>
      <path class="cls-2" d="M127.14,59.6c.31,2.44.31,4.86.31,7.74h-25.66c-.16,3.01-.31,5.59-.47,8.64h-16.44c0,3.04,0,5.63,0,8.53,0,.31,0,.31-.31.31-2.97-.01-5.63-.03-8.29-.04,0,0-.04,0-.06.02-.01-5.59-.01-11.19-.01-17.19h17.1c.13-2.75.25-5.12.39-8.03,11.11,0,22.12,0,33.43.02Z"/>
      <path class="cls-3" d="M212,237.06c-2.68,0-5.35,0-8.33-.32-.3-2.64-.3-4.98-.3-7.65h-7.98v-8.55h7.71c.16-2.92.31-5.51.48-8.49,2.66-.15,5.25-.29,8.21-.45.15-2.68.29-5.27.44-8.21,2.71-.15,5.31-.29,8.37-.45v-16.18c3.05-.15,5.65-.27,8.48-.41v-42.25h-8.12c-.17-2.92-.31-5.51-.48-8.58h-16.81c-.18-2.82-.33-5.19-.5-7.85h-7.55c-.14,2.38-.28,4.75-.45,7.59h-16.87c-.15,3.05-.27,5.64-.42,8.7h-16.33v8.66c-2.95,0-5.54,0-8.45-.31-.33-5.87-.35-11.43-.36-16.99,0,0,.04,0,.37.02,5.5.01,10.68.01,16.12.01.14-2.82.26-5.19.39-7.79,2.88-.13,5.47-.25,8.27-.38.14-2.9.27-5.49.42-8.54h16.87c.17-3.06.31-5.65.45-8.24h41.51c.16,2.89.3,5.48.45,8.13,2.98.17,5.58.31,8.5.48v16.16c2.94.13,5.53.24,8.29.36v50.82c-2.84.14-5.43.26-8.48.41v16.18c-3.06.16-5.66.3-8.37.45-.16,2.94-.3,5.53-.44,8.19-2.74.17-5.11.32-7.54.48-.17,2.97-.31,5.55-.48,8.48h-17.04c0,3.09,0,5.82,0,8.86,0,2.76-.01,5.21-.02,7.66Z"/>
      <path class="cls-5" d="M127.45,177.96h7.95v8.35c2.99.13,5.58.25,8.52.38.13,2.7.25,5.28.41,8.49,2.66,0,5.24,0,8.14.02.3,2.47.29,4.93-.03,7.67-2.9.29-5.47.29-8.3.29v33.92s0-.03-.3-.02c-2.86,0-5.43,0-8.35,0v8.65s0-.02-.31-.01c-5.57,0-10.83,0-16.37,0,0-3.31,0-5.96.31-8.62,2.91-.01,5.51-.01,8.15-.01.2-3.03.35-5.39.5-7.79,2.76-.18,5.13-.33,7.48-.48v-8.19c-2.58-.13-4.95-.24-7.77-.38v-17.11c-6.08,0-11.7,0-17.31-.31,0-5.65,0-10.99,0-16.33,0,0,0,.04.31.04,5.78,0,11.27,0,16.98,0v-8.57Z"/>
      <path class="cls-9" d="M110.15,203.13h17.31v17.11c2.82.14,5.2.26,7.77.38v8.19c-2.36.15-4.73.3-7.48.48-.15,2.39-.31,4.76-.5,7.79-2.64,0-5.24,0-8.45,0-3.28,0-5.94.01-8.6.02v-7.8c-3-.14-5.58-.26-8.66-.4,0-8.53,0-16.84.31-25.45,2.98-.3,5.64-.31,8.3-.31Z"/>
      <path class="cls-9" d="M76.47,203.13c-.32-2.44-.32-4.86-.32-7.7-2.73-.14-5.32-.27-8.59-.44,0-2.62,0-5.21,0-8.42,0-3.2,0-5.78,0-8.68h25.96v17.2h-8.35c-.18,2.7-.33,5.07-.53,8.06-2.65,0-5.26,0-8.18-.01Z"/>
      <path class="cls-5" d="M93.53,177.58c-8.45.31-16.89.31-25.96.31,0,2.9,0,5.48,0,8.37-2.43.31-4.86.31-7.63.31v-25.06h16.12c.12,2.57.24,4.94.37,7.73,5.66,0,11.05,0,16.75-.01.32,2.67.34,5.36.36,8.35Z"/>
      <path class="cls-8" d="M152.42,135.33c.32,5.55.34,11.11.36,16.98,0,8.53,0,16.74,0,25.27-2.73.31-5.47.31-8.42.31v-42.55c2.74,0,5.25,0,8.07,0Z"/>
      <path class="cls-2" d="M144.44,237.08c-.31-11.08-.31-22.17-.31-33.91,2.83,0,5.41,0,8.29.02.3,11.09.3,22.16.3,33.89-2.77,0-5.37,0-8.28.01Z"/>
      <path class="cls-2" d="M110.19,237.41c2.67-.31,5.33-.32,8.3-.32.3,2.66.3,5.31.3,8.62,5.54,0,10.81,0,16.38,0,.31,2.73.31,5.47.31,8.41h-25.3c0-5.61,0-11.01,0-16.71Z"/>
      <path class="cls-11" d="M212.31,237.07c-.31-2.45-.3-4.91.02-7.67,8.53-.31,16.75-.32,24.97-.32,0,0,0,0,.01,0,0,2.49,0,4.99,0,7.99-8.5,0-16.6,0-25,0Z"/>
      <path class="cls-2" d="M110.16,202.83c-2.67.31-5.34.32-8.3.31-.31-5.32-.31-10.62-.31-16.22,2.67-.33,5.34-.36,8.32-.4.31,5.33.31,10.67.3,16.31Z"/>
      <path class="cls-2" d="M135.78,245.71c-.31-2.69-.31-5.38-.31-8.64,2.92,0,5.49,0,8.36,0,.31,2.7.31,5.39.31,8.63-2.93,0-5.49,0-8.37.01Z"/>
      <path class="cls-5" d="M195.38,229.4c2.48-.31,4.95-.31,7.99-.31,0,2.68,0,5.01,0,7.65-2.48.31-4.96.31-7.99.31,0-2.67,0-5.01,0-7.65Z"/>
      <path class="cls-5" d="M237.31,228.77c-8.22.31-16.44.31-24.97.32-.31-2.73-.31-5.46-.31-8.55h17.04c.16-2.92.31-5.51.48-8.48,2.43-.15,4.8-.3,7.54-.48.14-2.67.28-5.26.44-8.19,2.71-.15,5.3-.29,8.37-.45v-16.18c3.05-.15,5.65-.28,8.48-.41v-50.82c-2.76-.12-5.35-.23-8.29-.36v-16.16c-2.93-.16-5.52-.31-8.5-.48-.15-2.64-.29-5.23-.45-8.13h-41.51c-.14,2.59-.28,5.18-.45,8.24h-16.87c-.15,3.05-.28,5.64-.42,8.54-2.8.13-5.39.25-8.27.38-.13,2.61-.25,4.98-.39,7.79-5.44,0-10.62,0-16.11,0-.31-2.51-.31-5.02-.31-7.97h8.6v-17.27h16.62v-8.63h17.15c.13-2.79.24-5.16.36-7.77h41.58c.12,2.46.24,4.83.38,7.64h16.91c.14,3.01.26,5.6.4,8.53,2.73.13,5.33.25,8.26.38.13,2.73.24,5.33.38,8.26,2.5.13,4.88.26,7.52.4v58.75c-2.36.13-4.73.26-7.54.42v24.82c-3.01.15-5.6.28-8.59.43-.13,2.65-.26,5.24-.42,8.23-2.65.13-5.24.26-8.24.42-.13,2.64-.26,5.23-.42,8.23-2.64.13-5.23.26-8.47.43,0,2.64,0,5.23,0,8.14Z"/>
      <path class="cls-5" d="M169.42,67.53h-7.76v-25.01h58.8c.13,2.64.25,5.23.39,8.18,2.7.13,5.29.25,8.18.39v33.72c-2.53,0-5.12,0-8.03-.32-.32-5.71-.32-11.09-.32-16.95h-8.67v-16.39h-42.59v16.38Z"/>
      <path class="cls-3" d="M169.41,67.54c.01-5.39.01-10.78.01-16.38h42.59v16.39h8.67c0,5.85,0,11.24,0,16.93-2.67.32-5.36.33-8.35.03-.31-2.9-.31-5.49-.31-8.43h-8.47c-.13-2.94-.25-5.52-.38-8.49h-33.78s0-.03.02-.04Z"/>
      <path class="cls-6" d="M169.4,67.88c11.15-.31,22.31-.31,33.78-.31.13,2.97.25,5.56.38,8.49h8.47c0,2.94,0,5.53,0,8.43-11.15.31-22.31.31-33.94.31v-8.62h-8.68c0-2.98,0-5.49,0-8.3Z"/>
      <path class="cls-6" d="M110.48,135.34c-.31-13.81-.31-27.61-.31-41.64h17.32c0,5.26,0,10.51,0,16.07,0,.31,0,.31-.31.31h-8.11v17.24h8.44s0,.03-.01.04c-.01,2.44-.01,4.86-.01,7.97-5.73,0-11.21,0-17,0Z"/>
      <path class="cls-2" d="M127.15,177.94c.3,2.67.3,5.31.3,8.6-5.71,0-11.2,0-17,0-.32-2.71-.32-5.41-.32-8.66,2.94,0,5.51,0,8.4-.03,2.98,0,5.64.04,8.61.1Z"/>
      <path class="cls-5" d="M76.27,85.1c2.68-.3,5.33-.29,8.3-.28.31,2.7.31,5.41.31,8.37h-8.63c0-2.64,0-5.21.02-8.1Z"/>
      <path class="cls-3" d="M127.5,127.02c-2.73.31-5.46.31-8.43.31v-17.24h8.11c.31,5.54.31,11.09.32,16.94Z"/>
    </g>
  </g>
</svg>