<?xml version="1.0" encoding="UTF-8"?>
<svg id="Layer_2" data-name="Layer 2" xmlns="http://www.w3.org/2000/svg" viewBox="0 0 178.05 177.91">
  <defs>
    <style>
      .cls-1 {
        fill: #302a5f;
      }

      .cls-1, .cls-2, .cls-3, .cls-4, .cls-5, .cls-6, .cls-7, .cls-8, .cls-9, .cls-10, .cls-11, .cls-12, .cls-13, .cls-14 {
        stroke-width: 0px;
      }

      .cls-2 {
        fill: #68699e;
      }

      .cls-3 {
        fill: #737faf;
      }

      .cls-4 {
        fill: #414e85;
      }

      .cls-5 {
        fill: #9fa0c4;
      }

      .cls-6 {
        fill: #9986b1;
      }

      .cls-7 {
        fill: #322c62;
      }

      .cls-8 {
        fill: #afb7d2;
      }

      .cls-9 {
        fill: #55699e;
      }

      .cls-10 {
        fill: #35386e;
      }

      .cls-11 {
        fill: #7176a7;
      }

      .cls-12 {
        fill: #8190bd;
      }

      .cls-13 {
        fill: #8998c1;
      }

      .cls-14 {
        fill: #5c578e;
      }
    </style>
  </defs>
  <g id="Layer_2-2" data-name="Layer 2">
    <g>
      <path class="cls-7" d="M118.84,169.5v8.41h-59.24v-8.41h-17.32v-8.54h-8.39c-.15-2.9-.29-5.49-.45-8.48-2.4-.15-4.77-.29-7.8-.48,0-2.4,0-4.77,0-7.45,0-.31,0-.32.32-.31,2.68,0,5.05,0,7.44,0v-8.64h-7.75s0,0,0-.31v-16.41h-8.75V51.16h-8.52v-8.64h8.52v-8.64c2.93,0,5.52,0,8.43,0,.32,0,.34.03.33.34,0,25.49,0,50.68,0,76.14,3.1,0,5.53,0,7.97.31,0,5.56,0,10.81,0,16.3,3.35,0,6,0,8.66,0,0,0,0,0,0,.31,0,2.87,0,5.42,0,8.32,3.28,0,5.97,0,8.98,0,2.9,0,5.5,0,8.12,0,.17,3.26.31,5.85.46,8.76h16.17c.13,2.7.24,5.07.38,7.89,5.89,0,11.51,0,17.13.31,0,2.89,0,5.48,0,8.42h-17.05v8.53c11.39,0,22.54,0,34,0,2.99,0,5.68,0,8.37,0Z"/>
      <path class="cls-1" d="M8.35,51.47c2.66-.31,5.31-.31,8.53-.31v67.72h8.75c0,5.6,0,10.85-.31,16.41-2.99.31-5.68.32-8.37.32h-8.42v-16.35c-3.03-.16-5.62-.3-8.54-.46v-59.41c2.48-.13,5.08-.27,8.34-.45,0-2.41,0-4.78.01-7.46Z"/>
      <path class="cls-10" d="M33.59,25.19v-7.93h8.65v-8.59h17.12c.14-2.99.26-5.57.41-8.67,8.27,0,16.39,0,24.82.32.3,2.98.3,5.64-.02,8.29-5.75,0-11.19,0-16.94,0,0,3.26,0,5.98-.01,8.99-.02,2.74-.03,5.19-.35,7.63-2.68,0-5.06,0-7.89,0v17.39h-8.44c0,5.73,0,11.12-.31,16.51-2.99,0-5.67,0-8.35-.31-.02-2.74-.04-5.18-.04-7.93.02-5.75.02-11.18.02-17.01-3.2,0-5.91,0-8.63,0,0,0-.02-.02-.02-.33,0-2.99,0-5.67-.01-8.36Z"/>
      <path class="cls-10" d="M177.97,110.28v8.66h-8.54v16.63h-8.67v8.46c-2.81.13-5.19.24-7.82.36-.12,2.64-.23,5.01-.36,7.84-2.78,0-5.29,0-8.13-.01-.32-.01-.35-.09-.34-.39,0-2.58,0-4.87,0-7.59-5.85,0-11.24,0-16.63-.31.01-2.97.02-5.63.35-8.31,5.56-.01,10.82-.01,16.36-.01,0-3.32,0-5.96.3-8.62,2.89-.02,5.48-.02,8.37-.02,0-3.08,0-5.5.3-7.94,2.67-.02,5.03-.02,7.72-.02,0-3.31,0-5.94.3-8.6,2.94-.06,5.57-.09,8.52-.11,2.97,0,5.62,0,8.28-.01Z"/>
      <path class="cls-1" d="M119.15,169.5c-3,0-5.68,0-8.68-.31-.3-2.98-.3-5.64.02-8.32,5.75,0,11.18,0,16.98,0,0-3.24,0-5.94.31-8.65,5.64-.03,10.97-.06,16.3-.09,0,0,.03.08.04.12.01,2.68.01,5.32.01,8.36-2.85.15-5.44.29-8.44.45-.14,2.62-.28,5.21-.46,8.45-5.29,0-10.54,0-16.1,0Z"/>
      <path class="cls-12" d="M118.91,8.58h16.42v8.51h8.8c0,2.75,0,5.13,0,7.83,0,.32-.02.34-.33.34-2.99,0-5.67,0-8.66-.01-2.76,0-5.22,0-7.68-.32,0-2.64,0-4.98,0-7.63-3.27,0-5.97,0-8.97,0-2.99-.01-5.67-.02-8.35-.33,0-2.99,0-5.67,0-8.34.01,0,.04.02.35.02,3-.02,5.7-.03,8.4-.05Z"/>
      <path class="cls-11" d="M160.81,42.44h8.58c0,5.6,0,10.82.01,16.67.01,6.19.01,11.75-.3,17.31-2.97.02-5.63.05-8.31-.24-.03-3-.04-5.69-.04-8.68,0-3.01,0-5.72,0-8.73.02-5.65.04-10.99.07-16.33Z"/>
      <path class="cls-12" d="M169.42,76.41c0-5.56,0-11.12,0-17,2.75-.31,5.49-.31,8.63-.31,0,8.64,0,16.99-.34,25.65-2.99.32-5.63.32-8.28.02,0-2.99,0-5.67-.01-8.35Z"/>
      <path class="cls-12" d="M160.79,42.13c0,5.64-.03,10.98-.35,16.65-2.75.34-5.19.36-7.65.06-.02-5.64-.02-10.97-.02-16.61.02-3.02.03-5.73.05-8.44h7.96c0,2.89,0,5.47.02,8.35Z"/>
      <path class="cls-13" d="M152.81,33.48c0,3.01-.02,5.73-.34,8.74-2.99.29-5.68.28-8.35-.04,0-5.85,0-11.39.01-16.93,0,0,.02-.02.03-.04,2.73-.02,5.46-.02,8.65-.02,0,2.82,0,5.4.01,8.29Z"/>
      <path class="cls-4" d="M178,109.98c-2.69.31-5.35.32-8.3.01-.3-2.98-.31-5.66-.3-8.64.04-2.95.07-5.59.4-8.25,2.93-.05,5.56-.08,8.19-.11.01,5.56.03,11.12,0,16.99Z"/>
      <path class="cls-4" d="M84.88,8.62c0-2.66,0-5.31.02-8.27,5.35-.31,10.69-.32,16.33,0,.3,2.98.3,5.62.29,8.27,0,0,0,0-.31,0-2.76,0-5.21,0-7.97,0-3,0-5.69,0-8.37,0,0,0,0,0,0,0Z"/>
      <path class="cls-14" d="M101.53,8.62c0-2.65,0-5.29.02-8.23,2.69-.32,5.36-.34,8.34-.04.3,2.98.31,5.63.31,8.28,0,0-.03-.01-.35-.02-2.99,0-5.66,0-8.33,0Z"/>
      <path class="cls-3" d="M110.51,8.62c-.31-2.65-.32-5.3-.31-8.25,2.73-.3,5.45-.3,8.65-.3,0,2.72,0,5.3.03,8.19-2.67.32-5.37.33-8.37.35Z"/>
      <path class="cls-7" d="M16.97,135.91c2.68-.31,5.36-.31,8.36-.32q.31,0,.31.31c0,2.98,0,5.65,0,8.33,0,0,0,0,0,.01-2.7,0-5.4,0-8.66,0,0-2.91,0-5.47,0-8.33Z"/>
      <path class="cls-1" d="M33.29,25.21c.31,2.67.32,5.35.02,8.35-2.76.32-5.2.34-7.65.35,0,0-.02-.03-.03-.04,0-2.66,0-5.3,0-8.64,2.63,0,5,0,7.67-.02Z"/>
      <path class="cls-3" d="M178.02,92.69c-2.66.33-5.29.36-8.25.38-.34-.01-.4-.08-.38-.38.02-2.74.02-5.19.03-7.63,0,0,.01.01.01.01,2.65,0,5.29,0,8.24-.02.33,2.44.36,4.88.36,7.63Z"/>
      <path class="cls-4" d="M127.48,152.21v8.65c-5.8,0-11.24,0-17.29,0-3.19,0-5.77,0-8.47,0-.15-3.15-.28-5.72-.42-8.62h-24.9c-.14-2.82-.25-5.19-.38-7.89h-16.17c-.15-2.91-.29-5.5-.46-8.76-2.63,0-5.22,0-8.13-.31-.31-2.87-.31-5.42-.31-8.32h-8.66s0,0,0-.32c0-5.64,0-10.98.32-16.32,2.9,0,5.5,0,8.13,0,.17,3.25.31,5.83.46,8.45,3.01.16,5.6.3,8.21.44.18,2.78.33,5.14.48,7.52,2.77.18,5.14.33,7.82.5v8.35h17.2v8.62c8.73,0,16.99,0,25.27.02.02.02.05.05.04.35,0,2.67,0,5.04,0,7.65,6.23,0,11.76,0,17.3,0,0,0,0,0,0,0Z"/>
      <path class="cls-10" d="M25.65,34.21c2.45-.32,4.9-.33,7.65-.35.3,0,.32.01.32.33.02,5.89.04,11.46.05,17.33-.02,14.04-.02,27.77-.03,41.81,0,5.87,0,11.43-.02,17,0,0-.02.02-.02.02h-7.96c0-25.46,0-50.64,0-76.14Z"/>
      <path class="cls-10" d="M93.52,152.55c2.48-.31,4.97-.31,7.77-.31.14,2.9.27,5.46.42,8.62,2.7,0,5.27,0,8.16,0,.31,2.68.3,5.34.29,8.32-11.15.31-22.3.31-33.69.31v-8.53h17.05c0-2.93,0-5.52,0-8.42Z"/>
      <path class="cls-10" d="M42.28,110.33c0,5.34,0,10.67-.01,16.32-2.65.31-5.3.31-8.65.31,0-5.49,0-10.74,0-16.3,0-.31,0-.32.32-.33,2.99,0,5.67,0,8.35,0,0,0,0,0,0,0Z"/>
      <path class="cls-10" d="M42.27,127.27c2.69-.31,5.39-.31,8.66-.31,0,2.9,0,5.45,0,8.32-2.69.31-5.39.31-8.67.31,0-2.89,0-5.45,0-8.32Z"/>
      <path class="cls-1" d="M25.95,144.23c-.31-2.68-.31-5.35-.32-8.33,2.51-.31,5.02-.31,7.75-.31v8.64c-2.39,0-4.76,0-7.44,0Z"/>
      <path class="cls-4" d="M50.94,59.15v-16.51h8.44v-17.39c2.84,0,5.21,0,7.89.3.33,3,.34,5.7.34,8.7,0,2.95.02,5.6,0,8.57,0,5.64,0,10.97,0,16.61-.04,5.89-.07,11.46-.4,17.02-2.6,0-4.89,0-7.64,0v-17.3c-3.19,0-5.93,0-8.66,0,0,0,0,0,0,0Z"/>
      <path class="cls-9" d="M33.65,93.02c0-13.73,0-27.46.32-41.51,2.96-.31,5.6-.3,8.25-.3.02,2.44.03,4.87.05,7.92,0,3.3,0,5.99,0,8.98.01,8.5.02,16.7.02,24.91-.02.02-.05.05-.36.04-2.97-.02-5.63-.04-8.29-.05Z"/>
      <path class="cls-4" d="M67.63,17.3v-8.69c5.75,0,11.19,0,16.94,0,.31,0,.31,0,.31.31,0,5.65,0,10.99,0,16.64,0,3-.02,5.69-.33,8.37-2.98-.05-5.65-.08-8.32-.42,0-5.54,0-10.77,0-16.22h-8.59Z"/>
      <path class="cls-4" d="M42.24,50.9c-2.66.31-5.31.3-8.25.3-.32-5.56-.34-11.13-.35-17.01,2.72-.31,5.43-.31,8.62-.31,0,5.83,0,11.26-.02,17.01Z"/>
      <path class="cls-14" d="M67.62,17.6c2.65-.3,5.29-.3,8.6-.3,0,5.44,0,10.68-.3,16.24-2.96.35-5.63.38-8.29.41-.02-2.7-.03-5.39-.05-8.4,0-2.75.02-5.19.04-7.94Z"/>
      <path class="cls-4" d="M42.28,67.81c0-2.69,0-5.37,0-8.37,2.69-.31,5.36-.3,8.35-.3.31,0,.3,0,.3.3-.02,3.01-.03,5.71-.35,8.39-2.97-.02-5.63-.02-8.29-.02Z"/>
      <path class="cls-9" d="M110.14,144.2h-25.25v-8.62h-17.2v-8.35c-2.69-.17-5.05-.32-7.82-.5-.15-2.38-.3-4.74-.48-7.52-2.61-.14-5.2-.28-8.21-.44-.14-2.62-.28-5.21-.46-8.45-2.64,0-5.23,0-8.13,0-.31,0-.31,0-.31-.31-.01-5.85-.02-11.4-.04-16.94,0,0,.04-.04.36-.04,2.99,0,5.67,0,8.34.31,0,2.87,0,5.43,0,8.33,3.26,0,5.96,0,8.65.31,0,2.87,0,5.42,0,8.37,3.02,0,5.49,0,7.97.31,0,2.87,0,5.44,0,8.3,6.19,0,11.76,0,17.63.01,2.97.03,5.63.05,8.3.37.01,2.59.01,4.88.01,7.54,17.18,0,33.87,0,50.58.03.03.03.09.09.09.09v8.6c-5.54,0-10.8,0-16.67,0-6.06,0-11.5,0-17.37,0v8.59Z"/>
      <path class="cls-4" d="M110.15,144.22c-.02-2.72-.02-5.42-.02-8.61,5.88,0,11.31,0,17.06.02.3,2.68.29,5.34.28,8.31,0,.31,0,.3-.31.3-5.87.01-11.42.02-16.97.03,0,0-.03-.03-.05-.05Z"/>
      <path class="cls-4" d="M144.1,151.83c-5.34.33-10.67.36-16.31.38-.31,0-.31,0-.31-.31,0-2.76,0-5.22,0-7.68,0,0,0,0,0,0,5.39,0,10.78,0,16.63,0,0,2.72,0,5.01,0,7.59Z"/>
      <path class="cls-9" d="M169.38,101.66c0,2.67.02,5.35,0,8.32-2.65.33-5.29.36-8.27.38-.35-.02-.44-.11-.41-.41.05-2.94.08-5.58.41-8.23,2.96-.03,5.61-.04,8.27-.06Z"/>
      <path class="cls-9" d="M152.86,119.06v7.92c-2.89,0-5.48,0-8.37.02-.3.02-.37-.04-.37-.37,0-2.69,0-5.05,0-7.69,3.35,0,5.99,0,8.66.03.03.03.09.09.09.09Z"/>
      <path class="cls-9" d="M160.82,110.38c.05,2.68.05,5.32.05,8.62-2.68,0-5.05,0-7.72.02-.3.02-.36-.04-.37-.37,0-2.95,0-5.57.32-8.24,2.73-.09,5.15-.13,7.58-.17,0,0,.09.09.14.14Z"/>
      <path class="cls-11" d="M110.15,17.26c2.68,0,5.36.01,8.36.33.3,2.75.3,5.18-.02,7.63-2.87,0-5.43,0-8.3,0,0,3.3,0,6,0,9,.02,2.95.03,5.6.02,8.56-.03,3-.03,5.68-.35,8.37-2.87,0-5.44,0-8.35,0,0-3.25,0-5.94,0-8.94,0-8.52,0-16.73,0-24.95,0,0,0,0,.3,0,2.98,0,5.65,0,8.33,0Z"/>
      <path class="cls-11" d="M143.81,25.25c.3,5.54.3,11.08.3,16.94,0,.32.02.33-.29.33-2.98,0-5.66,0-8.34-.32-.01-5.86-.02-11.41-.02-16.97,2.68,0,5.36,0,8.35.01Z"/>
      <path class="cls-8" d="M135.15,25.24c.31,5.55.32,11.1.02,16.97-2.65.31-5,.31-7.72.31,0-3.27,0-5.97.01-8.97.02-2.97.03-5.64.03-8.31,0,0-.01-.01-.01-.01,2.46,0,4.91,0,7.68.01Z"/>
      <path class="cls-9" d="M110.16,16.95c-2.68.31-5.35.31-8.33,0-.31-2.98-.3-5.65-.3-8.32,0,0,0,0,0,0,2.67,0,5.34,0,8.32-.02.31,2.68.31,5.36.31,8.35Z"/>
      <path class="cls-3" d="M118.8,25.21c0-2.44.01-4.87.02-7.61,2.69-.3,5.39-.3,8.66-.3,0,2.65,0,4.99,0,7.63,0,.31.01.31-.3.31-2.99,0-5.67,0-8.36,0,0,0-.02-.02-.02-.02Z"/>
      <path class="cls-14" d="M160.75,67.8c.01,2.69.02,5.37.03,8.67-.03,3.26-.06,5.91-.06,8.56.02.01.03-.03-.27-.01-2.76.03-5.21.05-7.66-.25-.03-3-.06-5.69-.08-8.68.06-2.97.1-5.63.44-8.3,2.73,0,5.17,0,7.6,0Z"/>
      <path class="cls-8" d="M160.7,85.03c.02-2.65.05-5.29.09-8.24,2.68-.33,5.35-.35,8.32-.38.31,2.68.31,5.36.32,8.35,0,.31,0,.3-.32.3-3.01-.01-5.71-.03-8.41-.04Z"/>
      <path class="cls-2" d="M160.75,67.49c-2.44.31-4.87.3-7.63,0-.34-2.99-.36-5.68-.37-8.35,0,.01.04.02.04.02,2.45-.02,4.9-.03,7.65-.07.31,2.69.31,5.39.31,8.4Z"/>
      <path class="cls-8" d="M144.11,42.5c2.68,0,5.36,0,8.35.03.31,5.34.31,10.67.33,16.31.01.31-.02.3-.33.3-2.91,0-5.5,0-8.43,0v8.62c-5.74,0-11.13,0-16.53-.31,0-2.96.02-5.62.34-8.29,2.67-.01,5.04-.01,7.75-.01v-7.99h8.55v-8.64s-.02-.01-.02-.02Z"/>
      <path class="cls-3" d="M169.4,101.35c-2.67.32-5.32.34-8.29.05-.31-2.97-.3-5.64.02-8.32,2.95-.04,5.6-.07,8.24-.09,0,0,.07.06.1.1,0,2.67-.02,5.32-.07,8.26Z"/>
      <path class="cls-10" d="M84.88,25.26c0-5.34,0-10.68,0-16.34,2.68-.31,5.37-.31,8.36,0,.32,2.99.34,5.68.33,8.66-.04,2.74-.05,5.18-.37,7.63-2.98.02-5.65.03-8.32.04Z"/>
      <path class="cls-14" d="M93.6,17.28c-.02-2.68-.04-5.37-.05-8.36,2.46-.31,4.91-.3,7.66-.3.3,2.67.3,5.34.3,8.32,0,.31,0,.31-.3.31-2.74,0-5.18.02-7.61.02Z"/>
      <path class="cls-13" d="M169.39,92.69c-2.67.33-5.31.35-8.28.37-.33,0-.37-.05-.35-.35,0-2.77,0-5.24,0-7.7,0,0-.01.04-.03.03,2.68,0,5.38.02,8.39.03.31,2.44.3,4.88.28,7.63Z"/>
      <path class="cls-10" d="M127.17,144.23c.31,2.46.31,4.91.31,7.68-5.53.31-11.07.31-17.3.31,0-2.61,0-4.98,0-7.65,5.56-.31,11.11-.32,16.98-.34Z"/>
      <path class="cls-4" d="M41.94,93.07c.32,5.55.33,11.1.34,16.95-2.68.31-5.36.31-8.34.31-.31-5.56-.31-11.12-.3-16.99,2.67-.3,5.33-.29,8.3-.27Z"/>
      <path class="cls-2" d="M67.53,76.45c.03-5.57.05-11.15.4-17.02,2.97-.29,5.63-.28,8.29.04,0,5.78,0,11.24,0,17.15h25.35c0,3.1,0,5.75-.31,8.4-8.57.04-16.82.06-25.38.07-2.97-.01-5.64-.01-8.31-.32-.01-2.98-.03-5.65-.04-8.32Z"/>
      <path class="cls-10" d="M67.22,76.44c.32,2.68.33,5.35.35,8.32,0,.31,0,.3-.31.3-5.62-.01-10.94-.02-16.27-.34-.05-5.83-.08-11.34-.11-16.86.01-2.7.03-5.4.05-8.42,2.74-.31,5.47-.31,8.67-.31v17.3c2.75,0,5.04,0,7.64,0Z"/>
      <path class="cls-12" d="M67.61,34.24c2.68-.33,5.35-.35,8.32-.4,2.98.01,5.65.05,8.63.4.29,2.97.27,5.63-.05,8.29-2.97,0-5.63,0-8.6,0-2.96,0-5.61-.02-8.26-.03-.02-2.65-.04-5.3-.03-8.25Z"/>
      <path class="cls-3" d="M67.62,42.81c2.68-.3,5.33-.29,8.29.03.32,5.63.34,10.95.34,16.28-.01.01-.04.04-.04.04-2.65-.01-5.31-.02-8.26-.04-.32-5.34-.34-10.67-.33-16.31Z"/>
      <path class="cls-3" d="M50.57,67.83c.33,5.54.36,11.06.39,17.2-.01,3.09-.02,5.55-.03,8.02,0,0,0,0,0,0-2.67,0-5.34,0-8.32-.02-.32-8.21-.33-16.4-.34-24.9,2.66-.31,5.33-.31,8.29-.28Z"/>
      <path class="cls-14" d="M84.81,42.53c.02-2.66.04-5.32.05-8.28,0-2.99.01-5.69.02-8.69,2.67-.32,5.34-.33,8.33-.03.32,5.73.32,11.16.32,16.99h7.99v8.63c2.92,0,5.48,0,8.35,0,.31,0,.31,0,.31.3-.02,2.74-.04,5.17-.36,7.64-2.96.06-5.62.09-8.59.09-2.68-.03-5.05-.03-7.5-.03-.14-2.96-.26-5.33-.39-8.07h-8.54v-8.55Z"/>
      <path class="cls-3" d="M152.8,110.47c0,2.62-.02,5.24-.05,8.16-2.66.3-5.3.3-8.65.3,0,2.64,0,5-.02,7.66-16.71.3-33.4.3-50.58.3,0-2.66,0-4.95.3-7.56,2.78-.34,5.26-.36,8.05-.36,11.29.02,22.28.02,33.6.02,0-3.22,0-5.95.31-8.65,5.87-.02,11.43-.07,17-.05.01.06.04.19.04.19Z"/>
      <path class="cls-3" d="M84.89,118.96h-17.33c0-2.86,0-5.42,0-8.31,0-.32.03-.34.34-.34,5.87,0,11.43.01,16.98.32,0,2.98,0,5.65,0,8.32Z"/>
      <path class="cls-13" d="M85.19,118.98c-.31-2.69-.31-5.36-.31-8.34,0-.31,0-.31.31-.31,5.67.03,11.02.05,16.37.38-.01,2.95-.01,5.59-.01,8.24-2.48.02-4.96.03-7.75.07-2.97,0-5.63-.02-8.6-.05Z"/>
      <path class="cls-3" d="M59.59,101.68h-8.66c0-2.9,0-5.46,0-8.33,0-.31,0-.3.3-.3,2.88,0,5.45,0,8.35,0,0,3.24,0,5.94,0,8.64,0,0,0,0,0,0Z"/>
      <path class="cls-3" d="M67.56,110.35c-2.48.01-4.96.01-7.98.01,0-2.95,0-5.5,0-8.37,0-.31,0-.3.31-.3,2.77.03,5.24.06,7.7.38,0,2.95,0,5.59,0,8.24,0,0-.02.02-.04.04Z"/>
      <path class="cls-13" d="M160.8,93.08c0,2.69,0,5.36,0,8.34-.01,2.95-.04,5.59-.09,8.53-2.45.34-4.88.38-7.61.47-.3.05-.33-.08-.34-.44,0-5.89,0-11.42.31-16.94,2.76,0,5.21-.01,7.66-.02,0,0,.04.04.06.06Z"/>
      <path class="cls-5" d="M143.82,42.52c.31,2.73.31,5.45.31,8.64h-8.55v7.99c-2.71,0-5.08,0-7.78-.02-.33-.02-.39-.07-.36-.37.02-2.59.02-4.87.02-7.64-3.15,0-5.89,0-8.63-.31,0-2.89,0-5.48,0-8.36h-8.59c-.01-2.65-.03-5.29.26-8.26,2.96-.34,5.62-.35,8.59-.36,2.99,0,5.67,0,8.35,0v8.66c2.72,0,5.07,0,7.73,0,2.98,0,5.66,0,8.64,0Z"/>
      <path class="cls-2" d="M101.52,42.21c-2.49.31-4.98.31-7.99.31,0-5.83,0-11.26-.01-17,0-2.75.02-5.19.06-7.93,2.46-.31,4.9-.32,7.64-.32.31,8.21.31,16.42.31,24.94Z"/>
      <path class="cls-3" d="M118.79,33.84c-2.66.02-5.32.03-8.28.06-.31-2.68-.31-5.38-.31-8.68,2.87,0,5.43,0,8.3,0,.31,0,.32,0,.32.32,0,2.98-.02,5.64-.03,8.31Z"/>
      <path class="cls-12" d="M110.22,42.78c2.66-.31,5.3-.31,8.61-.31,0,2.88,0,5.46-.31,8.37-2.98.32-5.66.32-8.34.32,0,0,0,0,0,0,0-2.69.01-5.38.04-8.37Z"/>
      <path class="cls-13" d="M119.1,33.85c-.3-2.67-.29-5.34-.28-8.31,2.69-.31,5.37-.31,8.36-.3.3,2.67.3,5.34.28,8.31-2.69.31-5.37.31-8.36.3Z"/>
      <path class="cls-5" d="M127.5,67.76h16.52v-8.62c2.94,0,5.53,0,8.42,0,.32,2.68.34,5.37.38,8.36-.02,2.97-.05,5.63-.42,8.61-5.87.33-11.41.34-17.26.33-2.76-.03-5.21-.04-7.66-.35,0-2.96-.02-5.62-.01-8.29.01-.01.03-.03.03-.03Z"/>
      <path class="cls-6" d="M135.45,76.45c5.54-.01,11.09-.02,16.94-.04.34,2.68.37,5.37.41,8.36,0,.3.03.32-.29.32-5.75,0-11.19,0-17.06,0v-8.63Z"/>
      <path class="cls-8" d="M160.75,92.71c-2.46.31-4.92.32-7.67.33-.3,0-.3,0-.3-.3.01-2.76.03-5.21.04-7.66,0,0-.02-.02-.03,0,2.44,0,4.89-.01,7.65-.05.31,2.45.32,4.92.31,7.69Z"/>
      <path class="cls-5" d="M101.54,59.22c2.66-.03,5.32-.06,8.6-.1,6.17-.02,11.72-.03,17.27-.04,0,0,.05.05.08.08.01,2.68,0,5.34,0,8.3,0,.31-.01.33-.33.33-3,.02-5.69.03-8.68.04-5.86-.03-11.4-.04-16.95-.36,0-2.95,0-5.6.01-8.25Z"/>
      <path class="cls-14" d="M76.18,85.1c8.25-.02,16.51-.04,25.38-.07,6.19-.02,11.75-.05,17.62-.05,2.97.02,5.64.02,8.31.32,0,2.67,0,5.03,0,7.52,2.92.16,5.28.29,8.02.44,0,3.03,0,5.74-.01,8.46-.01,0,0-.03-.32-.03-14,0-27.68,0-41.43,0-.18-3.23-.32-5.82-.48-8.64-5.93,0-11.46,0-17.03,0-.03,0-.1-.02-.08-.32.01-2.74.01-5.18,0-7.62Z"/>
      <path class="cls-3" d="M118.87,84.96c-5.56.02-11.13.05-17,.06-.31-2.66-.31-5.3-.31-8.4h-25.35c0-5.91,0-11.38,0-17.15,0-.31.02-.34.34-.34,2.91,0,5.5,0,8.44,0v8.64h16.54c5.55.02,11.09.03,16.96.36.34,5.82.36,11.32.38,16.83Z"/>
      <path class="cls-10" d="M75.87,85.09c.31,2.45.31,4.89,0,7.64-2.83.31-5.34.31-8.3.31v-7.97s0,0,0,0c2.67,0,5.33,0,8.31.02Z"/>
      <path class="cls-4" d="M67.26,85.07c.31,2.51.31,5.01.31,7.98,2.96,0,5.47,0,8.28,0,.3,0,.36,0,.38.32,0,2.97-.03,5.62-.36,8.29-2.96.06-5.62.09-8.27.12-2.47-.03-4.93-.05-7.71-.08-.31-2.7-.31-5.4-.31-8.64-2.9,0-5.47,0-8.35,0-.3-2.47-.29-4.94-.25-7.71,5.34-.3,10.65-.29,16.28-.27Z"/>
      <path class="cls-13" d="M101.53,67.46c-5.39.31-10.78.31-16.53.31v-8.64c-2.94,0-5.53,0-8.43-.01-.32-5.33-.34-10.65-.35-16.28,2.66-.31,5.33-.31,8.29-.31.3,2.72.3,5.44.3,8.55h8.54c.13,2.74.25,5.11.39,8.07,2.45,0,4.82,0,7.5.03.3,2.68.3,5.33.29,8.28Z"/>
      <path class="cls-11" d="M127.44,58.77c-5.57.31-11.13.32-16.99.31-.3-2.45-.28-4.88-.26-7.62,2.68-.31,5.36-.31,8.35-.32,3.04,0,5.78,0,8.93,0,0,2.76,0,5.05-.02,7.64Z"/>
      <path class="cls-8" d="M101.86,118.97c-.31-2.66-.31-5.31,0-8.28,11.42-.33,22.52-.34,33.61-.35,0,0-.03-.03-.03-.03v8.67c-11.32,0-22.3,0-33.6-.02Z"/>
      <path class="cls-8" d="M152.77,93.04c0,5.52,0,11.05-.02,16.88-5.56.35-11.12.39-16.99.42-.31-.02-.3,0-.29-.3,0-2.97.02-5.65.03-8.32,0,0-.01.02.31.02,2.9,0,5.49,0,8.44,0v-8.67h8.54s0,0-.01-.01Z"/>
      <path class="cls-12" d="M67.59,102.07c2.67-.33,5.32-.37,8.6-.41,3.19,0,5.77,0,8.69,0v8.67s0,0,0,0c-5.55,0-11.11,0-16.98-.01-.31-2.65-.32-5.3-.31-8.25Z"/>
      <path class="cls-2" d="M85.19,110.33c-.31-2.7-.31-5.4-.31-8.67-2.93,0-5.5,0-8.39-.02-.29-2.67-.27-5.32-.23-8.28,5.55-.31,11.08-.31,17.01-.31.16,2.82.3,5.4.48,8.64,13.75,0,27.43,0,41.43,0,.31,2.68.3,5.35.3,8.34-11.09.32-22.19.32-33.6.35-5.66,0-11.02-.03-16.69-.06Z"/>
      <path class="cls-11" d="M152.78,92.75c-2.72.31-5.44.31-8.54.31v8.67c-2.95,0-5.54,0-8.43,0-.31-2.71-.31-5.42-.31-8.45-2.74-.15-5.1-.28-8.02-.44,0-2.49,0-4.85-.01-7.82,0-3.28,0-5.95,0-8.62,2.45,0,4.91.02,7.67.05.3,2.72.3,5.43.3,8.64,5.86,0,11.3,0,17.06,0,.3,2.46.29,4.91.28,7.67Z"/>
      <path class="cls-12" d="M127.48,76.08c0,2.97,0,5.64,0,8.62-2.66.31-5.33.31-8.3.29-.32-5.53-.34-11.04-.37-16.85,2.67-.32,5.36-.33,8.35-.34.31,2.66.32,5.32.33,8.28Z"/>
    </g>
  </g>
</svg>