<?xml version="1.0" encoding="UTF-8"?>
<svg id="Layer_2" data-name="Layer 2" xmlns="http://www.w3.org/2000/svg" viewBox="0 0 415.59 312.91">
  <defs>
    <style>
      .cls-1 {
        fill: #5c83ab;
      }

      .cls-1, .cls-2, .cls-3, .cls-4, .cls-5, .cls-6, .cls-7, .cls-8, .cls-9, .cls-10, .cls-11, .cls-12, .cls-13, .cls-14, .cls-15, .cls-16, .cls-17, .cls-18, .cls-19, .cls-20, .cls-21 {
        stroke-width: 0px;
      }

      .cls-2 {
        fill: #5585b2;
      }

      .cls-3 {
        fill: #90b9d4;
      }

      .cls-4 {
        fill: #c2dde6;
      }

      .cls-5 {
        fill: #8db4d0;
      }

      .cls-6 {
        fill: #bdd5e1;
      }

      .cls-7 {
        fill: #97c1dc;
      }

      .cls-8 {
        fill: #5a8cb7;
      }

      .cls-9 {
        fill: #add5e5;
      }

      .cls-10 {
        fill: #517baa;
      }

      .cls-11 {
        fill: #70a6cb;
      }

      .cls-12 {
        fill: #7e9bc4;
      }

      .cls-13 {
        fill: #dae7eb;
      }

      .cls-14 {
        fill: #a2cce2;
      }

      .cls-15 {
        fill: #accbdf;
      }

      .cls-16 {
        fill: #5880aa;
      }

      .cls-17 {
        fill: #9ac1d9;
      }

      .cls-18 {
        fill: #b4d2e2;
      }

      .cls-19 {
        fill: #d3e3ea;
      }

      .cls-20 {
        fill: #c5dae3;
      }

      .cls-21 {
        fill: #93bad5;
      }
    </style>
  </defs>
  <g id="Layer_8" data-name="Layer 8">
    <g>
      <path class="cls-11" d="M67.66.09c2.69-.03,5.39-.06,8.38.26.3,2.85.3,5.36.3,8.33,3.21,0,5.94,0,8.67.3-.01,2.59-.01,4.88-.01,7.62h-8.66c0,3.19,0,5.91,0,8.95,0,2.95,0,5.59-.31,8.27-2.91.05-5.52.05-8.33.05,0,8.72,0,16.98,0,25.54,0,2.91,0,5.51,0,8.36,3.25,0,5.89,0,8.58.3.06,2.75.07,5.19.08,7.95,0,2.89,0,5.47,0,8.35,3.29,0,6.01,0,8.7,0-.03,0-.02-.05-.03.26-.01,2.89-.01,5.47-.01,8.41,3,0,5.49,0,7.98.31,0,2.87,0,5.43,0,8.33,3.26,0,5.96,0,8.66.31,0,5.52,0,10.73,0,16.31,3.23,0,5.95,0,8.66.31,0,2.9,0,5.5,0,8.13,3.25.17,5.84.31,8.46.45.16,3,.3,5.59.46,8.5h7.54c.13,2.7.24,5.07.37,7.87,3,0,5.73,0,8.47.31,0,2.9,0,5.49,0,8.13,3.25.18,5.84.32,8.46.46.16,3.01.31,5.59.45,8.24,2.72.12,5,.22,7.74.34v8.45c6.07,0,11.69,0,17.3.31,0,2.65,0,4.99,0,7.67,3.26,0,5.96,0,8.65.31,0,2.87,0,5.42,0,8.34,3.04,0,5.51,0,7.99.31,0,5.87,0,11.42-.32,16.98-5.65,0-10.99,0-16.33-.3v-8.13c-3.25-.18-5.84-.32-8.76-.48v-8.38h-16.56v-8.44c-3.05-.14-5.64-.26-8.44-.38-.14-2.68-.26-5.04-.39-7.59-2.91-.14-5.5-.27-8.25-.41-.15-2.91-.29-5.5-.43-8.22-2.71-.16-5.08-.3-7.57-.44-.15-2.93-.29-5.52-.43-8.21-2.95-.16-5.54-.29-8.22-.44-.16-2.96-.3-5.55-.44-8.2-2.98-.16-5.57-.3-8.2-.45-.18-2.77-.33-5.14-.5-7.83h-8.37v-8.35c-2.83-.14-5.2-.25-7.81-.38-.13-2.88-.24-5.47-.37-8.27-2.9-.13-5.49-.26-8.27-.38-.14-2.9-.27-5.49-.4-8.24-2.91-.15-5.51-.28-8.56-.44v-16.17c-3.06-.16-5.66-.3-8.35-.44-.16-2.95-.3-5.54-.44-8.19-2.75-.18-5.12-.33-7.93-.51v-16.12c-3.06-.17-5.65-.31-8.57-.48v-16.83c-2.93-.13-5.53-.24-8.57-.37,0-11.44,0-22.59,0-34.04.03-2.74.04-5.18.37-7.63,11.31-.01,22.32-.01,33.58-.01V.09Z"/>
      <path class="cls-13" d="M280.07,41.83h7.88v8.64h8.7v8.57h8.47v8.57h8.7v8.03h8.03v17.32h8.76c0,2.9,0,5.51-.35,8.44-2.86.31-5.37.31-8.33.31v16.43c-2.82.14-5.19.27-7.76.4-.14,2.89-.27,5.48-.41,8.51h-25.54c-.15,3.04-.28,5.62-.41,8.32h-41.54c-.13-2.83-.26-5.42-.4-8.35-11.47,0-22.62,0-34.08-.01-2.96-.03-5.62-.05-8.29-.38,0-2.86,0-5.41,0-8.25-3.31,0-6.01,0-9.01-.01-2.89-.01-5.46-.01-8.13-.01-.14-3.19-.26-5.77-.39-8.67-5.69,0-11.05,0-16.42-.31,0-2.67,0-5.04,0-7.47-3.22-.15-5.81-.28-8.49-.41-.14-2.96-.25-5.55-.38-8.25-2.94-.13-5.53-.25-8.53-.38v-8.26c-2.79-.12-5.16-.23-7.92-.35v-16.44c-3.13,0-5.86,0-8.6-.31,0-2.98,0-5.65.32-8.33,2.96-.02,5.61-.03,8.57-.03,2.77.03,5.23.04,7.7.37,0,2.89,0,5.48,0,8.34,3.35,0,6,0,8.65.3,0,2.67,0,5.03,0,7.65,3.34,0,5.99,0,8.64.31.01,2.9.01,5.48.01,8.36,6.01,0,11.32,0,16.63.3,0,2.81,0,5.32,0,8.31,3.18,0,5.91,0,8.65.31,0,2.9,0,5.48,0,8.53h17.16c.12,2.75.22,5.03.35,7.87h25.2v8.21h33.65c.16-2.91.31-5.5.45-8.11,3.01-.17,5.59-.31,8.42-.47,0-2.85,0-5.27.31-7.7,2.68,0,5.05,0,7.44,0v-42.58c-2.73,0-5.24,0-7.76-.31-.02-2.97-.03-5.64-.03-8.61,0-2.98,0-5.65.01-8.34.01-.01.04-.04.04-.04Z"/>
      <path class="cls-15" d="M169.53,203.43c5.34,0,10.68,0,16.33.3.31,2.68.31,5.05.31,7.77h8.65v8.56h17.12c.14,3.04.25,5.63.38,8.44,2.67.14,5.04.26,7.61.39.14,2.9.27,5.49.42,8.53h25.51c.17,2.83.31,5.2.45,7.69,2.71.16,5.08.3,7.56.45.16,2.94.3,5.52.44,8.2,2.96.16,5.56.3,8.22.44.16,2.97.31,5.55.48,8.59h16.83c.17,3.06.32,5.64.46,8.21h33.71c0-2.95,0-5.69.31-8.41,16.82,0,33.32,0,50.27,0,0-3.21,0-5.93.31-8.65,2.9,0,5.49,0,8.12,0,.18,3.25.32,5.83.45,8.33h16.53v-42.27h17.17v25.21h8.43v17.27h-8.42c0,5.59,0,10.86-.35,16.43-2.9.31-5.45.31-8.25.31v8.72s0-.05-.3-.06c-2.89,0-5.49,0-8.18,0-.18-3.23-.32-5.81-.47-8.44-2.77-.18-5.13-.33-7.54-.48-.18-2.75-.33-5.12-.49-7.47h-8.19c-.13,2.58-.25,4.94-.39,7.75h-59.04c0,3.18,0,5.9-.31,8.63-8.67,0-17.04,0-25.75,0v-8.64h-25c-.14-2.82-.26-5.19-.4-8.01h-16.25c-.15-3.05-.27-5.64-.42-8.68h-16.88c-.16-3.05-.3-5.64-.46-8.68h-16.19c-.16-3.06-.3-5.64-.45-8.33-2.95-.16-5.55-.3-8.21-.44-.17-2.74-.32-5.11-.5-7.92h-16.81c-.17-3.06-.32-5.65-.47-8.3-2.71-.12-5-.22-7.74-.34v-8.49c-3.2,0-5.94,0-8.67-.31.02-5.62.02-10.94.03-16.26Z"/>
      <path class="cls-18" d="M85.08,177.44v-7.89h-8.63v-8.5h-8.63v-8.74h-8.75v-8.62h-7.85v-7.96h-8.75v-8.74h-8.63v-8.5h-8.63v-16.71h-8.08v-8.62h-8.51v-25.22H0V25.24c2.57,0,5.18,0,8.11.29.31,8.38.31,16.47.31,25.01,3.21,0,5.93,0,8.65.31,0,5.77,0,11.24,0,16.72,3.05.19,5.41.35,8.22.52v16.13c3.05.16,5.64.3,8.55.46v8.39c3.07,0,5.8,0,8.54.31,0,5.56,0,10.81,0,16.09,3.25.18,5.84.32,8.76.48v8.38c2.86,0,5.37,0,7.89.31,0,2.9,0,5.49,0,8.42h8.65v8.55h8.47c.14,2.82.25,5.19.38,7.79,2.88.13,5.47.24,8.29.37.13,2.89.24,5.48.36,8.27,2.68.14,5.05.26,7.62.39.13,2.9.26,5.49.38,8.24,2.91.15,5.5.27,8.26.41.14,2.91.27,5.5.41,8.22,2.92.15,5.51.29,8.24.43.15,2.7.29,5.07.43,7.56,2.93.15,5.52.29,8.23.43.15,2.94.29,5.53.43,8.2,2.73.17,5.1.31,7.56.46.16,2.95.29,5.53.45,8.56h16.85c.16,3.05.3,5.63.44,8.26,2.76.17,5.13.32,7.53.48.17,2.75.32,5.12.48,7.52,2.98.16,5.57.3,8.38.45,0,3.06,0,5.71,0,8.66,0,2.96,0,5.62-.3,8.31-2.9.04-5.5.04-8.44.04v-8.42c-2.8-.15-5.26-.28-8.04-.42v-8.49c-5.95,0-11.55,0-17.15-.3,0-2.67,0-5.04,0-7.45-2.98-.13-5.36-.24-8.08-.36v-8.55h-17.38v-8.6h-8.32c-.14-3.03-.26-5.71-.39-8.61h-7.68Z"/>
      <path class="cls-13" d="M169.55,25.35h8.54v-8.57h59.23v8.48c2.9,0,5.52,0,8.45.35.31,11.26.31,22.17.31,33.55h-8.46c-.14,3.05-.25,5.63-.39,8.65-8.58,0-16.85,0-25.43-.01-5.75-.01-11.2-.01-17.04-.01v-8.7c-3.12,0-5.84,0-8.57-.3,0-2.81,0-5.32,0-8.26-2.99,0-5.51,0-8.33-.01-2.97-.03-5.63-.05-8.3-.38-.03-5.64-.05-10.98-.05-16.61.02-2.93.04-5.55.06-8.18Z"/>
      <path class="cls-20" d="M160.89,228.57c0-2.65,0-5.31.3-8.26,2.97-.31,5.64-.31,8.3-.32h8.68v8.49c2.74.12,5.03.22,7.74.34.15,2.65.29,5.24.47,8.3h16.81c.18,2.82.33,5.18.5,7.92,2.66.14,5.25.28,8.21.44.14,2.69.28,5.28.45,8.33h16.19c.16,3.04.3,5.63.46,8.68h16.88c.15,3.04.27,5.63.42,8.68h16.25c.14,2.82.26,5.19.4,8.01h25v8.64c8.71,0,17.07,0,26.06,0,5.88,0,11.14,0,16.64,0,0,3.35,0,5.99-.31,8.64-5.56,0-10.8,0-16.32,0v8.53h-17.21v-8.45h-25.36v-8.71h-17.26v-8.48h-16.59v-8.16c-5.8,0-11.29,0-17.11-.34-.32-2.94-.32-5.53-.32-8.46h-16.74v-8.6h-8.73v-8.6h-16.29c-.15-2.8-.28-5.27-.42-8.05h-8.5v-8.59h-8.56Z"/>
      <path class="cls-4" d="M212.09,127h33.78c.14,2.93.26,5.52.4,8.35h41.54c.13-2.69.26-5.28.41-8.32h25.54c.15-3.03.27-5.61.41-8.51,2.57-.13,4.94-.25,7.76-.4v-16.43c2.96,0,5.47,0,8.28,0,.34,8.19.38,16.38.42,25.2,0,3.2,0,5.78,0,8.78h-16.66c0,2.91,0,5.4-.31,7.9-5.88.01-11.44.02-17.32.02-2.87-.01-5.43-.01-8.35-.01,0,3.24,0,5.94.01,8.63.01,0,0-.02-.31-.01-11.34,0-22.36,0-33.73,0v-8.66c-8.63,0-16.91,0-25.19.01,0,.01.02,0,.01-.31,0-2.66,0-5.01,0-7.68-5.95,0-11.3,0-16.65,0,0,0,.02,0,.01-.3-.02-2.97-.04-5.63-.06-8.29Z"/>
      <path class="cls-9" d="M313.98,143.58v-7.9h16.66c0-3,0-5.58,0-8.48,2.76-.31,5.5-.31,8.64-.31,0,11.29,0,22.3,0,33.93,0,3.22,0,5.83,0,8.79h-8.79c0,2.87,0,5.39-.3,7.9-25.5,0-50.69,0-76.16,0,0-3.12,0-5.54.31-7.97,14.21,0,28.11,0,42.09,0,.18-3.22.32-5.8.47-8.44,2.99-.17,5.57-.31,8.2-.46.17-3,.31-5.58.48-8.5h8.38v-8.54Z"/>
      <path class="cls-16" d="M160.58,228.61c3.05-.04,5.79-.04,8.87-.04v8.59h8.5c.15,2.79.28,5.26.42,8.05h16.29v8.6h8.73v8.6h16.74c0,2.93,0,5.52.02,8.42-11.12.32-22.25.34-33.69.03-.3-2.84-.3-5.35-.3-8.4h-16.74v-8.63h-17c-.17-3.16-.3-5.74-.44-8.34-2.8-.17-5.17-.32-7.76-.48,0-2.82,0-5.24,0-7.97,0-2.91,0-5.51,0-8.15-3.25-.18-5.84-.33-8.76-.49v-8.18c-2.95-.13-5.54-.25-8.51-.39v-8.52h17.14v8.49c2.79.15,5.24.28,8.04.42v8.42c2.94,0,5.54,0,8.44-.04Z"/>
      <path class="cls-6" d="M330.62,296.49v-8.64c-5.5,0-10.76,0-16.33,0-.31-2.73-.31-5.46-.31-8.63h59.04c.14-2.8.26-5.17.39-7.75h8.19c.15,2.35.31,4.72.49,7.47,2.4.15,4.77.31,7.54.48.15,2.63.29,5.22.47,8.44,2.68,0,5.28,0,8.2.02.32,2.75.32,5.48.32,8.62-2.85,0-5.45,0-8.67,0-5.89,0-11.15,0-16.7,0v8.53c-2.66.04-5.32.07-8.59.11-5.86,0-11.1,0-16.5,0-.16-3.13-.29-5.71-.43-8.65h-17.08Z"/>
      <path class="cls-21" d="M398.58,219.68c-2.7.31-5.44.31-8.59.31v42.27h-16.53c-.14-2.5-.28-5.08-.45-8.33-2.63,0-5.22,0-8.13-.31-.31-8.52-.31-16.73-.31-25.24v-8.56h17.07v-16.41c-2.96,0-5.69,0-8.43-.31.01-5.88.02-11.45.04-17.02h8.58v8.55h7.87v8.64h8.86c0,5.59,0,10.85.03,16.41Z"/>
      <path class="cls-4" d="M212.11,67.81h25.12c.14-3.02.25-5.6.39-8.65h8.46c0-11.38,0-22.29,0-33.5,5.41-.3,10.82-.3,16.54-.3v8.55c2.92,0,5.54,0,8.46.35.3,2.77.3,5.2.3,7.93,0,2.98,0,5.66,0,8.65,0,2.98,0,5.65-.32,8.32-2.91,0-5.51,0-8.14,0-.17,3.25-.31,5.84-.46,8.67-3.07,0-5.72,0-8.68,0-2.65,0-4.99,0-7.72,0,0,3.01,0,5.48-.31,7.95-11.33,0-22.35,0-33.63,0v-7.95Z"/>
      <path class="cls-11" d="M144.22,237.36v7.66c2.6.16,4.96.31,7.76.48.14,2.6.27,5.18.44,8.34h17v8.63h16.74c0,3.06,0,5.56-.01,8.37-8.29.3-16.58.3-25.24.3v-8.46h-16.57v-8.69h-17.35v-8.57h-7.93v-7.94h-8.71v-8.72h-8.73c0-5.74,0-11.22.28-17.02,2.89-.32,5.49-.32,8.17-.32.17,3.19.31,5.77.45,8.42,2.98.16,5.57.3,8.21.44.16,2.99.3,5.58.44,8.19,2.78.17,5.15.32,7.55.47.16,2.99.3,5.58.45,8.41h17.03Z"/>
      <path class="cls-2" d="M144.22,237.05c-5.54.31-11.07.31-17.03.31-.15-2.83-.29-5.42-.45-8.41-2.4-.15-4.77-.3-7.55-.47-.14-2.61-.28-5.2-.44-8.19-2.64-.14-5.23-.28-8.21-.44-.14-2.65-.28-5.24-.45-8.42-2.68,0-5.29,0-8.2.02-.32.02-.28,0-.27-.3,0-2.67,0-5.05,0-7.69h-8.53v-8.6h-8.07c0-5.87,0-11.32.04-17.09,2.46-.31,4.88-.31,7.72-.31.13,2.89.25,5.57.39,8.61h8.32v8.6h17.38v8.55c2.72.12,5.1.23,8.08.36,0,2.41,0,4.78,0,7.45,0,3.04,0,5.78,0,8.82,2.97.14,5.57.25,8.51.39v8.18c2.93.17,5.52.31,8.76.49,0,2.64,0,5.24,0,8.15Z"/>
      <path class="cls-8" d="M373.23,185.78c0,5.88-.02,11.45-.34,17.33-2.89.31-5.47.31-8.11.31-.18,2.98-.31,5.33-.47,8.03-5.71,0-11.07,0-16.42,0,.02,0,0,.03.01-.28,0-2.69,0-5.06,0-7.72-3.24,0-5.88,0-8.56-.31-.07-2.97-.1-5.64.18-8.32,2.9-.01,5.49-.01,8.19-.01.17-3.2.3-5.77.44-8.46,2.71-.16,5.07-.3,7.77-.46v-16.43h8.6v7.98h8.7c0,2.87,0,5.46,0,8.35Z"/>
      <path class="cls-10" d="M355.93,169.14c0,5.67,0,11.04,0,16.74-2.7.16-5.06.3-7.77.46-.14,2.68-.27,5.26-.44,8.46-2.7,0-5.29,0-8.17.01-.3.01-.32.04-.31-.28.01-2.91.01-5.5.01-8.41-3.25,0-5.88,0-8.57-.3-.09-2.97-.13-5.64-.18-8.31v-7.91h8.79c0-2.96,0-5.56.03-8.48,5.38-.31,10.73-.31,16.59-.31,0,2.88,0,5.45,0,8.33Z"/>
      <path class="cls-10" d="M119.01,16.52h16.51v8.76c5.6,0,10.86,0,16.43.34.29,2.98.28,5.63-.05,8.28-5.57,0-10.84,0-16.38,0,0,3.06,0,5.49-.3,7.93-2.98.03-5.66.03-8.32.07.01.03-.05.06-.03-.25.02-2.69.02-5.06.02-7.71-5.94,0-11.32,0-16.69-.02.02-.02.06.01.06-.3,0-3,0-5.69.3-8.38,2.89,0,5.46,0,8.43,0v-8.73Z"/>
      <path class="cls-8" d="M118.98,16.53c.02,2.7.02,5.42.02,8.72-2.97,0-5.55,0-8.74,0-11.72,0-22.82,0-33.92,0v-8.64h8.66c0-2.74,0-5.03.31-7.64,2.77-.33,5.23-.35,7.69-.36,5.56.01,11.12.03,16.98.39.3,2.62.3,4.9.3,7.59h8.66s0-.05.02-.06Z"/>
      <path class="cls-19" d="M330.31,296.49c5.9,0,11.49,0,17.39,0,.15,2.95.28,5.52.43,8.65,5.4,0,10.64,0,16.19,0,.32,2.53.32,5.05.32,7.77h-25.29v-7.8c-8.45,0-16.6,0-25.06-.05-.31-2.68-.31-5.31-.31-8.57,5.52,0,10.77,0,16.32,0Z"/>
      <path class="cls-17" d="M17.08,50.53h-8.65c0-8.54,0-16.63,0-25.04,0-3.04,0-5.77,0-8.82h8.69c0-2.69,0-5.07.35-7.75,5.65-.31,10.94-.32,16.26-.31.02.02.06.06.06.06-.02,2.44-.04,4.88-.37,7.62-2.91.31-5.5.31-8.44.31v8.45c-2.72.14-5.09.26-7.89.4v25.08Z"/>
      <path class="cls-17" d="M67.35.05c.31,2.68.31,5.32.31,8.59-11.26,0-22.27,0-33.58.01-.31.01-.35-.02-.35-.35,0-2.95,0-5.58,0-8.21,11.11-.03,22.22-.06,33.63-.05Z"/>
      <path class="cls-5" d="M152.21,33.89c.01-2.65.02-5.29.05-8.24,5.57-.33,11.12-.36,16.99-.34.29,2.67.28,5.29-.05,8.24-2.98.33-5.65.34-8.63.35-2.99,0-5.67,0-8.35,0Z"/>
      <path class="cls-20" d="M373.53,305.08c-.31-2.69-.31-5.33-.31-8.58,5.55,0,10.82,0,16.4,0,.32,2.75.32,5.5.32,8.62-5.55,0-10.82,0-16.41-.05Z"/>
      <path class="cls-18" d="M33.41.05c.31,2.68.31,5.31.3,8.24-5.31.31-10.6.32-16.2.33-.3-2.75-.3-5.49-.3-8.62,5.36,0,10.63,0,16.21.05Z"/>
      <path class="cls-17" d="M93,8.3c-2.45.32-4.91.33-7.67.36-3.04.02-5.78.02-8.98.02,0-2.97,0-5.48,0-8.29,5.41-.3,10.8-.3,16.63-.3,0,2.69,0,5.29.01,8.21Z"/>
      <path class="cls-20" d="M398.86,287.89c-.31-2.66-.31-5.36-.31-8.69,2.8,0,5.35,0,8.2,0,.3,2.75.3,5.49.3,8.65-2.67,0-5.28,0-8.2.03Z"/>
      <path class="cls-12" d="M118.95,16.28c-2.72.31-5.45.31-8.65.31,0-2.69,0-4.97,0-7.55,2.73-.3,5.46-.3,8.63-.3,0,2.49,0,4.86.01,7.54Z"/>
      <path class="cls-11" d="M93.04,203.75c2.68-.3,5.33-.3,8.57-.3,0,2.64,0,5.02,0,7.71-2.74.31-5.46.31-8.61.31,0-2.67,0-5.04.04-7.72Z"/>
      <path class="cls-13" d="M271.38,41.87c0-2.42,0-4.85,0-7.57,2.75-.3,5.5-.3,8.65-.3,0,2.44,0,4.83.01,7.53.02.31-.01.33-.34.34-2.99,0-5.67,0-8.34,0Z"/>
      <path class="cls-3" d="M17.08,50.84c0-8.57,0-16.84,0-25.39,2.81-.14,5.17-.26,7.89-.4v-8.45c2.94,0,5.53,0,8.43,0,.31,11.14.31,22.29.31,33.73,3.04.13,5.63.25,8.57.37v16.83c2.92.16,5.51.31,8.57.48v16.12c2.82.18,5.19.33,7.93.51.14,2.65.28,5.24.44,8.19,2.7.14,5.29.28,8.35.44v16.17c3.05.16,5.64.29,8.56.44.13,2.75.26,5.34.4,8.24,2.78.13,5.38.25,8.27.38.13,2.8.24,5.39.37,8.27,2.61.13,4.98.24,7.81.38v8.35h8.37c.17,2.69.32,5.06.5,7.83,2.62.14,5.22.29,8.2.45.14,2.65.28,5.24.44,8.2,2.67.14,5.27.28,8.22.44.14,2.69.28,5.28.43,8.21,2.49.15,4.86.28,7.57.44.14,2.71.28,5.31.43,8.22,2.74.14,5.34.26,8.25.41.13,2.55.25,4.91.39,7.59,2.8.13,5.39.24,8.44.38v8.44h16.56v8.38c2.92.16,5.51.3,8.76.48v8.13c0,5.63-.01,10.95-.03,16.57-2.68.31-5.34.32-8.31.31-.31-2.65-.31-5.3-.31-8.36-2.81-.15-5.4-.29-8.38-.45-.15-2.4-.3-4.77-.48-7.52-2.41-.15-4.77-.3-7.53-.48-.14-2.63-.28-5.22-.44-8.26h-16.85c-.16-3.02-.3-5.61-.45-8.56-2.46-.15-4.83-.29-7.56-.46-.14-2.67-.27-5.26-.43-8.2-2.71-.14-5.3-.28-8.23-.43-.14-2.49-.28-4.85-.43-7.56-2.72-.14-5.32-.28-8.24-.43-.14-2.73-.26-5.32-.41-8.22-2.76-.14-5.35-.27-8.26-.41-.13-2.76-.25-5.35-.38-8.24-2.57-.13-4.94-.25-7.62-.39-.12-2.79-.24-5.38-.36-8.27-2.82-.12-5.41-.24-8.29-.37-.13-2.6-.24-4.97-.38-7.79h-8.47v-8.55h-8.65c0-2.93,0-5.52,0-8.73,0-5.87,0-11.12,0-16.39-3.03-.2-5.4-.35-8.09-.53v-8.34h-17.09v-8.39c-2.91-.16-5.49-.29-8.55-.46v-16.13c-2.8-.18-5.17-.33-8.22-.52,0-5.48,0-10.94,0-16.72Z"/>
      <path class="cls-21" d="M314,262.58v8.42h-33.71c-.14-2.57-.29-5.16-.46-8.21h-16.83c-.17-3.04-.31-5.62-.48-8.59-2.66-.14-5.26-.28-8.22-.44-.14-2.68-.28-5.26-.44-8.2-2.48-.15-4.85-.29-7.56-.45-.15-2.49-.29-4.86-.45-7.69h-25.51c-.15-3.04-.28-5.63-.42-8.53-2.56-.13-4.93-.25-7.61-.39-.13-2.8-.24-5.4-.38-8.44h-17.12v-8.56h-8.65c0-2.72,0-5.09,0-7.77,0-5.86,0-11.42,0-17.29,0-.31,0-.3.3-.3,2.89,0,5.48,0,8.46,0v8.73c3.13,0,5.85,0,8.57.3-.01,2.81-.01,5.31-.01,8.23,3.21,0,5.95,0,8.66,0-.02,0,0-.03-.01.28,0,2.67,0,5.03,0,7.69,5.96,0,11.32,0,16.67,0-.02,0-.02-.04-.02.28,0,2.91,0,5.51,0,8.16,3.22.17,5.81.31,8.46.46.17,2.98.31,5.57.48,8.6h16.16c.17,3.06.31,5.64.46,8.55h16.85c.13,2.7.24,5.07.38,7.87,5.66,0,11.06,0,16.45.31,0,2.9,0,5.5,0,8.32,8.67,0,16.65,0,24.88.07.53,2.91.81,5.74,1.09,8.58Z"/>
      <path class="cls-21" d="M169.53,169.5h-17.3v-8.45c-2.74-.12-5.02-.22-7.74-.34-.14-2.65-.29-5.23-.45-8.24-2.62-.14-5.21-.28-8.46-.46,0-2.63,0-5.22,0-8.12,0-.3-.01-.3.3-.3,5.65,0,11,0,16.34.3,0,2.87,0,5.44,0,8.33,3.24,0,5.94,0,8.65.31,0,2.89,0,5.46,0,8.43h8.64v8.54s0,0,0,0Z"/>
      <path class="cls-17" d="M135.58,143.58c-2.74,0-5.47,0-8.47,0-.13-2.8-.24-5.17-.37-7.87h-7.54c-.16-2.91-.29-5.49-.46-8.5-2.62-.14-5.22-.28-8.46-.45,0-2.63,0-5.23,0-8.13,0-.31,0-.3.3-.3,5.66,0,11,0,16.34.3,0,2.88,0,5.45,0,8.33,3.24,0,5.94,0,8.65.31,0,5.65,0,10.98-.01,16.32,0,0,.01,0,.01-.01Z"/>
      <path class="cls-12" d="M110.27,33.63c-11.11.29-22.21.26-33.62.19-.31-2.68-.31-5.32-.3-8.27,11.1-.3,22.2-.3,33.61-.3.31,2.69.32,5.38.32,8.37Z"/>
      <path class="cls-17" d="M110.29,118.32c-2.71,0-5.42,0-8.65,0,0-5.58,0-10.79,0-16.3,0-.31-.01-.3.3-.3,3,0,5.68.01,8.36,0,0-.01-.03-.02-.03.29,0,5.65,0,10.99,0,16.33,0,0,0,0,.01-.01Z"/>
      <path class="cls-17" d="M76.35,76.03c2.75-.31,5.49-.31,8.65-.31,0,2.85,0,5.45.04,8.36-2.69.31-5.41.31-8.7.31,0-2.88,0-5.46,0-8.35Z"/>
      <path class="cls-17" d="M101.63,101.7c-2.7,0-5.4,0-8.65,0,0-2.9,0-5.46,0-8.33,0-.31-.01-.3.3-.3,2.89,0,5.46,0,8.34,0v8.65s0,0,.01-.01Z"/>
      <path class="cls-17" d="M67.7,59.41c2.75-.31,5.49-.31,8.62-.31,0,2.86,0,5.46-.05,8.37-2.69.31-5.33.31-8.58.31,0-2.86,0-5.45,0-8.36Z"/>
      <path class="cls-3" d="M178.18,177.49h-8.65c0-2.69,0-5.03,0-7.67,0-.31,0-.3.31-.3,2.88,0,5.45,0,8.34,0,0,3.02,0,5.5,0,7.98,0,0,0,0,0,0Z"/>
      <path class="cls-17" d="M85.01,84.65c2.45-.29,4.9-.26,7.65.06.31,2.99.3,5.67.3,8.36,0,0,0,0,.01-.01-2.48,0-4.97,0-7.97,0,0-2.94,0-5.52.01-8.41Z"/>
      <path class="cls-3" d="M186.17,186.13c-2.47,0-4.95,0-7.99,0,0-2.91,0-5.47,0-8.34,0-.31,0-.31.3-.3,2.66,0,5.01,0,7.67,0v8.65s0,0,0,0Z"/>
      <path class="cls-4" d="M280.05,101.72v7.69c-2.83.16-5.41.3-8.42.47-.15,2.62-.29,5.2-.45,8.11h-33.65v-8.21h-25.2c-.13-2.84-.23-5.12-.35-7.87h-17.16c0-3.05,0-5.63,0-8.54,0-.32.03-.34.34-.33,8.52.01,16.74.02,24.96.02,0,0,0,0,0,.31,0,2.9,0,5.5,0,8.31,11.78,0,22.86,0,34.25,0,8.77.01,17.22.02,25.68.03Z"/>
      <path class="cls-14" d="M254.06,101.69h-33.94c0-2.82,0-5.41.31-8.31,8.67-.31,17.02-.31,25.44-.31.18-3.23.33-5.82.5-8.85h16.46v-8.44h8.55v-16.62c0-2.67,0-5.34.32-8.32,2.97-.31,5.64-.3,8.3-.3.01,2.67.02,5.33.04,8.62,0,8.75,0,16.87,0,25.06-3.24.18-5.82.32-8.45.47-.17,2.99-.31,5.58-.48,8.61h-17.04v8.41Z"/>
      <path class="cls-7" d="M135.63,67.79h8.59v16.44c2.76.12,5.13.23,7.92.35v8.26c3,.13,5.59.25,8.53.38.12,2.71.24,5.3.38,8.25,2.68.13,5.27.25,8.49.41,0,2.43,0,4.8,0,7.48,0,.31,0,.32-.32.32-5.79,0-11.27,0-16.83,0-.13-2.96-.23-5.24-.35-7.98-2.78,0-5.29,0-8.11,0-2.97-.02-5.62-.03-8.29-.35-.01-2.87-.01-5.44-.01-8.12-3.19-.14-5.76-.26-8.69-.39,0-3.02,0-5.73,0-8.75,0-5.51,0-10.72,0-16.29h8.7Z"/>
      <path class="cls-9" d="M254.37,101.69c-.31-2.65-.31-5.29-.31-8.41h17.04c.17-3.03.32-5.62.48-8.61,2.63-.15,5.22-.29,8.45-.47,0-8.19,0-16.31,0-24.75,2.52-.31,5.03-.31,7.76-.31v42.58c-2.39,0-4.76,0-7.44,0-8.76,0-17.22-.01-25.98-.03Z"/>
      <path class="cls-11" d="M135.61,67.48c-2.7.31-5.42.31-8.69.31,0,5.57,0,10.77-.3,16.29-2.76.33-5.22.34-7.68.04,0-2.88,0-5.46,0-8.15-3.16-.16-5.73-.29-8.68-.43v-16.24h8.51v-8.78c2.74,0,5.12,0,7.82.28.32,2.86.32,5.43.32,8.37h8.71c0,2.67-.02,5.34-.01,8.32Z"/>
      <path class="cls-3" d="M135.93,59.16c-3.02,0-5.73,0-9.01,0,0-2.94,0-5.51-.01-8.4,0-2.97.01-5.62,0-8.58,2.66-.31,5.33-.32,8.63-.33,3.19,0,5.77,0,8.7,0,0,3.28,0,5.98,0,8.99-.02,2.96-.03,5.62-.05,8.28-2.65.01-5.3.03-8.26.04Z"/>
      <path class="cls-7" d="M169.54,109.67c5.37,0,10.73,0,16.42,0,.13,2.9.24,5.48.39,8.67,2.66,0,5.24,0,8.14.31.33,2.98.34,5.64.34,8.31,0,0,0,0-.32,0-5.57,0-10.82,0-16.11,0-.18-3.25-.33-5.83-.49-8.75h-8.38v-8.54s0,0,.01-.01Z"/>
      <path class="cls-7" d="M211.78,126.99c.32,2.67.34,5.33.05,8.31-5.74.31-11.18.31-17.01.31v-8.64s0,0,.31,0c3-.02,5.68-.03,8.37-.05,2.66.02,5.32.04,8.28.07Z"/>
      <path class="cls-6" d="M186.14,84.46h-16.62c0-2.88,0-5.47.01-8.38.01-.32.07-.36.37-.35,5.55,0,10.79,0,16.29,0,0,3.35,0,5.99-.01,8.65-.01.02-.04.06-.04.06Z"/>
      <path class="cls-4" d="M203.49,126.61c-2.68.32-5.36.34-8.36.35-.31-2.67-.32-5.33-.34-8.3,2.68-.3,5.38-.3,8.69-.3,0,2.84,0,5.4,0,8.25Z"/>
      <path class="cls-6" d="M160.85,67.83h-8.65c0-2.86,0-5.45.01-8.36.01-.33.05-.36.35-.35,2.89.01,5.48.01,8.34.01,0,3.33,0,5.97-.01,8.63-.01.02-.04.07-.04.07Z"/>
      <path class="cls-4" d="M194.82,93.07c-2.74.01-5.47.01-8.66.01,0-2.99,0-5.5,0-8.31,0-.3.02-.35.34-.36,2.99,0,5.66,0,8.33.32.01,2.97.02,5.64.03,8.3,0,0-.02.02-.03.03Z"/>
      <path class="cls-9" d="M280.01,50.21c-2.68.31-5.34.3-8.31.3-.31-2.68-.31-5.35-.32-8.34,2.67-.3,5.35-.3,8.32-.29.31,2.68.32,5.35.31,8.33Z"/>
      <path class="cls-4" d="M169.52,75.78c-2.67.02-5.32.02-8.66.02,0-2.62,0-4.99,0-7.65,0-.3.02-.35.34-.36,2.91,0,5.51,0,8.4,0v7.96s-.05.03-.08.05Z"/>
      <path class="cls-6" d="M144.5,59.13c-.3-2.67-.28-5.33.04-8.3,2.76-.32,5.22-.33,7.68-.03.02,2.98.03,5.64.04,8.31,0,0-.04.04-.06.06-2.48,0-4.94-.01-7.71-.04Z"/>
      <path class="cls-18" d="M314.31,262.58c-.59-2.84-.86-5.67-1.4-8.87-.48-3.01-.7-5.65-.62-8.34,3.42-.01,6.54.02,9.67.35,0,2.81,0,5.32,0,8.19,3.26,0,6,0,9.05.02,8.45.02,16.59.02,24.85.02,0-8.67,0-16.93.31-25.21,3.01-.02,5.71-.03,8.4-.03,0,8.21,0,16.41,0,24.93,0,3.03,0,5.75,0,8.97-16.95,0-33.46,0-50.27,0Z"/>
      <path class="cls-17" d="M42.38,93.37c2.73-.31,5.46-.31,8.55-.31v8.34c2.7.18,5.06.33,8.09.53,0,5.27,0,10.52,0,16.08-2.51.31-5.02.31-7.88.31v-8.38c-2.92-.16-5.5-.3-8.76-.48,0-5.28,0-10.53,0-16.09Z"/>
      <path class="cls-7" d="M152.57,59.12c-.32-2.68-.33-5.35-.35-8.63,0-3.2,0-5.79,0-8.68,3.29,0,5.93,0,8.6.31.02,2.89.02,5.46.02,8.32h8.72c2.66.02,5.32.04,8.3.38.32,2.88.32,5.44.32,8.26h16.58v8.7c5.84,0,11.29,0,17.04.01.31,2.44.31,4.86.31,7.96,11.28,0,22.3,0,33.94,0,2.96,0,5.3,0,8.03,0v-7.94h8.37c.15-2.83.29-5.42.46-8.67,2.63,0,5.23,0,8.14,0,.31,5.38.31,10.77.31,16.62h-8.55v8.44h-16.46c-.17,3.03-.31,5.62-.5,8.85-8.41,0-16.77,0-25.44,0-.31,0-.3,0-.31-.31,0-2.88,0-5.46,0-8.33h-25.3c-2.67,0-5.34-.02-8.31-.04-.31-2.65-.31-5.29-.31-8.64-5.5,0-10.74,0-16.29,0-.3-2.43-.3-4.86-.3-7.97-2.89,0-5.48,0-8.38-.01-.31-2.65-.31-5.29-.31-8.62-2.86,0-5.45,0-8.34-.01Z"/>
      <path class="cls-4" d="M169.55,50.14c-2.7.31-5.41.31-8.71.31,0-2.86,0-5.44,0-8.62,0-3.05.02-5.49.03-7.93,2.67,0,5.34-.02,8.31-.04.32,5.32.34,10.65.37,16.29Z"/>
      <path class="cls-4" d="M186.19,58.79c-2.47.3-4.96.3-8.02.3,0-2.83,0-5.39,0-8.25,2.51-.31,5.02-.31,8.02-.31,0,2.93,0,5.44,0,8.26Z"/>
      <path class="cls-14" d="M194.51,126.96c.31,2.7.31,5.41.31,8.64,5.83,0,11.26,0,17.01,0,.31,0,.29,0,.29.3,0,2.66,0,5.01,0,7.67h16.66s-.02,0-.02.31c0,2.89,0,5.49,0,8.55h17.41v8.2h41.82v-8.43s0,.02.31.02c2.86,0,5.42,0,8.34,0v-8.62c5.57,0,11.13-.02,17.01-.03.31,2.73.31,5.46.31,8.54h-8.38c-.16,2.92-.31,5.5-.48,8.5-2.63.15-5.22.29-8.2.46-.15,2.64-.29,5.23-.47,8.44-13.98,0-27.88,0-42.4,0-8.76,0-16.89,0-25.07,0-.18-3.26-.32-5.84-.49-8.87h-25.12v-8.45c-5.97,0-11.58,0-17.2-.31,0-2.89,0-5.48,0-8.08-3.05-.19-5.41-.34-8.1-.52v-7.7c-3.08,0-5.81,0-8.54-.31,0-2.87,0-5.42,0-8.31-3.27,0-5.97,0-8.98-.01-2.9-.01-5.49-.01-8.12-.01-.17-3.26-.31-5.85-.46-8.75h-7.75c0-3.06,0-5.79,0-8.83,0-2.76,0-5.22,0-7.67h7.8c.12,2.74.22,5.02.35,7.98,5.56,0,11.04,0,16.83,0,.31,2.73.31,5.46.31,8.54h8.38c.16,2.92.31,5.5.49,8.75,5.29,0,10.55,0,16.11,0Z"/>
      <path class="cls-7" d="M287.7,152.21c.31,2.73.31,5.46.31,8.42h-41.82v-8.2h-17.41c0-3.06,0-5.66,0-8.56,8.29-.31,16.57-.31,25.19-.31v8.66c11.36,0,22.39,0,33.73,0Z"/>
      <path class="cls-7" d="M228.79,143.27c-5.35.31-10.7.31-16.66.31,0-2.66,0-5.02,0-7.68,5.35-.31,10.7-.31,16.65-.31,0,2.68,0,5.03,0,7.68Z"/>
      <path class="cls-7" d="M296.35,143.6c.31,2.7.31,5.39.31,8.63-2.92,0-5.48,0-8.35,0-.31-2.7-.31-5.39-.31-8.63,2.92,0,5.48,0,8.35.01Z"/>
      <path class="cls-4" d="M186.19,152.2h17.19v8.45h25.12c.17,3.03.31,5.61.49,8.87,8.17,0,16.31,0,24.75,0,.31,2.43.31,4.85.31,7.97,25.47,0,50.66,0,76.16,0,.35,2.67.4,5.34.45,8.62-.03,3.26-.06,5.91-.39,8.6-2.94.06-5.58.08-8.54.08-2.69-.02-5.07-.02-7.57-.02-.15,3.13-.27,5.71-.41,8.69h-16.92c-.12,2.77-.23,5.14-.35,7.92-5.66,0-11.03,0-16.72,0-3.03,0-5.75,0-8.77,0-2.97-.04-5.63-.08-8.28-.42,0-2.59,0-4.87,0-7.55-3.24,0-5.98,0-9.02,0-2.74-.04-5.18-.08-7.62-.42,0-2.81,0-5.32,0-8.22-3.24,0-5.98,0-9.03,0-2.97-.04-5.63-.08-8.29-.42,0-2.81,0-5.32,0-8.2-3.23,0-5.98,0-8.69,0,.02,0,0,.04.02-.27.01-2.9.01-5.48.01-8.36-5.95,0-11.32,0-16.67,0,.02,0,0,.04.02-.27.01-2.67.01-5.02.01-7.7-3.28,0-5.99,0-8.68,0,.02,0,0,.04.02-.27.01-2.89.01-5.47.01-8.36-3.28,0-5.99,0-8.68,0,.02,0,0,.04.02-.27.02-3.02.03-5.72.04-8.42Z"/>
      <path class="cls-11" d="M364.57,228.38c-2.7.32-5.39.32-8.38.34-.29.02-.31.05-.3-.26.01-2.92.01-5.52.01-8.41-3.01,0-5.43,0-7.89-.31-.07-2.97-.1-5.64-.13-8.3h16.44c.16-2.7.3-5.05.47-8.03,2.65,0,5.23,0,8.11,0,3.05,0,5.78,0,8.74,0v16.41h-17.07v8.56Z"/>
      <path class="cls-14" d="M253.77,67.81c.31,2.48.31,4.94.31,7.95-2.73,0-5.07,0-7.72,0-.31-2.47-.31-4.94-.31-7.95,2.73,0,5.07,0,7.72,0Z"/>
      <path class="cls-12" d="M347.9,211.15c-2.74.31-5.46.31-8.6.31,0-2.68,0-5.05.04-7.73,2.68-.3,5.32-.3,8.56-.3,0,2.66,0,5.03,0,7.72Z"/>
      <path class="cls-1" d="M339.25,194.53c-2.69.29-5.38.26-8.37.19-.28-2.69-.25-5.34-.18-8.3,2.68-.31,5.32-.31,8.56-.31,0,2.91,0,5.5-.01,8.41Z"/>
      <path class="cls-11" d="M160.56,33.89c.3,2.44.28,4.88.25,7.61-2.66.3-5.3.3-8.59.3,0,2.89,0,5.48,0,8.37-2.46.32-4.92.33-7.68.34-.31-2.7-.31-5.4-.31-8.68-2.94,0-5.51,0-8.4-.01-.31-2.44-.31-4.87-.31-7.93,5.54,0,10.8,0,16.38,0,2.99,0,5.67,0,8.66,0Z"/>
      <path class="cls-1" d="M126.87,41.66c-5.38.32-10.74.32-16.62.32,0-2.7,0-5.06-.03-7.73,5.35-.3,10.73-.3,16.67-.3,0,2.65,0,5.02-.02,7.71Z"/>
      <path class="cls-1" d="M313.87,219.99v8.58h-8.58c0,2.99,0,5.58-.34,8.47-3,.32-5.66.35-8.63.34-5.56-.03-10.82-.03-16.44-.03v-8.73h-17.28v-8.73h-16.61v-8.55h-17.21s0,.05,0-.27c0-2.68,0-5.04,0-7.7h-16.65s-.01.04-.01-.27c0-2.88,0-5.45,0-8.23h-17.2v-8.73c-2.98,0-5.57,0-8.46,0-.31-2.7-.31-5.41-.31-8.65-2.67,0-5.02,0-7.68,0-.31-2.48-.31-4.96-.31-7.98-2.89,0-5.46,0-8.34,0-.31-2.72-.31-5.44-.31-8.54h-8.64c0-2.96,0-5.54-.01-8.42-.01-.3-.02-.29.29-.3,5.8,0,11.29,0,17.1,0v8.7h7.88s.02-.05.02.27c0,2.89,0,5.47,0,8.38h8.64s.02-.05.02.26c0,2.67,0,5.03,0,7.72h8.64s.02-.05.02.27c0,2.9,0,5.49,0,8.38h16.63s.02-.05.02.26c0,2.9,0,5.48,0,8.21h8.66c2.66.04,5.32.07,8.32.42.33,2.9.33,5.48.33,8.22h8.66c2.44.04,4.88.07,7.65.42.33,2.68.33,5.04.33,7.56h8.66c2.66.04,5.32.07,8.31.42.33,2.89.33,5.47.33,8.25,3.19,0,5.9,0,8.93.02,11.41.02,22.5,0,33.59,0Z"/>
      <path class="cls-18" d="M228.78,211.66c5.62-.31,11.23-.31,17.21-.31v8.55h16.61v8.73h17.28v8.73c5.62,0,10.87,0,16.45.33.32,2.76.32,5.19.01,7.61-2.98,0-5.66,0-8.33,0h-16.45c-.13-2.8-.25-5.17-.38-7.87h-16.85c-.16-2.9-.3-5.49-.46-8.55h-16.16c-.17-3.03-.31-5.62-.48-8.6-2.65-.14-5.24-.28-8.46-.46,0-2.66,0-5.26,0-8.16Z"/>
      <path class="cls-15" d="M288.02,245.61c2.67-.31,5.35-.31,8.64-.31,3.33-.01,6.04-.02,8.75-.04,1.99.02,3.99.03,6.28.1.52,2.69.74,5.34.96,8.27-7.98.29-15.95.29-24.62.29,0-2.83,0-5.42,0-8.32Z"/>
      <path class="cls-15" d="M212.14,203.68c5.37-.31,10.73-.31,16.65-.31,0,2.66,0,5.03.02,7.69-5.35.31-10.71.31-16.67.31,0-2.66,0-5.02,0-7.69Z"/>
      <path class="cls-15" d="M203.5,195.17c2.71-.3,5.41-.3,8.63-.3,0,2.78,0,5.35.02,8.22-2.72.31-5.45.31-8.66.31,0-2.92,0-5.42.01-8.23Z"/>
      <path class="cls-3" d="M109.96,67.76c.31,2.47.31,4.96.31,7.77,2.95.15,5.52.27,8.68.43,0,2.7,0,5.27,0,8.46-.03,6.19-.06,11.76-.39,17.31-2.97-.03-5.63-.04-8.29-.06,0,0,.03.01.03-.29,0-5.76,0-11.22,0-17.09h-8.72v-16.52c2.88,0,5.48,0,8.39-.03Z"/>
      <path class="cls-1" d="M101.26,75.73c.3,2.7.3,5.44.3,8.58h8.72c0,5.87,0,11.33,0,17.1-2.68.31-5.37.3-8.36.3-.31-2.7-.31-5.41-.31-8.65-2.88,0-5.46,0-8.34,0-.31-2.68-.31-5.37-.31-8.37,0-3.02,0-5.73,0-8.94,2.84,0,5.41,0,8.3-.03Z"/>
      <path class="cls-1" d="M135.88,143.59c-.31-5.34-.3-10.67-.31-16.31,0-.31-.02-.29.29-.3,2.91,0,5.51,0,8.53,0v8.79h7.8c0,2.83,0,5.34,0,7.84l.02-.02c-5.34,0-10.68,0-16.34,0Z"/>
      <path class="cls-1" d="M160.87,152.24c-2.7,0-5.4,0-8.64,0,0-2.9,0-5.46,0-8.33,0-.31-.02-.3.29-.3,2.9,0,5.5,0,8.34,0v8.66s.01-.01.02-.02Z"/>
      <path class="cls-1" d="M110.27,102c2.65-.3,5.32-.29,8.31.05.33,2.7.33,5.07.33,7.76h7.99c0,3.06,0,5.8,0,8.53,0,0,.02-.02.02-.02-5.34,0-10.68,0-16.34,0-.31-5.34-.31-10.68-.32-16.33Z"/>
      <path class="cls-1" d="M135.57,126.97c-2.7,0-5.41,0-8.65,0,0-2.89,0-5.45,0-8.33,0-.31-.01-.3.29-.3,2.9,0,5.5,0,8.34,0v8.66s.01-.01.02-.02Z"/>
      <path class="cls-14" d="M194.82,84.73c8.22-.31,16.44-.31,25.3-.31,0,2.87,0,5.45,0,8.33-8.22.3-16.43.3-24.96.29-.32-2.67-.33-5.34-.34-8.31Z"/>
      <path class="cls-19" d="M135.87,126.98c-.31-2.72-.31-5.45-.31-8.65-2.84,0-5.43,0-8.34,0-.31-2.73-.31-5.47-.31-8.53h-7.99c0-2.69,0-5.07-.03-7.74,0-5.87.03-11.44.06-17.32,2.46-.32,4.92-.34,7.68-.35.31,2.71.31,5.42.31,8.44,2.93.13,5.5.25,8.69.39,0,2.68,0,5.25,0,8.44,0,2.96,0,5.31,0,8.03h8.62v8.52h7.75c.15,2.9.29,5.49.46,8.75,2.62,0,5.22,0,8.12.32.31,2.87.31,5.43.31,8.32h17.2v7.7c2.69.17,5.05.32,8.1.52,0,2.6,0,5.19,0,8.08,0,3.01-.01,5.71-.03,8.72-2.53.31-5.05.31-7.89.31v-8.7c-5.8,0-11.29,0-17.1,0-.31-2.72-.31-5.45-.31-8.65-2.84,0-5.43,0-8.34,0-.31-2.5-.31-5.01-.31-7.84h-7.8v-8.79c-3.02,0-5.62,0-8.53,0Z"/>
      <path class="cls-18" d="M144.23,109.38c-2.7.31-5.4.31-8.63.31,0-2.72,0-5.06.02-7.72,2.68-.3,5.33-.29,8.3-.27.31,2.46.31,4.92.31,7.68Z"/>
      <path class="cls-17" d="M321.95,245.71c2.74-.3,5.49-.3,8.68-.3,0,2.67,0,5.27.03,8.18-2.71.31-5.45.31-8.71.31,0-2.87,0-5.38,0-8.19Z"/>
      <path class="cls-4" d="M169.54,135.29c-2.69.31-5.39.31-8.66.31,0-2.9,0-5.45,0-8.31,2.69-.31,5.39-.31,8.66-.31,0,2.89,0,5.44,0,8.31Z"/>
      <path class="cls-5" d="M313.92,219.69c-11.13.31-22.22.32-33.61,0-.27-2.98-.25-5.63-.23-8.28h16.41c.12-2.79.23-5.15.35-7.92h16.92c.14-2.98.26-5.57.41-8.69,2.5,0,4.88,0,7.57.02.31,5.38.31,10.75.31,16.46h-8.09c0,2.92,0,5.52-.04,8.42Z"/>
      <path class="cls-19" d="M220.1,185.88c-5.38.31-10.75.31-16.64.31,0-2.89,0-5.48-.02-8.37,5.35-.31,10.72-.31,16.67-.31,0,2.88,0,5.46-.01,8.36Z"/>
      <path class="cls-19" d="M246.07,203.01c-2.73.3-5.45.3-8.67.3,0-2.74,0-5.32-.03-8.21,2.72-.31,5.46-.31,8.7-.31,0,2.9,0,5.41,0,8.22Z"/>
      <path class="cls-19" d="M228.77,194.37c-2.72.3-5.45.3-8.66.3,0-2.73,0-5.31-.02-8.2,2.72-.31,5.46-.31,8.69-.31,0,2.89,0,5.4,0,8.2Z"/>
      <path class="cls-19" d="M194.8,169.26c-2.73.31-5.44.31-8.65.31,0-2.9,0-5.48-.02-8.37,2.69-.31,5.41-.31,8.68-.31,0,2.89,0,5.47-.01,8.36Z"/>
      <path class="cls-19" d="M279.76,211.4c.29,2.66.27,5.31.23,8.26-2.74.3-5.45.3-8.64.3,0-2.78,0-5.36-.03-8.24,2.69-.31,5.41-.32,8.44-.32Z"/>
      <path class="cls-19" d="M203.45,177.24c-2.73.31-5.44.31-8.65.31,0-2.68,0-5.04-.02-7.71,2.69-.3,5.41-.3,8.68-.3,0,2.67,0,5.03-.01,7.7Z"/>
      <path class="cls-19" d="M262.71,210.99c-2.72.3-5.45.3-8.67.3,0-2.51,0-4.88-.03-7.55,2.72-.31,5.46-.31,8.7-.31,0,2.68,0,4.97,0,7.55Z"/>
      <path class="cls-17" d="M355.88,228.46c-2.53.32-5.05.32-7.94.32,0-2.91,0-5.51.05-8.42,2.47-.31,4.89-.31,7.9-.31,0,2.89,0,5.49-.01,8.41Z"/>
      <path class="cls-17" d="M305.37,244.96c-2.67.31-5.38.33-8.4.34-.31-2.43-.31-4.86-.32-7.58,2.65-.32,5.31-.35,8.28-.36.34,2.45.38,4.87.45,7.61Z"/>
    </g>
  </g>
</svg>