<?xml version="1.0" encoding="UTF-8"?>
<svg id="Layer_2" data-name="Layer 2" xmlns="http://www.w3.org/2000/svg" viewBox="0 0 178.16 178.1">
  <defs>
    <style>
      .cls-1 {
        fill: #458a44;
      }

      .cls-1, .cls-2, .cls-3, .cls-4, .cls-5, .cls-6, .cls-7, .cls-8, .cls-9, .cls-10, .cls-11, .cls-12, .cls-13, .cls-14, .cls-15, .cls-16 {
        stroke-width: 0px;
      }

      .cls-2 {
        fill: #74b655;
      }

      .cls-3 {
        fill: #eae04c;
      }

      .cls-4 {
        fill: #7cb25d;
      }

      .cls-5 {
        fill: #3b8954;
      }

      .cls-6 {
        fill: #ccd35c;
      }

      .cls-7 {
        fill: #328245;
      }

      .cls-8 {
        fill: #a4ca64;
      }

      .cls-9 {
        fill: #68a247;
      }

      .cls-10 {
        fill: #94c35f;
      }

      .cls-11 {
        fill: #1d7545;
      }

      .cls-12 {
        fill: #bad15f;
      }

      .cls-13 {
        fill: #679241;
      }

      .cls-14 {
        fill: #549b56;
      }

      .cls-15 {
        fill: #d6d654;
      }

      .cls-16 {
        fill: #afcc62;
      }
    </style>
  </defs>
  <g id="Layer_4" data-name="Layer 4">
    <g>
      <path class="cls-3" d="M118.31,8.55c2.67.03,5.34.05,8.31.43.31,19.75.31,39.15.31,58.81,3.35,0,5.99,0,8.65.31.03,17.17.05,34.03.06,51.19-.04,2.75-.06,5.2-.39,7.65-2.89,0-5.47,0-8.32,0,0,6.17,0,11.66-.3,17.2-2.98.02-5.66,0-8.33-.34,0-45.24-.02-90.17,0-135.14.03-.03.02-.12.02-.12Z"/>
      <path class="cls-16" d="M84.34.08c5.56-.03,11.12-.06,16.99.26.31,5.73.31,11.11.31,16.72-3.07.14-5.67.26-8.4.38v16.25c2.83.13,5.42.25,8.14.38v33.52c-2.83.13-5.42.25-8.42.39,0,14.33,0,28.34-.31,42.35-2.9,0-5.49,0-8.11,0-.18-3.26-.32-5.84-.47-8.69-2.83,0-5.25,0-7.69-.3-.03-2.97-.04-5.63-.04-8.6,0-8.44,0-16.57,0-24.73,3.02-.2,5.39-.35,8-.52V.08Z"/>
      <path class="cls-6" d="M92.95,110.35v-42.36c3-.14,5.59-.26,8.42-.39v-33.52c-2.72-.13-5.31-.25-8.14-.38v-16.25c2.73-.12,5.33-.24,8.4-.38,0-5.61,0-10.99,0-16.68,5.4-.3,10.79-.3,16.64-.3,0,2.66,0,5.26.01,8.17.01.31.02.39-.31.4-2.7,0-5.07,0-7.71,0,0,37.21,0,73.78-.31,110.34-2.9,0-5.49,0-8.43,0v-8.64c-3.09,0-5.82,0-8.55,0,0,0-.02,0-.02,0Z"/>
      <path class="cls-10" d="M84.03.04c.31,22.38.31,44.72.31,67.46-2.61.17-4.98.32-8,.52,0,8.16,0,16.29-.31,24.72-2.97.3-5.64.28-8.31-.03-.03-2.74-.04-5.17-.05-7.93,0-22.62,0-44.93,0-67.56-3.28,0-5.92,0-8.59-.31-.05-2.99-.08-5.67-.11-8.36,0,0,.06,0,.38.03,2.9.03,5.48.03,8.35.03V.08c5.34-.03,10.68-.06,16.33-.04Z"/>
      <path class="cls-5" d="M58.67,8.58c.34,2.67.36,5.35.39,8.65-.03,3.07-.05,5.52-.38,7.99-2.6.01-4.89.01-7.61.01,0,14.49,0,28.51,0,42.85-.01,19.84-.01,39.36-.33,58.87-2.91,0-5.5,0-8.45,0v-7.96c-3.08,0-5.82,0-8.55-.31,0-3,0-5.68,0-8.68,0-5.7,0-11.1,0-16.71,3.1-.18,5.78-.33,8.65-.5,0-22.78,0-45.15,0-67.82,0-2.79,0-5.27-.01-7.75v-8.61c5.48,0,10.74,0,16.3-.02Z"/>
      <path class="cls-8" d="M144.27,25.16h7.92v8.64h8.7c0,2.84,0,5.44,0,8.65,0,11.6,0,22.58,0,33.8,3.05.13,5.64.25,8.68.38,0,3.02,0,5.75-.01,8.78-.04,5.61-.06,10.92-.39,16.24-2.86.02-5.42.02-8.25.02,0,3.31,0,6-.02,8.69-.02,0-.04-.03-.35-.03-2.98,0-5.66,0-8.33-.3,0-8.43,0-16.55,0-24.73-2.99-.19-5.36-.34-7.96-.5V25.16Z"/>
      <path class="cls-12" d="M144.26,24.86c.02,20.06.02,39.81.02,59.94,2.6.16,4.97.31,7.96.5,0,8.18,0,16.3,0,25.04-.01,3.29-.02,5.96-.34,8.63-5.62.02-10.93.02-16.24.03-.02-16.86-.05-33.72-.07-51.2.02-17.29.03-33.95.04-50.62h8.62c0,2.64,0,5.01.02,7.68Z"/>
      <path class="cls-13" d="M118.28,144.12c2.68.03,5.35.06,8.64.07,3.3-.05,5.99-.08,8.67-.04,0,.07,0,.22,0,.52,0,2.8,0,5.3,0,8.24h8.73v7.96c-2.91,0-5.48,0-8.68,0-6.08,0-11.53,0-17.33,0v8.69s-.02-.05-.31-.05c-5.64,0-10.99,0-16.35,0,0,0-.02,0-.02-.32,0-8.49,0-16.66,0-24.9,0-.06,0-.19.3-.15,2.99.02,5.68,0,8.67.01,2.76.01,5.22,0,7.68-.03Z"/>
      <path class="cls-9" d="M8.43,118.98H0v-59.86c2.6,0,5.2,0,8.12.3.32,11.42.33,22.54.34,33.97,0,8.73,0,17.16-.01,25.58,0,0-.01.01-.01.01Z"/>
      <path class="cls-4" d="M169.57,85.11v-8.47c-3.04-.13-5.62-.25-8.68-.38,0-11.22,0-22.2.01-33.5,2.75-.32,5.48-.32,8.5-.32v16.56h8.75c0,8.75,0,17.09-.34,25.74-2.97.33-5.61.35-8.25.36Z"/>
      <path class="cls-15" d="M135.6,16.87c0,16.97-.01,33.63-.03,50.61-2.65.31-5.3.31-8.65.31,0-19.67,0-39.06,0-58.77,2.74-.3,5.48-.3,8.67-.3,0,2.65,0,5.25.01,8.15Z"/>
      <path class="cls-13" d="M8.46,93.08c0-11.12-.02-22.24-.03-33.68,0-5.66,0-11,0-16.89,2.88,0,5.46,0,8.35.29.32,5.64.32,11,.33,16.66,0,8.72,0,17.13,0,25.85,0,2.66,0,5.01,0,7.76h-8.63Z"/>
      <path class="cls-14" d="M169.56,85.41c2.65-.32,5.29-.34,8.22-.36.3,11.13.3,22.28.3,33.78h-8.56c0,2.73,0,5.1-.33,7.8-2.97.34-5.6.36-8.26.06-.04-5.67-.05-11.02-.06-16.37,0,0,.02.03.34.03,2.88,0,5.44,0,8.27,0v-8.72c.02-5.31.04-10.61.08-16.22Z"/>
      <path class="cls-7" d="M17.1,59.16c0-5.36,0-10.71-.02-16.38,0-3.03,0-5.74,0-8.83h7.86v-8.74c2.95,0,5.53,0,8.46.02.35.02.44.11.41.41-.03,5.69-.03,11.07-.03,16.67-3.14.17-5.82.32-8.69.47,0,5.71,0,11.01-.31,16.33-2.76.03-5.21.04-7.66.05Z"/>
      <path class="cls-14" d="M101.64,178.03c-11.1.02-22.21.05-33.63-.26-.32-2.97-.31-5.6-.32-8.25,0,0-.01-.02.3-.01,5.65,0,10.99,0,16.64,0,5.87,0,11.43,0,16.99,0,0,0,.01,0,.01.31,0,2.94,0,5.58,0,8.21Z"/>
      <path class="cls-1" d="M144.62,152.9c-3.04,0-5.78,0-9.03,0,0-2.93,0-5.43.31-8.28,2.89-.34,5.48-.34,8.44-.34v-8.79c2.87,0,5.37,0,8.18.03,2.95.02,5.59.02,8.31.04.07.02.21.08.21.08v8.53h-8.65v8.73c-2.73,0-5.09,0-7.76,0Z"/>
      <path class="cls-9" d="M118.62,169.54c-.31-2.7-.31-5.42-.31-8.68,5.8,0,11.25,0,17.03,0,.32,2.73.32,5.45.32,8.65-5.82,0-11.27,0-17.04.02Z"/>
      <path class="cls-5" d="M59.02,169.51h-16.62c0-2.89,0-5.47,0-8.35,0-.31,0-.31.31-.3,5.52.01,10.73.01,16.33.01,0,3.21,0,5.92,0,8.63,0,0-.01.02-.01.02Z"/>
      <path class="cls-9" d="M101.95,178.06c-.31-2.67-.31-5.31-.3-8.25,5.36-.31,10.71-.3,16.37-.29.32,2.73.32,5.45.32,8.58-5.61,0-10.84,0-16.39-.04Z"/>
      <path class="cls-9" d="M17.09,135.6h-8.64c0-5.54,0-10.77,0-16.31,0-.31,0-.32.31-.32,2.91,0,5.5,0,8.34,0,0,5.99,0,11.3,0,16.61,0,0,0,.02,0,.02Z"/>
      <path class="cls-1" d="M67.7,169.53c0,2.64,0,5.27,0,8.21-2.71.3-5.43.3-8.68.3,0-2.75,0-5.32,0-8.21,0-.31,0-.32.32-.32,3,0,5.68.01,8.36.02Z"/>
      <path class="cls-2" d="M67.39.04c.31,2.67.31,5.3.31,8.58-2.87,0-5.45,0-8.35,0-.31-2.73-.31-5.46-.31-8.62,2.84,0,5.44,0,8.35.04Z"/>
      <path class="cls-14" d="M33.73,152.87h-8.64c0-2.86,0-5.44,0-8.32,0-.31,0-.31.31-.31,2.97.02,5.64.03,8.31.35,0,2.96.01,5.62.01,8.28,0,0,0,0,0,0Z"/>
      <path class="cls-11" d="M160.96,127.01c2.63-.02,5.27-.04,8.2-.07.3,2.72.3,5.46.3,8.68-2.82,0-5.33,0-8.14.01-.3.01-.44-.05-.46-.37.01-2.96.06-5.6.1-8.24Z"/>
      <path class="cls-1" d="M42.39,160.85c-2.71,0-5.43,0-8.66,0,0-2.65,0-5.01,0-7.67,0-.31,0-.3.3-.3h8.36v7.97s0,0,0,0Z"/>
      <path class="cls-7" d="M42.06,17.23c.31,2.46.32,4.94.01,7.72-2.95.33-5.6.36-8.24.38,0,0-.09-.09-.14-.14-.05-2.47-.05-4.9-.05-7.95,2.91,0,5.51,0,8.42-.02Z"/>
      <path class="cls-14" d="M25.08,144.24c-2.5,0-4.99,0-7.99,0,0-2.86,0-5.44,0-8.33,0-.31,0-.32.31-.32,2.76.01,5.21.02,7.67.34.01,2.97.02,5.64.02,8.31,0,0,0,0,0,0Z"/>
      <path class="cls-15" d="M118.28,143.82c-2.46.32-4.92.35-7.68.03-.32-8.51-.32-16.69-.33-24.86V8.65c2.64,0,5.01,0,7.68.03.31,44.96.32,89.9.33,135.14Z"/>
      <path class="cls-8" d="M152.2,135.49h-7.87v8.79c-2.96,0-5.54,0-8.44.04-.31.04-.31-.1-.31-.48-.01-5.88-.03-11.4-.04-16.91.02-2.45.04-4.89.09-7.64,5.33-.31,10.64-.32,16.27-.02.31,5.61.31,10.91.31,16.21Z"/>
      <path class="cls-15" d="M135.24,126.95c.32,5.51.33,11.02.35,16.83-2.68.33-5.37.36-8.36.36-.31-5.53-.31-11.02-.31-17.19,2.85,0,5.43,0,8.32,0Z"/>
      <path class="cls-10" d="M76.39,101.65h7.68c.15,2.84.29,5.42.47,8.69,2.62,0,5.21,0,8.11,0,.31,0,.32,0,.32.31,0,5.55,0,10.79,0,16.1,3.22.17,5.8.31,8.65.46v16.89s0,.12-.3.15c-8.53.01-16.75,0-24.96-.02.01,0,.02-.03.01-.34-.02-8.5-.04-16.69-.04-25.2.03-5.89.05-11.46.07-17.03Z"/>
      <path class="cls-2" d="M76.37,101.35c0,5.88-.02,11.45-.36,17.33-2.89.3-5.47.3-8.29.3v-25.97c2.66.01,5.32.02,8.29.04.32,2.67.33,5.33.36,8.3Z"/>
      <path class="cls-12" d="M101.93,144.14c-.31-5.54-.31-11.05-.31-16.93-2.85-.15-5.43-.29-8.65-.46,0-5.31,0-10.55,0-16.1,2.73-.31,5.46-.31,8.55-.31v8.64c2.94,0,5.53,0,8.43,0,.31,8.18.32,16.35.33,24.83-2.68.32-5.37.34-8.36.33Z"/>
      <path class="cls-14" d="M67.71,92.71c.01,8.74.01,17.18.01,26.27,2.81,0,5.39,0,8.28,0,.32,8.2.34,16.39.05,24.91-2.89.32-5.48.32-8.18.32-.15-3.15-.27-5.73-.41-8.7h-16.42v-8.57c0-19.52,0-39.05.32-58.87,2.75-.3,5.19-.3,7.64.02,0,5.79,0,11.26,0,17.01h8.64c.01,2.44.03,4.87.06,7.61Z"/>
      <path class="cls-4" d="M67.66,84.79c-2.66.31-5.31.31-8.65.31,0-5.74,0-11.22,0-17.32-.01-14.61-.02-28.59-.03-42.58.02-2.45.05-4.91.1-7.67,2.67-.31,5.32-.31,8.6-.31,0,22.63,0,44.94,0,67.56Z"/>
      <path class="cls-11" d="M50.73,126.95c.31,2.73.31,5.45.31,8.58h16.42c.14,2.97.26,5.55.41,8.7,2.7,0,5.29,0,8.19-.01.31-.01.31.01.29.33,0,2.99,0,5.66,0,8.64,0,2.68,0,5.06,0,7.78h-8.66v8.55s0,.01.01.02c-2.68,0-5.36,0-8.36-.02-.31-2.71-.31-5.41-.31-8.62-5.6,0-10.81,0-16.33-.01-.31-2.48-.31-4.96-.31-7.99-2.94,0-5.49,0-8.36,0-.31-2.66-.31-5.32-.31-8.6,0-8.85.01-17.07.02-25.29h8.55v7.96c2.94,0,5.54,0,8.45,0Z"/>
      <path class="cls-2" d="M33.8,25.63c2.68-.33,5.32-.36,8.27-.38.31,22.38.31,44.74.31,67.52-2.87.16-5.55.32-8.65.5,0,5.61,0,11.01-.31,16.72-2.98.31-5.66.3-8.33-.02,0-8.51,0-16.71-.01-25.22,0-8.76,0-17.22,0-25.67v-16.31c2.87-.16,5.55-.3,8.69-.47,0-5.59,0-10.98.03-16.67Z"/>
      <path class="cls-9" d="M58.68,25.22c.31,13.97.32,27.96.33,42.26-2.45.31-4.89.3-7.63.29-.3-14.03-.3-28.05-.3-42.54,2.72,0,5.01,0,7.61-.01Z"/>
      <path class="cls-7" d="M25.09,110.29c2.67.01,5.35.02,8.33.02.31,2.68.31,5.36.32,8.36,0,8.53,0,16.76-.02,25.3-2.68.3-5.34.29-8.32.27-.31-2.67-.32-5.34-.32-8.63,0-8.86.01-17.09.02-25.32Z"/>
      <path class="cls-10" d="M152.51,135.52c-.3-5.33-.3-10.63-.31-16.25,0-2.98,0-5.65.02-8.62,2.68-.31,5.35-.31,8.34-.32.32,5.35.33,10.7.37,16.37-.02,2.96-.06,5.6-.14,8.54-2.69.31-5.33.31-8.28.29Z"/>
      <path class="cls-2" d="M169.18,101.65c.3,2.69.3,5.39.3,8.7-2.82,0-5.38,0-8.25,0-.3-2.69-.3-5.39-.3-8.69,2.83,0,5.39,0,8.25-.02Z"/>
      <path class="cls-1" d="M76.36,152.86c0-2.67-.01-5.34-.02-8.32,8.22-.29,16.44-.28,24.98-.23.31,8.21.31,16.39.31,24.88-5.57.31-11.13.31-17,0-.31-5.56-.31-10.81-.31-16.32h-7.97Z"/>
      <path class="cls-1" d="M25.09,109.98c0,8.54,0,16.78-.02,25.33-2.46.3-4.91.3-7.67.28-.31-5.31-.31-10.62-.31-16.61-2.84,0-5.44,0-8.34,0-.31-8.43-.3-16.85-.3-25.58,2.7-.31,5.4-.31,8.64-.31,0-2.75,0-5.1.31-7.74,2.77-.29,5.22-.28,7.68-.27,0,8.2,0,16.4,0,24.91Z"/>
      <path class="cls-10" d="M25.08,84.76c-2.45.3-4.91.29-7.67.27-.31-8.43-.31-16.84-.31-25.56,2.45-.32,4.9-.34,7.66-.36.31,8.44.31,16.89.31,25.65Z"/>
      <path class="cls-7" d="M76.35,153.17c2.44-.31,4.86-.31,7.97-.31,0,5.51,0,10.76,0,16.32-5.34.32-10.68.32-16.33.32-.31-2.74-.31-5.47-.31-8.55h8.66c0-2.72,0-5.1,0-7.78Z"/>
    </g>
  </g>
</svg>