<?xml version="1.0" encoding="UTF-8"?>
<svg id="Layer_2" data-name="Layer 2" xmlns="http://www.w3.org/2000/svg" viewBox="0 0 177.67 177.7">
  <defs>
    <style>
      .cls-1 {
        fill: #90b9d4;
      }

      .cls-1, .cls-2, .cls-3, .cls-4, .cls-5, .cls-6, .cls-7, .cls-8, .cls-9, .cls-10, .cls-11, .cls-12, .cls-13, .cls-14 {
        stroke-width: 0px;
      }

      .cls-2 {
        fill: #87a8cc;
      }

      .cls-3 {
        fill: #8db4d0;
      }

      .cls-4 {
        fill: #456ca6;
      }

      .cls-5 {
        fill: #3d639f;
      }

      .cls-6 {
        fill: #add5e5;
      }

      .cls-7 {
        fill: #5679ad;
      }

      .cls-8 {
        fill: #7e9bc4;
      }

      .cls-9 {
        fill: #a2cce2;
      }

      .cls-10 {
        fill: #688bbb;
      }

      .cls-11 {
        fill: #6c91bd;
      }

      .cls-12 {
        fill: #6485b6;
      }

      .cls-13 {
        fill: #5277ae;
      }

      .cls-14 {
        fill: #2f5796;
      }
    </style>
  </defs>
  <g id="Layer_10" data-name="Layer 10">
    <g>
      <path class="cls-14" d="M177.62,101.42v17.25h-7.76v16.54h-8.57c-.14,3.05-.26,5.74-.4,8.8h-8.41v7.9h-8.58v8.51c-2.76.14-5.14.26-7.92.4-.12,2.72-.24,5.4-.38,8.46h-17.07v8.41h-59.13v-8.2h-17.49c0-2.98,0-5.57.29-8.49,5.74-.33,11.2-.33,17.03-.33,0-3.23,0-5.94.31-8.66,11.3,0,22.28,0,33.64,0,0-2.92,0-5.42.31-7.94,11.34-.02,22.37-.02,33.7-.02v-8.73c3.04,0,5.78,0,8.84.03,5.58.03,10.84.03,16.13.03v-8.55c-5.65,0-11.05,0-16.75-.03-5.79-.03-11.28-.03-17.06-.03v8.72c-8.59,0-16.86,0-25.45-.03-5.87-.01-11.43,0-17.31,0-8.54-.03-16.76-.03-25.3-.04-2.87,0-5.44,0-8.36,0,0-3.25,0-5.94,0-8.63,0,0-.01-.02.3-.02,5.87,0,11.42-.02,17.29-.02,11.28,0,22.24,0,33.67,0,0-2.96,0-5.46.31-7.96,2.99-.02,5.66-.03,8.65-.02,11.34.02,22.37.02,33.68.02,0-3.3,0-5.95.31-8.62,5.61-.05,10.92-.09,16.53-.09,2.88.03,5.45.03,8.46.03,0-3.16,0-5.85.3-8.56,2.96-.07,5.61-.12,8.57-.13,2.74.03,5.18.02,7.61.01Z"/>
      <path class="cls-10" d="M169.78,58.93h7.89c0,8.67,0,17.02-.34,25.67-8.39.3-16.45.3-24.96.3,0,2.91,0,5.42.02,7.94.02,0,.01-.03-.3,0-14.18.02-28.05.02-42.34.02,0,3.19,0,5.92-.31,8.64-8.53-.02-16.75-.03-24.96-.34,0-2.89,0-5.48,0-8.32-3.32,0-5.97,0-8.62-.31-.02-5.64-.02-10.98-.03-16.3,0,0,0,0,.31,0,5.74,0,11.18,0,17.01,0,0-3.22,0-5.92.31-8.63,8.44,0,16.57,0,25,0,0-3.29,0-5.93-.03-8.6-.03-.04-.04-.13.27-.1,17.23.04,34.14.04,51.06.04Z"/>
      <path class="cls-7" d="M143.84,25.02h8.52v8.51h8.72c0,2.91,0,5.51-.29,8.43-17.17.36-34.05.39-51.24.4-2.66-.03-5.01-.03-7.8-.03,0,3.17,0,5.86-.31,8.58-5.83.06-11.36.1-17.19.11-3,0-5.7.05-8.4.02,0-.07,0-.2,0-.5,0-2.8,0-5.3,0-7.89h-16.58c0,2.97,0,5.61-.31,8.26-5.9.02-11.48.01-17.05-.3,0-2.89,0-5.48,0-8.41h8.66v-17.17h17.11c.14-2.81.25-5.18.39-7.98,2.78,0,5.29,0,8.11,0,8.76,0,17.2,0,25.65.31,0,2.68,0,5.05,0,7.88h-17.08v16.83h8.24c.12-2.81.24-5.4.37-8.44h33.56c.14-3.04.26-5.63.4-8.63h16.51Z"/>
      <path class="cls-4" d="M75.87,17.06h-7.8c-.14,2.81-.25,5.17-.39,7.98h-17.11v17.17h-8.66c0,2.93,0,5.52-.31,8.43-2.74.34-5.18.35-7.93.35-8.75-.02-17.18-.02-25.61-.02v-8.57h8.4v-8.62h8.75v-8.62h8.5c.14-2.8.27-5.27.41-8.07h7.69v-8.5h17.2c.14-3.01.26-5.7.39-8.6h59.09c0,2.56,0,5.16-.29,8.08-14.16.32-28.03.32-42.32.32v8.66Z"/>
      <path class="cls-14" d="M.07,110.16c-.02-8.24-.04-16.48.27-25.02,2.75-.3,5.16-.31,7.89-.3,2.88.02,5.44.02,8.42.02,0-3.21,0-5.89.31-8.59,5.87-.05,11.44-.08,17.31-.09,5.55.03,10.78.03,16.4.03v-8.71c3.11,0,5.84,0,8.88.03,5.65.03,10.99.03,16.31.05-.03.02-.04.09-.02.39.02,2.95.02,5.6.02,8.25,0,0,.01,0-.3,0-2.69,0-5.06,0-7.47,0-.17,3.26-.31,5.85-.47,8.86h-25.79v7.79c-2.85,0-5.36,0-8.19,0-2.9,0-5.5,0-8.15,0-.17,3.22-.32,5.8-.48,8.81H8.16c-.16,3.03-.3,5.62-.46,8.49H.07Z"/>
      <path class="cls-4" d="M.04,110.46c2.45-.31,4.87-.31,7.67-.31.15-2.87.29-5.46.46-8.49h16.84c.16-3.01.3-5.59.48-8.81,2.65,0,5.24,0,8.14.32.31,8.66.31,17.01.31,25.7h7.98v7.87s.01.01-.3.01c-11.39,0-22.46-.01-33.54-.02v-7.86H0c0-2.93,0-5.52.04-8.41Z"/>
      <path class="cls-6" d="M84.56,51.05c5.52-.04,11.05-.08,17.19-.12,2.97,0,5.32,0,8.1,0v-8.55c16.88-.03,33.76-.06,50.95-.12,3.05-.03,5.79-.03,8.9-.03,0,2.89,0,5.49-.35,8.41-17.11.31-33.86.31-50.95.31v7.89s.01.1-.27.11c-8.48.03-16.68.04-25.2.04-2.88-.02-5.45-.02-8.37-.02v-7.92Z"/>
      <path class="cls-11" d="M143.81,24.71c-5.38.31-10.78.31-16.49.31-.14,3-.26,5.59-.4,8.63h-33.56c-.13,3.04-.25,5.63-.37,8.44h-8.24v-16.83h17.08c0-2.83,0-5.2.31-7.88,11.45-.32,22.59-.34,33.73-.35h7.93c0,2.65,0,5.02.02,7.7Z"/>
      <path class="cls-12" d="M7.91,84.82c-2.41,0-4.83.01-7.54,0-.3-8.45-.3-16.89-.3-25.88,2.47,0,4.84,0,7.82-.01,9.08-.01,17.54-.01,26,.3.02,5.84.04,11.38.06,16.91-5.56.03-11.13.07-17.31.1-3.19,0-5.75,0-8.73,0v8.58Z"/>
      <path class="cls-5" d="M8.03,127.05c11.11-.3,22.19-.3,33.58-.28.31,2.7.31,5.39.31,8.63,2.92,0,5.48,0,8.34.31.28,2.98.26,5.65-.06,8.31-8.52,0-16.73.02-24.94.03h-8.58v-8.54H7.99c0-2.96,0-5.56.04-8.47Z"/>
      <path class="cls-12" d="M135.83,16.71c-11.1.32-22.24.33-33.69.35-8.76,0-17.2,0-25.96,0-.31-2.72-.31-5.45-.31-8.66,14.3,0,28.17,0,42.35-.02,5.9-.02,11.48-.02,17.57-.02,0,2.87,0,5.45.04,8.34Z"/>
      <path class="cls-12" d="M25.27,144.36c8.2-.32,16.41-.33,25.24-.33,3.32,0,6.01,0,8.7.32,0,2.76,0,5.22,0,7.68v8.66c-5.84,0-11.29,0-17.06.02-2.82.02-5.32.02-8.1.02v-8.56h-8.78c0-2.77,0-5.14-.01-7.81Z"/>
      <path class="cls-1" d="M118.72,58.88c-.32-2.45-.32-4.87-.32-7.93,17.09,0,33.84,0,50.9,0,.34,2.45.38,4.91.45,7.67-16.89.3-33.8.3-51.03.26Z"/>
      <path class="cls-7" d="M33.89,58.93c-8.46,0-16.92,0-25.69-.01-.29-2.45-.25-4.89-.18-7.64,8.47-.3,16.9-.3,25.63.02.28,2.75.26,5.19.24,7.63Z"/>
      <path class="cls-6" d="M152.37,92.83v-7.93c8.51,0,16.57,0,24.93.01.33,2.44.36,4.88.05,7.61-2.77.32-5.19.34-7.92.34-5.89-.02-11.47-.03-17.05-.04Z"/>
      <path class="cls-2" d="M169.73,92.88c2.42-.02,4.84-.03,7.56-.06.33,2.66.36,5.33.35,8.3-2.47.31-4.9.32-7.64-.01-.29-2.97-.28-5.6-.28-8.23Z"/>
      <path class="cls-13" d="M42.22,126.75c-.31-2.51-.31-5.02-.31-7.88h-7.98c0-8.69,0-17.04,0-25.69,2.52-.31,5.03-.31,7.88-.31v-7.79h25.79c.16-3.02.3-5.6.47-8.86,2.41,0,4.78,0,7.46,0,.31,5.33.32,10.66.02,16.31-5.57.32-10.83.32-16.33.32,0,3.32,0,5.96-.31,8.62-2.9.02-5.49.02-8.05.02v8.6c11.42,0,22.54,0,33.97.02,5.86.05,11.4.07,16.96.4.02,2.95.03,5.6.04,8.24-2.68.01-5.36.02-8.66.03-11.65,0-22.68,0-33.98,0v7.94c-5.56,0-11.11.02-16.98.02Z"/>
      <path class="cls-2" d="M101.79,110.2c-5.55-.03-11.09-.06-16.96-.4-.32-2.98-.32-5.65-.33-8.31-.01,0-.02-.03-.02-.03,8.22.01,16.44.02,25.28.05,14.62-.03,28.61-.06,42.62-.06.02.04.06.13.04.43-.04,2.92-.06,5.55-.08,8.17-5.3.03-10.61.06-16.54.1-11.76.02-22.89.04-34.03.06Z"/>
      <path class="cls-9" d="M93.2,135.49h25.14v-8.72c5.78,0,11.27,0,17.08.33.32,2.96.3,5.59.28,8.23h-8.52v8.73c-11.33,0-22.36,0-33.71-.29-.3-2.95-.29-5.61-.28-8.27Z"/>
      <path class="cls-2" d="M92.89,135.45c.3,2.69.29,5.35.28,8.32,0,2.81,0,5.32,0,8.24-11.37,0-22.35,0-33.64,0-.31-2.45-.31-4.91,0-7.68,5.56-.31,10.81-.31,16.36-.31v-8.56c5.56-.02,11.12-.04,17-.02Z"/>
      <path class="cls-12" d="M101.8,110.5c11.13-.32,22.26-.34,33.71-.34.32,2.67.32,5.32.32,8.62-11.31,0-22.34,0-33.68-.02-.32-2.66-.33-5.31-.35-8.26Z"/>
      <path class="cls-4" d="M59.51,126.73c-.31-2.44-.31-4.86-.31-7.95,11.3,0,22.33,0,33.67,0,.31,2.5.31,4.99.31,7.96-11.43,0-22.39,0-33.67,0Z"/>
      <path class="cls-11" d="M75.58,135.45c.31,2.67.31,5.31.31,8.59-5.55,0-10.8,0-16.36,0-3.01,0-5.7,0-8.71,0-.3-2.67-.29-5.34-.25-8.31,8.24-.3,16.47-.3,25.01-.27Z"/>
      <path class="cls-1" d="M169.42,92.87c.31,2.64.3,5.28.28,8.21-2.66.34-5.31.39-8.58.44-3.3.02-5.99.04-8.67.06,0,0-.04-.09-.04-.43,0-3.01,0-5.67,0-8.33,0,0,0,.03-.01.03,5.56,0,11.14.01,17.03.03Z"/>
      <path class="cls-11" d="M136.02,135.35c-.3-2.66-.28-5.29-.29-8.22,5.37-.3,10.77-.3,16.42-.3v8.55c-5.29,0-10.55,0-16.13-.03Z"/>
      <path class="cls-12" d="M152.43,101.87c2.7-.32,5.39-.33,8.39-.33.31,2.71.31,5.4.31,8.56-3.01,0-5.58,0-8.46-.03-.29-2.65-.27-5.28-.23-8.2Z"/>
      <path class="cls-6" d="M152.09,92.83c.31,2.64.31,5.31.29,8.27-14.01.34-28,.38-42.31.41-.32-2.74-.32-5.46-.32-8.65,14.28,0,28.15,0,42.34-.02Z"/>
      <path class="cls-4" d="M59.23,101.45v-8.61c5.5,0,10.76,0,16.34,0,2.96,0,5.61,0,8.93,0,0,2.84,0,5.42,0,8.32,0,.31,0,.33-.3.34-8.52,0-16.74-.02-24.96-.04Z"/>
      <path class="cls-7" d="M93.25,59.01c8.2-.01,16.4-.03,24.92-.02.31,2.66.31,5.3.31,8.59-8.42,0-16.55,0-25,0-.31,0-.31,0-.3-.3.02-2.96.05-5.62.07-8.28Z"/>
      <path class="cls-7" d="M76.16,76.22c-.32-2.65-.32-5.3-.02-8.27,5.88-.33,11.46-.34,17.04-.35,0,0,0,0,0,0,0,2.71,0,5.41,0,8.63-5.84,0-11.27,0-17.01,0Z"/>
      <path class="cls-8" d="M33.9,59.24c.01-2.75.03-5.19.06-7.93,2.45-.31,4.89-.33,7.63-.36,5.89-.02,11.47-.01,17.67,0,5.94-.03,11.26-.07,16.59-.1,0,0,0,.13,0,.49,0,2.77,0,5.19-.32,7.6-5.56,0-10.8,0-16.31,0v8.55h-8.57v8.71c-5.61,0-10.85,0-16.4-.03-.32-5.56-.34-11.09-.37-16.93Z"/>
      <path class="cls-3" d="M75.85,58.93c0-2.41,0-4.83.01-7.53,2.69-.33,5.38-.37,8.39-.38.31,2.49.31,4.96.31,7.95,2.92,0,5.49,0,8.37.02.29,2.68.27,5.33.25,8.3-5.58.32-11.16.33-17.06.36-.32.02-.3-.05-.28-.37.02-3,.01-5.67,0-8.34Z"/>
      <path class="cls-14" d="M75.85,50.54c-5.32.33-10.65.37-16.27.38-.31-2.66-.31-5.29-.31-8.27h16.58c0,2.59,0,5.09,0,7.89Z"/>
      <path class="cls-2" d="M109.55,42.36c.31,2.71.31,5.4.31,8.57-2.78,0-5.13,0-7.8-.02-.31-2.71-.31-5.4-.31-8.57,2.79,0,5.14,0,7.8.03Z"/>
      <path class="cls-2" d="M75.54,58.93c.32,2.67.32,5.34.33,8.32-5.34.31-10.68.31-16.33.28-.31-2.67-.31-5.3-.31-8.59,5.5,0,10.75,0,16.31,0Z"/>
      <path class="cls-4" d="M8.23,84.84c-.31-2.7-.31-5.39-.31-8.6,2.98,0,5.55,0,8.42.02.31,2.7.31,5.39.31,8.6-2.98,0-5.54,0-8.42-.02Z"/>
      <path class="cls-8" d="M58.92,101.46c8.53,0,16.75.02,25.28.03.31,2.66.32,5.32.32,8.28-11.11.3-22.23.3-33.65.3v-8.6c2.56,0,5.15,0,8.05-.02Z"/>
    </g>
  </g>
</svg>