<?xml version="1.0" encoding="UTF-8"?>
<svg id="Layer_2" data-name="Layer 2" xmlns="http://www.w3.org/2000/svg" viewBox="0 0 262.64 253.71">
  <defs>
    <style>
      .cls-1 {
        fill: #a692b9;
      }

      .cls-1, .cls-2, .cls-3, .cls-4, .cls-5, .cls-6, .cls-7, .cls-8 {
        stroke-width: 0px;
      }

      .cls-2 {
        fill: #c7aac5;
      }

      .cls-3 {
        fill: #ae93b7;
      }

      .cls-4 {
        fill: #b39bbe;
      }

      .cls-5 {
        fill: #bba0bf;
      }

      .cls-6 {
        fill: #9986b1;
      }

      .cls-7 {
        fill: #a18cb5;
      }

      .cls-8 {
        fill: #ceb8cd;
      }
    </style>
  </defs>
  <g id="Layer_11" data-name="Layer 11">
    <g>
      <path class="cls-6" d="M253.9,168.83v8.52h-8.4v17.28h-8.66v16.61h-7.99v8.64h-8.65v8.64h-8.65v7.98h-16.64v8.64h-17.31v8.56h-93.18v-8.3h-17.31v-8.65h-16.64v-7.98h-8.66v-8.64h-8.79c0-2.88,0-5.49,0-8.71,0-8.76,0-16.89,0-25.08-3-.2-5.37-.35-8.19-.54v-17.09h-8.46v-24.96c-3.06-.14-5.65-.27-8.68-.41v-33.77s.03.04.32.05c2.87.01,5.45.01,8.18.01.15,3.14.28,5.71.42,8.64,3.02,0,5.73,0,8.75,0,2.75,0,5.21,0,7.97,0,5.75,0,11.18,0,17,0,0-3.23,0-5.94,0-8.64,0,0,0,0,.31,0,2.91,0,5.5,0,8.45,0v17.09c2.71.14,5.08.25,7.92.4v16.47h17.07c.15,3.05.28,5.64.42,8.31h16.22c.16-2.86.3-5.45.44-8.15,2.94-.16,5.53-.3,8.57-.46v-41.96h8.69v16.75c3.07.17,5.65.32,8.22.46v33.46c-2.81.13-5.4.24-8.16.36v33.54c2.83.13,5.42.26,8.2.39.15,2.9.28,5.49.42,8.23,2.69.16,5.06.29,7.55.44.17,2.7.31,5.07.48,7.89h16.83c.17,3.06.31,5.65.45,8.17h33.51c.16-2.91.31-5.5.47-8.42h16.17c.14-2.71.25-5.08.38-7.69,2.87-.13,5.46-.25,8.28-.37.14-2.89.26-5.48.39-8.26,2.9-.15,5.5-.28,8.24-.42.16-2.91.29-5.5.44-8.22,2.93-.16,5.52-.3,8.22-.44.16-2.94.3-5.53.46-8.41h24.93ZM75.61,194.76s0,0,0,.62v7.02h17.16c.12-2.62.22-4.9.33-7.45,2.63-.13,5-.25,7.57-.37v-25.73c-2.74,0-5.26,0-8.38-.02h-7.81c-.18-3.03-.33-5.39-.48-7.92-3.05,0-5.7,0-8.97-.02h-8.07c0,3,0,5.47-.62,7.94h-7.02v8.66c2.77,0,5.2,0,7.63.61,0,2.67.01,5.34.01,8.63v8.03c3.26,0,5.95,0,8.65,0Z"/>
      <path class="cls-2" d="M236.73,59.08h8.63c0,5.51,0,10.75,0,16.62,0,8.76,0,16.9,0,25.11-3.24.18-5.83.33-8.76.49v33.63c-2.87,0-5.38,0-7.9-.31v-24.61h-8.46c-.16,2.91-.31,5.5-.47,8.41h-8.14v16.51c5.84,0,11.45,0,17.07.31v8.44h-17.3c0,3.08,0,5.81,0,8.54,0,0,0,0-.31,0-2.99,0-5.66,0-8.34-.31,0-8.44,0-16.56,0-24.63h-16.43c-.17,2.69-.33,5.05-.51,7.86h-17.11v8.24c-2.71.13-5.08.25-7.88.39,0,8.54,0,16.8-.31,25.06-2.9,0-5.5,0-8.52,0v-67.61c-3.02-.16-5.61-.3-8.65-.47v-16.15c-3.06-.17-5.65-.31-8.28-.46-.17-2.99-.31-5.57-.47-8.49h-7.73c0-3.08,0-5.81.31-8.54,5.57,0,10.83,0,16.12,0,.18,3.25.33,5.83.49,8.75h8.19c.13,2.93.24,5.52.37,8.35,2.89.13,5.47.25,8.52.39v24.79h16.33v-24.8c-2.84-.14-5.43-.27-8.47-.43v-16.83c-2.83-.17-5.2-.31-7.69-.45-.17-2.71-.31-5.07-.46-7.55-2.94-.16-5.53-.3-8.21-.44-.16-2.96-.3-5.54-.47-8.57h-24.82c-.17-3.05-.31-5.64-.48-8.67h-16.88c-.12-2.75-.22-5.04-.34-7.78-3,0-5.73,0-8.47-.31v-16.97s0,0,.31,0c5.74,0,11.17,0,16.99,0,0-3.24,0-5.94,0-8.95.01-2.72.02-5.13.02-7.55h42.59c0,2.43,0,4.82-.29,7.52-5.78.32-11.26.32-16.8.32-.18,3.24-.33,5.83-.47,8.45-3,.17-5.59.31-8.16.46v17.03h33.51c.14,2.82.26,5.19.39,7.79,2.88.13,5.48.25,8.27.38.14,2.89.27,5.48.4,8.16h8.24c.15-2.86.29-5.45.44-8.16,2.93-.16,5.52-.3,8.1-.44v-7.55c-2.9-.16-5.49-.3-8.13-.45-.17-2.98-.31-5.57-.48-8.49h-8.39v-8.57h-16.6V7.9h25.19v8.68h16.63v8.52h8.65v8.76h8.65v7.86h8.75c0,2.93,0,5.54-.29,8.47-8.66.31-17.02.31-25.47.31-.18,3.23-.32,5.82-.47,8.44-2.77.18-5.14.33-7.38.48v41.38h33.41c.13-2.58.25-4.95.38-7.55,2.66-.14,5.03-.26,7.83-.4v-33.76Z"/>
      <path class="cls-1" d="M253.94,168.52c-8.23.31-16.42.31-24.97.31-.16,2.89-.3,5.47-.46,8.41-2.7.15-5.29.28-8.22.44-.15,2.72-.28,5.31-.44,8.22-2.74.14-5.34.27-8.24.42-.13,2.77-.26,5.36-.39,8.26-2.81.13-5.4.24-8.28.37-.13,2.62-.25,4.98-.38,7.69h-16.17c-.16,2.92-.31,5.51-.47,8.42h-33.51c-.14-2.53-.28-5.11-.45-8.17h-16.83c-.17-2.82-.32-5.19-.48-7.89-2.49-.14-4.86-.28-7.55-.44-.14-2.74-.27-5.33-.42-8.23-2.78-.13-5.37-.25-8.2-.39v-33.54c2.76-.12,5.35-.24,8.16-.36v-33.46c-2.57-.14-5.16-.29-8.22-.46v-16.75h-8.69v41.96c-3.04.16-5.63.3-8.57.46-.15,2.7-.29,5.29-.44,8.15h-16.22c-.13-2.66-.26-5.25-.42-8.31h-17.07v-16.47c-2.83-.14-5.2-.26-7.92-.4v-17.09c-2.95,0-5.54,0-8.45-.31-.31-5.56-.31-10.81-.31-16.09,3.25-.18,5.84-.32,8.87-.49v-16.8c2.83-.18,5.2-.34,7.43-.48v-25.09h-7.65c0-3.08,0-5.81,0-8.84,0-2.76,0-5.22,0-7.99,0-3-.02-5.69-.03-8.38,0,0,.03.04.32.04,5.53,0,10.76,0,16.31,0V7.94c8.43,0,16.54,0,25.01.02.35.02.44.1.4.4-.05,2.94-.06,5.59-.07,8.23,0,0,0,0-.31,0-2.68,0-5.06,0-7.78,0v8.65h-8.36c-.14,3.05-.26,5.64-.38,8.44-2.9.14-5.49.26-8.19.39v24.86c2.86.15,5.45.29,8.5.45v16.51h24.97c.17,3.06.31,5.65.48,8.69h17.13v16.24c2.71.13,5.09.25,7.91.39v76.06c3.05.14,5.64.25,8.45.38.14,2.89.26,5.49.39,8.26,2.91.15,5.5.28,8.24.42.16,2.91.29,5.5.43,8.12h42.18c.15-2.88.29-5.47.44-8.13,2.74-.17,5.11-.32,7.93-.5v-16.79c3.07-.17,5.66-.32,8.47-.47v-16.35s0,0,.31,0c14.32.01,28.33.02,42.34.04-.02,5.32-.05,10.64-.11,16.26ZM100.89,126.31v-16.43c-3.02-.18-5.39-.33-7.79-.47-.16-2.99-.3-5.57-.44-8.35-3.07,0-5.71,0-8.99-.02h-7.72v33.66h24.92c0-2.74,0-5.26.02-8.39Z"/>
      <path class="cls-8" d="M236.71,58.77c.02,11.46.02,22.61.02,34.07-2.8.14-5.17.27-7.83.4-.13,2.6-.25,4.97-.38,7.55h-33.41v-41.38c2.24-.15,4.61-.3,7.38-.48.15-2.62.29-5.21.47-8.44,8.44,0,16.81,0,25.49,0,2.82,0,5.32,0,8.23,0,0,2.82,0,5.41.02,8.3Z"/>
      <path class="cls-5" d="M254.04,152.25c-13.99,0-28-.02-42.32-.03-.31-2.73-.31-5.46-.31-8.54h17.3v-8.74h7.9v-33.63c2.93-.16,5.52-.31,8.76-.49,0-8.21,0-16.35,0-24.8,2.76-.32,5.51-.32,8.5-.32v33.81h8.77c0,11.39,0,22.42-.35,33.76-2.86.31-5.36.31-8.25.31v8.7s-.01-.02,0-.02Z"/>
      <path class="cls-3" d="M58.97,33.88c0,2.46,0,4.91-.31,7.67-2.87.3-5.43.3-8.34.3,0,3.26,0,5.95-.31,8.64h-8.56v16.73h-8.46c0,11.5,0,22.65-.31,33.79-2.68,0-5.05,0-7.65,0v17.27h-8.45c-.14-2.92-.27-5.49-.42-8.64-2.73,0-5.31,0-8.2,0-.31-11.15-.31-22.3-.31-33.82h8.61v-16.54h8.69v-8.69h7.92v-8.69h8.7v-8.04c2.85,0,5.45,0,8.68,0,3.32,0,6.02,0,8.72.01Z"/>
      <path class="cls-7" d="M7.37,109.62c.3,11.12.3,22.28.3,33.74,3.03.14,5.62.27,8.68.41v24.96h8.46v17.09c2.82.19,5.19.34,8.19.54,0,8.19,0,16.32,0,24.77-2.53.32-5.05.32-7.84.32v-16.53h-8.72v-17.36H7.83v-25.21H0v-42.71c2.29,0,4.68,0,7.37-.03Z"/>
      <path class="cls-6" d="M75.27,16.54c.31,2.69.31,5.41.31,8.68-5.56,0-10.79,0-16.34,0-.32-2.74-.32-5.47-.32-8.64,5.55,0,10.79,0,16.34-.03Z"/>
      <path class="cls-1" d="M117.93.05c.3,2.46.3,4.88-.02,7.6-5.84.34-11.36.38-16.89.42,0,0-.09-.09-.13-.13-.04-2.55-.04-5.06-.04-7.94,5.81,0,11.29,0,17.08.05Z"/>
      <path class="cls-1" d="M254.35,152.25c-.31-2.71-.31-5.44-.31-8.68,2.89,0,5.4,0,8.21,0,.3,2.73.3,5.47.3,8.66-2.69,0-5.3,0-8.2.02Z"/>
      <path class="cls-6" d="M58.97,33.57c-2.7.3-5.4.3-8.42.28-.31-2.73-.31-5.45-.31-8.62,2.91,0,5.5,0,8.4-.02.32,2.67.33,5.36.34,8.36Z"/>
      <path class="cls-5" d="M50.31,50.5v-8.64c2.91,0,5.47,0,8.34,0,.31,2.73.31,5.46.31,8.54h7.65v25.09c-2.24.14-4.6.3-7.43.48v16.8c-3.03.17-5.62.31-8.87.49,0,5.28,0,10.53,0,16.09,0,.31,0,.31-.31.31-5.79,0-11.27,0-17.01,0v8.63c-2.45,0-4.9,0-7.66,0-.3-5.53-.3-11.06-.3-17.28,2.59,0,4.97,0,7.96,0,3.22,0,5.81,0,8.88,0v-16.73h8.44v-33.8Z"/>
      <path class="cls-4" d="M66.95,168.83v-7.94c2.94,0,5.51,0,8.37.32.3,5.48.3,10.65.3,16.26,6.05,0,11.66,0,17.28.31,0,2.9,0,5.49,0,8.13-3.25.18-5.84.32-8.76.49v8.37h-8.55s0,0,0-.31c0-2.86,0-5.42,0-8.34h-8.65c0-2.67-.01-5.34-.01-8.62,0-3.3,0-5.98,0-8.66Z"/>
      <path class="cls-1" d="M75.61,195.07c2.73-.31,5.46-.31,8.55-.31v-8.37c2.92-.16,5.51-.31,8.76-.49,0-2.63,0-5.23,0-8.43,0-3.29-.01-5.95-.02-8.62h7.77v25.73c-2.57.13-4.93.24-7.57.37-.11,2.55-.21,4.83-.33,7.45h-17.16c0-2.28,0-4.65,0-7.33Z"/>
      <path class="cls-2" d="M92.59,168.84c.31,2.68.32,5.35.32,8.32-5.62.31-11.23.31-17.28.31,0-5.61,0-10.78,0-16.25,2.66-.31,5.3-.31,8.35-.31.15,2.53.3,4.89.48,7.92,2.62,0,5.21,0,8.12,0Z"/>
      <path class="cls-1" d="M33.31,118.3c-.31-2.65-.31-5.3-.31-8.64,5.73,0,11.21,0,17.01,0,.31,2.71.31,5.41.31,8.64-5.82,0-11.26,0-17,0Z"/>
      <path class="cls-1" d="M66.96,186.43c2.7-.31,5.39-.31,8.65-.31,0,2.92,0,5.48,0,8.34-2.7.31-5.39.31-8.65.31,0-2.92,0-5.47,0-8.34Z"/>
      <path class="cls-1" d="M66.65,168.83c.31,2.68.31,5.36.3,8.35-2.43.31-4.86.31-7.63.31v-8.66c2.28,0,4.65,0,7.33,0Z"/>
      <path class="cls-5" d="M211.1,152.22c.31,5.31.31,10.62.31,16.35-2.81.16-5.4.3-8.47.47v16.79c-2.82.18-5.19.33-7.93.5-.14,2.66-.28,5.25-.44,8.13h-42.18c-.14-2.62-.28-5.21-.43-8.12-2.74-.14-5.33-.27-8.24-.42-.13-2.77-.25-5.36-.39-8.26-2.81-.13-5.4-.24-8.45-.38v-76.06c-2.82-.14-5.2-.26-7.91-.39v-16.24h-17.13c-.17-3.04-.31-5.63-.48-8.69h-24.97v-16.51c-3.05-.16-5.64-.3-8.5-.45v-24.86c2.69-.13,5.29-.25,8.19-.39.13-2.8.24-5.39.38-8.44h8.36v-8.65c2.73,0,5.1,0,7.78,0,.31,5.55.31,11.11.31,16.97,0,.31,0,.31-.31.31-2.68,0-5.05,0-7.34,0v25.36h7.45c.13,2.71.25,5.08.39,7.87,5.89,0,11.5,0,17.43,0,2.98,0,5.65.01,8.33.02v8.54h7.73c.16,2.92.31,5.5.47,8.49,2.64.15,5.22.29,8.28.46v16.15c3.04.16,5.62.3,8.65.47v67.61c3.03,0,5.62,0,8.84,0,8.76,0,16.89,0,25.06,0,.19-3.02.35-5.39.52-8.08h16.36v-8.53c2.68,0,5.35,0,8.34,0Z"/>
      <path class="cls-8" d="M127.17,67.13c-2.99,0-5.66,0-8.64-.32-.31-2.68-.31-5.04-.31-7.45-3.26-.18-5.85-.32-8.76-.49v-8.38h-8.55v-16.61s0,0,0,0c2.73,0,5.47,0,8.47,0,.12,2.74.22,5.02.34,7.78h16.88c.17,3.03.31,5.62.48,8.67h24.82c.17,3.03.31,5.61.47,8.57,2.68.14,5.27.28,8.21.44.15,2.47.3,4.84.46,7.55,2.48.15,4.85.29,7.69.45v16.83c3.04.15,5.63.28,8.47.43v24.8h-16.33v-24.79c-3.04-.14-5.63-.26-8.52-.39-.12-2.83-.24-5.42-.37-8.35h-8.19c-.16-2.92-.31-5.5-.49-8.75-5.29,0-10.55,0-16.12,0Z"/>
      <path class="cls-8" d="M202.76,151.91c0,3.04,0,5.77,0,8.84h-16.36c-.17,2.69-.32,5.05-.52,8.08-8.16,0-16.3,0-24.75,0-.31-8.26-.31-16.52-.31-25.06,2.8-.14,5.16-.26,7.88-.39v-8.24h17.11c.18-2.81.34-5.17.51-7.86h16.43c0,8.07,0,16.19,0,24.63Z"/>
      <path class="cls-8" d="M160.84,7.92c.02,2.71.02,5.44.02,8.65h16.6v8.57h8.39c.16,2.92.31,5.51.48,8.49,2.64.15,5.23.29,8.13.45v7.55c-2.58.14-5.17.28-8.1.44-.15,2.71-.29,5.3-.44,8.16h-8.24c-.13-2.68-.26-5.27-.4-8.16-2.8-.13-5.39-.25-8.27-.38-.13-2.6-.25-4.97-.39-7.79h-33.51v-17.03c2.58-.14,5.16-.29,8.16-.46.15-2.63.29-5.21.47-8.45,5.54,0,11.03,0,16.83-.01.32-.01.26.02.28,0Z"/>
      <path class="cls-8" d="M228.71,134.93c-5.61,0-11.22,0-17.07,0v-16.51h8.14c.16-2.92.31-5.5.47-8.41h8.46v24.61c0,.31,0,.31,0,.31Z"/>
      <path class="cls-5" d="M100.98,8.36c5.56-.33,11.08-.37,16.92-.41.31,2.7.31,5.41.31,8.64-5.82,0-11.25,0-16.99,0-.3-2.65-.29-5.29-.24-8.23Z"/>
      <path class="cls-5" d="M100.88,126.93v7.77h-24.92v-33.66c2.52,0,5.12,0,8.02.32.3,5.78.3,11.25.3,16.75,3.23.18,5.82.32,8.73.48v8.34h7.87Z"/>
      <path class="cls-8" d="M100.89,126.62c-2.52.31-5.02.31-7.88.31v-8.34c-2.92-.16-5.5-.3-8.73-.48,0-5.5,0-10.97,0-16.74,2.66-.31,5.31-.31,8.37-.31.15,2.78.28,5.36.44,8.35,2.4.15,4.77.29,7.79.47,0,5.49,0,10.96,0,16.74Z"/>
      <path class="cls-2" d="M50,50.5c.31,11.14.31,22.29.31,33.8h-8.44v16.73c-3.07,0-5.66,0-8.57,0-.31-11.15-.31-22.29-.31-33.79h8.46v-16.73h8.56Z"/>
      <path class="cls-2" d="M100.6,33.88c.31,5.38.31,10.76.31,16.61h8.55v8.38c2.92.16,5.5.3,8.76.49,0,2.41,0,4.77,0,7.45-5.61.31-11.23.31-17.12.31-.14-2.79-.26-5.16-.39-7.87h-7.45v-25.36c2.29,0,4.66,0,7.34,0Z"/>
    </g>
  </g>
</svg>