<?xml version="1.0" encoding="UTF-8"?>
<svg id="Layer_2" data-name="Layer 2" xmlns="http://www.w3.org/2000/svg" viewBox="0 0 262.88 253.73">
  <defs>
    <style>
      .cls-1 {
        fill: #e5768c;
      }

      .cls-1, .cls-2, .cls-3, .cls-4, .cls-5, .cls-6, .cls-7, .cls-8, .cls-9, .cls-10, .cls-11, .cls-12, .cls-13, .cls-14, .cls-15, .cls-16, .cls-17, .cls-18 {
        stroke-width: 0px;
      }

      .cls-2 {
        fill: #dd506f;
      }

      .cls-3 {
        fill: #d85472;
      }

      .cls-4 {
        fill: #d25170;
      }

      .cls-5 {
        fill: #db4a6c;
      }

      .cls-6 {
        fill: #c63155;
      }

      .cls-7 {
        fill: #ea95a7;
      }

      .cls-8 {
        fill: #e9869b;
      }

      .cls-9 {
        fill: #c93157;
      }

      .cls-10 {
        fill: #da476a;
      }

      .cls-11 {
        fill: #df6680;
      }

      .cls-12 {
        fill: #dd617c;
      }

      .cls-13 {
        fill: #d53c61;
      }

      .cls-14 {
        fill: #ce4064;
      }

      .cls-15 {
        fill: #ec9cae;
      }

      .cls-16 {
        fill: #e78197;
      }

      .cls-17 {
        fill: #df5574;
      }

      .cls-18 {
        fill: #da5977;
      }
    </style>
  </defs>
  <g id="Layer_9" data-name="Layer 9">
    <g>
      <path class="cls-18" d="M169.7,8.72h16.67c0,2.66,0,5.25,0,8.47,0,8.75,0,16.87,0,25.1-2.96.18-5.33.33-7.69.47v8.2c2.67.17,5.03.32,7.46.47.17,2.73.33,5.09.49,7.7,3.01,0,5.65,0,8.33.31.02,2.98.02,5.66-.3,8.34-2.82,0-5.33,0-8.31,0v17.08c-2.83.14-5.2.26-7.8.39-.13,2.65-.25,5.02-.39,7.6-2.89.14-5.48.26-8.26.4-.15,2.9-.28,5.48-.43,8.44-25.65,0-50.99,0-76.32-.31,0-2.9,0-5.5,0-8.17-2.97-.13-5.25-.24-8.01-.36,0-5.66,0-11.05,0-16.75,0-5.84-.01-11.37.29-16.92,13.95-.03,27.59-.03,41.68-.03,0-2.98,0-5.48.31-7.99,5.71-.01,11.11-.01,16.72-.01.17-3.1.32-5.77.47-8.47,2.79-.15,5.17-.28,7.78-.42,0-3.05,0-5.7.31-8.36,2.91-.01,5.5-.01,8.13-.01.16-3.24.29-5.84.42-8.47,3-.15,5.6-.28,8.42-.42V8.72Z"/>
      <path class="cls-9" d="M246.31,178.18v16.51h-8.64v17.32h-8.57v7.9h-8.69v8.57c-2.77.12-5.25.24-8.03.36v8.31h-17.22v8.68h-16.59c-.12,2.76-.23,5.24-.35,7.9h-93.05c0-2.36,0-4.75.28-7.44,2.66-.31,5.04-.31,7.5-.31.18-3.22.32-5.8.49-8.83h16.83c.17-3.05.32-5.64.48-8.65h41.68c0-3.1,0-5.74.31-8.4,5.85-.04,11.39-.06,17.25-.07,5.58,0,10.84,0,16.39,0,0-3.06,0-5.49.31-7.93,2.88-.02,5.46-.02,8.42-.02v-8.71c3.1,0,5.81,0,8.84.02,2.88.02,5.45.02,8.38.02v-8.62s0,0,.31,0c5.57,0,10.83,0,16.38,0,0-3.08,0-5.51.3-7.95,2.89-.02,5.48-.02,8.36-.02,0-3.35,0-5.99.3-8.64,2.98,0,5.65,0,8.33.02Z"/>
      <path class="cls-3" d="M229.02,51.11h8.47v7.88h8.75c0,2.98,0,5.58-.35,8.49-2.85.31-5.36.31-8.08.31-.15,3.09-.28,5.68-.41,8.44-2.91.15-5.5.29-8.55.45v16.17c-3.06.17-5.66.31-8.7.47v42.06c-2.84.18-5.21.34-8.03.52v17.09h-8.46c0,2.86,0,5.38,0,8.2,0,2.9,0,5.49,0,8.32-8.89,0-17.09,0-25.29-.31,0-2.87,0-5.44,0-8.38-3.31,0-6.02,0-8.7-.3.02-2.65.02-5,.02-7.74h8.72c0-3.1,0-5.81.31-8.53,2.6-.01,4.9-.01,7.4-.01.17-3.1.31-5.78.46-8.48,3.01-.15,5.61-.27,8.24-.4.15-3,.27-5.6.4-8.24,3-.15,5.6-.27,8.48-.41,0-8.57,0-16.75.31-24.96,2.9-.02,5.49-.02,8.47-.02v-33.75c2.77-.14,5.14-.25,7.92-.39v-8.5h8.63v-7.96Z"/>
      <path class="cls-12" d="M203.66,160.87v-7.89h8.46v-17.09c2.82-.18,5.19-.33,8.03-.52v-42.06c3.04-.16,5.63-.3,8.7-.47v-16.17c3.05-.16,5.64-.29,8.55-.45.13-2.76.26-5.35.41-8.44,2.72,0,5.23,0,8.04,0,.3,2.73.3,5.46.3,8.56h8.08c0,5.61,0,10.85-.34,16.4-2.63.31-4.92.31-7.65.31v8.45c-3.04.13-5.63.25-8.64.38v42.35h-8.66c0,5.84,0,11.23-.31,16.61-2.98,0-5.66,0-8.64,0-5.65,0-10.98,0-16.32.01Z"/>
      <path class="cls-14" d="M152.43,220.1v8.38h-41.68c-.17,3.01-.31,5.6-.48,8.65h-16.83c-.17,3.03-.31,5.61-.49,8.83-2.46,0-4.84,0-7.53.01-5.89.01-11.48.01-17.55.01,0-2.83,0-5.42,0-8.62,0-3.22,0-5.82,0-8.48,3.24-.18,5.83-.32,8.46-.47.17-2.99.31-5.58.48-8.5h8.18c.14-2.72.26-5.08.4-7.9,5.69,0,11.09,0,16.8.01,8.49.04,16.68.06,24.88.38.02,2.66.02,5.01.02,7.69h25.35Z"/>
      <path class="cls-9" d="M17.24,178.22h-8.49v-25.19H0c0-8.77,0-17.11.35-25.77,5.68-.31,11.02-.31,16.53-.31.31-2.95.55-5.26.83-7.98,2.75,0,5.15,0,7.55.31.01,2.76.02,5.22.02,7.99,0,2.9,0,5.5,0,8.43h8.67c0,3.08,0,5.81,0,8.85,0,2.98,0,5.64,0,8.62,0,2.67,0,5.03,0,7.83h-16.68v17.22Z"/>
      <path class="cls-6" d="M42.51,220.06h-8.48v-7.87h-8.74c0-3,0-5.59.34-8.49,2.85-.3,5.35-.3,8.09-.3.14-3.06.25-5.64.37-8.46,2.89-.13,5.48-.24,8.28-.36.13-2.67.25-5.03.39-7.84h8.47c0-3.19,0-5.92.31-8.63,2.76.06,5.21.09,7.66.43,0,2.81,0,5.31,0,8.26,6.09,0,11.7,0,17.31.31,0,2.68,0,5.05,0,7.68,3.32,0,5.97,0,8.63.31,0,2.9,0,5.49,0,8.42h-25.94v8.35c-2.82.14-5.2.25-7.81.37-.13,2.65-.24,5.02-.38,7.83h-8.51Z"/>
      <path class="cls-4" d="M42.54,220.36c2.72-.31,5.46-.31,8.49-.31.14-2.81.25-5.18.38-7.83,2.61-.13,4.98-.24,7.81-.37v-8.35h25.94c0-2.93,0-5.52.31-8.43,2.78-.31,5.25-.31,7.71,0-.01,2.86-.01,5.42-.01,8.33,3.23,0,5.92,0,8.63.31.04,2.97.06,5.63.09,8.29h-16.5c-.14,2.81-.26,5.18-.4,7.9h-8.18c-.16,2.92-.31,5.51-.48,8.5-2.63.15-5.22.29-8.46.47,0,2.67,0,5.27,0,8.18-5.4.31-10.79.31-16.58.31v-8.65h-8.71c0-2.87,0-5.46-.02-8.37Z"/>
      <path class="cls-6" d="M25.25,118.97h-7.54c-.28,2.72-.52,5.03-.83,7.98-5.51,0-10.85,0-16.49,0-.3-5.37-.3-10.75-.3-16.55h8.57c0-8.53,0-16.64.34-25.06,2.85-.31,5.35-.31,8.25-.31v-8.68s.01.05.31.04c5.65,0,11.01,0,16.36.31v16.43h-8.64c0,5.97,0,11.58,0,17.5,0,2.98-.02,5.65-.02,8.32Z"/>
      <path class="cls-7" d="M228.99,50.81c.03,2.82.03,5.33.03,8.26h-8.63v8.5c-2.78.14-5.15.25-7.92.39v33.75c-2.98,0-5.57,0-8.48-.29-.41-8.5.1-16.76-1.85-24.98-2.69,0-4.88,0-7.09-.31-.04-2.99-.06-5.68-.08-8.36,0-2.68.01-5.35.03-8.33.01-.3.09-.28.4-.29,2.81,0,5.32,0,8.07,0,.14-2.83.26-5.2.39-7.8,2.88-.13,5.47-.25,8.28-.38.13-2.89.26-5.47.4-8.48h16.44c0,2.82,0,5.41.03,8.31Z"/>
      <path class="cls-11" d="M110.49.09c11.11-.03,22.22-.06,33.63.25.32,2.99.33,5.64.33,8.59-.03,2.97-.05,5.63-.38,8.31-5.7.01-11.1.01-16.77.01-.14,2.81-.25,5.18-.39,8.01-11.42,0-22.58,0-33.74-.31,0-2.66,0-5.02,0-7.49,3.16-.16,5.73-.28,8.63-.42v-8.46s0,.04.3.04c2.89,0,5.49,0,8.39,0V.09Z"/>
      <path class="cls-16" d="M228.93,160.85v-16.61h8.66v-42.35c3.01-.13,5.6-.25,8.64-.38v-8.45c2.74,0,5.02,0,7.61,0,.34,5.54.38,11.08.14,16.94-2.65.32-5.03.32-7.46.32v25.31c2.76,0,5.26,0,7.76.31,0,2.89,0,5.47,0,8.13-2.99.16-5.35.28-8.09.43v16.38c-3.12,0-5.85,0-8.88,0-2.97,0-5.63.01-8.31.01-.02,0-.06-.02-.06-.02Z"/>
      <path class="cls-4" d="M51.23,178.08v8.65h-8.47c-.14,2.81-.26,5.17-.39,7.84-2.8.12-5.39.24-8.28.36-.12,2.82-.24,5.4-.37,8.46-2.73,0-5.24,0-8.05,0-.3-2.72-.3-5.44-.3-8.52h-8.08c0-2.72,0-5.09.34-7.77,2.63-.31,4.91-.31,7.43-.31.13-3.06.25-5.64.37-8.47,2.88-.13,5.47-.24,8.29-.37.13-2.88.24-5.46.38-8.46,3.03,0,5.76,0,8.79,0,2.96,0,5.61.01,8.28.33.03,2.96.03,5.61.04,8.25Z"/>
      <path class="cls-9" d="M33.85,51.1v-8.52h8.66v-8.67h8.57v-8.56h8.02v-8.11c5.79,0,11.28,0,17.09.3.32,2.67.32,5.04.32,7.48-3.22.17-5.81.31-8.69.47,0,3.04,0,5.68-.3,8.35-2.91.02-5.51.02-8.14.02-.16,3.25-.29,5.84-.43,8.45-2.79.16-5.16.3-7.84.45,0,3.03,0,5.68-.3,8.34-2.94.04-5.58.06-8.53.07-3.02-.03-5.72-.05-8.43-.07Z"/>
      <path class="cls-11" d="M194.97,59.14c-2.68,0-5.32,0-8.34,0-.17-2.61-.32-4.97-.49-7.7-2.43-.15-4.79-.3-7.46-.47v-8.2c2.36-.14,4.72-.29,7.69-.47,0-8.23,0-16.35,0-24.8,5.61-.32,11.22-.32,17.3-.32,0,2.64,0,5.01,0,8,0,3.31,0,6,0,8.7,0,0,0,0-.31,0-2.87,0-5.44,0-8.31,0,0,3.27,0,5.97-.01,8.98.01,5.64.04,10.97.07,16.3,0,0-.08-.02-.13-.02Z"/>
      <path class="cls-7" d="M144.47,8.63c-.01-2.65-.03-5.29-.04-8.24,5.4-.3,10.79-.3,16.51-.3v8.55c2.93,0,5.53,0,8.45.04.31,5.34.31,10.64.31,16.31-2.82.14-5.42.27-8.42.42-.13,2.63-.26,5.22-.42,8.47-2.63,0-5.23,0-8.14-.3-.31-8.43-.31-16.56-.31-24.95h-7.94Z"/>
      <path class="cls-10" d="M237.61,160.86h8.57v-16.38c2.74-.14,5.11-.27,8.09-.43,0-2.65,0-5.24.31-8.15,2.94-.34,5.57-.35,8.2-.37v17.21h-8.57c0,5.63,0,10.87-.34,16.43-2.63.31-4.92.31-7.59.31v8.69s-.01-.02,0-.02c-2.66,0-5.34-.01-8.35-.02-.34,0-.4-.03-.38-.34,0-2.99-.01-5.67,0-8.66.03-2.97.04-5.63.05-8.29Z"/>
      <path class="cls-14" d="M42.61,169.5h-8.49c-.13,3-.25,5.58-.38,8.46-2.82.13-5.41.24-8.29.37-.12,2.82-.24,5.4-.37,8.47-2.53,0-4.81,0-7.39,0-.34-2.65-.38-5.31-.43-8.27-.01-5.89-.01-11.49-.01-17.52h16.68c0-2.8,0-5.16.31-7.82,2.99-.3,5.68-.3,8.35.02,0,5.64.01,10.97.02,16.3Z"/>
      <path class="cls-4" d="M33.54,51.13c3.01,0,5.72.01,8.73.35.32,2.76.35,5.2.35,7.96,0,2.98,0,5.64-.3,8.32-2.88.01-5.46.01-8.41.01v8.64c-5.36,0-10.71,0-16.39,0-.32-5.61-.32-11.21-.32-17.2h7.96v-8.05c2.86,0,5.46,0,8.36-.02Z"/>
      <path class="cls-2" d="M67.82,33.82v-8.33c2.87-.15,5.47-.29,8.69-.47,0-2.43,0-4.81,0-7.49,0-.31,0-.28.3-.28,2.9,0,5.49,0,8.41,0v-8.52c5.32-.04,10.65-.08,16.28-.14.31,2.69.31,5.4.31,8.44-2.9.14-5.47.27-8.63.42,0,2.47,0,4.83,0,7.8,0,3.13,0,5.65,0,8.64-2.95,0-5.47,0-8.3-.01-5.89-.03-11.47-.05-17.05-.07Z"/>
      <path class="cls-7" d="M262.83,135.24c-2.67.32-5.3.33-8.24.37-2.81.02-5.31.02-8.07.02v-25.31c2.43,0,4.81,0,7.49-.01,3.05-.01,5.79-.01,8.86-.01,0,8.4,0,16.52-.04,24.94Z"/>
      <path class="cls-15" d="M195.39,59.15c-.33-5.32-.35-10.66-.06-16.31,2.83-.32,5.35-.32,8.33-.32v-8.65s0,0,.31,0c3.01-.02,5.72-.03,8.42-.04h7.93c0,2.85,0,5.45.03,8.36-2.49.31-5,.31-7.82.31-.14,3-.26,5.59-.4,8.48-2.81.13-5.4.25-8.28.38-.13,2.6-.25,4.97-.39,7.8-2.75,0-5.26,0-8.07,0Z"/>
      <path class="cls-16" d="M212.36,33.53c-2.67.32-5.38.33-8.39.35-.31-2.7-.3-5.39-.29-8.4,2.74-.31,5.48-.31,8.65-.31,0,2.86,0,5.46.03,8.36Z"/>
      <path class="cls-9" d="M84.9,8.69c.31,2.68.31,5.31.31,8.56-2.91,0-5.51,0-8.42,0-.31-2.73-.31-5.46-.31-8.59,2.91,0,5.51,0,8.42.04Z"/>
      <path class="cls-10" d="M110.18.05c.31,2.68.31,5.32.31,8.57-2.9,0-5.5,0-8.41,0-.31-2.74-.31-5.47-.31-8.6,2.9,0,5.5,0,8.41.05Z"/>
      <path class="cls-4" d="M16.94,76.39c.31,2.7.31,5.44.31,8.66-2.89,0-5.4,0-8.2,0-.3-2.72-.3-5.44-.3-8.62,2.71,0,5.3,0,8.2-.03Z"/>
      <path class="cls-9" d="M246.6,178.17c-.31-2.71-.31-5.45-.31-8.68,2.68,0,4.96,0,7.55,0,.3,2.72.3,5.45.3,8.66-2.49,0-4.87,0-7.55.02Z"/>
      <path class="cls-11" d="M194.66,67.78c.33,2.68.35,5.36.37,8.66-.02,8.81-.05,17.01-.38,25.22-5.56.01-10.81.01-16.39.01v8.66h-8.56v8.66h-17.1c-.14,2.81-.25,5.18-.39,7.97h-33.76c0,3.17,0,5.9-.31,8.63-2.77,0-5.23,0-7.68-.32,0-2.9,0-5.49,0-8.11-3.26-.18-5.84-.32-8.75-.48v-16.35h-8.56c0-3.19,0-5.92,0-8.65,0,0,0,0,0,0h76.32c.15-2.96.28-5.54.43-8.44,2.78-.13,5.37-.26,8.26-.4.13-2.58.25-4.95.39-7.6,2.6-.13,4.97-.25,7.8-.39v-17.08c2.98,0,5.49,0,8.31,0Z"/>
      <path class="cls-10" d="M25.26,119.28c0-2.98,0-5.65.33-8.63,2.9-.31,5.49-.31,8.12-.31.18-3.26.32-5.84.47-8.45,3.01-.17,5.59-.31,8.5-.47v-8.37h8.35c.14-2.82.26-5.18.4-7.99h16.45v-8.64h17.28v16.44c2.75.12,5.04.23,8.01.36,0,2.67,0,5.26,0,8.17,0,.31,0,.31-.31.31-5.57,0-10.82,0-16.11,0-.18,3.25-.33,5.83-.49,8.84h-24.81c-.17,3.04-.31,5.62-.48,8.65h-16.82c-.18,2.83-.34,5.19-.51,7.78h-8.34c0-2.46-.02-4.92-.03-7.68Z"/>
      <path class="cls-13" d="M85.16,76.11c-5.61.31-11.22.31-17.29.31v8.64h-16.45c-.14,2.81-.26,5.17-.4,7.99h-8.35v8.37c-2.91.16-5.49.3-8.5.47-.15,2.61-.29,5.19-.47,8.45-2.63,0-5.22,0-8.12,0-.31-5.61-.31-11.22-.31-17.19h8.64v-25.39c2.95,0,5.52,0,8.71,0,5.8,0,10.97,0,16.66,0,0-3.13,0-5.86.31-8.6,8.72,0,17.13.02,25.54.04,0,5.53.02,11.05.02,16.89Z"/>
      <path class="cls-15" d="M144.45,8.93c2.44-.31,4.87-.31,7.96-.31,0,8.39,0,16.52,0,24.96,0,2.96,0,5.61,0,8.66-2.61.14-4.99.27-7.78.42-.15,2.7-.3,5.38-.47,8.47-5.61,0-11.01,0-17.04.01-8.86.01-17.09,0-25.32-.3v-8.55h25.4v-8.44h17.17v-16.64c.02-2.66.03-5.33.07-8.29Z"/>
      <path class="cls-7" d="M101.81,51.16c8.23,0,16.46,0,25.01,0,.31,2.5.31,5.01.31,7.98-14.09,0-27.73,0-41.68.03-8.73.01-17.14,0-26.18-.02-5.96-.01-11.3-.03-16.64-.04-.02-2.44-.05-4.89-.06-7.64,2.65-.33,5.29-.35,8.55-.36,11.76.02,22.9.02,34.34.03,5.65,0,10.99,0,16.33,0Z"/>
      <path class="cls-1" d="M152.74,220.08c-8.54.02-16.77.02-25.66.02,0-2.68,0-5.03.3-7.71,11.33-.32,22.36-.32,33.47-.32.18-3.24.32-5.83.48-8.86h17.04c0-3.12,0-5.77-.02-8.44-.01-.02-.02-.07.29-.05,2.78.03,5.25.03,8.03.04,2.9,0,5.5,0,8.33,0,0-3.1,0-5.52-.02-7.97-.02-.02-.02-.07.29-.05,3,.03,5.69.03,8.69.04,2.98,0,5.65-.02,8.33-.01.02.02.05.05.04.36-.02,2.75-.02,5.19-.03,7.63,0,0,0,0-.31,0-2.91,0-5.5,0-8.38,0v8.59h-8.52v8.71c-2.96,0-5.54,0-8.73,0-5.84,0-11.05,0-16.7,0v7.94c-5.54.02-11.08.04-16.93.08Z"/>
      <path class="cls-14" d="M169.98,220.01c-.32-2.5-.32-4.99-.32-7.94,5.65,0,10.86,0,16.39.02.31,2.45.31,4.87.31,7.93-5.55,0-10.81,0-16.39,0Z"/>
      <path class="cls-17" d="M212.63,194.76c-.31-2.44-.3-4.88.03-7.65,5.63-.34,10.95-.36,16.28-.35.02.02.07.07.07.07v7.93c-5.54,0-10.8,0-16.38,0Z"/>
      <path class="cls-17" d="M237.64,178.15c.03,2.66.03,5.3.03,8.65-2.88,0-5.47,0-8.36.02-.3.02-.35-.03-.36-.35,0-2.91,0-5.49,0-8.35h8.6s.07.03.1.04Z"/>
      <path class="cls-17" d="M203.94,203.37c-.31-2.66-.31-5.3-.31-8.61,2.88,0,5.47,0,8.38,0,.31,2.7.31,5.39.31,8.62-2.93,0-5.5,0-8.38-.02Z"/>
      <path class="cls-5" d="M93.19,194.78c-2.47,0-4.95,0-7.73,0-2.96,0-5.61,0-8.93,0,0-2.63,0-5,.31-7.68,25.31-.31,50.3-.31,75.36-.31.18-3.24.33-5.83.49-8.74h25.7v-8.55h25.29c0-2.82,0-5.42,0-8.32,5.33-.31,10.67-.32,16.32-.01.31,2.9.31,5.5.31,8.11-3.03.18-5.4.33-7.98.48,0,3.04,0,5.69-.31,8.35-2.97.03-5.63.05-8.6.06-2.91,0-5.52,0-8.42,0v8.57s0,.05-.29.06c-2.95.02-5.61.03-8.59.03-2.66-.01-5-.01-7.76-.01v7.91s0,.05-.29.06c-8.74.03-17.18.05-25.93.04-19.85-.03-39.39-.03-58.93-.03Z"/>
      <path class="cls-13" d="M178.37,169.19c0,3.04,0,5.77,0,8.86h-25.7c-.16,2.92-.31,5.51-.49,8.74H59.21c0-2.95,0-5.45.31-8.29,22.59-.33,44.88-.33,67.67-.33,0-3.17,0-5.9.3-8.64,2.95-.05,5.61-.08,8.57-.08,5.53.03,10.76.03,16.43.03,0-3.16,0-5.87.31-8.59,5.82-.04,11.33-.05,16.85-.07h8.73c0,2.94,0,5.5,0,8.38Z"/>
      <path class="cls-15" d="M194.96,101.65c.02-8.2.05-16.39.09-24.9,2.21-.31,4.4-.31,7.09-.31,1.96,8.22,1.44,16.48,1.55,25,.01,8.5.01,16.69.01,25.25-2.88.14-5.48.27-8.48.41-.13,2.64-.25,5.23-.4,8.24-2.63.13-5.23.25-8.24.4-.15,2.7-.29,5.38-.46,8.48-2.51,0-4.8,0-7.72,0-3.31,0-6,0-8.69-.31v-8.13c3.25-.18,5.84-.32,8.76-.48v-8.19c2.71-.13,5.08-.24,7.9-.38v-16.44h8.59v-8.67Z"/>
      <path class="cls-7" d="M169.71,144.24c2.69,0,5.38,0,8.39.01.31,2.71.31,5.42.31,8.52h-8.72c0,2.74,0,5.09-.02,7.74-5.54.32-11.05.34-17.19.37-5.99,0-11.35,0-16.71-.02,0,0,0,0,0-.3,0-2.76,0-5.22.32-7.67,8.45,0,16.59,0,24.76,0,.18-3.25.33-5.84.48-8.64h8.38Z"/>
      <path class="cls-1" d="M212.31,178.1v-8.34c2.58-.16,4.95-.3,7.98-.48,0-2.61,0-5.21,0-8.11,2.67-.31,5.35-.31,8.33-.32.31,0,.35.01.35.33,0,2.9,0,5.48,0,8.27h8.56c.02,2.68.04,5.37.03,8.36-2.66.3-5.3.3-8.62.3,0,2.85,0,5.44-.02,8.33-5.33.32-10.64.34-16.26.38-.31.02-.34-.02-.35-.34,0-3.01,0-5.69,0-8.37Z"/>
      <path class="cls-7" d="M152.43,194.83c8.44-.02,16.88-.04,25.63-.05.31,2.66.31,5.31.31,8.43h-17.04c-.17,3.03-.31,5.62-.48,8.86-11.1,0-22.14,0-33.49.02-8.5,0-16.69-.02-25.18-.06-.33-2.68-.36-5.34-.08-8.31,16.88-.31,33.45-.31,50.33-.31v-8.58Z"/>
      <path class="cls-2" d="M25.28,127.27c2.65-.31,5.3-.31,8.35-.31.17-2.59.32-4.95.51-7.78h16.82c.17-3.02.31-5.61.48-8.65h24.81c.17-3.02.31-5.6.49-8.84,5.29,0,10.54,0,16.11,0,.31,2.73.31,5.46.31,8.65h8.56v16.35c2.91.16,5.5.3,8.75.48,0,2.62,0,5.21-.31,8.12-5.79.31-11.27.31-17.09.31v8.66c-14.17,0-27.99,0-42.1,0-5.87,0-11.44,0-17.01,0v-8.54h-8.67c0-2.93,0-5.53,0-8.43Z"/>
      <path class="cls-17" d="M33.94,144.55c5.58-.31,11.16-.31,17.02,0,.29,2.9.29,5.5.29,8.33h-8.65c-2.68,0-5.36,0-8.35-.01-.31-2.67-.31-5.34-.3-8.32Z"/>
      <path class="cls-8" d="M127.19,169.54v8.63c-22.79,0-45.08,0-67.68.03-2.76,0-5.21-.04-7.97-.1-.31-2.67-.32-5.32-.31-8.28.01-.31.07-.33.38-.33,25.4.02,50.49.04,75.58.05Z"/>
      <path class="cls-8" d="M152.11,194.81c.31,2.67.31,5.31.31,8.6-16.88,0-33.45,0-50.34,0-3.01,0-5.7,0-8.93,0,0-2.91,0-5.47.01-8.33,19.55-.31,39.09-.3,58.94-.28Z"/>
      <path class="cls-16" d="M101.81,50.85c-5.34.31-10.68.31-16.33-.01-.31-5.86-.3-11.4-.3-16.94h7.99c0-3,0-5.51,0-8.34,11.16-.31,22.32-.31,33.74-.31.14-2.83.25-5.2.39-8.01,5.67,0,11.06,0,16.77-.01.31,5.38.31,10.77.31,16.63h-17.17v8.44h-25.4v8.55Z"/>
      <path class="cls-7" d="M237.56,169.15c-2.66.3-5.3.3-8.59.3,0-2.79,0-5.38.02-8.26,2.68-.31,5.34-.32,8.31-.33.3,2.66.29,5.32.26,8.29Z"/>
      <path class="cls-1" d="M42.58,153.19c2.66-.31,5.31-.31,8.65-.31,0-2.83,0-5.42,0-8.32,13.83-.31,27.64-.31,41.82-.31v-8.66c5.82,0,11.3,0,17.09,0,2.77,0,5.23,0,8,.31.31,2.9.31,5.49.31,8.12,3.26.18,5.85.33,8.77.49v8.37h8.56c0,2.46,0,4.91-.32,7.67-28.13.3-55.95.3-84.16.3v8.62s-.06.02-.09.03c-2.68,0-5.34,0-8.3-.02-.31-5.33-.32-10.66-.33-16.3Z"/>
      <path class="cls-1" d="M84.87,33.89c.31,5.55.31,11.1.3,16.95-11.14.3-22.28.3-33.73.27-.32-2.67-.32-5.32-.32-8.35,2.68-.15,5.05-.29,7.84-.45.13-2.61.26-5.2.43-8.45,2.63,0,5.23,0,8.14-.02,5.88,0,11.46.02,17.35.05Z"/>
      <path class="cls-16" d="M203.35,33.88c.31,2.73.31,5.46.31,8.65-2.98,0-5.5,0-8.32,0-.31-2.69-.31-5.39-.31-8.66,2.88,0,5.44,0,8.31,0Z"/>
      <path class="cls-8" d="M42.62,59.43c5.36-.3,10.69-.28,16.35-.26.32,2.74.32,5.48.32,8.6-5.69,0-10.87,0-16.35-.02-.32-2.68-.33-5.35-.32-8.33Z"/>
      <path class="cls-16" d="M136.09,152.88h-8.87v-8.37c-2.92-.16-5.51-.31-8.77-.49,0-2.63,0-5.22,0-8.12,0-3.04,0-5.76,0-8.93h33.76c.14-2.8.25-5.16.39-7.97h17.1v-8.66h8.56v-8.66c5.58,0,10.83,0,16.39-.01.31,2.72.31,5.45.31,8.65h-8.59v16.44c-2.82.14-5.19.25-7.9.38v8.19c-2.91.16-5.5.3-8.76.48v8.13c-2.65.31-5.3.31-8.38.31-.16,2.81-.3,5.39-.48,8.64-8.17,0-16.31,0-24.76,0Z"/>
      <path class="cls-12" d="M195.29,186.75c-.31-2.67-.31-5.31-.31-8.59,2.91,0,5.51,0,8.41.31.29,2.98.29,5.65.28,8.31-2.69,0-5.38-.01-8.38-.04Z"/>
      <path class="cls-7" d="M203.97,186.79c-.3-2.67-.3-5.33-.28-8.3,2.68-.32,5.34-.34,8.31-.37.31,2.67.31,5.35.29,8.34-2.68.32-5.35.33-8.33.33Z"/>
      <path class="cls-7" d="M186.41,186.82c2.66-.01,5.32-.02,8.29-.02.31,2.44.31,4.86.31,7.96-2.83,0-5.43,0-8.34-.31-.3-2.75-.28-5.19-.26-7.63Z"/>
      <path class="cls-12" d="M186.1,186.81c.3,2.45.28,4.9.27,7.64-2.47.3-4.94.3-7.72.27-.31-2.48-.31-4.95-.31-7.93,2.77,0,5.11,0,7.76.01Z"/>
      <path class="cls-7" d="M51.6,169.49c-.3-2.73-.3-5.45-.3-8.63,28.21,0,56.03,0,84.16,0,.31,0,.31,0,.31.31,0,2.96-.01,5.6-.02,8.25-2.65.03-5.3.07-8.26.11-25.39,0-50.49-.02-75.89-.04Z"/>
      <path class="cls-8" d="M136.06,169.45c-.31-2.68-.3-5.33-.29-8.28,5.36-.3,10.72-.29,16.4-.28.32,2.72.32,5.43.32,8.59-5.67,0-10.89,0-16.43-.03Z"/>
    </g>
  </g>
</svg>