<?xml version="1.0" encoding="UTF-8"?>
<svg id="Layer_2" data-name="Layer 2" xmlns="http://www.w3.org/2000/svg" viewBox="0 0 177.51 177.42">
  <defs>
    <style>
      .cls-1 {
        fill: #eda045;
      }

      .cls-1, .cls-2, .cls-3, .cls-4, .cls-5, .cls-6, .cls-7, .cls-8, .cls-9, .cls-10, .cls-11, .cls-12, .cls-13, .cls-14, .cls-15, .cls-16, .cls-17 {
        stroke-width: 0px;
      }

      .cls-2 {
        fill: #ed9f3e;
      }

      .cls-3 {
        fill: #f1b04e;
      }

      .cls-4 {
        fill: #c6482a;
      }

      .cls-5 {
        fill: #e67e3b;
      }

      .cls-6 {
        fill: #d95c2b;
      }

      .cls-7 {
        fill: #f4bc50;
      }

      .cls-8 {
        fill: #f4d199;
      }

      .cls-9 {
        fill: #e26831;
      }

      .cls-10 {
        fill: #ca4f2b;
      }

      .cls-11 {
        fill: #ea8d3f;
      }

      .cls-12 {
        fill: #e47b32;
      }

      .cls-13 {
        fill: #ec9543;
      }

      .cls-14 {
        fill: #cf5a2a;
      }

      .cls-15 {
        fill: #f4c474;
      }

      .cls-16 {
        fill: #bc3b2b;
      }

      .cls-17 {
        fill: #f4bf61;
      }
    </style>
  </defs>
  <g id="Layer_5" data-name="Layer 5">
    <g>
      <path class="cls-16" d="M33.72,152.27h-8.54v-8.55h-8.58v-8.68H7.79c0-5.56,0-10.81,0-16.69,0-11.61,0-22.59,0-33.76,3.12-.15,5.71-.28,8.72-.43v-17.04c6.05,0,11.65,0,17.25.31,0,11.39.01,22.46.01,33.85-.01,2.88-.01,5.45-.01,8.36,3.03,0,5.51,0,7.99,0,0,0,.01,0,0,.3,0,2.99,0,5.67,0,8.65,0,2.89,0,5.48,0,8.13-2.99.18-5.35.33-8.03.49v25.06Z"/>
      <path class="cls-1" d="M169.61,118.36c-.02,2.65-.05,5.3-.42,8.27-5.87.32-11.4.33-17.23.32-3-.02-5.69-.03-8.37-.35,0-2.97,0-5.64.32-8.31,5.79,0,11.27,0,16.64,0v-8.41h-16.96c0,2.95,0,5.68-.31,8.41-2.65,0-5,0-7.67,0,0,3.29,0,6,0,9,0,2.74-.01,5.18,0,7.63.01.02.03.05-.28.04-2.89-.01-5.47-.01-8.46-.01v8.58c-3.12,0-5.83,0-8.56-.31-.01-5.55-.01-10.79-.01-16.07,3.24-.18,5.83-.32,8.29-.46v-8.49h-8.27c0-3.07,0-5.79.31-8.53,2.9,0,5.49,0,8.32,0,0-6,0-11.31.31-16.62,5.66,0,11,0,16.34.32,0,2.67,0,5.04,0,7.32h8.64c0-2.75,0-5.17,0-7.61,0-.02.02-.07.33-.05,2.97.03,5.63.04,8.31.36.01,2.67.01,5.03.01,7.66,3.34,0,5.98,0,8.65,0,.02-.01.05-.03.04.28,0,5.89.02,11.47.04,17.05Z"/>
      <path class="cls-14" d="M75.68,177.35h-16.5v-8.55c-2.98,0-5.57,0-8.48-.35-.31-5.5-.31-10.65-.31-16.06-3.06-.13-5.64-.25-8.41-.37v-17.12h8.43c0-2.97,0-5.48.31-7.98,2.96.03,5.62.04,8.29.36.01,2.65.01,5,.01,7.66,5.96,0,11.3,0,16.66.3.01,2.97.02,5.63.02,8.6,0,11.37,0,22.44,0,33.5Z"/>
      <path class="cls-10" d="M33.77,67.11h-17.26v17.04c-3.02.15-5.6.28-8.72.43,0,11.17,0,22.15,0,33.45-2.53.32-5.05.32-7.78.32v-59.24c2.34,0,4.72,0,7.73,0,6.09,0,11.55,0,17.16,0,.16-3.12.3-5.69.45-8.65,5.69,0,11.07,0,16.75,0,2.96,0,5.62-.02,8.59-.02,5.88.04,11.44.07,17.01.4.01,2.93.01,5.56-.29,8.22-2.96.06-5.62.08-8.59.08-8.43-.01-16.54-.01-25-.01,0,3.01,0,5.51-.02,8.02-.02,0-.02-.04-.02-.04Z"/>
      <path class="cls-16" d="M118.37,168.86v8.56c-8.52,0-16.64,0-25.08-.34-.31-2.84-.31-5.34-.31-8.06-3.07-.14-5.67-.26-8.67-.4,0-8.56,0-16.82,0-25.07,0,0,0,0,.31,0,5.88,0,11.45,0,17.33,0,2.76,0,5.21,0,7.67,0,0,0,0,0,0,.32,0,8.4,0,16.49,0,24.98h8.74Z"/>
      <path class="cls-14" d="M118.68,168.84c-3.03.02-5.76.02-9.04.02,0-8.5,0-16.58.31-24.98,3-.33,5.69-.34,8.38-.35h8.55v-8.58c2.98,0,5.56,0,8.45.32.3,5.74.3,11.16.3,16.96h7.99v8.47h-7.85v8.13c-5.85,0-11.31,0-17.08.02Z"/>
      <path class="cls-14" d="M41.78,50.46h-16.45c-.15,2.96-.29,5.53-.45,8.65-5.61,0-11.08,0-16.86,0-.28-2.67-.24-5.34.13-8.32,2.85-.31,5.36-.31,8.25-.31v-16.63c2.85,0,5.42,0,8.61,0,3.2,0,5.78,0,8.69,0v-8.68s.03.05.32.04c5.65,0,11.01.01,16.37.33-.01,2.97-.03,5.64-.35,8.31-2.88,0-5.46,0-8.27,0v16.6Z"/>
      <path class="cls-10" d="M50.41,126.92c0,2.51,0,5.01,0,7.98h-8.43v17.12c2.77.12,5.36.24,8.41.37,0,5.41,0,10.56,0,16.02-2.73.3-5.46.3-8.6.3v-7.79h-8.05c0-2.87,0-5.45-.01-8.35-.01-8.54-.01-16.78-.01-25.36,2.68-.16,5.04-.31,8.03-.49,0-2.65,0-5.24.31-8.12,2.99-.3,5.66-.3,8.34,0,0,2.98,0,5.64,0,8.31Z"/>
      <path class="cls-4" d="M67.71.08h50.6c0,2.44,0,4.82-.29,7.51-8.52.34-16.76.36-25.31.36-8.55-.02-16.78-.02-25.01-.33,0-2.72.01-5.13.02-7.54Z"/>
      <path class="cls-10" d="M84.32,143.54v25.08c3,.14,5.59.26,8.67.4,0,2.72,0,5.22,0,8.02-5.56.33-11.12.36-16.99.35-.31-11.1-.3-22.16,0-33.53,2.98-.31,5.65-.32,8.32-.32Z"/>
      <path class="cls-16" d="M143.92,152.21c-2.8.01-5.29.01-8.3.01,0-5.8,0-11.22,0-16.95,0-.31-.01-.34.29-.35,5.63-.03,10.95-.05,16.59-.06,3.03.04,5.75.07,8.47.09v8.57h-8.68v8.67c-2.89,0-5.48,0-8.38.01Z"/>
      <path class="cls-4" d="M169.44,50.46v8.61h8.07c0,8.52,0,16.63-.34,25.04-2.77.29-5.19.27-7.62.26,0,.01.01.02,0-.28-.04-2.97-.07-5.64-.07-8.61.03-2.88.03-5.46.03-8.38-3.2,0-5.9,0-8.62,0,0,0,.01,0,0-.31-.02-2.74-.04-5.18-.05-7.93.03-3,.04-5.68.04-8.37,0,0-.02-.02.29-.01,2.95,0,5.6,0,8.25-.02Z"/>
      <path class="cls-16" d="M50.41,25.23c-5.36,0-10.72-.02-16.39-.04-.32-2.75-.32-5.49-.32-8.55h7.88V7.91c5.81,0,11.3,0,17.13.02.35.02.44.11.4.4-.06,2.93-.09,5.56-.42,8.21-2.86.02-5.42.02-8.28.02,0,3.3,0,5.99,0,8.68,0,0,0,0,0,0Z"/>
      <path class="cls-5" d="M93.03,7.96c8.23-.02,16.47-.03,25.02-.07,2.97,0,5.62.04,8.59.41.32,2.98.33,5.61.03,8.25-11.44,0-22.57,0-33.69-.32.02-2.96.04-5.62.05-8.28Z"/>
      <path class="cls-13" d="M143.63,25.17h8.46v8.51h8.81c0,2.72,0,5.1,0,8.09,0,3.31-.01,6-.02,8.69,0,0,.01.01-.29.01-2.99,0-5.68,0-8.36-.3,0-2.89,0-5.48,0-8.29-3.26,0-5.9,0-8.56-.31-.06-2.77-.09-5.23-.12-8-.03-2.94-.06-5.58-.05-8.26.04-.05.12-.15.12-.15Z"/>
      <path class="cls-14" d="M161.28,134.94c-3.02-.01-5.74-.04-8.76-.38-.28-2.75-.27-5.18-.25-7.61,5.53,0,11.05-.02,16.88-.03.3,2.5.3,5,.3,8-2.69,0-5.28,0-8.17.02Z"/>
      <path class="cls-6" d="M169.91,118.33c-.32-5.56-.33-11.14-.04-17.02,2.73-.3,5.14-.29,7.56-.28v17.28c-2.47,0-4.84,0-7.52.02Z"/>
      <path class="cls-6" d="M126.98,16.54c-.01-2.63-.03-5.27-.04-8.2,2.72-.3,5.45-.3,8.67-.3,0,2.67,0,5.25,0,8.21,0,.37-.05.5-.35.44-2.96-.09-5.62-.12-8.28-.15Z"/>
      <path class="cls-10" d="M16.11,41.79c.31,2.71.31,5.45.31,8.7-2.89,0-5.4,0-8.21,0-.3-2.72-.3-5.45-.3-8.67,2.71,0,5.31,0,8.21-.03Z"/>
      <path class="cls-12" d="M161.19,50.48c-.3-2.7-.29-5.39-.27-8.4,2.74-.31,5.47-.31,8.6-.31,0,2.89,0,5.49-.04,8.39-2.69.31-5.34.32-8.29.32Z"/>
      <path class="cls-16" d="M33.41,25.19c.31,2.7.31,5.41.31,8.66-2.91,0-5.49,0-8.39-.01-.32-2.73-.32-5.44-.32-8.64,2.92,0,5.5,0,8.4-.02Z"/>
      <path class="cls-16" d="M67.41.04c.3,2.45.3,4.86-.01,7.59-2.95.35-5.59.38-8.24.41,0,0-.09-.09-.13-.13-.04-2.53-.04-5.01-.04-7.91,2.95,0,5.53,0,8.42.04Z"/>
      <path class="cls-11" d="M135.62,16.56c2.51-.07,5.02-.07,7.97-.07,0,2.89,0,5.48.02,8.38.02.31-.05.41-.39.41-2.76-.02-5.19-.05-7.62-.38-.01-2.92-.03-5.53-.04-8.14,0,0,.05-.13.06-.2Z"/>
      <path class="cls-11" d="M169.55,84.35c2.43.02,4.85.03,7.58.06.33,2.66.36,5.32.04,8.29-2.77.32-5.2.33-7.62.03,0-3,0-5.69,0-8.38Z"/>
      <path class="cls-4" d="M169.55,93.05c2.43-.01,4.85-.02,7.58-.04.33,2.46.35,4.94.34,7.71-2.46.3-4.87.29-7.59.28-.3,0-.33.02-.34-.28,0-2.76.02-5.22.02-7.68,0,0-.02.01-.02.01Z"/>
      <path class="cls-2" d="M59.12,59.17c2.66-.02,5.31-.04,8.27-.04.3.02.3.13.3.43,0,5.6,0,10.9-.32,16.2-8.64,0-16.97,0-25.39,0v17.24c2.98,0,5.71,0,8.74.01,5.79.01,11.27.01,16.92.01,0-3.3,0-5.94.01-8.9.02-2.99.02-5.67.33-8.36,2.66,0,5.02,0,7.69,0,0,6.17,0,11.73,0,17.59-.02,2.74-.04,5.17-.37,7.61-5.56.01-10.81.01-16.33.01,0,3.33,0,5.97-.31,8.63-5.84.02-11.38.02-16.92.02,0,0-.01,0,0-.3,0-2.86,0-5.42,0-8.36h-7.97c0-11.08-.02-22.15-.02-33.54,0-.31,0-.27.33-.28,8.47-.01,16.6-.01,25.03-.01v-7.96Z"/>
      <path class="cls-6" d="M41.75,109.94c5.54-.31,11.08-.31,16.95-.31.33,0,.38.06.37.36-.02,2.96-.02,5.62,0,8.29.02.02.02.07-.29.05-3-.02-5.68-.03-8.37-.03-2.68,0-5.35,0-8.34-.01-.31-2.68-.32-5.36-.31-8.35Z"/>
      <path class="cls-14" d="M33.77,101.28c2.49-.31,4.97-.31,7.98-.31,0,2.94,0,5.5,0,8.37-2.48.31-4.97.31-7.99.31,0-2.92,0-5.48.01-8.36Z"/>
      <path class="cls-5" d="M118.31,143.21c-2.68.32-5.37.33-8.37.35-.31,0-.3,0-.3-.32,0-11.4,0-22.5.3-33.59,2.99,0,5.66-.01,8.35-.01,0,0,.03.03.03.03v8.52h8.27v8.49c-2.47.14-5.05.28-8.29.46,0,5.28,0,10.52.01,16.07Z"/>
      <path class="cls-11" d="M143.6,93.05c-5.34,0-10.69,0-16.34-.02-.31,0-.31,0-.31-.31,0-2.89,0-5.47,0-8.41,8.85,0,17.07,0,25.3.04,0,.04,0,.11,0,.42,0,2.94,0,5.58.02,8.22,0,0-.01.05-.33.05-2.99,0-5.66,0-8.33,0Z"/>
      <path class="cls-9" d="M152.56,93.01c-.31-2.66-.32-5.3-.01-8.27,5.88-.34,11.44-.34,17.01-.35,0,0-.02-.01-.01-.02,0,2.68,0,5.37,0,8.37,0,.31,0,.29-.3.3-3,.01-5.7.02-8.4.03-2.66-.01-5.33-.03-8.29-.06Z"/>
      <path class="cls-3" d="M143.59,118.29v-8.41h16.96v8.41c-5.37,0-10.85,0-16.64,0-.31,0-.31,0-.31,0Z"/>
      <path class="cls-5" d="M126.94,93.04c0,5.31,0,10.62,0,16.62-2.82,0-5.41,0-8.32,0-.31,0-.33-.01-.33-.33,0-2.99,0-5.67,0-8.65,0-2.64,0-4.98,0-7.65h8.65s0,0,0,0Z"/>
      <path class="cls-12" d="M151.95,126.95c.29,2.44.28,4.87.25,7.61-5.34.32-10.66.34-16.3.36-.31-2.44-.3-4.88.01-7.63,2.76-.33,5.21-.35,7.66-.37,2.69.01,5.38.02,8.37.04Z"/>
      <path class="cls-3" d="M143.59,93.36c2.68-.31,5.35-.31,8.33-.29.31,2.44.31,4.86.31,7.61h-8.64c0-2.28,0-4.65,0-7.32Z"/>
      <path class="cls-5" d="M160.87,93.37c2.69-.31,5.38-.32,8.39-.33.3,2.46.29,4.92.26,7.69-2.66.31-5.3.31-8.64.31,0-2.63,0-5-.01-7.66Z"/>
      <path class="cls-3" d="M143.58,126.6c-2.46.32-4.91.34-7.66.37-.31-2.69-.31-5.39-.31-8.69,2.67,0,5.01,0,7.67,0,.31,0,.31,0,.31,0,0,2.67,0,5.34,0,8.31Z"/>
      <path class="cls-2" d="M75.66,134.94h-16.65c0-2.65,0-5,0-7.97.02-3.29.04-5.96.06-8.63,0,0,0-.05.29-.06,5.52,0,10.74,0,16.35,0,0-3.19,0-5.9-.02-8.62-.02,0,0,.03.3.01,2.97-.03,5.63-.05,8.6-.05,3,.02,5.7.02,8.39.33,0,2.98,0,5.66,0,8.34,0,0,0,0-.31,0-2.88,0-5.45,0-8.34,0,0,5.94,0,11.28,0,16.63,0,0,0,0-.31,0-2.99.01-5.68.02-8.37.03Z"/>
      <path class="cls-12" d="M58.77,118.33c.29,2.69.27,5.36.24,8.34-2.68.3-5.33.28-8.3.25-.31-2.68-.31-5.35-.31-8.32,2.69-.3,5.37-.3,8.37-.27Z"/>
      <path class="cls-12" d="M75.67,135.25c2.68-.32,5.36-.33,8.36-.03.3,2.98.3,5.66.3,8.33,0,0,0,0,0,0-2.68,0-5.35,0-8.33,0-.31-2.67-.31-5.33-.33-8.3Z"/>
      <path class="cls-2" d="M42.09,50.47c-.3-5.35-.3-10.69-.3-16.61,2.82,0,5.39,0,8.59,0,3.19,0,5.75,0,8.68,0v-8.64s0,0,.31,0c2.99,0,5.68.01,8.36.33-.01,5.64-.01,10.97-.33,16.3-5.79,0-11.27,0-17.03,0v8.59c-2.66.02-5.31.03-8.27.04Z"/>
      <path class="cls-9" d="M67.7,59.09c0-2.68,0-5.31,0-8.27,0-.33.02-.38.33-.36,8.45.02,16.59.02,24.97.02,0,3.34,0,5.99-.31,8.64-8.54.05-16.76.1-24.99.14,0,0,0-.11,0-.17Z"/>
      <path class="cls-6" d="M58.8,59.15c.32,2.44.32,4.86.32,7.97-8.43,0-16.57,0-25.01.01-.31-2.49-.31-4.99-.31-8,8.46,0,16.57,0,25,.01Z"/>
      <path class="cls-12" d="M50.67,50.45c-.31-2.66-.31-5.3-.31-8.6,5.76,0,11.24,0,17.03,0,.31,0,.31,0,.31.31,0,2.96.02,5.62.02,8.28,0,0-.02.05-.03.08-5.57,0-11.14-.02-17.02-.07Z"/>
      <path class="cls-4" d="M84.64,143.55c-.31-2.68-.3-5.35-.3-8.33,0-.31,0-.3.31-.31,2.88,0,5.46,0,8.34,0v-16.62s0,0,.31,0c2.99,0,5.67,0,8.35.32,0,8.52.01,16.72.02,24.93-5.57,0-11.14,0-17.03,0Z"/>
      <path class="cls-6" d="M101.97,143.55c-.31-8.21-.32-16.42-.32-25.24.01-3.28.02-5.94.34-8.62,2.75-.02,5.2-.03,7.65-.04,0,0-.01,0-.01,0,0,11.09,0,22.19.01,33.59-2.45.31-4.91.31-7.66.3Z"/>
      <path class="cls-11" d="M59.05,25.22v8.64c-2.93,0-5.49,0-8.37,0-.3-2.67-.28-5.34-.27-8.31,0-.31,0-.3.31-.3,2.98,0,5.66-.01,8.33-.02Z"/>
      <path class="cls-6" d="M59.12,8.34c2.68-.33,5.32-.37,8.27-.41,8.54,0,16.78,0,25.32.02.3,2.67.29,5.32-.04,8.3-2.98.34-5.64.37-8.62.37-8.53,0-16.74,0-24.98-.02-.03-.03-.08-.08-.08-.08.03-2.63.05-5.26.12-8.19Z"/>
      <path class="cls-3" d="M169.55,84.08c-5.56.31-11.12.32-17,.35-.31.03-.31-.05-.31-.39,0-5.88,0-11.41.32-16.95,2.99,0,5.67,0,8.35,0,0,0-.02.01-.02.31,0,2.89,0,5.48,0,8.37h8.55c.03,2.66.06,5.33.1,8.3Z"/>
      <path class="cls-9" d="M152.23,50.49c2.69,0,5.37,0,8.36,0,.3,2.69.29,5.38-.04,8.36-2.96.29-5.61.28-8.29-.03-.04-2.98-.04-5.65-.04-8.32,0,0,0,0,0,0Z"/>
      <path class="cls-13" d="M169.48,75.47c-2.67.31-5.31.31-8.59.31,0-2.89,0-5.48,0-8.38,2.71-.31,5.42-.31,8.62-.31,0,2.93,0,5.5-.03,8.38Z"/>
      <path class="cls-13" d="M152.3,59.12c2.65,0,5.29.01,8.24.03.32,2.45.34,4.89.37,7.63-2.68.31-5.36.31-8.35.31-.32,0-.34,0-.33-.3-.04-2.76-.08-5.22-.07-7.68.05,0,.15,0,.15,0Z"/>
      <path class="cls-6" d="M59.05,25.22c-2.67,0-5.35,0-8.33.02-.31-2.69-.31-5.38-.31-8.68,2.86,0,5.42,0,8.28-.02.3-.02.36.04.37.37,0,2.99,0,5.65-.01,8.31,0,0,0,0,0,0Z"/>
      <path class="cls-1" d="M84.37,16.65c2.66-.02,5.33-.05,8.29-.09,11.43,0,22.56,0,34,0,2.98.02,5.64.05,8.6.14.31,2.67.33,5.28.34,8.21,0,.32,0,.35-.32.34-2.99-.01-5.67,0-8.66-.01-5.87,0-11.42,0-17.29-.01-8.54,0-16.77-.01-25-.32.01-2.96.02-5.61.03-8.26Z"/>
      <path class="cls-9" d="M143.71,41.89h8.53c0,2.81,0,5.4,0,8.29,0,.31,0,.31-.31.32-2.96,0-5.62-.01-8.31-.33-.04-2.99-.06-5.67-.04-8.31.04.03.13.03.13.03Z"/>
      <path class="cls-3" d="M135.6,25.21c2.43,0,4.86.04,7.58.11.32,2.68.35,5.32.08,8.25-2.75.28-5.2.26-7.65-.07-.01-2.95-.02-5.59-.02-8.24,0,0,0-.03.01-.05Z"/>
      <path class="cls-15" d="M135.62,33.81c2.44.02,4.89.04,7.64.07.33,2.47.37,4.93.43,7.7.03.31-.07.31-.41.28-2.7-.03-5.06-.03-7.69-.03,0-3.1,0-5.52,0-7.96,0-.03.03-.07.03-.07Z"/>
      <path class="cls-3" d="M67.7,59.56c8.22-.34,16.45-.39,24.98-.43.31,0,.31.04.31.34,0,2.67,0,5.03,0,7.74h8.66c0,3.08,0,5.8-.31,8.53-2.91,0-5.51,0-8.39,0,0,3.3,0,5.95-.3,8.61-2.89.01-5.49.01-8.36.01,0,3.33,0,5.97-.3,8.62-2.97.02-5.63.04-8.29.05v-17.29c-2.68,0-5.03,0-7.69,0-.3,0-.31,0-.31,0,0-5.3,0-10.6,0-16.2Z"/>
      <path class="cls-12" d="M67.7,75.75c0,2.69,0,5.37-.33,8.35-5.79.3-11.26.3-16.94.3v8.59h-8.43v-17.24c8.42,0,16.75,0,25.39,0,.31,0,.32,0,.32,0Z"/>
      <path class="cls-6" d="M50.74,93c-.31-2.65-.31-5.3-.31-8.61,5.68,0,11.15,0,16.92.01.31,2.66.31,5.31.31,8.6-5.66,0-11.14,0-16.92-.01Z"/>
      <path class="cls-6" d="M59.01,109.62c-.02-2.66-.02-5.31-.02-8.64,5.52,0,10.77,0,16.36,0,.33,0,.38.06.37.36-.01,2.98,0,5.66,0,8.34,0,0-.01-.04-.31-.03-5.64.01-10.97.02-16.31.03,0,0-.05-.05-.07-.07Z"/>
      <path class="cls-6" d="M75.69,93.35c2.67-.32,5.33-.33,8.61-.33,3.32.01,6.02.02,8.71.33-.03,2.75-.05,5.19-.38,7.64-2.97.02-5.64.02-8.61.03-2.97.01-5.64.02-8.3.03,0,0-.05-.05-.07-.07,0-2.46.01-4.89.04-7.62Z"/>
      <path class="cls-4" d="M59.07,109.99c5.35-.31,10.69-.32,16.34-.33.32,2.72.32,5.43.32,8.62-5.62,0-10.84,0-16.37,0-.31-2.67-.3-5.32-.28-8.28Z"/>
      <path class="cls-9" d="M118.29,101c0,2.68,0,5.35,0,8.33-2.68.31-5.36.32-8.35.33-.31,0-.3,0-.3-.31,0-2.98,0-5.65.32-8.34,2.98,0,5.66-.01,8.34-.01Z"/>
      <path class="cls-7" d="M118.29,100.69c-2.68.31-5.36.31-8.35,0-.33-5.66-.35-11.01-.36-16.67.02-2.96.02-5.62.03-8.27.02,0,.05,0,.35,0,2.98,0,5.65,0,8.63,0,8.45,0,16.59,0,25,0,0-3.33,0-5.97.31-8.63,2.97,0,5.64,0,8.31-.01,0,0,.02,0,.03,0,0,5.54,0,11.07,0,16.91-8.23.3-16.46.3-25.3.3,0,2.95,0,5.53,0,8.41-2.69.31-5.38.31-8.64.31,0,2.68,0,5.01,0,7.65Z"/>
      <path class="cls-12" d="M92.68,118.29c.31,5.35.31,10.69.31,16.62-2.88,0-5.46,0-8.34,0-.31-5.34-.31-10.68-.31-16.62,2.89,0,5.46,0,8.34,0Z"/>
      <path class="cls-12" d="M84.33,101.01c2.67,0,5.33-.01,8.32.28.33,2.99.33,5.68.34,8.36,0,0,0,0,0,0-2.69,0-5.39,0-8.38-.32-.29-2.98-.29-5.65-.29-8.31Z"/>
      <path class="cls-4" d="M84.03,101.01c.31,2.67.3,5.33.29,8.3-2.68.32-5.34.33-8.3.37-.31-2.66-.31-5.34-.3-8.33,2.68-.31,5.34-.33,8.32-.34Z"/>
      <path class="cls-12" d="M101.69,109.71c-.01,2.66-.02,5.32-.03,8.29-2.68.3-5.36.3-8.35.3-.31-2.68-.31-5.35-.3-8.34,0-.31,0-.3.3-.3,3,.02,5.69.04,8.39.05Z"/>
      <path class="cls-3" d="M84.33,25.21c8.23,0,16.46,0,25,.32.3,5.65.29,10.98-.03,16.31-5.56,0-10.81,0-16.4,0v-7.73h-8.37c-.13,2.58-.24,4.95-.38,7.75h-16.46s0,0,0,0c0-5.33,0-10.66.33-16.3,5.65-.32,10.98-.33,16.31-.33Z"/>
      <path class="cls-11" d="M84.34,24.9c-5.34.31-10.67.32-16.31.33-3,0-5.68,0-8.67-.01-.3-2.66-.29-5.32-.27-8.29,8.23-.31,16.44-.32,24.97-.31.31,2.67.3,5.32.28,8.28Z"/>
      <path class="cls-13" d="M67.7,42.16c5.39-.31,10.78-.31,16.46-.31.14-2.8.25-5.17.38-7.75h8.37v7.73c5.59,0,10.84,0,16.42,0,.32,0,.35,0,.34.31-.01,5.87-.02,11.42-.34,16.98-5.65.01-10.99.03-16.33.04,0,0,0-.03,0-.04,0-2.66,0-5.31,0-8.65-8.38,0-16.52,0-24.97-.02-.32-2.68-.32-5.33-.33-8.3Z"/>
      <path class="cls-1" d="M101.99,109.69c-3,0-5.69-.01-8.69-.03-.31-2.69-.32-5.38-.34-8.38,0-2.75.03-5.19.04-7.94,0-.3,0-.29.32-.29,2.87,0,5.43,0,8.3,0,0-3.27,0-5.96.31-8.67,2.75-.02,5.2-.04,7.64-.05.02,5.35.04,10.71.07,16.37,0,2.99,0,5.66,0,8.64-2.44.31-4.89.32-7.64.34Z"/>
      <path class="cls-17" d="M143.64,50.48c2.66.01,5.31.02,8.27.02.31,2.66.31,5.33.35,8.31.04.31-.06.3-.41.3-2.98,0-5.62,0-8.26-.31.01-2.98.03-5.66.05-8.33Z"/>
      <path class="cls-15" d="M143.6,59.12c2.64,0,5.27,0,8.2,0,.34,2.46.38,4.91.42,7.68-2.67.31-5.34.31-8.63.31-5.83,0-11.05,0-16.65,0,0-3.01,0-5.5.31-7.98,5.66,0,11,0,16.35-.01Z"/>
      <path class="cls-15" d="M109.62,41.85c0-5.33,0-10.66.02-16.31,5.56-.31,11.12-.31,16.98,0,.32,2.97.33,5.63.02,8.3-2.88.01-5.45.01-8.41.01,0,3.05,0,5.53-.3,8.01-2.96-.01-5.62-.01-8.28-.02,0,0-.02,0-.04,0Z"/>
      <path class="cls-17" d="M126.96,33.82c0-2.66-.01-5.31-.02-8.28,2.68-.31,5.36-.31,8.34-.3.31,2.66.32,5.31.33,8.26,0,.3-.01.35-.32.36-2.98,0-5.65-.02-8.32-.04Z"/>
      <path class="cls-8" d="M126.65,33.84c2.98,0,5.65.02,8.63.05.31,2.43.31,4.85.31,7.95,2.62,0,4.99,0,7.65,0,.32,2.68.33,5.35.38,8.34.01,2.98,0,5.66-.02,8.64-5.34.31-10.68.32-16.34.01-.32-2.91-.32-5.5-.32-8.43h-8.69v-16.55c2.96,0,5.53,0,8.41-.01Z"/>
      <path class="cls-1" d="M92.99,59.47c5.34-.32,10.68-.33,16.34-.35.32,0,.34,0,.33.31,0,5.65,0,10.98.01,16.32,0,0-.03,0-.35,0-2.77,0-5.22-.02-7.67-.02v-8.53h-8.66c0-2.71,0-5.07,0-7.74Z"/>
      <path class="cls-5" d="M101.34,75.74c2.76,0,5.21,0,7.96.01.3,2.66.31,5.32.29,8.28-2.46.32-4.91.33-7.97.35-3.28.01-5.94.02-8.62.01-.02-.02-.05-.05-.05-.05v-8.59c2.88,0,5.48,0,8.39,0Z"/>
      <path class="cls-5" d="M93.01,93.04c-2.69,0-5.39-.01-8.4-.04-.31-2.66-.31-5.3-.31-8.63,2.87,0,5.46,0,8.36-.01.3-.01.34.02.35.34.01,3,.01,5.68.01,8.36,0,0-.01-.02,0-.02Z"/>
      <path class="cls-17" d="M117.94,41.86c.3,2.74.3,5.47.3,8.54h8.69c0,2.93,0,5.52,0,8.43,0,2.8,0,5.28,0,8.29,5.6,0,10.82,0,16.34,0,.31,2.65.31,5.3.31,8.63-8.41,0-16.55,0-25-.31-.31-5.56-.31-10.81-.31-16.31h-8.62s-.02,0-.03,0c0-5.55,0-11.11.02-16.97,2.66-.31,5.32-.3,8.29-.29Z"/>
      <path class="cls-3" d="M109.66,59.43c2.66-.31,5.31-.31,8.63-.31,0,5.5,0,10.75,0,16.31-2.67.31-5.34.31-8.32.32-.31-5.33-.32-10.67-.32-16.32Z"/>
      <path class="cls-9" d="M93.32,93.06c-.31-2.68-.31-5.35-.31-8.34,2.67-.31,5.34-.32,8.3-.33.3,2.7.3,5.39.3,8.66-2.87,0-5.43,0-8.3,0Z"/>
    </g>
  </g>
</svg>